<svg version="1" xmlns="http://www.w3.org/2000/svg" width="400" height="400" viewBox="0 0 300 300">
    <path d="M35 150v90h31c35 0 39.3-.6 48.8-6.7 10-6.3 17-15.7 19.8-26.7 2-7.4 2-105.8 0-113.2-4.2-15.8-17.8-29-33.4-32.3-3.2-.4-17.3-1-35.7-1H35v90zm64.7-73.2c6 1.8 13.3 8 16.8 14.3l3 5.7v53c0 51.8 0 53-2 57.6-3.2 6.7-8 11.6-14.3 14.7l-5.7 2.7h-46l-.3-74c0-48.8 0-74 .8-74.5 1.8-1 43.3-.4 47.7.8zm66.8-9.5c0 4.8.4 7.4 1.2 7.7.7.3 18 .5 38.3.5 28.3 0 37 .2 37 1s-1.7 4.6-4 8.7l-21 41.3-26.5 52c-23.2 45.2-27.5 54.3-27.5 58v3.5h101l-.2-7.7-.3-7.7h-39.2c-21.7 0-39.3-.5-39.3-1s7.3-15 16-32.5l52-101c8.6-17 11-22.5 11-25.7v-4h-98.5v7.3z"/>
</svg>
