<svg version="1.1" id="Layer_1" xmlns="http://www.w3.org/2000/svg" xmlns:xlink="http://www.w3.org/1999/xlink" x="0px" y="0px" viewBox="0 0 122.9 98.9" style="enable-background:new 0 0 122.9 98.9" xml:space="preserve"><style type="text/css">.st0{fill-rule:evenodd;clip-rule:evenodd;}</style><g><path class="st0" d="M109,98.9H13.7v-14c0.5-16.3,14.9-28.7,23.6-42.8V29.7h14.5v8.9h19.5v-8.9h14.5v12.4 C95.2,57.2,109,67,109,84.7V98.9L109,98.9z M122.5,42.1c0-2.2,0.4-4.4,0.1-6.8c-10.7,3.5-21.1,2.5-31.3-3.1 c-0.4,3.8,0.2,7.2,1.6,10.4C96.5,50.6,122.2,53.3,122.5,42.1L122.5,42.1z M0.3,42.1c0-2.2-0.4-4.4-0.1-6.8 c10.7,3.5,21.1,2.5,31.3-3.1c0.4,3.8-0.2,7.2-1.6,10.4C26.3,50.6,0.5,53.3,0.3,42.1L0.3,42.1z M0,31.9C8.6-8.2,115.4-13,122.9,32 c-10.4,2.9-21,1.2-31.6-3.6c0.3-2.1-0.2-3.8-1.3-5.2c-6.3-7.9-51.4-8.2-57.2,0.3c-0.9,1.3-1.3,2.9-1.2,4.7 C21.1,34.6,10.5,36.1,0,31.9L0,31.9z M47.2,47.7c2.4,0,4.3,1.9,4.3,4.3c0,2.4-1.9,4.3-4.3,4.3c-2.4,0-4.3-1.9-4.3-4.3 C43,49.7,44.9,47.7,47.2,47.7L47.2,47.7z M74.8,71.7c2.4,0,4.3,1.9,4.3,4.3c0,2.4-1.9,4.3-4.3,4.3c-2.4,0-4.3-1.9-4.3-4.3 C70.5,73.7,72.4,71.7,74.8,71.7L74.8,71.7z M61,71.7c2.4,0,4.3,1.9,4.3,4.3c0,2.4-1.9,4.3-4.3,4.3c-2.4,0-4.3-1.9-4.3-4.3 C56.7,73.7,58.6,71.7,61,71.7L61,71.7z M47.2,71.7c2.4,0,4.3,1.9,4.3,4.3c0,2.4-1.9,4.3-4.3,4.3c-2.4,0-4.3-1.9-4.3-4.3 C43,73.7,44.9,71.7,47.2,71.7L47.2,71.7z M74.8,59.7c2.4,0,4.3,1.9,4.3,4.3c0,2.4-1.9,4.3-4.3,4.3c-2.4,0-4.3-1.9-4.3-4.3 C70.5,61.7,72.4,59.7,74.8,59.7L74.8,59.7z M61,59.7c2.4,0,4.3,1.9,4.3,4.3c0,2.4-1.9,4.3-4.3,4.3c-2.4,0-4.3-1.9-4.3-4.3 C56.7,61.7,58.6,59.7,61,59.7L61,59.7z M47.2,59.7c2.4,0,4.3,1.9,4.3,4.3c0,2.4-1.9,4.3-4.3,4.3c-2.4,0-4.3-1.9-4.3-4.3 C43,61.7,44.9,59.7,47.2,59.7L47.2,59.7z M74.8,47.7c2.4,0,4.3,1.9,4.3,4.3c0,2.4-1.9,4.3-4.3,4.3c-2.4,0-4.3-1.9-4.3-4.3 C70.5,49.7,72.4,47.7,74.8,47.7L74.8,47.7z M61,47.7c2.4,0,4.3,1.9,4.3,4.3c0,2.4-1.9,4.3-4.3,4.3c-2.4,0-4.3-1.9-4.3-4.3 C56.7,49.7,58.6,47.7,61,47.7L61,47.7z"/></g></svg>