<?xml version="1.0" encoding="UTF-8" standalone="no"?>
<svg
   viewBox="0 0 512 512"
   version="1.1"
   id="svg1"
   xmlns="http://www.w3.org/2000/svg"
   xmlns:svg="http://www.w3.org/2000/svg">
  <path
     d="M 309.09471,106 H 96 C 43,106 0,149 0,202 v 214 c 0,53 43,96 96,96 h 222 c 53,0 96,-43 96,-96 V 220.44214 Z M 350,250 v 166 c 0,17.7 -14.3,32 -32,32 H 96 C 78.3,448 64,433.7 64,416 V 202 c 0,-17.7 14.3,-32 32,-32 h 186 v 80 z"
     id="path1-5"
     />
  <path
     d="M 379.5234,406 H 416 c 53,0 96,-43 96,-96 V 114.44214 L 407.09471,0 H 194 C 141,0 98,43 98,96 v 49.7745 l 64,-3.95265 V 96 c 0,-17.7 14.3,-32 32,-32 h 186 v 80 h 68 v 166 c 0,17.7 -14.3,32 -32,32 h -37.6396 z"
     id="path1-5-2"
     />
</svg>
