<?xml version="1.0" encoding="utf-8"?>
<svg version="1.1" xmlns="http://www.w3.org/2000/svg" width="92" height="92" viewBox="0 0 92 92">
<path d="M38.333 3.833q7.008 0 13.402 2.74t11.006 7.352 7.352 11.006 2.74 13.402q0 6.020-1.962 11.53t-5.585 10.003l21.772 21.742q1.108 1.108 1.108 2.725 0 1.647-1.093 2.74t-2.74 1.093q-1.617 0-2.725-1.108l-21.742-21.772q-4.492 3.624-10.003 5.585t-11.53 1.962q-7.008 0-13.402-2.74t-11.006-7.352-7.352-11.006-2.74-13.402 2.74-13.402 7.352-11.006 11.006-7.352 13.402-2.74zM38.333 11.5q-5.451 0-10.422 2.126t-8.565 5.72-5.72 8.565-2.126 10.422 2.126 10.422 5.72 8.565 8.565 5.72 10.422 2.126 10.422-2.126 8.565-5.72 5.72-8.565 2.126-10.422-2.126-10.422-5.72-8.565-8.565-5.72-10.422-2.126z"></path>
</svg>
