<svg xmlns="http://www.w3.org/2000/svg"><symbol viewBox="0 0 24 24" id="icon--event"><title>event</title><path d="M17 12h-5v5h5v-5zM16 1v2H8V1H6v2H5c-1.11 0-1.99.9-1.99 2L3 19a2 2 0 0 0 2 2h14c1.1 0 2-.9 2-2V5c0-1.1-.9-2-2-2h-1V1h-2zm3 18H5V8h14v11z"/><path d="M0 0h24v24H0z" fill="none"/></symbol><symbol viewBox="0 0 24 24" id="icon--graphics"><title>graphics</title><path d="M12 3a9 9 0 0 0 0 18c.83 0 1.5-.67 1.5-1.5 0-.39-.15-.74-.39-1.01-.23-.26-.38-.61-.38-.99 0-.83.67-1.5 1.5-1.5H16c2.76 0 5-2.24 5-5 0-4.42-4.03-8-9-8zm-5.5 9c-.83 0-1.5-.67-1.5-1.5S5.67 9 6.5 9 8 9.67 8 10.5 7.33 12 6.5 12zm3-4C8.67 8 8 7.33 8 6.5S8.67 5 9.5 5s1.5.67 1.5 1.5S10.33 8 9.5 8zm5 0c-.83 0-1.5-.67-1.5-1.5S13.67 5 14.5 5s1.5.67 1.5 1.5S15.33 8 14.5 8zm3 4c-.83 0-1.5-.67-1.5-1.5S16.67 9 17.5 9s1.5.67 1.5 1.5-.67 1.5-1.5 1.5z"/><path d="M0 0h24v24H0z" fill="none"/></symbol><symbol viewBox="0 0 24 24" id="icon--group"><title>group</title><path d="M0 0h24v24H0z" fill="none"/><path d="M16 11c1.66 0 2.99-1.34 2.99-3S17.66 5 16 5c-1.66 0-3 1.34-3 3s1.34 3 3 3zm-8 0c1.66 0 2.99-1.34 2.99-3S9.66 5 8 5C6.34 5 5 6.34 5 8s1.34 3 3 3zm0 2c-2.33 0-7 1.17-7 3.5V19h14v-2.5c0-2.33-4.67-3.5-7-3.5zm8 0c-.29 0-.62.02-.97.05 1.16.84 1.97 1.97 1.97 3.45V19h6v-2.5c0-2.33-4.67-3.5-7-3.5z"/></symbol><symbol viewBox="0 0 24 24" id="icon--music"><title>music</title><path d="M0 0h24v24H0z" fill="none"/><path d="M12 3v9.28a4.39 4.39 0 0 0-1.5-.28C8.01 12 6 14.01 6 16.5S8.01 21 10.5 21c2.31 0 4.2-1.75 4.45-4H15V6h4V3h-7z"/></symbol><symbol viewBox="0 0 24 24" id="icon--production"><title>production</title><path d="M0 0h24v24H0z" fill="none"/><path d="M17 3H5a2 2 0 0 0-2 2v14a2 2 0 0 0 2 2h14c1.1 0 2-.9 2-2V7l-4-4zm-5 16c-1.66 0-3-1.34-3-3s1.34-3 3-3 3 1.34 3 3-1.34 3-3 3zm3-10H5V5h10v4z"/></symbol><symbol viewBox="0 0 24 24" id="icon--scener"><title>scener</title><path d="M12 12c2.21 0 4-1.79 4-4s-1.79-4-4-4-4 1.79-4 4 1.79 4 4 4zm0 2c-2.67 0-8 1.34-8 4v2h16v-2c0-2.66-5.33-4-8-4z"/><path d="M0 0h24v24H0z" fill="none"/></symbol><symbol viewBox="0 0 92 92" id="icon--search"><title>search</title><path d="M38.333 3.833q7.008 0 13.402 2.74t11.006 7.352 7.352 11.006 2.74 13.402q0 6.02-1.962 11.53t-5.585 10.003l21.772 21.742q1.108 1.108 1.108 2.725 0 1.647-1.093 2.74t-2.74 1.093q-1.617 0-2.725-1.108L59.866 65.286q-4.492 3.624-10.003 5.585t-11.53 1.962q-7.008 0-13.402-2.74t-11.006-7.352-7.352-11.006-2.74-13.402 2.74-13.402 7.352-11.006 11.006-7.352 13.402-2.74zm0 7.667q-5.451 0-10.422 2.126t-8.565 5.72-5.72 8.565T11.5 38.333t2.126 10.422 5.72 8.565 8.565 5.72 10.422 2.126 10.422-2.126 8.565-5.72 5.72-8.565 2.126-10.422-2.126-10.422-5.72-8.565-8.565-5.72T38.333 11.5z"/></symbol><symbol viewBox="0 0 24 24" id="icon--zoom_in_white"><title>zoom_in_white</title><path d="M15.5 14h-.79l-.28-.27A6.471 6.471 0 0 0 16 9.5 6.5 6.5 0 1 0 9.5 16c1.61 0 3.09-.59 4.23-1.57l.27.28v.79l5 4.99L20.49 19l-4.99-5zm-6 0C7.01 14 5 11.99 5 9.5S7.01 5 9.5 5 14 7.01 14 9.5 11.99 14 9.5 14z"/><path d="M0 0h24v24H0V0z" fill="none"/><path d="M12 10h-2v2H9v-2H7V9h2V7h1v2h2v1z"/></symbol><symbol viewBox="0 0 24 24" id="icon--zoom_original_white"><title>zoom_original_white</title><path d="M0 0h24v24H0V0z" fill="none"/><path d="M15.5 14h-.79l-.28-.27A6.471 6.471 0 0 0 16 9.5 6.5 6.5 0 1 0 9.5 16c1.61 0 3.09-.59 4.23-1.57l.27.28v.79l5 4.99L20.49 19l-4.99-5zm-6 0C7.01 14 5 11.99 5 9.5S7.01 5 9.5 5 14 7.01 14 9.5 11.99 14 9.5 14zM9 9h1v1H9z"/></symbol><symbol viewBox="0 0 24 24" id="icon--zoom_out_white"><title>zoom_out_white</title><path d="M0 0h24v24H0V0z" fill="none"/><path d="M15.5 14h-.79l-.28-.27A6.471 6.471 0 0 0 16 9.5 6.5 6.5 0 1 0 9.5 16c1.61 0 3.09-.59 4.23-1.57l.27.28v.79l5 4.99L20.49 19l-4.99-5zm-6 0C7.01 14 5 11.99 5 9.5S7.01 5 9.5 5 14 7.01 14 9.5 11.99 14 9.5 14zM7 9h5v1H7z"/></symbol></svg>