<?xml version="1.0" encoding="UTF-8" standalone="no"?>
<svg
   xmlns="http://www.w3.org/2000/svg"
   viewBox="0 0 191.97949 191.97968"
   version="1.1"><defs
     id="defs3456"><radialGradient
       gradientTransform="translate(-0.00150066,-0.02500153)"
       id="SVGID_1_"
       cx="64.495102"
       cy="63.496101"
       r="141.23531"
       gradientUnits="userSpaceOnUse"><stop
         offset="0.3315"
         style="stop-color:#FFFFFF"
         id="stop3435" /><stop
         offset="0.6"
         style="stop-color:#DDDDDD"
         id="stop3437" /><stop
         offset="1"
         style="stop-color:#7E8283"
         id="stop3439" /></radialGradient><radialGradient
       gradientTransform="translate(-0.00150066,-0.02500153)"
       id="SVGID_2_"
       cx="62.508301"
       cy="62.504902"
       r="143.3616"
       gradientUnits="userSpaceOnUse"><stop
         offset="0"
         style="stop-color:#FFFFFF"
         id="stop3444" /><stop
         offset="0.12"
         style="stop-color:#FFE3D2"
         id="stop3446" /><stop
         offset="0.55"
         style="stop-color:#FF0000"
         id="stop3448" /><stop
         offset="1"
         style="stop-color:#4E1E1C"
         id="stop3450" /></radialGradient></defs><circle
     cx="96.001495"
     cy="95.977997"
     r="95.977997"
     id="circle3441"
     style="fill:url(#SVGID_1_)" /><path
     d="m 169.0415,40.618998 c -9.66,-16.801 -24.57,-29.801 -43.38,-35.9199995 -18.82,-6.111 -38.521001,-4.35100003 -56.210001,3.559 l 14.17,4.6009995 c 13.8,-9.1699995 28.580001,-12.52999953 42.040001,-8.1589995 13.46,4.379 23.44,15.7789995 29.21,31.3089995 l 14.17,4.61 z m -35.24,-11.452 c 0.021,-13.66 -2.64,-22.6799995 -8.14,-24.4689995 -5.5,-1.781 -12.96,3.949 -20.97,15.0099995 l 29.11,9.459 z m -14.36,74.420002 c 4.59,-14.129002 8.12,-27.789002 10.52,-40.209002 l -42.270001,-13.74 c -5.36,11.47 -10.53,24.59 -15.13,38.73 L 119.4415,103.587 Z m -57.400001,24.991 c -2.53,13.051 -3.83,24.75 -3.84,34.211 l 29.11,9.459 c 5.55,-7.66 11.38,-17.89 17.000001,-29.93 l -42.270001,-13.74 z m -45.98,20.52 c 11.56,17.42 28.86,31.2 50.28,38.159 21.42,6.961 43.521001,5.98 63.110001,-1.319 l -6.9,-2.239 c -17.689,7.909 -37.390001,9.67 -56.210001,3.559 -18.81,-6.119 -33.72,-19.119 -43.38,-35.92 l -6.9,-2.24 z m 21.07,6.851 c 5.77,15.529 15.75,26.93 29.21,31.309 13.46,4.371 28.24,1.011 42.040001,-8.159 l -21.070001,-6.851 c -8.01,11.061 -15.47,16.791 -20.97,15.01 -5.5,-1.789 -8.16,-10.809 -8.14,-24.469 l -21.07,-6.84 z m -26.269,-43.991 c 1.22,14.26 5.399,27.729 12.1,39.379 l 14.17,4.611 c -4,-10.771 -5.98,-23.531 -5.69,-37.311 l -20.58,-6.679 z M 122.5515,183.699 c 12.271,-5.48 23.57,-13.931 32.94,-24.75 l -20.58,-6.691 c -7.87,11.32 -16.96,20.471 -26.53,26.841 l 14.17,4.6 z M 4.7214993,66.317998 c -4.58999996,14.141 -5.729,28.57 -3.86999996,42.381002 l 10.00999966,3.26 c -1.1599997,-13.590002 0.37,-27.891002 4.96,-42.030002 l -11.0999997,-3.611 z M 165.5015,162.199 c 9.62,-10.08 17.18,-22.421 21.78,-36.561 l -11.1,-3.61 c -4.6,14.14 -11.77,26.61 -20.689,36.921 l 10.009,3.25 z M 38.641499,77.336998 c -4.59,14.141 -6.92,28.190002 -7.2,41.301002 l 30.6,9.939 c 2.4,-12.42 5.93,-26.08 10.52,-40.209002 l -33.92,-11.031 z M 134.9125,152.257 c 7.479,-10.77 13.85,-23.51 18.45,-37.639 l -33.92,-11.031 c -4.6,14.141 -9.77,27.261 -15.13,38.73 l 30.6,9.94 z m 41.269,-30.229 c 4.59,-14.14 6.12,-28.440002 4.96,-42.030002 l -20.58,-6.68 c -0.28,13.11 -2.61,27.160002 -7.2,41.301002 l 22.82,7.409 z M 36.511499,33.006998 c -8.92,10.311 -16.09,22.781 -20.689,36.921 l 22.819,7.409 c 4.601,-14.129 10.971,-26.869 18.45,-37.639 l -20.58,-6.691 z m 124.050001,40.311 c 0.29,-13.779 -1.69,-26.54 -5.69,-37.311 l -21.07,-6.84 c -0.01,9.471 -1.31,21.16 -3.84,34.211 l 30.6,9.94 z m -76.939001,-60.46 c -9.57,6.36 -18.66,15.521 -26.53,26.841 l 30.6,9.939 c 5.62,-12.04 11.44,-22.27 17.000001,-29.93 l -21.070001,-6.85 z m 107.529001,70.399 c -1.95,-14.51 -7.2,-28.329 -15.21,-40.399 l -6.9,-2.239 c 6.7,11.649 10.88,25.119 12.1,39.379 l 10.01,3.259 z M 62.551499,6.0179985 c -13.58,5.0599995 -25.95,13.1489995 -36.05,23.7389995 l 10.01,3.25 c 9.37,-10.819 20.67,-19.27 32.94,-24.7499995 l -6.9,-2.239 z"
     id="path3452"
     style="fill:url(#SVGID_2_)" /></svg>