<svg xmlns="http://www.w3.org/2000/svg" viewBox="0 0 191.98 191.98">
    <defs>
        <radialGradient gradientTransform="translate(0 -.03)" id="a" cx="64.5" cy="63.5" r="141.24" gradientUnits="userSpaceOnUse">
            <stop offset=".33" stop-color="#fff"/>
            <stop offset=".6" stop-color="#ddd"/>
            <stop offset="1" stop-color="#7e8283"/>
        </radialGradient>
        <radialGradient gradientTransform="translate(0 -.03)" id="b" cx="62.51" cy="62.5" r="143.36" gradientUnits="userSpaceOnUse">
            <stop offset="0" stop-color="#fff"/>
            <stop offset=".12" stop-color="#ffe3d2"/>
            <stop offset=".55" stop-color="red"/>
            <stop offset="1" stop-color="#4e1e1c"/>
        </radialGradient>
    </defs>
    <circle cx="96" cy="95.98" r="95.98" fill="url(#a)"/>
    <path d="M169.04 40.62c-9.66-16.8-24.57-29.8-43.38-35.92-18.82-6.11-38.52-4.35-56.2 3.56l14.16 4.6C97.42 3.69 112.2.33 125.66 4.7c13.46 4.38 23.44 15.78 29.21 31.3l14.17 4.62zM133.8 29.17c.02-13.66-2.64-22.68-8.14-24.47-5.5-1.78-12.96 3.95-20.97 15l29.11 9.47zm-14.36 74.42a341.28 341.28 0 0 0 10.52-40.21L87.7 49.64a342.93 342.93 0 0 0-15.13 38.73l46.88 15.22zm-57.4 24.99c-2.53 13.05-3.83 24.75-3.84 34.2l29.11 9.47c5.55-7.66 11.38-17.9 17-29.93l-42.27-13.74zM16.06 149.1a95.56 95.56 0 0 0 50.28 38.16 95.56 95.56 0 0 0 63.11-1.32l-6.9-2.24c-17.69 7.9-37.39 9.67-56.2 3.56-18.82-6.12-33.73-19.12-43.39-35.92l-6.9-2.24zm21.07 6.85c5.77 15.53 15.75 26.93 29.21 31.3 13.46 4.38 28.24 1.02 42.04-8.15l-21.07-6.85c-8 11.06-15.47 16.79-20.97 15-5.5-1.78-8.16-10.8-8.14-24.46l-21.07-6.84zm-26.27-44a95.3 95.3 0 0 0 12.1 39.39l14.17 4.6c-4-10.76-5.98-23.52-5.69-37.3l-20.58-6.68zm111.7 71.75a95.24 95.24 0 0 0 32.93-24.75l-20.58-6.7c-7.87 11.33-16.96 20.48-26.53 26.85l14.17 4.6zM4.71 66.32A95.62 95.62 0 0 0 .85 108.7l10.01 3.26c-1.16-13.6.37-27.9 4.96-42.03l-11.1-3.61zM165.5 162.2a95.64 95.64 0 0 0 21.78-36.56l-11.1-3.61a106.88 106.88 0 0 1-20.69 36.92l10.01 3.25zM38.64 77.34a144.6 144.6 0 0 0-7.2 41.3l30.6 9.94a341.28 341.28 0 0 1 10.52-40.21L38.64 77.34zm96.27 74.92a144.76 144.76 0 0 0 18.45-37.64l-33.92-11.03a342.78 342.78 0 0 1-15.13 38.73l30.6 9.94zm41.27-30.23A106.76 106.76 0 0 0 181.14 80l-20.58-6.68a144.61 144.61 0 0 1-7.2 41.3l22.82 7.4zM36.51 33a106.85 106.85 0 0 0-20.69 36.92l22.82 7.4A144.79 144.79 0 0 1 57.1 39.7L36.51 33zm124.05 40.3c.3-13.77-1.69-26.53-5.69-37.3l-21.07-6.84c0 9.47-1.3 21.16-3.84 34.2l30.6 9.95zM83.62 12.87C74.05 19.22 64.96 28.38 57.1 39.7l30.6 9.94c5.62-12.04 11.44-22.27 17-29.93l-21.07-6.85zm107.53 70.4a96.33 96.33 0 0 0-15.2-40.4l-6.9-2.24A95.3 95.3 0 0 1 181.14 80l10 3.26zM62.55 6.02A96.3 96.3 0 0 0 26.5 29.76L36.51 33A95.25 95.25 0 0 1 69.45 8.26l-6.9-2.24z" fill="url(#b)"/>
</svg>