<svg xmlns="http://www.w3.org/2000/svg" viewBox="0 0 580 580">
    <path d="M0 0h580v580H0z"/>
    <path d="M78.37 507.68h423.26v21.7H78.37zm16.7-41.74h390.7V496H95.07zm-2.51-342.29h388.62v41.74H92.56zM83.38 98.2l11.69 12.93h383.6l11.69-12.94-203.5-47.58zm65.23 199.34c-.33-20.5-.86-41-1.67-61.48-.75-19.3-2-38.59-2.93-57.88-.09-1.67-.8-2.03-2.17-2.33a80.92 80.92 0 0 0-34.33 0c-1.38.3-2.09.66-2.17 2.33-.94 19.3-2.18 38.58-2.94 57.88-.8 20.48-1.33 40.98-1.67 61.48-.23 14.53-.09 29.07.14 43.6.26 16.12.62 32.25 1.27 48.36.7 17.29 1.78 34.56 2.73 51.84.18 3.3.52 6.61.78 9.83a79.32 79.32 0 0 0 19.02 2.7 79.33 79.33 0 0 0 19.03-2.7c.26-3.22.6-6.52.78-9.83.95-17.28 2.03-34.55 2.73-51.84a1949.7 1949.7 0 0 0 1.26-48.36c.23-14.53.38-29.07.14-43.6zm105.81 0c-.33-20.5-.86-41-1.67-61.48-.75-19.3-2-38.59-2.93-57.88-.09-1.67-.79-2.03-2.17-2.33a80.91 80.91 0 0 0-34.33 0c-1.38.3-2.09.66-2.17 2.33-.94 19.3-2.18 38.58-2.94 57.88-.8 20.48-1.33 40.98-1.67 61.48-.23 14.53-.09 29.07.14 43.6.26 16.12.62 32.25 1.27 48.36.7 17.29 1.78 34.56 2.73 51.84.18 3.3.52 6.61.78 9.83a79.33 79.33 0 0 0 19.02 2.7 79.33 79.33 0 0 0 19.03-2.7c.26-3.22.6-6.52.78-9.83.95-17.28 2.03-34.55 2.73-51.84.65-16.11 1-32.24 1.26-48.36.23-14.53.38-29.07.14-43.6zm122.72 0c-.34-20.5-.87-41-1.67-61.48-.76-19.3-2-38.59-2.94-57.88-.08-1.67-.79-2.03-2.17-2.33a80.9 80.9 0 0 0-34.32 0c-1.39.3-2.1.66-2.17 2.33-.94 19.3-2.19 38.58-2.94 57.88-.8 20.48-1.34 40.98-1.67 61.48-.24 14.53-.09 29.07.14 43.6.25 16.12.61 32.25 1.26 48.36.7 17.29 1.79 34.56 2.74 51.84.18 3.3.52 6.61.77 9.83a79.33 79.33 0 0 0 19.03 2.7 79.33 79.33 0 0 0 19.02-2.7c.26-3.22.6-6.52.78-9.83.95-17.28 2.03-34.55 2.73-51.84.66-16.11 1.01-32.24 1.27-48.36.23-14.53.38-29.07.14-43.6zm103.3 0c-.33-20.5-.86-41-1.66-61.48-.76-19.3-2-38.59-2.94-57.88-.09-1.67-.79-2.03-2.17-2.33a80.9 80.9 0 0 0-34.33 0c-1.38.3-2.09.66-2.17 2.33-.94 19.3-2.18 38.58-2.94 57.88-.8 20.48-1.33 40.98-1.67 61.48-.23 14.53-.09 29.07.14 43.6.26 16.12.62 32.25 1.27 48.36.7 17.29 1.78 34.56 2.73 51.84.18 3.3.52 6.61.78 9.83a79.34 79.34 0 0 0 19.02 2.7 79.32 79.32 0 0 0 19.03-2.7c.26-3.22.6-6.52.78-9.83.95-17.28 2.03-34.55 2.73-51.84a1949.7 1949.7 0 0 0 1.26-48.36c.23-14.53.38-29.07.14-43.6z" fill="#fff"/>
</svg>