<?xml version="1.0" encoding="UTF-8" standalone="no"?>
<svg xmlns="http://www.w3.org/2000/svg" version="1.1" viewBox="0 0 16 16">
  <path
     style="fill:#aa00aa"
     d="M 4 4 L 4 5 L 4 6 L 5 6 L 6 6 L 7 6 L 8 6 L 9 6 L 10 6 L 10 7 L 10 8 L 9 8 L 8 8 L 7 8 L 6 8 L 5 8 L 4 8 L 4 9 L 4 10 L 3 10 L 2 10 L 2 11 L 2 12 L 3 12 L 4 12 L 4 13 L 4 14 L 5 14 L 6 14 L 7 14 L 8 14 L 9 14 L 10 14 L 11 14 L 12 14 L 13 14 L 14 14 L 14 13 L 14 12 L 14 11 L 14 10 L 14 9 L 14 8 L 14 7 L 14 6 L 13 6 L 12 6 L 12 5 L 12 4 L 11 4 L 10 4 L 9 4 L 8 4 L 7 4 L 6 4 L 5 4 L 4 4 z M 6 10 L 7 10 L 8 10 L 9 10 L 10 10 L 10 11 L 10 12 L 9 12 L 8 12 L 7 12 L 6 12 L 6 11 L 6 10 z " />
</svg>
