<?xml version="1.0" encoding="utf-8" ?>
<svg baseProfile="full" height="16px" version="1.1" width="16px" xmlns="http://www.w3.org/2000/svg" xmlns:ev="http://www.w3.org/2001/xml-events" xmlns:xlink="http://www.w3.org/1999/xlink"><defs /><rect fill="rgb(71,57,18)" height="1px" width="1px" x="0px" y="0px" /><rect fill="rgb(71,57,18)" height="1px" width="1px" x="1px" y="0px" /><rect fill="rgb(71,57,19)" height="1px" width="1px" x="2px" y="0px" /><rect fill="rgb(71,57,19)" height="1px" width="1px" x="3px" y="0px" /><rect fill="rgb(71,57,19)" height="1px" width="1px" x="4px" y="0px" /><rect fill="rgb(71,57,20)" height="1px" width="1px" x="5px" y="0px" /><rect fill="rgb(72,59,20)" height="1px" width="1px" x="6px" y="0px" /><rect fill="rgb(71,59,19)" height="1px" width="1px" x="7px" y="0px" /><rect fill="rgb(72,59,17)" height="1px" width="1px" x="8px" y="0px" /><rect fill="rgb(71,58,18)" height="1px" width="1px" x="9px" y="0px" /><rect fill="rgb(72,58,18)" height="1px" width="1px" x="10px" y="0px" /><rect fill="rgb(72,58,22)" height="1px" width="1px" x="11px" y="0px" /><rect fill="rgb(72,59,22)" height="1px" width="1px" x="12px" y="0px" /><rect fill="rgb(72,58,22)" height="1px" width="1px" x="13px" y="0px" /><rect fill="rgb(72,59,22)" height="1px" width="1px" x="14px" y="0px" /><rect fill="rgb(71,59,22)" height="1px" width="1px" x="15px" y="0px" /><rect fill="rgb(78,62,17)" height="1px" width="1px" x="0px" y="1px" /><rect fill="rgb(79,63,18)" height="1px" width="1px" x="1px" y="1px" /><rect fill="rgb(79,63,19)" height="1px" width="1px" x="2px" y="1px" /><rect fill="rgb(79,63,20)" height="1px" width="1px" x="3px" y="1px" /><rect fill="rgb(79,63,19)" height="1px" width="1px" x="4px" y="1px" /><rect fill="rgb(79,63,19)" height="1px" width="1px" x="5px" y="1px" /><rect fill="rgb(79,64,19)" height="1px" width="1px" x="6px" y="1px" /><rect fill="rgb(79,64,21)" height="1px" width="1px" x="7px" y="1px" /><rect fill="rgb(81,63,21)" height="1px" width="1px" x="8px" y="1px" /><rect fill="rgb(79,63,23)" height="1px" width="1px" x="9px" y="1px" /><rect fill="rgb(78,65,17)" height="1px" width="1px" x="10px" y="1px" /><rect fill="rgb(80,64,21)" height="1px" width="1px" x="11px" y="1px" /><rect fill="rgb(81,64,21)" height="1px" width="1px" x="12px" y="1px" /><rect fill="rgb(80,64,21)" height="1px" width="1px" x="13px" y="1px" /><rect fill="rgb(79,64,20)" height="1px" width="1px" x="14px" y="1px" /><rect fill="rgb(81,66,21)" height="1px" width="1px" x="15px" y="1px" /><rect fill="rgb(84,66,16)" height="1px" width="1px" x="0px" y="2px" /><rect fill="rgb(84,66,17)" height="1px" width="1px" x="1px" y="2px" /><rect fill="rgb(84,67,17)" height="1px" width="1px" x="2px" y="2px" /><rect fill="rgb(84,68,17)" height="1px" width="1px" x="3px" y="2px" /><rect fill="rgb(84,67,17)" height="1px" width="1px" x="4px" y="2px" /><rect fill="rgb(84,67,16)" height="1px" width="1px" x="5px" y="2px" /><rect fill="rgb(89,69,16)" height="1px" width="1px" x="6px" y="2px" /><rect fill="rgb(161,140,49)" height="1px" width="1px" x="7px" y="2px" /><rect fill="rgb(188,167,74)" height="1px" width="1px" x="8px" y="2px" /><rect fill="rgb(105,83,21)" height="1px" width="1px" x="9px" y="2px" /><rect fill="rgb(84,66,17)" height="1px" width="1px" x="10px" y="2px" /><rect fill="rgb(84,67,18)" height="1px" width="1px" x="11px" y="2px" /><rect fill="rgb(86,69,19)" height="1px" width="1px" x="12px" y="2px" /><rect fill="rgb(86,69,20)" height="1px" width="1px" x="13px" y="2px" /><rect fill="rgb(86,69,23)" height="1px" width="1px" x="14px" y="2px" /><rect fill="rgb(87,69,20)" height="1px" width="1px" x="15px" y="2px" /><rect fill="rgb(84,68,15)" height="1px" width="1px" x="0px" y="3px" /><rect fill="rgb(84,68,14)" height="1px" width="1px" x="1px" y="3px" /><rect fill="rgb(83,68,15)" height="1px" width="1px" x="2px" y="3px" /><rect fill="rgb(85,68,11)" height="1px" width="1px" x="3px" y="3px" /><rect fill="rgb(85,68,17)" height="1px" width="1px" x="4px" y="3px" /><rect fill="rgb(85,70,9)" height="1px" width="1px" x="5px" y="3px" /><rect fill="rgb(124,99,24)" height="1px" width="1px" x="6px" y="3px" /><rect fill="rgb(204,177,61)" height="1px" width="1px" x="7px" y="3px" /><rect fill="rgb(197,167,49)" height="1px" width="1px" x="8px" y="3px" /><rect fill="rgb(164,137,45)" height="1px" width="1px" x="9px" y="3px" /><rect fill="rgb(81,65,10)" height="1px" width="1px" x="10px" y="3px" /><rect fill="rgb(84,67,15)" height="1px" width="1px" x="11px" y="3px" /><rect fill="rgb(86,70,17)" height="1px" width="1px" x="12px" y="3px" /><rect fill="rgb(87,72,14)" height="1px" width="1px" x="13px" y="3px" /><rect fill="rgb(87,72,15)" height="1px" width="1px" x="14px" y="3px" /><rect fill="rgb(90,72,17)" height="1px" width="1px" x="15px" y="3px" /><rect fill="rgb(80,63,11)" height="1px" width="1px" x="0px" y="4px" /><rect fill="rgb(81,63,12)" height="1px" width="1px" x="1px" y="4px" /><rect fill="rgb(80,64,11)" height="1px" width="1px" x="2px" y="4px" /><rect fill="rgb(82,64,8)" height="1px" width="1px" x="3px" y="4px" /><rect fill="rgb(82,65,11)" height="1px" width="1px" x="4px" y="4px" /><rect fill="rgb(84,66,10)" height="1px" width="1px" x="5px" y="4px" /><rect fill="rgb(159,134,41)" height="1px" width="1px" x="6px" y="4px" /><rect fill="rgb(198,170,63)" height="1px" width="1px" x="7px" y="4px" /><rect fill="rgb(179,149,45)" height="1px" width="1px" x="8px" y="4px" /><rect fill="rgb(194,167,63)" height="1px" width="1px" x="9px" y="4px" /><rect fill="rgb(79,62,9)" height="1px" width="1px" x="10px" y="4px" /><rect fill="rgb(70,56,10)" height="1px" width="1px" x="11px" y="4px" /><rect fill="rgb(77,63,9)" height="1px" width="1px" x="12px" y="4px" /><rect fill="rgb(83,67,8)" height="1px" width="1px" x="13px" y="4px" /><rect fill="rgb(84,67,11)" height="1px" width="1px" x="14px" y="4px" /><rect fill="rgb(85,66,17)" height="1px" width="1px" x="15px" y="4px" /><rect fill="rgb(82,65,7)" height="1px" width="1px" x="0px" y="5px" /><rect fill="rgb(82,65,7)" height="1px" width="1px" x="1px" y="5px" /><rect fill="rgb(82,66,8)" height="1px" width="1px" x="2px" y="5px" /><rect fill="rgb(83,65,8)" height="1px" width="1px" x="3px" y="5px" /><rect fill="rgb(83,66,9)" height="1px" width="1px" x="4px" y="5px" /><rect fill="rgb(93,72,13)" height="1px" width="1px" x="5px" y="5px" /><rect fill="rgb(195,168,65)" height="1px" width="1px" x="6px" y="5px" /><rect fill="rgb(179,154,60)" height="1px" width="1px" x="7px" y="5px" /><rect fill="rgb(133,108,35)" height="1px" width="1px" x="8px" y="5px" /><rect fill="rgb(203,177,71)" height="1px" width="1px" x="9px" y="5px" /><rect fill="rgb(108,89,27)" height="1px" width="1px" x="10px" y="5px" /><rect fill="rgb(59,47,6)" height="1px" width="1px" x="11px" y="5px" /><rect fill="rgb(72,58,7)" height="1px" width="1px" x="12px" y="5px" /><rect fill="rgb(81,64,5)" height="1px" width="1px" x="13px" y="5px" /><rect fill="rgb(83,64,8)" height="1px" width="1px" x="14px" y="5px" /><rect fill="rgb(83,64,10)" height="1px" width="1px" x="15px" y="5px" /><rect fill="rgb(86,67,7)" height="1px" width="1px" x="0px" y="6px" /><rect fill="rgb(86,67,8)" height="1px" width="1px" x="1px" y="6px" /><rect fill="rgb(85,68,8)" height="1px" width="1px" x="2px" y="6px" /><rect fill="rgb(86,67,7)" height="1px" width="1px" x="3px" y="6px" /><rect fill="rgb(86,67,10)" height="1px" width="1px" x="4px" y="6px" /><rect fill="rgb(127,104,29)" height="1px" width="1px" x="5px" y="6px" /><rect fill="rgb(209,178,81)" height="1px" width="1px" x="6px" y="6px" /><rect fill="rgb(142,120,45)" height="1px" width="1px" x="7px" y="6px" /><rect fill="rgb(91,71,16)" height="1px" width="1px" x="8px" y="6px" /><rect fill="rgb(199,173,76)" height="1px" width="1px" x="9px" y="6px" /><rect fill="rgb(159,137,62)" height="1px" width="1px" x="10px" y="6px" /><rect fill="rgb(55,40,1)" height="1px" width="1px" x="11px" y="6px" /><rect fill="rgb(70,54,9)" height="1px" width="1px" x="12px" y="6px" /><rect fill="rgb(80,63,7)" height="1px" width="1px" x="13px" y="6px" /><rect fill="rgb(84,66,7)" height="1px" width="1px" x="14px" y="6px" /><rect fill="rgb(85,66,8)" height="1px" width="1px" x="15px" y="6px" /><rect fill="rgb(83,66,7)" height="1px" width="1px" x="0px" y="7px" /><rect fill="rgb(83,65,8)" height="1px" width="1px" x="1px" y="7px" /><rect fill="rgb(84,66,6)" height="1px" width="1px" x="2px" y="7px" /><rect fill="rgb(81,66,6)" height="1px" width="1px" x="3px" y="7px" /><rect fill="rgb(82,66,7)" height="1px" width="1px" x="4px" y="7px" /><rect fill="rgb(167,143,57)" height="1px" width="1px" x="5px" y="7px" /><rect fill="rgb(208,176,84)" height="1px" width="1px" x="6px" y="7px" /><rect fill="rgb(104,83,27)" height="1px" width="1px" x="7px" y="7px" /><rect fill="rgb(60,47,5)" height="1px" width="1px" x="8px" y="7px" /><rect fill="rgb(178,153,69)" height="1px" width="1px" x="9px" y="7px" /><rect fill="rgb(202,174,90)" height="1px" width="1px" x="10px" y="7px" /><rect fill="rgb(70,52,10)" height="1px" width="1px" x="11px" y="7px" /><rect fill="rgb(65,51,6)" height="1px" width="1px" x="12px" y="7px" /><rect fill="rgb(80,61,5)" height="1px" width="1px" x="13px" y="7px" /><rect fill="rgb(84,66,7)" height="1px" width="1px" x="14px" y="7px" /><rect fill="rgb(86,68,8)" height="1px" width="1px" x="15px" y="7px" /><rect fill="rgb(84,67,8)" height="1px" width="1px" x="0px" y="8px" /><rect fill="rgb(84,67,8)" height="1px" width="1px" x="1px" y="8px" /><rect fill="rgb(85,66,5)" height="1px" width="1px" x="2px" y="8px" /><rect fill="rgb(84,66,8)" height="1px" width="1px" x="3px" y="8px" /><rect fill="rgb(98,78,12)" height="1px" width="1px" x="4px" y="8px" /><rect fill="rgb(198,172,88)" height="1px" width="1px" x="5px" y="8px" /><rect fill="rgb(188,164,84)" height="1px" width="1px" x="6px" y="8px" /><rect fill="rgb(69,55,7)" height="1px" width="1px" x="7px" y="8px" /><rect fill="rgb(50,42,1)" height="1px" width="1px" x="8px" y="8px" /><rect fill="rgb(138,120,48)" height="1px" width="1px" x="9px" y="8px" /><rect fill="rgb(208,184,94)" height="1px" width="1px" x="10px" y="8px" /><rect fill="rgb(113,95,39)" height="1px" width="1px" x="11px" y="8px" /><rect fill="rgb(61,50,3)" height="1px" width="1px" x="12px" y="8px" /><rect fill="rgb(77,59,3)" height="1px" width="1px" x="13px" y="8px" /><rect fill="rgb(86,67,5)" height="1px" width="1px" x="14px" y="8px" /><rect fill="rgb(89,70,5)" height="1px" width="1px" x="15px" y="8px" /><rect fill="rgb(92,73,9)" height="1px" width="1px" x="0px" y="9px" /><rect fill="rgb(92,72,10)" height="1px" width="1px" x="1px" y="9px" /><rect fill="rgb(91,72,9)" height="1px" width="1px" x="2px" y="9px" /><rect fill="rgb(90,72,8)" height="1px" width="1px" x="3px" y="9px" /><rect fill="rgb(135,112,36)" height="1px" width="1px" x="4px" y="9px" /><rect fill="rgb(207,186,105)" height="1px" width="1px" x="5px" y="9px" /><rect fill="rgb(224,213,149)" height="1px" width="1px" x="6px" y="9px" /><rect fill="rgb(224,218,165)" height="1px" width="1px" x="7px" y="9px" /><rect fill="rgb(223,216,168)" height="1px" width="1px" x="8px" y="9px" /><rect fill="rgb(222,212,155)" height="1px" width="1px" x="9px" y="9px" /><rect fill="rgb(212,194,115)" height="1px" width="1px" x="10px" y="9px" /><rect fill="rgb(163,144,70)" height="1px" width="1px" x="11px" y="9px" /><rect fill="rgb(65,49,5)" height="1px" width="1px" x="12px" y="9px" /><rect fill="rgb(79,62,7)" height="1px" width="1px" x="13px" y="9px" /><rect fill="rgb(95,75,7)" height="1px" width="1px" x="14px" y="9px" /><rect fill="rgb(100,79,9)" height="1px" width="1px" x="15px" y="9px" /><rect fill="rgb(100,79,12)" height="1px" width="1px" x="0px" y="10px" /><rect fill="rgb(100,79,12)" height="1px" width="1px" x="1px" y="10px" /><rect fill="rgb(98,79,13)" height="1px" width="1px" x="2px" y="10px" /><rect fill="rgb(96,79,10)" height="1px" width="1px" x="3px" y="10px" /><rect fill="rgb(169,149,68)" height="1px" width="1px" x="4px" y="10px" /><rect fill="rgb(217,200,121)" height="1px" width="1px" x="5px" y="10px" /><rect fill="rgb(252,248,184)" height="1px" width="1px" x="6px" y="10px" /><rect fill="rgb(253,253,186)" height="1px" width="1px" x="7px" y="10px" /><rect fill="rgb(253,252,193)" height="1px" width="1px" x="8px" y="10px" /><rect fill="rgb(253,251,191)" height="1px" width="1px" x="9px" y="10px" /><rect fill="rgb(235,222,149)" height="1px" width="1px" x="10px" y="10px" /><rect fill="rgb(199,176,96)" height="1px" width="1px" x="11px" y="10px" /><rect fill="rgb(80,62,12)" height="1px" width="1px" x="12px" y="10px" /><rect fill="rgb(80,66,10)" height="1px" width="1px" x="13px" y="10px" /><rect fill="rgb(105,82,11)" height="1px" width="1px" x="14px" y="10px" /><rect fill="rgb(112,89,13)" height="1px" width="1px" x="15px" y="10px" /><rect fill="rgb(104,81,12)" height="1px" width="1px" x="0px" y="11px" /><rect fill="rgb(103,81,12)" height="1px" width="1px" x="1px" y="11px" /><rect fill="rgb(103,80,11)" height="1px" width="1px" x="2px" y="11px" /><rect fill="rgb(111,89,19)" height="1px" width="1px" x="3px" y="11px" /><rect fill="rgb(193,170,92)" height="1px" width="1px" x="4px" y="11px" /><rect fill="rgb(191,168,94)" height="1px" width="1px" x="5px" y="11px" /><rect fill="rgb(116,100,46)" height="1px" width="1px" x="6px" y="11px" /><rect fill="rgb(102,88,43)" height="1px" width="1px" x="7px" y="11px" /><rect fill="rgb(97,88,46)" height="1px" width="1px" x="8px" y="11px" /><rect fill="rgb(101,93,40)" height="1px" width="1px" x="9px" y="11px" /><rect fill="rgb(157,135,73)" height="1px" width="1px" x="10px" y="11px" /><rect fill="rgb(205,180,104)" height="1px" width="1px" x="11px" y="11px" /><rect fill="rgb(112,94,37)" height="1px" width="1px" x="12px" y="11px" /><rect fill="rgb(75,61,7)" height="1px" width="1px" x="13px" y="11px" /><rect fill="rgb(102,79,11)" height="1px" width="1px" x="14px" y="11px" /><rect fill="rgb(113,88,11)" height="1px" width="1px" x="15px" y="11px" /><rect fill="rgb(99,79,8)" height="1px" width="1px" x="0px" y="12px" /><rect fill="rgb(98,80,8)" height="1px" width="1px" x="1px" y="12px" /><rect fill="rgb(98,79,7)" height="1px" width="1px" x="2px" y="12px" /><rect fill="rgb(118,98,25)" height="1px" width="1px" x="3px" y="12px" /><rect fill="rgb(213,194,118)" height="1px" width="1px" x="4px" y="12px" /><rect fill="rgb(173,154,87)" height="1px" width="1px" x="5px" y="12px" /><rect fill="rgb(67,51,3)" height="1px" width="1px" x="6px" y="12px" /><rect fill="rgb(53,42,0)" height="1px" width="1px" x="7px" y="12px" /><rect fill="rgb(53,42,2)" height="1px" width="1px" x="8px" y="12px" /><rect fill="rgb(58,45,1)" height="1px" width="1px" x="9px" y="12px" /><rect fill="rgb(118,100,44)" height="1px" width="1px" x="10px" y="12px" /><rect fill="rgb(218,199,127)" height="1px" width="1px" x="11px" y="12px" /><rect fill="rgb(132,116,61)" height="1px" width="1px" x="12px" y="12px" /><rect fill="rgb(67,51,6)" height="1px" width="1px" x="13px" y="12px" /><rect fill="rgb(86,69,7)" height="1px" width="1px" x="14px" y="12px" /><rect fill="rgb(100,79,8)" height="1px" width="1px" x="15px" y="12px" /><rect fill="rgb(99,79,8)" height="1px" width="1px" x="0px" y="13px" /><rect fill="rgb(99,79,8)" height="1px" width="1px" x="1px" y="13px" /><rect fill="rgb(99,80,6)" height="1px" width="1px" x="2px" y="13px" /><rect fill="rgb(101,81,8)" height="1px" width="1px" x="3px" y="13px" /><rect fill="rgb(156,139,67)" height="1px" width="1px" x="4px" y="13px" /><rect fill="rgb(109,92,32)" height="1px" width="1px" x="5px" y="13px" /><rect fill="rgb(64,49,3)" height="1px" width="1px" x="6px" y="13px" /><rect fill="rgb(60,47,2)" height="1px" width="1px" x="7px" y="13px" /><rect fill="rgb(68,53,6)" height="1px" width="1px" x="8px" y="13px" /><rect fill="rgb(75,59,6)" height="1px" width="1px" x="9px" y="13px" /><rect fill="rgb(86,68,9)" height="1px" width="1px" x="10px" y="13px" /><rect fill="rgb(150,135,73)" height="1px" width="1px" x="11px" y="13px" /><rect fill="rgb(82,68,18)" height="1px" width="1px" x="12px" y="13px" /><rect fill="rgb(64,51,4)" height="1px" width="1px" x="13px" y="13px" /><rect fill="rgb(79,65,4)" height="1px" width="1px" x="14px" y="13px" /><rect fill="rgb(94,75,6)" height="1px" width="1px" x="15px" y="13px" /><rect fill="rgb(104,82,11)" height="1px" width="1px" x="0px" y="14px" /><rect fill="rgb(105,82,11)" height="1px" width="1px" x="1px" y="14px" /><rect fill="rgb(104,83,10)" height="1px" width="1px" x="2px" y="14px" /><rect fill="rgb(103,82,10)" height="1px" width="1px" x="3px" y="14px" /><rect fill="rgb(99,79,10)" height="1px" width="1px" x="4px" y="14px" /><rect fill="rgb(87,69,9)" height="1px" width="1px" x="5px" y="14px" /><rect fill="rgb(72,55,6)" height="1px" width="1px" x="6px" y="14px" /><rect fill="rgb(74,58,5)" height="1px" width="1px" x="7px" y="14px" /><rect fill="rgb(86,68,9)" height="1px" width="1px" x="8px" y="14px" /><rect fill="rgb(94,75,10)" height="1px" width="1px" x="9px" y="14px" /><rect fill="rgb(95,77,11)" height="1px" width="1px" x="10px" y="14px" /><rect fill="rgb(88,71,11)" height="1px" width="1px" x="11px" y="14px" /><rect fill="rgb(75,60,7)" height="1px" width="1px" x="12px" y="14px" /><rect fill="rgb(73,59,4)" height="1px" width="1px" x="13px" y="14px" /><rect fill="rgb(83,69,5)" height="1px" width="1px" x="14px" y="14px" /><rect fill="rgb(97,78,9)" height="1px" width="1px" x="15px" y="14px" /><rect fill="rgb(107,85,12)" height="1px" width="1px" x="0px" y="15px" /><rect fill="rgb(108,84,12)" height="1px" width="1px" x="1px" y="15px" /><rect fill="rgb(107,85,11)" height="1px" width="1px" x="2px" y="15px" /><rect fill="rgb(107,84,13)" height="1px" width="1px" x="3px" y="15px" /><rect fill="rgb(105,82,11)" height="1px" width="1px" x="4px" y="15px" /><rect fill="rgb(97,76,9)" height="1px" width="1px" x="5px" y="15px" /><rect fill="rgb(87,68,10)" height="1px" width="1px" x="6px" y="15px" /><rect fill="rgb(90,71,11)" height="1px" width="1px" x="7px" y="15px" /><rect fill="rgb(100,79,10)" height="1px" width="1px" x="8px" y="15px" /><rect fill="rgb(105,83,11)" height="1px" width="1px" x="9px" y="15px" /><rect fill="rgb(103,84,12)" height="1px" width="1px" x="10px" y="15px" /><rect fill="rgb(99,80,13)" height="1px" width="1px" x="11px" y="15px" /><rect fill="rgb(92,72,13)" height="1px" width="1px" x="12px" y="15px" /><rect fill="rgb(89,72,8)" height="1px" width="1px" x="13px" y="15px" /><rect fill="rgb(93,76,8)" height="1px" width="1px" x="14px" y="15px" /><rect fill="rgb(102,82,12)" height="1px" width="1px" x="15px" y="15px" /></svg>