<svg xmlns="http://www.w3.org/2000/svg" viewBox="0 0 16 16">
    <path d="M4 15h2v-2H4v2zm6 0h2v-2h-2v2zm0-12v2H6V3H4v2H2v2H0v2h2v4h2v-2h8v2h2V9h2V7h-2V5h-2V3h-2zm0 4h2v2h-2V7zM4 7h2v2H4V7zm10-6h-2v2h2V1zM4 1H2v2h2V1z" fill="#fff"/>
    <path d="M14 9v4h-2v2h-2v-2h2v-2H4v2H2V9H0v1h1v4h2v2h4v-4h2v4h4v-2h2v-4h1V9h-2zm-8 6H4v-2h2v2zm6-8h-2v2h2V7zM6 7H4v2h2V7zm6-4v2h2v2h2V6h-1V4h-1V3h-2zM2 3v1H1v2H0v1h2V5h2V3H2z"/>
    <path d="M11 0v2H9v2H7V2H5V0H1v3h1V1h2v2h2v2h4V3h2V1h2v2h1V0h-4z"/>
    <path d="M0 10v6h3v-2H1v-4H0zm7 6h2v-4H7v4zm8-6v4h-2v2h3v-6h-1zM0 0v6h1V4h1V3H1V0H0zm15 0v3h-1v1h1v2h1V0h-1zM5 0v2h2v2h2V2h2V0H5z" fill="gray"/>
</svg>