<?xml version="1.0" encoding="UTF-8" standalone="no"?>
<svg
   xmlns="http://www.w3.org/2000/svg"
   viewBox="0 0 16 16"
   version="1.1"
   id="svg4156">
    <g
     transform="matrix(1.25,0,0,-1.25,0,16)"
     id="g4164"><path
       id="path4166"
       style="fill:#ffffff;fill-opacity:1;fill-rule:nonzero;stroke:none"
       d="m 3.19978,0.79999 1.59991,0 0,1.59998 -1.59991,0 0,-1.59998 z" /><path
       id="path4168"
       style="fill:#ffffff;fill-opacity:1;fill-rule:nonzero;stroke:none"
       d="m 7.99951,0.79999 1.59991,0 0,1.59998 -1.59991,0 0,-1.59998 z" /><g
       transform="matrix(0.799955,0,0,0.79999,7.99943,10.39955)"
       id="g4170"><path
         id="path4172"
         style="fill:#ffffff;fill-opacity:1;fill-rule:nonzero;stroke:none"
         d="m 0,0 0,-2 -4,0 0,2 -2,0 0,-2 -2,0 0,-2 -2,0 0,-1.999 2,0 0,-4.001 2,0 0,2.001 8,0 0,-2.001 2.001,0 0,4.001 1.999,0 0,1.999 -1.999,0 0,2 L 2,-2 2,0 0,0 Z m 0,-4 2,0 0,-2 -2,0 0,2 z m -6,0 2.001,0 0,-2 -2.001,0 0,2 z" /></g><path
       id="path4174"
       style="fill:#ffffff;fill-opacity:1;fill-rule:nonzero;stroke:none"
       d="m 11.19933,11.99985 -1.59991,0 0,-1.59998 1.59991,0 0,1.59998 z" /><path
       id="path4176"
       style="fill:#ffffff;fill-opacity:1;fill-rule:nonzero;stroke:none"
       d="m 3.19978,11.99985 -1.59991,0 0,-1.59998 1.59991,0 0,1.59998 z" /><g
       transform="matrix(0.799955,0,0,0.79999,11.19965,5.60009)"
       id="g4178"><path
         id="path4180"
         style="fill:#000000;fill-opacity:1;fill-rule:nonzero;stroke:none"
         d="m 0,0 0,-4.001 -2.001,0 0,-1.999 -2,0 0,1.999 2,0 0,2.001 -8,0 0,-2.001 -2,0 0,4.001 -1.999,0 0,-1 0.999,0 0,-4 2,0 0,-2 4.001,0 0,3.999 2,0 0,-3.999 3.999,0 0,2 2.001,0 0,4 1,0 0,1 -2,0 z m -8,-6 -2.001,0 0,2 2.001,0 0,-2 z" /></g><path
       id="path4182"
       style="fill:#000000;fill-opacity:1;fill-rule:nonzero;stroke:none"
       d="m 9.59942,7.19991 -1.59991,0 0,-1.59998 1.59991,0 0,1.59998 z" /><path
       id="path4184"
       style="fill:#000000;fill-opacity:1;fill-rule:nonzero;stroke:none"
       d="m 4.79969,7.19991 -1.59991,0 0,-1.59998 1.59991,0 0,1.59998 z" /><g
       transform="matrix(0.799955,0,0,0.79999,9.59918,10.39955)"
       id="g4186"><path
         id="path4188"
         style="fill:#000000;fill-opacity:1;fill-rule:nonzero;stroke:none"
         d="m 0,0 0,-2 2.001,0 0,-2 2,0 0,1 -1,0 0,2 -1,0 0,1 L 0,0 Z" /></g><g
       transform="matrix(0.799955,0,0,0.79999,1.59971,10.39955)"
       id="g4190"><path
         id="path4192"
         style="fill:#000000;fill-opacity:1;fill-rule:nonzero;stroke:none"
         d="m 0,0 0,-1 -1,0 0,-2 -1,0 0,-1 2,0 0,2 2,0 0,2 -2,0 z" /></g><g
       transform="matrix(0.799955,0,0,0.79999,8.799305,12.8)"
       id="g4194"><path
         id="path4196"
         style="fill:#000000;fill-opacity:1;fill-rule:nonzero;stroke:none"
         d="m 0,0 0,-2 -2,0 0,-2.001 -2,0 0,2.001 -1.999,0 0,2 -4.001,0 0,-3.001 1,0 0,2.001 2,0 0,-2.001 2.001,0 0,-1.999 3.999,0 0,1.999 2,0 0,2.001 2.001,0 0,-2.001 1,0 L 4.001,0 0,0 Z" /></g><g
       transform="matrix(0.799955,0,0,0.79999,-4.0008999e-5,4.80018)"
       id="g4198"><path
         id="path4200"
         style="fill:#808080;fill-opacity:1;fill-rule:nonzero;stroke:none"
         d="m 0,0 0,-6 3,0 0,1.999 -2,0 L 1,0 0,0 Z" /></g><path
       id="path4202"
       style="fill:#808080;fill-opacity:1;fill-rule:nonzero;stroke:none"
       d="m 5.599645,0 1.59991,0 0,3.19996 -1.59991,0 0,-3.19996 z" /><g
       transform="matrix(0.799955,0,0,0.79999,11.999525,4.80018)"
       id="g4204"><path
         id="path4206"
         style="fill:#808080;fill-opacity:1;fill-rule:nonzero;stroke:none"
         d="m 0,0 0,-4.001 -2.001,0 0,-1.999 L 1,-6 1,0 0,0 Z" /></g><g
       transform="matrix(0.799955,0,0,0.79999,-4.0008999e-5,12.8)"
       id="g4208"><path
         id="path4210"
         style="fill:#808080;fill-opacity:1;fill-rule:nonzero;stroke:none"
         d="m 0,0 0,-6 1,0 0,1.999 1,0 0,1 -1,0 L 1,0 0,0 Z" /></g><g
       transform="matrix(0.799955,0,0,0.79999,11.999525,12.8)"
       id="g4212"><path
         id="path4214"
         style="fill:#808080;fill-opacity:1;fill-rule:nonzero;stroke:none"
         d="m 0,0 0,-3.001 -1,0 0,-1 1,0 L 0,-6 1,-6 1,0 0,0 Z" /></g><g
       transform="matrix(0.799955,0,0,0.79999,4.000055,12.8)"
       id="g4216"><path
         id="path4218"
         style="fill:#808080;fill-opacity:1;fill-rule:nonzero;stroke:none"
         d="m 0,0 0,-2 2,0 0,-2.001 2,0 0,2.001 1.999,0 0,2 L 0,0 Z" /></g></g></svg>