<?xml version="1.0" encoding="utf-8" ?>
<svg baseProfile="full" height="16px" version="1.1" width="16px" xmlns="http://www.w3.org/2000/svg" xmlns:ev="http://www.w3.org/2001/xml-events" xmlns:xlink="http://www.w3.org/1999/xlink"><defs /><rect fill="rgb(160,160,160)" height="1px" width="1px" x="0px" y="0px" /><rect fill="rgb(160,159,159)" height="1px" width="1px" x="1px" y="0px" /><rect fill="rgb(160,160,160)" height="1px" width="1px" x="2px" y="0px" /><rect fill="rgb(159,160,160)" height="1px" width="1px" x="3px" y="0px" /><rect fill="rgb(160,158,158)" height="1px" width="1px" x="4px" y="0px" /><rect fill="rgb(162,155,155)" height="1px" width="1px" x="5px" y="0px" /><rect fill="rgb(156,166,166)" height="1px" width="1px" x="6px" y="0px" /><rect fill="rgb(154,171,171)" height="1px" width="1px" x="7px" y="0px" /><rect fill="rgb(163,149,149)" height="1px" width="1px" x="8px" y="0px" /><rect fill="rgb(167,163,163)" height="1px" width="1px" x="9px" y="0px" /><rect fill="rgb(153,153,153)" height="1px" width="1px" x="10px" y="0px" /><rect fill="rgb(158,158,158)" height="1px" width="1px" x="11px" y="0px" /><rect fill="rgb(161,161,161)" height="1px" width="1px" x="12px" y="0px" /><rect fill="rgb(159,159,159)" height="1px" width="1px" x="13px" y="0px" /><rect fill="rgb(160,160,160)" height="1px" width="1px" x="14px" y="0px" /><rect fill="rgb(160,160,160)" height="1px" width="1px" x="15px" y="0px" /><rect fill="rgb(159,160,160)" height="1px" width="1px" x="0px" y="1px" /><rect fill="rgb(160,159,159)" height="1px" width="1px" x="1px" y="1px" /><rect fill="rgb(159,160,160)" height="1px" width="1px" x="2px" y="1px" /><rect fill="rgb(157,163,163)" height="1px" width="1px" x="3px" y="1px" /><rect fill="rgb(154,169,169)" height="1px" width="1px" x="4px" y="1px" /><rect fill="rgb(151,174,174)" height="1px" width="1px" x="5px" y="1px" /><rect fill="rgb(180,125,125)" height="1px" width="1px" x="6px" y="1px" /><rect fill="rgb(206,58,58)" height="1px" width="1px" x="7px" y="1px" /><rect fill="rgb(233,55,55)" height="1px" width="1px" x="8px" y="1px" /><rect fill="rgb(253,254,254)" height="1px" width="1px" x="9px" y="1px" /><rect fill="rgb(215,216,216)" height="1px" width="1px" x="10px" y="1px" /><rect fill="rgb(168,168,168)" height="1px" width="1px" x="11px" y="1px" /><rect fill="rgb(150,150,150)" height="1px" width="1px" x="12px" y="1px" /><rect fill="rgb(157,157,157)" height="1px" width="1px" x="13px" y="1px" /><rect fill="rgb(159,159,159)" height="1px" width="1px" x="14px" y="1px" /><rect fill="rgb(160,160,160)" height="1px" width="1px" x="15px" y="1px" /><rect fill="rgb(160,160,160)" height="1px" width="1px" x="0px" y="2px" /><rect fill="rgb(153,162,162)" height="1px" width="1px" x="1px" y="2px" /><rect fill="rgb(155,157,157)" height="1px" width="1px" x="2px" y="2px" /><rect fill="rgb(169,134,134)" height="1px" width="1px" x="3px" y="2px" /><rect fill="rgb(204,76,76)" height="1px" width="1px" x="4px" y="2px" /><rect fill="rgb(243,9,9)" height="1px" width="1px" x="5px" y="2px" /><rect fill="rgb(250,0,0)" height="1px" width="1px" x="6px" y="2px" /><rect fill="rgb(244,0,0)" height="1px" width="1px" x="7px" y="2px" /><rect fill="rgb(248,186,186)" height="1px" width="1px" x="8px" y="2px" /><rect fill="rgb(255,255,255)" height="1px" width="1px" x="9px" y="2px" /><rect fill="rgb(255,255,255)" height="1px" width="1px" x="10px" y="2px" /><rect fill="rgb(255,255,255)" height="1px" width="1px" x="11px" y="2px" /><rect fill="rgb(228,238,238)" height="1px" width="1px" x="12px" y="2px" /><rect fill="rgb(177,191,191)" height="1px" width="1px" x="13px" y="2px" /><rect fill="rgb(159,168,168)" height="1px" width="1px" x="14px" y="2px" /><rect fill="rgb(159,159,159)" height="1px" width="1px" x="15px" y="2px" /><rect fill="rgb(157,158,158)" height="1px" width="1px" x="0px" y="3px" /><rect fill="rgb(189,158,158)" height="1px" width="1px" x="1px" y="3px" /><rect fill="rgb(235,126,126)" height="1px" width="1px" x="2px" y="3px" /><rect fill="rgb(253,79,79)" height="1px" width="1px" x="3px" y="3px" /><rect fill="rgb(255,74,74)" height="1px" width="1px" x="4px" y="3px" /><rect fill="rgb(245,89,89)" height="1px" width="1px" x="5px" y="3px" /><rect fill="rgb(242,94,94)" height="1px" width="1px" x="6px" y="3px" /><rect fill="rgb(235,91,91)" height="1px" width="1px" x="7px" y="3px" /><rect fill="rgb(228,162,162)" height="1px" width="1px" x="8px" y="3px" /><rect fill="rgb(217,156,156)" height="1px" width="1px" x="9px" y="3px" /><rect fill="rgb(193,152,152)" height="1px" width="1px" x="10px" y="3px" /><rect fill="rgb(218,143,143)" height="1px" width="1px" x="11px" y="3px" /><rect fill="rgb(221,137,137)" height="1px" width="1px" x="12px" y="3px" /><rect fill="rgb(221,131,131)" height="1px" width="1px" x="13px" y="3px" /><rect fill="rgb(192,149,149)" height="1px" width="1px" x="14px" y="3px" /><rect fill="rgb(156,157,157)" height="1px" width="1px" x="15px" y="3px" /><rect fill="rgb(159,168,168)" height="1px" width="1px" x="0px" y="4px" /><rect fill="rgb(171,107,107)" height="1px" width="1px" x="1px" y="4px" /><rect fill="rgb(241,192,192)" height="1px" width="1px" x="2px" y="4px" /><rect fill="rgb(255,255,255)" height="1px" width="1px" x="3px" y="4px" /><rect fill="rgb(254,255,255)" height="1px" width="1px" x="4px" y="4px" /><rect fill="rgb(254,255,255)" height="1px" width="1px" x="5px" y="4px" /><rect fill="rgb(255,255,255)" height="1px" width="1px" x="6px" y="4px" /><rect fill="rgb(207,93,93)" height="1px" width="1px" x="7px" y="4px" /><rect fill="rgb(184,0,0)" height="1px" width="1px" x="8px" y="4px" /><rect fill="rgb(171,0,0)" height="1px" width="1px" x="9px" y="4px" /><rect fill="rgb(132,0,0)" height="1px" width="1px" x="10px" y="4px" /><rect fill="rgb(184,2,2)" height="1px" width="1px" x="11px" y="4px" /><rect fill="rgb(192,70,70)" height="1px" width="1px" x="12px" y="4px" /><rect fill="rgb(203,187,187)" height="1px" width="1px" x="13px" y="4px" /><rect fill="rgb(162,80,80)" height="1px" width="1px" x="14px" y="4px" /><rect fill="rgb(166,154,154)" height="1px" width="1px" x="15px" y="4px" /><rect fill="rgb(158,155,155)" height="1px" width="1px" x="0px" y="5px" /><rect fill="rgb(167,173,173)" height="1px" width="1px" x="1px" y="5px" /><rect fill="rgb(160,3,3)" height="1px" width="1px" x="2px" y="5px" /><rect fill="rgb(217,146,146)" height="1px" width="1px" x="3px" y="5px" /><rect fill="rgb(255,255,255)" height="1px" width="1px" x="4px" y="5px" /><rect fill="rgb(255,255,255)" height="1px" width="1px" x="5px" y="5px" /><rect fill="rgb(244,214,214)" height="1px" width="1px" x="6px" y="5px" /><rect fill="rgb(177,0,0)" height="1px" width="1px" x="7px" y="5px" /><rect fill="rgb(185,0,0)" height="1px" width="1px" x="8px" y="5px" /><rect fill="rgb(186,23,23)" height="1px" width="1px" x="9px" y="5px" /><rect fill="rgb(194,132,132)" height="1px" width="1px" x="10px" y="5px" /><rect fill="rgb(213,203,203)" height="1px" width="1px" x="11px" y="5px" /><rect fill="rgb(211,236,236)" height="1px" width="1px" x="12px" y="5px" /><rect fill="rgb(178,166,166)" height="1px" width="1px" x="13px" y="5px" /><rect fill="rgb(149,0,0)" height="1px" width="1px" x="14px" y="5px" /><rect fill="rgb(169,156,156)" height="1px" width="1px" x="15px" y="5px" /><rect fill="rgb(159,158,158)" height="1px" width="1px" x="0px" y="6px" /><rect fill="rgb(163,172,172)" height="1px" width="1px" x="1px" y="6px" /><rect fill="rgb(172,118,118)" height="1px" width="1px" x="2px" y="6px" /><rect fill="rgb(155,0,0)" height="1px" width="1px" x="3px" y="6px" /><rect fill="rgb(198,94,94)" height="1px" width="1px" x="4px" y="6px" /><rect fill="rgb(255,255,255)" height="1px" width="1px" x="5px" y="6px" /><rect fill="rgb(183,87,87)" height="1px" width="1px" x="6px" y="6px" /><rect fill="rgb(186,47,47)" height="1px" width="1px" x="7px" y="6px" /><rect fill="rgb(216,160,160)" height="1px" width="1px" x="8px" y="6px" /><rect fill="rgb(226,242,242)" height="1px" width="1px" x="9px" y="6px" /><rect fill="rgb(219,228,228)" height="1px" width="1px" x="10px" y="6px" /><rect fill="rgb(207,209,209)" height="1px" width="1px" x="11px" y="6px" /><rect fill="rgb(206,216,216)" height="1px" width="1px" x="12px" y="6px" /><rect fill="rgb(119,35,35)" height="1px" width="1px" x="13px" y="6px" /><rect fill="rgb(168,0,0)" height="1px" width="1px" x="14px" y="6px" /><rect fill="rgb(171,150,150)" height="1px" width="1px" x="15px" y="6px" /><rect fill="rgb(160,160,160)" height="1px" width="1px" x="0px" y="7px" /><rect fill="rgb(158,160,160)" height="1px" width="1px" x="1px" y="7px" /><rect fill="rgb(176,177,177)" height="1px" width="1px" x="2px" y="7px" /><rect fill="rgb(163,31,31)" height="1px" width="1px" x="3px" y="7px" /><rect fill="rgb(163,0,0)" height="1px" width="1px" x="4px" y="7px" /><rect fill="rgb(174,57,57)" height="1px" width="1px" x="5px" y="7px" /><rect fill="rgb(198,154,154)" height="1px" width="1px" x="6px" y="7px" /><rect fill="rgb(238,255,255)" height="1px" width="1px" x="7px" y="7px" /><rect fill="rgb(232,255,255)" height="1px" width="1px" x="8px" y="7px" /><rect fill="rgb(216,212,212)" height="1px" width="1px" x="9px" y="7px" /><rect fill="rgb(211,209,209)" height="1px" width="1px" x="10px" y="7px" /><rect fill="rgb(207,220,220)" height="1px" width="1px" x="11px" y="7px" /><rect fill="rgb(181,126,126)" height="1px" width="1px" x="12px" y="7px" /><rect fill="rgb(98,0,0)" height="1px" width="1px" x="13px" y="7px" /><rect fill="rgb(186,6,6)" height="1px" width="1px" x="14px" y="7px" /><rect fill="rgb(172,142,142)" height="1px" width="1px" x="15px" y="7px" /><rect fill="rgb(160,160,160)" height="1px" width="1px" x="0px" y="8px" /><rect fill="rgb(159,158,158)" height="1px" width="1px" x="1px" y="8px" /><rect fill="rgb(170,180,180)" height="1px" width="1px" x="2px" y="8px" /><rect fill="rgb(171,115,115)" height="1px" width="1px" x="3px" y="8px" /><rect fill="rgb(153,0,0)" height="1px" width="1px" x="4px" y="8px" /><rect fill="rgb(211,198,198)" height="1px" width="1px" x="5px" y="8px" /><rect fill="rgb(141,10,10)" height="1px" width="1px" x="6px" y="8px" /><rect fill="rgb(151,49,49)" height="1px" width="1px" x="7px" y="8px" /><rect fill="rgb(195,151,151)" height="1px" width="1px" x="8px" y="8px" /><rect fill="rgb(219,231,231)" height="1px" width="1px" x="9px" y="8px" /><rect fill="rgb(210,221,221)" height="1px" width="1px" x="10px" y="8px" /><rect fill="rgb(199,191,191)" height="1px" width="1px" x="11px" y="8px" /><rect fill="rgb(158,12,12)" height="1px" width="1px" x="12px" y="8px" /><rect fill="rgb(132,0,0)" height="1px" width="1px" x="13px" y="8px" /><rect fill="rgb(188,3,3)" height="1px" width="1px" x="14px" y="8px" /><rect fill="rgb(174,133,133)" height="1px" width="1px" x="15px" y="8px" /><rect fill="rgb(160,160,160)" height="1px" width="1px" x="0px" y="9px" /><rect fill="rgb(159,159,159)" height="1px" width="1px" x="1px" y="9px" /><rect fill="rgb(159,156,156)" height="1px" width="1px" x="2px" y="9px" /><rect fill="rgb(182,186,186)" height="1px" width="1px" x="3px" y="9px" /><rect fill="rgb(163,124,124)" height="1px" width="1px" x="4px" y="9px" /><rect fill="rgb(216,237,237)" height="1px" width="1px" x="5px" y="9px" /><rect fill="rgb(166,67,67)" height="1px" width="1px" x="6px" y="9px" /><rect fill="rgb(153,0,0)" height="1px" width="1px" x="7px" y="9px" /><rect fill="rgb(163,0,0)" height="1px" width="1px" x="8px" y="9px" /><rect fill="rgb(165,24,24)" height="1px" width="1px" x="9px" y="9px" /><rect fill="rgb(182,139,139)" height="1px" width="1px" x="10px" y="9px" /><rect fill="rgb(166,91,91)" height="1px" width="1px" x="11px" y="9px" /><rect fill="rgb(146,0,0)" height="1px" width="1px" x="12px" y="9px" /><rect fill="rgb(155,8,8)" height="1px" width="1px" x="13px" y="9px" /><rect fill="rgb(194,4,4)" height="1px" width="1px" x="14px" y="9px" /><rect fill="rgb(174,124,124)" height="1px" width="1px" x="15px" y="9px" /><rect fill="rgb(159,159,159)" height="1px" width="1px" x="0px" y="10px" /><rect fill="rgb(159,159,159)" height="1px" width="1px" x="1px" y="10px" /><rect fill="rgb(165,167,167)" height="1px" width="1px" x="2px" y="10px" /><rect fill="rgb(122,109,109)" height="1px" width="1px" x="3px" y="10px" /><rect fill="rgb(125,70,70)" height="1px" width="1px" x="4px" y="10px" /><rect fill="rgb(206,227,227)" height="1px" width="1px" x="5px" y="10px" /><rect fill="rgb(193,107,107)" height="1px" width="1px" x="6px" y="10px" /><rect fill="rgb(170,0,0)" height="1px" width="1px" x="7px" y="10px" /><rect fill="rgb(169,6,6)" height="1px" width="1px" x="8px" y="10px" /><rect fill="rgb(153,0,0)" height="1px" width="1px" x="9px" y="10px" /><rect fill="rgb(153,26,26)" height="1px" width="1px" x="10px" y="10px" /><rect fill="rgb(186,175,175)" height="1px" width="1px" x="11px" y="10px" /><rect fill="rgb(164,99,99)" height="1px" width="1px" x="12px" y="10px" /><rect fill="rgb(156,6,6)" height="1px" width="1px" x="13px" y="10px" /><rect fill="rgb(181,0,0)" height="1px" width="1px" x="14px" y="10px" /><rect fill="rgb(177,114,114)" height="1px" width="1px" x="15px" y="10px" /><rect fill="rgb(160,160,160)" height="1px" width="1px" x="0px" y="11px" /><rect fill="rgb(160,161,161)" height="1px" width="1px" x="1px" y="11px" /><rect fill="rgb(156,165,165)" height="1px" width="1px" x="2px" y="11px" /><rect fill="rgb(174,38,38)" height="1px" width="1px" x="3px" y="11px" /><rect fill="rgb(202,0,0)" height="1px" width="1px" x="4px" y="11px" /><rect fill="rgb(191,178,178)" height="1px" width="1px" x="5px" y="11px" /><rect fill="rgb(183,142,142)" height="1px" width="1px" x="6px" y="11px" /><rect fill="rgb(144,0,0)" height="1px" width="1px" x="7px" y="11px" /><rect fill="rgb(160,4,4)" height="1px" width="1px" x="8px" y="11px" /><rect fill="rgb(162,0,0)" height="1px" width="1px" x="9px" y="11px" /><rect fill="rgb(189,161,161)" height="1px" width="1px" x="10px" y="11px" /><rect fill="rgb(190,203,203)" height="1px" width="1px" x="11px" y="11px" /><rect fill="rgb(183,195,195)" height="1px" width="1px" x="12px" y="11px" /><rect fill="rgb(175,180,180)" height="1px" width="1px" x="13px" y="11px" /><rect fill="rgb(172,91,91)" height="1px" width="1px" x="14px" y="11px" /><rect fill="rgb(169,115,115)" height="1px" width="1px" x="15px" y="11px" /><rect fill="rgb(160,159,159)" height="1px" width="1px" x="0px" y="12px" /><rect fill="rgb(160,159,159)" height="1px" width="1px" x="1px" y="12px" /><rect fill="rgb(159,161,161)" height="1px" width="1px" x="2px" y="12px" /><rect fill="rgb(167,160,160)" height="1px" width="1px" x="3px" y="12px" /><rect fill="rgb(248,18,18)" height="1px" width="1px" x="4px" y="12px" /><rect fill="rgb(218,65,65)" height="1px" width="1px" x="5px" y="12px" /><rect fill="rgb(166,177,177)" height="1px" width="1px" x="6px" y="12px" /><rect fill="rgb(105,1,1)" height="1px" width="1px" x="7px" y="12px" /><rect fill="rgb(151,0,0)" height="1px" width="1px" x="8px" y="12px" /><rect fill="rgb(184,76,76)" height="1px" width="1px" x="9px" y="12px" /><rect fill="rgb(189,205,205)" height="1px" width="1px" x="10px" y="12px" /><rect fill="rgb(182,181,181)" height="1px" width="1px" x="11px" y="12px" /><rect fill="rgb(176,176,176)" height="1px" width="1px" x="12px" y="12px" /><rect fill="rgb(168,166,166)" height="1px" width="1px" x="13px" y="12px" /><rect fill="rgb(160,173,173)" height="1px" width="1px" x="14px" y="12px" /><rect fill="rgb(159,164,164)" height="1px" width="1px" x="15px" y="12px" /><rect fill="rgb(160,160,160)" height="1px" width="1px" x="0px" y="13px" /><rect fill="rgb(159,160,160)" height="1px" width="1px" x="1px" y="13px" /><rect fill="rgb(160,159,159)" height="1px" width="1px" x="2px" y="13px" /><rect fill="rgb(155,167,167)" height="1px" width="1px" x="3px" y="13px" /><rect fill="rgb(161,160,160)" height="1px" width="1px" x="4px" y="13px" /><rect fill="rgb(242,13,13)" height="1px" width="1px" x="5px" y="13px" /><rect fill="rgb(186,147,147)" height="1px" width="1px" x="6px" y="13px" /><rect fill="rgb(114,21,21)" height="1px" width="1px" x="7px" y="13px" /><rect fill="rgb(167,7,7)" height="1px" width="1px" x="8px" y="13px" /><rect fill="rgb(190,189,189)" height="1px" width="1px" x="9px" y="13px" /><rect fill="rgb(183,184,184)" height="1px" width="1px" x="10px" y="13px" /><rect fill="rgb(173,173,173)" height="1px" width="1px" x="11px" y="13px" /><rect fill="rgb(164,164,164)" height="1px" width="1px" x="12px" y="13px" /><rect fill="rgb(158,158,158)" height="1px" width="1px" x="13px" y="13px" /><rect fill="rgb(159,159,159)" height="1px" width="1px" x="14px" y="13px" /><rect fill="rgb(159,160,160)" height="1px" width="1px" x="15px" y="13px" /><rect fill="rgb(160,160,160)" height="1px" width="1px" x="0px" y="14px" /><rect fill="rgb(160,160,160)" height="1px" width="1px" x="1px" y="14px" /><rect fill="rgb(160,159,159)" height="1px" width="1px" x="2px" y="14px" /><rect fill="rgb(160,159,159)" height="1px" width="1px" x="3px" y="14px" /><rect fill="rgb(157,163,163)" height="1px" width="1px" x="4px" y="14px" /><rect fill="rgb(168,144,144)" height="1px" width="1px" x="5px" y="14px" /><rect fill="rgb(227,87,87)" height="1px" width="1px" x="6px" y="14px" /><rect fill="rgb(122,23,23)" height="1px" width="1px" x="7px" y="14px" /><rect fill="rgb(184,110,110)" height="1px" width="1px" x="8px" y="14px" /><rect fill="rgb(183,196,196)" height="1px" width="1px" x="9px" y="14px" /><rect fill="rgb(167,167,167)" height="1px" width="1px" x="10px" y="14px" /><rect fill="rgb(159,159,159)" height="1px" width="1px" x="11px" y="14px" /><rect fill="rgb(159,159,159)" height="1px" width="1px" x="12px" y="14px" /><rect fill="rgb(160,160,160)" height="1px" width="1px" x="13px" y="14px" /><rect fill="rgb(159,159,159)" height="1px" width="1px" x="14px" y="14px" /><rect fill="rgb(159,159,159)" height="1px" width="1px" x="15px" y="14px" /><rect fill="rgb(160,160,160)" height="1px" width="1px" x="0px" y="15px" /><rect fill="rgb(159,159,159)" height="1px" width="1px" x="1px" y="15px" /><rect fill="rgb(160,160,160)" height="1px" width="1px" x="2px" y="15px" /><rect fill="rgb(159,160,160)" height="1px" width="1px" x="3px" y="15px" /><rect fill="rgb(160,159,159)" height="1px" width="1px" x="4px" y="15px" /><rect fill="rgb(154,167,167)" height="1px" width="1px" x="5px" y="15px" /><rect fill="rgb(176,150,150)" height="1px" width="1px" x="6px" y="15px" /><rect fill="rgb(164,78,78)" height="1px" width="1px" x="7px" y="15px" /><rect fill="rgb(175,180,180)" height="1px" width="1px" x="8px" y="15px" /><rect fill="rgb(158,159,159)" height="1px" width="1px" x="9px" y="15px" /><rect fill="rgb(158,158,158)" height="1px" width="1px" x="10px" y="15px" /><rect fill="rgb(159,159,159)" height="1px" width="1px" x="11px" y="15px" /><rect fill="rgb(160,160,160)" height="1px" width="1px" x="12px" y="15px" /><rect fill="rgb(160,160,160)" height="1px" width="1px" x="13px" y="15px" /><rect fill="rgb(160,160,160)" height="1px" width="1px" x="14px" y="15px" /><rect fill="rgb(160,160,160)" height="1px" width="1px" x="15px" y="15px" /></svg>