<?xml version="1.0" encoding="utf-8" ?>
<svg baseProfile="full" height="16px" version="1.1" width="16px" xmlns="http://www.w3.org/2000/svg" xmlns:ev="http://www.w3.org/2001/xml-events" xmlns:xlink="http://www.w3.org/1999/xlink"><defs /><rect fill="rgb(255,255,255)" height="1px" width="1px" x="0px" y="0px" /><rect fill="rgb(255,255,255)" height="1px" width="1px" x="1px" y="0px" /><rect fill="rgb(255,255,255)" height="1px" width="1px" x="2px" y="0px" /><rect fill="rgb(255,255,255)" height="1px" width="1px" x="3px" y="0px" /><rect fill="rgb(255,255,255)" height="1px" width="1px" x="4px" y="0px" /><rect fill="rgb(255,255,255)" height="1px" width="1px" x="5px" y="0px" /><rect fill="rgb(255,255,255)" height="1px" width="1px" x="6px" y="0px" /><rect fill="rgb(255,255,255)" height="1px" width="1px" x="7px" y="0px" /><rect fill="rgb(255,255,255)" height="1px" width="1px" x="8px" y="0px" /><rect fill="rgb(255,255,255)" height="1px" width="1px" x="9px" y="0px" /><rect fill="rgb(255,255,255)" height="1px" width="1px" x="10px" y="0px" /><rect fill="rgb(255,255,255)" height="1px" width="1px" x="11px" y="0px" /><rect fill="rgb(255,255,255)" height="1px" width="1px" x="12px" y="0px" /><rect fill="rgb(255,255,255)" height="1px" width="1px" x="13px" y="0px" /><rect fill="rgb(255,255,255)" height="1px" width="1px" x="14px" y="0px" /><rect fill="rgb(255,255,255)" height="1px" width="1px" x="15px" y="0px" /><rect fill="rgb(255,255,255)" height="1px" width="1px" x="0px" y="1px" /><rect fill="rgb(255,255,255)" height="1px" width="1px" x="1px" y="1px" /><rect fill="rgb(255,255,255)" height="1px" width="1px" x="2px" y="1px" /><rect fill="rgb(255,255,255)" height="1px" width="1px" x="3px" y="1px" /><rect fill="rgb(255,255,255)" height="1px" width="1px" x="4px" y="1px" /><rect fill="rgb(255,255,255)" height="1px" width="1px" x="5px" y="1px" /><rect fill="rgb(255,255,255)" height="1px" width="1px" x="6px" y="1px" /><rect fill="rgb(255,255,255)" height="1px" width="1px" x="7px" y="1px" /><rect fill="rgb(255,255,255)" height="1px" width="1px" x="8px" y="1px" /><rect fill="rgb(254,254,254)" height="1px" width="1px" x="9px" y="1px" /><rect fill="rgb(230,231,232)" height="1px" width="1px" x="10px" y="1px" /><rect fill="rgb(207,208,209)" height="1px" width="1px" x="11px" y="1px" /><rect fill="rgb(197,198,199)" height="1px" width="1px" x="12px" y="1px" /><rect fill="rgb(196,197,198)" height="1px" width="1px" x="13px" y="1px" /><rect fill="rgb(196,197,198)" height="1px" width="1px" x="14px" y="1px" /><rect fill="rgb(196,197,198)" height="1px" width="1px" x="15px" y="1px" /><rect fill="rgb(255,255,255)" height="1px" width="1px" x="0px" y="2px" /><rect fill="rgb(255,255,255)" height="1px" width="1px" x="1px" y="2px" /><rect fill="rgb(255,255,255)" height="1px" width="1px" x="2px" y="2px" /><rect fill="rgb(255,255,255)" height="1px" width="1px" x="3px" y="2px" /><rect fill="rgb(255,255,255)" height="1px" width="1px" x="4px" y="2px" /><rect fill="rgb(255,255,255)" height="1px" width="1px" x="5px" y="2px" /><rect fill="rgb(255,255,255)" height="1px" width="1px" x="6px" y="2px" /><rect fill="rgb(255,255,255)" height="1px" width="1px" x="7px" y="2px" /><rect fill="rgb(229,230,231)" height="1px" width="1px" x="8px" y="2px" /><rect fill="rgb(165,167,169)" height="1px" width="1px" x="9px" y="2px" /><rect fill="rgb(147,149,152)" height="1px" width="1px" x="10px" y="2px" /><rect fill="rgb(147,149,152)" height="1px" width="1px" x="11px" y="2px" /><rect fill="rgb(147,149,152)" height="1px" width="1px" x="12px" y="2px" /><rect fill="rgb(147,149,152)" height="1px" width="1px" x="13px" y="2px" /><rect fill="rgb(147,149,152)" height="1px" width="1px" x="14px" y="2px" /><rect fill="rgb(147,149,152)" height="1px" width="1px" x="15px" y="2px" /><rect fill="rgb(255,255,255)" height="1px" width="1px" x="0px" y="3px" /><rect fill="rgb(255,255,255)" height="1px" width="1px" x="1px" y="3px" /><rect fill="rgb(255,255,255)" height="1px" width="1px" x="2px" y="3px" /><rect fill="rgb(255,255,255)" height="1px" width="1px" x="3px" y="3px" /><rect fill="rgb(255,255,255)" height="1px" width="1px" x="4px" y="3px" /><rect fill="rgb(255,255,255)" height="1px" width="1px" x="5px" y="3px" /><rect fill="rgb(255,255,255)" height="1px" width="1px" x="6px" y="3px" /><rect fill="rgb(227,228,228)" height="1px" width="1px" x="7px" y="3px" /><rect fill="rgb(150,152,155)" height="1px" width="1px" x="8px" y="3px" /><rect fill="rgb(147,149,152)" height="1px" width="1px" x="9px" y="3px" /><rect fill="rgb(147,149,152)" height="1px" width="1px" x="10px" y="3px" /><rect fill="rgb(147,149,152)" height="1px" width="1px" x="11px" y="3px" /><rect fill="rgb(147,149,152)" height="1px" width="1px" x="12px" y="3px" /><rect fill="rgb(147,149,152)" height="1px" width="1px" x="13px" y="3px" /><rect fill="rgb(147,149,152)" height="1px" width="1px" x="14px" y="3px" /><rect fill="rgb(147,149,152)" height="1px" width="1px" x="15px" y="3px" /><rect fill="rgb(255,255,255)" height="1px" width="1px" x="0px" y="4px" /><rect fill="rgb(255,255,255)" height="1px" width="1px" x="1px" y="4px" /><rect fill="rgb(255,255,255)" height="1px" width="1px" x="2px" y="4px" /><rect fill="rgb(255,255,255)" height="1px" width="1px" x="3px" y="4px" /><rect fill="rgb(255,255,255)" height="1px" width="1px" x="4px" y="4px" /><rect fill="rgb(255,255,255)" height="1px" width="1px" x="5px" y="4px" /><rect fill="rgb(252,252,252)" height="1px" width="1px" x="6px" y="4px" /><rect fill="rgb(160,161,164)" height="1px" width="1px" x="7px" y="4px" /><rect fill="rgb(147,149,152)" height="1px" width="1px" x="8px" y="4px" /><rect fill="rgb(147,149,152)" height="1px" width="1px" x="9px" y="4px" /><rect fill="rgb(147,149,152)" height="1px" width="1px" x="10px" y="4px" /><rect fill="rgb(147,149,152)" height="1px" width="1px" x="11px" y="4px" /><rect fill="rgb(147,149,152)" height="1px" width="1px" x="12px" y="4px" /><rect fill="rgb(147,149,152)" height="1px" width="1px" x="13px" y="4px" /><rect fill="rgb(147,149,152)" height="1px" width="1px" x="14px" y="4px" /><rect fill="rgb(147,149,152)" height="1px" width="1px" x="15px" y="4px" /><rect fill="rgb(255,255,255)" height="1px" width="1px" x="0px" y="5px" /><rect fill="rgb(255,255,255)" height="1px" width="1px" x="1px" y="5px" /><rect fill="rgb(255,255,255)" height="1px" width="1px" x="2px" y="5px" /><rect fill="rgb(255,255,255)" height="1px" width="1px" x="3px" y="5px" /><rect fill="rgb(255,255,255)" height="1px" width="1px" x="4px" y="5px" /><rect fill="rgb(255,255,255)" height="1px" width="1px" x="5px" y="5px" /><rect fill="rgb(219,220,221)" height="1px" width="1px" x="6px" y="5px" /><rect fill="rgb(147,149,152)" height="1px" width="1px" x="7px" y="5px" /><rect fill="rgb(147,149,152)" height="1px" width="1px" x="8px" y="5px" /><rect fill="rgb(147,149,152)" height="1px" width="1px" x="9px" y="5px" /><rect fill="rgb(169,171,173)" height="1px" width="1px" x="10px" y="5px" /><rect fill="rgb(229,229,230)" height="1px" width="1px" x="11px" y="5px" /><rect fill="rgb(247,248,248)" height="1px" width="1px" x="12px" y="5px" /><rect fill="rgb(250,250,250)" height="1px" width="1px" x="13px" y="5px" /><rect fill="rgb(250,250,250)" height="1px" width="1px" x="14px" y="5px" /><rect fill="rgb(250,250,250)" height="1px" width="1px" x="15px" y="5px" /><rect fill="rgb(255,255,255)" height="1px" width="1px" x="0px" y="6px" /><rect fill="rgb(255,255,255)" height="1px" width="1px" x="1px" y="6px" /><rect fill="rgb(255,255,255)" height="1px" width="1px" x="2px" y="6px" /><rect fill="rgb(255,255,255)" height="1px" width="1px" x="3px" y="6px" /><rect fill="rgb(255,255,255)" height="1px" width="1px" x="4px" y="6px" /><rect fill="rgb(255,255,255)" height="1px" width="1px" x="5px" y="6px" /><rect fill="rgb(193,194,196)" height="1px" width="1px" x="6px" y="6px" /><rect fill="rgb(147,149,152)" height="1px" width="1px" x="7px" y="6px" /><rect fill="rgb(147,149,152)" height="1px" width="1px" x="8px" y="6px" /><rect fill="rgb(148,150,153)" height="1px" width="1px" x="9px" y="6px" /><rect fill="rgb(238,239,239)" height="1px" width="1px" x="10px" y="6px" /><rect fill="rgb(255,255,255)" height="1px" width="1px" x="11px" y="6px" /><rect fill="rgb(255,255,255)" height="1px" width="1px" x="12px" y="6px" /><rect fill="rgb(255,255,255)" height="1px" width="1px" x="13px" y="6px" /><rect fill="rgb(255,255,255)" height="1px" width="1px" x="14px" y="6px" /><rect fill="rgb(255,255,255)" height="1px" width="1px" x="15px" y="6px" /><rect fill="rgb(255,255,255)" height="1px" width="1px" x="0px" y="7px" /><rect fill="rgb(255,255,255)" height="1px" width="1px" x="1px" y="7px" /><rect fill="rgb(255,255,255)" height="1px" width="1px" x="2px" y="7px" /><rect fill="rgb(207,208,210)" height="1px" width="1px" x="3px" y="7px" /><rect fill="rgb(192,194,195)" height="1px" width="1px" x="4px" y="7px" /><rect fill="rgb(254,254,254)" height="1px" width="1px" x="5px" y="7px" /><rect fill="rgb(182,183,185)" height="1px" width="1px" x="6px" y="7px" /><rect fill="rgb(147,149,152)" height="1px" width="1px" x="7px" y="7px" /><rect fill="rgb(147,149,152)" height="1px" width="1px" x="8px" y="7px" /><rect fill="rgb(154,156,159)" height="1px" width="1px" x="9px" y="7px" /><rect fill="rgb(255,255,255)" height="1px" width="1px" x="10px" y="7px" /><rect fill="rgb(204,205,206)" height="1px" width="1px" x="11px" y="7px" /><rect fill="rgb(202,203,204)" height="1px" width="1px" x="12px" y="7px" /><rect fill="rgb(255,255,255)" height="1px" width="1px" x="13px" y="7px" /><rect fill="rgb(255,255,255)" height="1px" width="1px" x="14px" y="7px" /><rect fill="rgb(255,255,255)" height="1px" width="1px" x="15px" y="7px" /><rect fill="rgb(255,255,255)" height="1px" width="1px" x="0px" y="8px" /><rect fill="rgb(255,255,255)" height="1px" width="1px" x="1px" y="8px" /><rect fill="rgb(207,208,210)" height="1px" width="1px" x="2px" y="8px" /><rect fill="rgb(147,149,152)" height="1px" width="1px" x="3px" y="8px" /><rect fill="rgb(147,149,152)" height="1px" width="1px" x="4px" y="8px" /><rect fill="rgb(192,193,195)" height="1px" width="1px" x="5px" y="8px" /><rect fill="rgb(179,181,183)" height="1px" width="1px" x="6px" y="8px" /><rect fill="rgb(147,149,152)" height="1px" width="1px" x="7px" y="8px" /><rect fill="rgb(147,149,152)" height="1px" width="1px" x="8px" y="8px" /><rect fill="rgb(157,159,162)" height="1px" width="1px" x="9px" y="8px" /><rect fill="rgb(204,205,206)" height="1px" width="1px" x="10px" y="8px" /><rect fill="rgb(147,149,152)" height="1px" width="1px" x="11px" y="8px" /><rect fill="rgb(147,149,152)" height="1px" width="1px" x="12px" y="8px" /><rect fill="rgb(202,203,204)" height="1px" width="1px" x="13px" y="8px" /><rect fill="rgb(255,255,255)" height="1px" width="1px" x="14px" y="8px" /><rect fill="rgb(255,255,255)" height="1px" width="1px" x="15px" y="8px" /><rect fill="rgb(255,255,255)" height="1px" width="1px" x="0px" y="9px" /><rect fill="rgb(230,231,232)" height="1px" width="1px" x="1px" y="9px" /><rect fill="rgb(148,150,152)" height="1px" width="1px" x="2px" y="9px" /><rect fill="rgb(147,149,152)" height="1px" width="1px" x="3px" y="9px" /><rect fill="rgb(147,149,152)" height="1px" width="1px" x="4px" y="9px" /><rect fill="rgb(147,149,152)" height="1px" width="1px" x="5px" y="9px" /><rect fill="rgb(150,151,154)" height="1px" width="1px" x="6px" y="9px" /><rect fill="rgb(147,149,152)" height="1px" width="1px" x="7px" y="9px" /><rect fill="rgb(147,149,152)" height="1px" width="1px" x="8px" y="9px" /><rect fill="rgb(148,150,153)" height="1px" width="1px" x="9px" y="9px" /><rect fill="rgb(147,149,152)" height="1px" width="1px" x="10px" y="9px" /><rect fill="rgb(147,149,152)" height="1px" width="1px" x="11px" y="9px" /><rect fill="rgb(147,149,152)" height="1px" width="1px" x="12px" y="9px" /><rect fill="rgb(147,149,152)" height="1px" width="1px" x="13px" y="9px" /><rect fill="rgb(222,222,223)" height="1px" width="1px" x="14px" y="9px" /><rect fill="rgb(255,255,255)" height="1px" width="1px" x="15px" y="9px" /><rect fill="rgb(255,255,255)" height="1px" width="1px" x="0px" y="10px" /><rect fill="rgb(255,255,255)" height="1px" width="1px" x="1px" y="10px" /><rect fill="rgb(199,200,202)" height="1px" width="1px" x="2px" y="10px" /><rect fill="rgb(147,149,152)" height="1px" width="1px" x="3px" y="10px" /><rect fill="rgb(147,149,152)" height="1px" width="1px" x="4px" y="10px" /><rect fill="rgb(147,149,152)" height="1px" width="1px" x="5px" y="10px" /><rect fill="rgb(147,149,152)" height="1px" width="1px" x="6px" y="10px" /><rect fill="rgb(147,149,152)" height="1px" width="1px" x="7px" y="10px" /><rect fill="rgb(147,149,152)" height="1px" width="1px" x="8px" y="10px" /><rect fill="rgb(147,149,152)" height="1px" width="1px" x="9px" y="10px" /><rect fill="rgb(147,149,152)" height="1px" width="1px" x="10px" y="10px" /><rect fill="rgb(147,149,152)" height="1px" width="1px" x="11px" y="10px" /><rect fill="rgb(147,149,152)" height="1px" width="1px" x="12px" y="10px" /><rect fill="rgb(188,189,191)" height="1px" width="1px" x="13px" y="10px" /><rect fill="rgb(254,254,254)" height="1px" width="1px" x="14px" y="10px" /><rect fill="rgb(255,255,255)" height="1px" width="1px" x="15px" y="10px" /><rect fill="rgb(255,255,255)" height="1px" width="1px" x="0px" y="11px" /><rect fill="rgb(255,255,255)" height="1px" width="1px" x="1px" y="11px" /><rect fill="rgb(255,255,255)" height="1px" width="1px" x="2px" y="11px" /><rect fill="rgb(199,200,202)" height="1px" width="1px" x="3px" y="11px" /><rect fill="rgb(147,149,152)" height="1px" width="1px" x="4px" y="11px" /><rect fill="rgb(147,149,152)" height="1px" width="1px" x="5px" y="11px" /><rect fill="rgb(147,149,152)" height="1px" width="1px" x="6px" y="11px" /><rect fill="rgb(147,149,152)" height="1px" width="1px" x="7px" y="11px" /><rect fill="rgb(147,149,152)" height="1px" width="1px" x="8px" y="11px" /><rect fill="rgb(147,149,152)" height="1px" width="1px" x="9px" y="11px" /><rect fill="rgb(147,149,152)" height="1px" width="1px" x="10px" y="11px" /><rect fill="rgb(147,149,152)" height="1px" width="1px" x="11px" y="11px" /><rect fill="rgb(188,189,191)" height="1px" width="1px" x="12px" y="11px" /><rect fill="rgb(254,254,254)" height="1px" width="1px" x="13px" y="11px" /><rect fill="rgb(255,255,255)" height="1px" width="1px" x="14px" y="11px" /><rect fill="rgb(255,255,255)" height="1px" width="1px" x="15px" y="11px" /><rect fill="rgb(255,255,255)" height="1px" width="1px" x="0px" y="12px" /><rect fill="rgb(255,255,255)" height="1px" width="1px" x="1px" y="12px" /><rect fill="rgb(255,255,255)" height="1px" width="1px" x="2px" y="12px" /><rect fill="rgb(255,255,255)" height="1px" width="1px" x="3px" y="12px" /><rect fill="rgb(199,200,202)" height="1px" width="1px" x="4px" y="12px" /><rect fill="rgb(147,149,152)" height="1px" width="1px" x="5px" y="12px" /><rect fill="rgb(147,149,152)" height="1px" width="1px" x="6px" y="12px" /><rect fill="rgb(147,149,152)" height="1px" width="1px" x="7px" y="12px" /><rect fill="rgb(147,149,152)" height="1px" width="1px" x="8px" y="12px" /><rect fill="rgb(147,149,152)" height="1px" width="1px" x="9px" y="12px" /><rect fill="rgb(147,149,152)" height="1px" width="1px" x="10px" y="12px" /><rect fill="rgb(188,189,191)" height="1px" width="1px" x="11px" y="12px" /><rect fill="rgb(254,254,254)" height="1px" width="1px" x="12px" y="12px" /><rect fill="rgb(255,255,255)" height="1px" width="1px" x="13px" y="12px" /><rect fill="rgb(255,255,255)" height="1px" width="1px" x="14px" y="12px" /><rect fill="rgb(255,255,255)" height="1px" width="1px" x="15px" y="12px" /><rect fill="rgb(255,255,255)" height="1px" width="1px" x="0px" y="13px" /><rect fill="rgb(255,255,255)" height="1px" width="1px" x="1px" y="13px" /><rect fill="rgb(255,255,255)" height="1px" width="1px" x="2px" y="13px" /><rect fill="rgb(255,255,255)" height="1px" width="1px" x="3px" y="13px" /><rect fill="rgb(255,255,255)" height="1px" width="1px" x="4px" y="13px" /><rect fill="rgb(199,201,202)" height="1px" width="1px" x="5px" y="13px" /><rect fill="rgb(147,149,152)" height="1px" width="1px" x="6px" y="13px" /><rect fill="rgb(147,149,152)" height="1px" width="1px" x="7px" y="13px" /><rect fill="rgb(147,149,152)" height="1px" width="1px" x="8px" y="13px" /><rect fill="rgb(147,149,152)" height="1px" width="1px" x="9px" y="13px" /><rect fill="rgb(188,189,191)" height="1px" width="1px" x="10px" y="13px" /><rect fill="rgb(254,254,254)" height="1px" width="1px" x="11px" y="13px" /><rect fill="rgb(255,255,255)" height="1px" width="1px" x="12px" y="13px" /><rect fill="rgb(255,255,255)" height="1px" width="1px" x="13px" y="13px" /><rect fill="rgb(255,255,255)" height="1px" width="1px" x="14px" y="13px" /><rect fill="rgb(255,255,255)" height="1px" width="1px" x="15px" y="13px" /><rect fill="rgb(255,255,255)" height="1px" width="1px" x="0px" y="14px" /><rect fill="rgb(255,255,255)" height="1px" width="1px" x="1px" y="14px" /><rect fill="rgb(255,255,255)" height="1px" width="1px" x="2px" y="14px" /><rect fill="rgb(255,255,255)" height="1px" width="1px" x="3px" y="14px" /><rect fill="rgb(255,255,255)" height="1px" width="1px" x="4px" y="14px" /><rect fill="rgb(255,255,255)" height="1px" width="1px" x="5px" y="14px" /><rect fill="rgb(199,200,202)" height="1px" width="1px" x="6px" y="14px" /><rect fill="rgb(147,149,152)" height="1px" width="1px" x="7px" y="14px" /><rect fill="rgb(147,149,152)" height="1px" width="1px" x="8px" y="14px" /><rect fill="rgb(188,189,191)" height="1px" width="1px" x="9px" y="14px" /><rect fill="rgb(254,254,254)" height="1px" width="1px" x="10px" y="14px" /><rect fill="rgb(255,255,255)" height="1px" width="1px" x="11px" y="14px" /><rect fill="rgb(255,255,255)" height="1px" width="1px" x="12px" y="14px" /><rect fill="rgb(255,255,255)" height="1px" width="1px" x="13px" y="14px" /><rect fill="rgb(255,255,255)" height="1px" width="1px" x="14px" y="14px" /><rect fill="rgb(255,255,255)" height="1px" width="1px" x="15px" y="14px" /><rect fill="rgb(255,255,255)" height="1px" width="1px" x="0px" y="15px" /><rect fill="rgb(255,255,255)" height="1px" width="1px" x="1px" y="15px" /><rect fill="rgb(255,255,255)" height="1px" width="1px" x="2px" y="15px" /><rect fill="rgb(255,255,255)" height="1px" width="1px" x="3px" y="15px" /><rect fill="rgb(255,255,255)" height="1px" width="1px" x="4px" y="15px" /><rect fill="rgb(255,255,255)" height="1px" width="1px" x="5px" y="15px" /><rect fill="rgb(255,255,255)" height="1px" width="1px" x="6px" y="15px" /><rect fill="rgb(199,200,202)" height="1px" width="1px" x="7px" y="15px" /><rect fill="rgb(187,189,190)" height="1px" width="1px" x="8px" y="15px" /><rect fill="rgb(254,254,254)" height="1px" width="1px" x="9px" y="15px" /><rect fill="rgb(255,255,255)" height="1px" width="1px" x="10px" y="15px" /><rect fill="rgb(255,255,255)" height="1px" width="1px" x="11px" y="15px" /><rect fill="rgb(255,255,255)" height="1px" width="1px" x="12px" y="15px" /><rect fill="rgb(255,255,255)" height="1px" width="1px" x="13px" y="15px" /><rect fill="rgb(255,255,255)" height="1px" width="1px" x="14px" y="15px" /><rect fill="rgb(255,255,255)" height="1px" width="1px" x="15px" y="15px" /></svg>