<?xml version="1.0" encoding="utf-8" ?>
<svg viewbox="0 0 16 16" xmlns="http://www.w3.org/2000/svg">
    <rect fill="rgb(157,157,157)" height="1px" width="1px" x="0px" y="0px"/>
    <rect fill="rgb(157,157,157)" height="1px" width="1px" x="1px" y="0px"/>
    <rect fill="rgb(157,157,157)" height="1px" width="1px" x="2px" y="0px"/>
    <rect fill="rgb(140,140,140)" height="1px" width="1px" x="3px" y="0px"/>
    <rect fill="rgb(125,125,131)" height="1px" width="1px" x="4px" y="0px"/>
    <rect fill="rgb(150,150,180)" height="1px" width="1px" x="5px" y="0px"/>
    <rect fill="rgb(186,186,221)" height="1px" width="1px" x="6px" y="0px"/>
    <rect fill="rgb(201,201,238)" height="1px" width="1px" x="7px" y="0px"/>
    <rect fill="rgb(190,190,237)" height="1px" width="1px" x="8px" y="0px"/>
    <rect fill="rgb(167,167,220)" height="1px" width="1px" x="9px" y="0px"/>
    <rect fill="rgb(140,140,140)" height="1px" width="1px" x="10px" y="0px"/>
    <rect fill="rgb(157,157,157)" height="1px" width="1px" x="11px" y="0px"/>
    <rect fill="rgb(157,157,157)" height="1px" width="1px" x="12px" y="0px"/>
    <rect fill="rgb(157,157,157)" height="1px" width="1px" x="13px" y="0px"/>
    <rect fill="rgb(157,157,157)" height="1px" width="1px" x="14px" y="0px"/>
    <rect fill="rgb(157,157,157)" height="1px" width="1px" x="15px" y="0px"/>
    <rect fill="rgb(157,157,157)" height="1px" width="1px" x="0px" y="1px"/>
    <rect fill="rgb(157,157,157)" height="1px" width="1px" x="1px" y="1px"/>
    <rect fill="rgb(140,140,140)" height="1px" width="1px" x="2px" y="1px"/>
    <rect fill="rgb(113,113,158)" height="1px" width="1px" x="3px" y="1px"/>
    <rect fill="rgb(190,190,237)" height="1px" width="1px" x="4px" y="1px"/>
    <rect fill="rgb(202,202,242)" height="1px" width="1px" x="5px" y="1px"/>
    <rect fill="rgb(190,190,237)" height="1px" width="1px" x="6px" y="1px"/>
    <rect fill="rgb(170,170,234)" height="1px" width="1px" x="7px" y="1px"/>
    <rect fill="rgb(157,157,231)" height="1px" width="1px" x="8px" y="1px"/>
    <rect fill="rgb(151,151,221)" height="1px" width="1px" x="9px" y="1px"/>
    <rect fill="rgb(140,140,140)" height="1px" width="1px" x="10px" y="1px"/>
    <rect fill="rgb(140,140,140)" height="1px" width="1px" x="11px" y="1px"/>
    <rect fill="rgb(157,157,157)" height="1px" width="1px" x="12px" y="1px"/>
    <rect fill="rgb(157,157,157)" height="1px" width="1px" x="13px" y="1px"/>
    <rect fill="rgb(157,157,157)" height="1px" width="1px" x="14px" y="1px"/>
    <rect fill="rgb(157,157,157)" height="1px" width="1px" x="15px" y="1px"/>
    <rect fill="rgb(157,157,157)" height="1px" width="1px" x="0px" y="2px"/>
    <rect fill="rgb(140,140,140)" height="1px" width="1px" x="1px" y="2px"/>
    <rect fill="rgb(142,142,185)" height="1px" width="1px" x="2px" y="2px"/>
    <rect fill="rgb(201,201,238)" height="1px" width="1px" x="3px" y="2px"/>
    <rect fill="rgb(201,201,238)" height="1px" width="1px" x="4px" y="2px"/>
    <rect fill="rgb(190,190,237)" height="1px" width="1px" x="5px" y="2px"/>
    <rect fill="rgb(157,157,231)" height="1px" width="1px" x="6px" y="2px"/>
    <rect fill="rgb(157,157,231)" height="1px" width="1px" x="7px" y="2px"/>
    <rect fill="rgb(141,141,226)" height="1px" width="1px" x="8px" y="2px"/>
    <rect fill="rgb(143,143,218)" height="1px" width="1px" x="9px" y="2px"/>
    <rect fill="rgb(125,125,125)" height="1px" width="1px" x="10px" y="2px"/>
    <rect fill="rgb(140,140,140)" height="1px" width="1px" x="11px" y="2px"/>
    <rect fill="rgb(157,157,157)" height="1px" width="1px" x="12px" y="2px"/>
    <rect fill="rgb(157,157,157)" height="1px" width="1px" x="13px" y="2px"/>
    <rect fill="rgb(157,157,157)" height="1px" width="1px" x="14px" y="2px"/>
    <rect fill="rgb(157,157,157)" height="1px" width="1px" x="15px" y="2px"/>
    <rect fill="rgb(157,157,157)" height="1px" width="1px" x="0px" y="3px"/>
    <rect fill="rgb(128,128,161)" height="1px" width="1px" x="1px" y="3px"/>
    <rect fill="rgb(202,202,242)" height="1px" width="1px" x="2px" y="3px"/>
    <rect fill="rgb(202,202,242)" height="1px" width="1px" x="3px" y="3px"/>
    <rect fill="rgb(190,190,237)" height="1px" width="1px" x="4px" y="3px"/>
    <rect fill="rgb(157,157,231)" height="1px" width="1px" x="5px" y="3px"/>
    <rect fill="rgb(141,141,226)" height="1px" width="1px" x="6px" y="3px"/>
    <rect fill="rgb(141,141,226)" height="1px" width="1px" x="7px" y="3px"/>
    <rect fill="rgb(141,141,226)" height="1px" width="1px" x="8px" y="3px"/>
    <rect fill="rgb(143,143,218)" height="1px" width="1px" x="9px" y="3px"/>
    <rect fill="rgb(125,125,125)" height="1px" width="1px" x="10px" y="3px"/>
    <rect fill="rgb(140,140,140)" height="1px" width="1px" x="11px" y="3px"/>
    <rect fill="rgb(140,140,140)" height="1px" width="1px" x="12px" y="3px"/>
    <rect fill="rgb(140,140,140)" height="1px" width="1px" x="13px" y="3px"/>
    <rect fill="rgb(140,140,140)" height="1px" width="1px" x="14px" y="3px"/>
    <rect fill="rgb(157,157,157)" height="1px" width="1px" x="15px" y="3px"/>
    <rect fill="rgb(140,140,140)" height="1px" width="1px" x="0px" y="4px"/>
    <rect fill="rgb(201,201,238)" height="1px" width="1px" x="1px" y="4px"/>
    <rect fill="rgb(202,202,242)" height="1px" width="1px" x="2px" y="4px"/>
    <rect fill="rgb(190,190,237)" height="1px" width="1px" x="3px" y="4px"/>
    <rect fill="rgb(141,141,226)" height="1px" width="1px" x="4px" y="4px"/>
    <rect fill="rgb(141,141,226)" height="1px" width="1px" x="5px" y="4px"/>
    <rect fill="rgb(111,111,167)" height="1px" width="1px" x="6px" y="4px"/>
    <rect fill="rgb(111,111,144)" height="1px" width="1px" x="7px" y="4px"/>
    <rect fill="rgb(125,125,131)" height="1px" width="1px" x="8px" y="4px"/>
    <rect fill="rgb(113,113,184)" height="1px" width="1px" x="9px" y="4px"/>
    <rect fill="rgb(142,142,185)" height="1px" width="1px" x="10px" y="4px"/>
    <rect fill="rgb(128,128,161)" height="1px" width="1px" x="11px" y="4px"/>
    <rect fill="rgb(150,150,180)" height="1px" width="1px" x="12px" y="4px"/>
    <rect fill="rgb(142,142,185)" height="1px" width="1px" x="13px" y="4px"/>
    <rect fill="rgb(113,113,184)" height="1px" width="1px" x="14px" y="4px"/>
    <rect fill="rgb(125,125,131)" height="1px" width="1px" x="15px" y="4px"/>
    <rect fill="rgb(150,150,180)" height="1px" width="1px" x="0px" y="5px"/>
    <rect fill="rgb(202,202,242)" height="1px" width="1px" x="1px" y="5px"/>
    <rect fill="rgb(190,190,237)" height="1px" width="1px" x="2px" y="5px"/>
    <rect fill="rgb(157,157,231)" height="1px" width="1px" x="3px" y="5px"/>
    <rect fill="rgb(141,141,226)" height="1px" width="1px" x="4px" y="5px"/>
    <rect fill="rgb(111,111,167)" height="1px" width="1px" x="5px" y="5px"/>
    <rect fill="rgb(125,125,131)" height="1px" width="1px" x="6px" y="5px"/>
    <rect fill="rgb(125,125,131)" height="1px" width="1px" x="7px" y="5px"/>
    <rect fill="rgb(125,125,131)" height="1px" width="1px" x="8px" y="5px"/>
    <rect fill="rgb(125,125,125)" height="1px" width="1px" x="9px" y="5px"/>
    <rect fill="rgb(190,190,237)" height="1px" width="1px" x="10px" y="5px"/>
    <rect fill="rgb(190,190,237)" height="1px" width="1px" x="11px" y="5px"/>
    <rect fill="rgb(157,157,231)" height="1px" width="1px" x="12px" y="5px"/>
    <rect fill="rgb(141,141,226)" height="1px" width="1px" x="13px" y="5px"/>
    <rect fill="rgb(157,157,231)" height="1px" width="1px" x="14px" y="5px"/>
    <rect fill="rgb(142,142,146)" height="1px" width="1px" x="15px" y="5px"/>
    <rect fill="rgb(151,151,221)" height="1px" width="1px" x="0px" y="6px"/>
    <rect fill="rgb(201,201,238)" height="1px" width="1px" x="1px" y="6px"/>
    <rect fill="rgb(170,170,234)" height="1px" width="1px" x="2px" y="6px"/>
    <rect fill="rgb(157,157,231)" height="1px" width="1px" x="3px" y="6px"/>
    <rect fill="rgb(117,117,194)" height="1px" width="1px" x="4px" y="6px"/>
    <rect fill="rgb(125,125,125)" height="1px" width="1px" x="5px" y="6px"/>
    <rect fill="rgb(125,125,125)" height="1px" width="1px" x="6px" y="6px"/>
    <rect fill="rgb(142,142,146)" height="1px" width="1px" x="7px" y="6px"/>
    <rect fill="rgb(140,140,140)" height="1px" width="1px" x="8px" y="6px"/>
    <rect fill="rgb(125,125,125)" height="1px" width="1px" x="9px" y="6px"/>
    <rect fill="rgb(190,190,237)" height="1px" width="1px" x="10px" y="6px"/>
    <rect fill="rgb(157,157,231)" height="1px" width="1px" x="11px" y="6px"/>
    <rect fill="rgb(141,141,226)" height="1px" width="1px" x="12px" y="6px"/>
    <rect fill="rgb(141,141,226)" height="1px" width="1px" x="13px" y="6px"/>
    <rect fill="rgb(141,141,226)" height="1px" width="1px" x="14px" y="6px"/>
    <rect fill="rgb(111,111,167)" height="1px" width="1px" x="15px" y="6px"/>
    <rect fill="rgb(167,167,220)" height="1px" width="1px" x="0px" y="7px"/>
    <rect fill="rgb(170,170,234)" height="1px" width="1px" x="1px" y="7px"/>
    <rect fill="rgb(157,157,231)" height="1px" width="1px" x="2px" y="7px"/>
    <rect fill="rgb(141,141,226)" height="1px" width="1px" x="3px" y="7px"/>
    <rect fill="rgb(111,111,144)" height="1px" width="1px" x="4px" y="7px"/>
    <rect fill="rgb(125,125,125)" height="1px" width="1px" x="5px" y="7px"/>
    <rect fill="rgb(125,125,125)" height="1px" width="1px" x="6px" y="7px"/>
    <rect fill="rgb(140,140,140)" height="1px" width="1px" x="7px" y="7px"/>
    <rect fill="rgb(140,140,140)" height="1px" width="1px" x="8px" y="7px"/>
    <rect fill="rgb(125,125,125)" height="1px" width="1px" x="9px" y="7px"/>
    <rect fill="rgb(135,135,205)" height="1px" width="1px" x="10px" y="7px"/>
    <rect fill="rgb(126,126,208)" height="1px" width="1px" x="11px" y="7px"/>
    <rect fill="rgb(117,117,194)" height="1px" width="1px" x="12px" y="7px"/>
    <rect fill="rgb(143,143,218)" height="1px" width="1px" x="13px" y="7px"/>
    <rect fill="rgb(113,113,184)" height="1px" width="1px" x="14px" y="7px"/>
    <rect fill="rgb(113,113,158)" height="1px" width="1px" x="15px" y="7px"/>
    <rect fill="rgb(143,143,218)" height="1px" width="1px" x="0px" y="8px"/>
    <rect fill="rgb(157,157,231)" height="1px" width="1px" x="1px" y="8px"/>
    <rect fill="rgb(141,141,226)" height="1px" width="1px" x="2px" y="8px"/>
    <rect fill="rgb(141,141,226)" height="1px" width="1px" x="3px" y="8px"/>
    <rect fill="rgb(111,111,167)" height="1px" width="1px" x="4px" y="8px"/>
    <rect fill="rgb(125,125,125)" height="1px" width="1px" x="5px" y="8px"/>
    <rect fill="rgb(125,125,125)" height="1px" width="1px" x="6px" y="8px"/>
    <rect fill="rgb(140,140,140)" height="1px" width="1px" x="7px" y="8px"/>
    <rect fill="rgb(140,140,140)" height="1px" width="1px" x="8px" y="8px"/>
    <rect fill="rgb(125,125,125)" height="1px" width="1px" x="9px" y="8px"/>
    <rect fill="rgb(209,143,131)" height="1px" width="1px" x="10px" y="8px"/>
    <rect fill="rgb(207,156,146)" height="1px" width="1px" x="11px" y="8px"/>
    <rect fill="rgb(207,156,146)" height="1px" width="1px" x="12px" y="8px"/>
    <rect fill="rgb(209,143,131)" height="1px" width="1px" x="13px" y="8px"/>
    <rect fill="rgb(180,123,112)" height="1px" width="1px" x="14px" y="8px"/>
    <rect fill="rgb(113,113,158)" height="1px" width="1px" x="15px" y="8px"/>
    <rect fill="rgb(126,126,208)" height="1px" width="1px" x="0px" y="9px"/>
    <rect fill="rgb(141,141,226)" height="1px" width="1px" x="1px" y="9px"/>
    <rect fill="rgb(141,141,226)" height="1px" width="1px" x="2px" y="9px"/>
    <rect fill="rgb(141,141,226)" height="1px" width="1px" x="3px" y="9px"/>
    <rect fill="rgb(111,111,167)" height="1px" width="1px" x="4px" y="9px"/>
    <rect fill="rgb(125,125,125)" height="1px" width="1px" x="5px" y="9px"/>
    <rect fill="rgb(125,125,125)" height="1px" width="1px" x="6px" y="9px"/>
    <rect fill="rgb(142,142,146)" height="1px" width="1px" x="7px" y="9px"/>
    <rect fill="rgb(140,140,140)" height="1px" width="1px" x="8px" y="9px"/>
    <rect fill="rgb(125,125,125)" height="1px" width="1px" x="9px" y="9px"/>
    <rect fill="rgb(255,194,183)" height="1px" width="1px" x="10px" y="9px"/>
    <rect fill="rgb(255,205,196)" height="1px" width="1px" x="11px" y="9px"/>
    <rect fill="rgb(255,205,196)" height="1px" width="1px" x="12px" y="9px"/>
    <rect fill="rgb(255,180,166)" height="1px" width="1px" x="13px" y="9px"/>
    <rect fill="rgb(255,161,143)" height="1px" width="1px" x="14px" y="9px"/>
    <rect fill="rgb(180,123,112)" height="1px" width="1px" x="15px" y="9px"/>
    <rect fill="rgb(113,113,184)" height="1px" width="1px" x="0px" y="10px"/>
    <rect fill="rgb(151,151,221)" height="1px" width="1px" x="1px" y="10px"/>
    <rect fill="rgb(143,143,218)" height="1px" width="1px" x="2px" y="10px"/>
    <rect fill="rgb(141,141,226)" height="1px" width="1px" x="3px" y="10px"/>
    <rect fill="rgb(126,126,208)" height="1px" width="1px" x="4px" y="10px"/>
    <rect fill="rgb(111,111,144)" height="1px" width="1px" x="5px" y="10px"/>
    <rect fill="rgb(125,125,125)" height="1px" width="1px" x="6px" y="10px"/>
    <rect fill="rgb(140,140,140)" height="1px" width="1px" x="7px" y="10px"/>
    <rect fill="rgb(140,140,140)" height="1px" width="1px" x="8px" y="10px"/>
    <rect fill="rgb(125,125,125)" height="1px" width="1px" x="9px" y="10px"/>
    <rect fill="rgb(255,162,145)" height="1px" width="1px" x="10px" y="10px"/>
    <rect fill="rgb(255,180,166)" height="1px" width="1px" x="11px" y="10px"/>
    <rect fill="rgb(255,180,166)" height="1px" width="1px" x="12px" y="10px"/>
    <rect fill="rgb(255,162,145)" height="1px" width="1px" x="13px" y="10px"/>
    <rect fill="rgb(255,162,145)" height="1px" width="1px" x="14px" y="10px"/>
    <rect fill="rgb(255,161,143)" height="1px" width="1px" x="15px" y="10px"/>
    <rect fill="rgb(113,113,158)" height="1px" width="1px" x="0px" y="11px"/>
    <rect fill="rgb(135,135,205)" height="1px" width="1px" x="1px" y="11px"/>
    <rect fill="rgb(143,143,218)" height="1px" width="1px" x="2px" y="11px"/>
    <rect fill="rgb(141,141,226)" height="1px" width="1px" x="3px" y="11px"/>
    <rect fill="rgb(141,141,226)" height="1px" width="1px" x="4px" y="11px"/>
    <rect fill="rgb(143,143,218)" height="1px" width="1px" x="5px" y="11px"/>
    <rect fill="rgb(113,113,158)" height="1px" width="1px" x="6px" y="11px"/>
    <rect fill="rgb(125,125,131)" height="1px" width="1px" x="7px" y="11px"/>
    <rect fill="rgb(140,140,140)" height="1px" width="1px" x="8px" y="11px"/>
    <rect fill="rgb(128,128,161)" height="1px" width="1px" x="9px" y="11px"/>
    <rect fill="rgb(209,143,131)" height="1px" width="1px" x="10px" y="11px"/>
    <rect fill="rgb(209,143,131)" height="1px" width="1px" x="11px" y="11px"/>
    <rect fill="rgb(237,143,126)" height="1px" width="1px" x="12px" y="11px"/>
    <rect fill="rgb(237,143,126)" height="1px" width="1px" x="13px" y="11px"/>
    <rect fill="rgb(240,145,127)" height="1px" width="1px" x="14px" y="11px"/>
    <rect fill="rgb(240,145,127)" height="1px" width="1px" x="15px" y="11px"/>
    <rect fill="rgb(147,147,139)" height="1px" width="1px" x="0px" y="12px"/>
    <rect fill="rgb(122,122,174)" height="1px" width="1px" x="1px" y="12px"/>
    <rect fill="rgb(135,135,205)" height="1px" width="1px" x="2px" y="12px"/>
    <rect fill="rgb(151,151,221)" height="1px" width="1px" x="3px" y="12px"/>
    <rect fill="rgb(141,141,226)" height="1px" width="1px" x="4px" y="12px"/>
    <rect fill="rgb(157,157,231)" height="1px" width="1px" x="5px" y="12px"/>
    <rect fill="rgb(190,190,237)" height="1px" width="1px" x="6px" y="12px"/>
    <rect fill="rgb(190,190,237)" height="1px" width="1px" x="7px" y="12px"/>
    <rect fill="rgb(190,190,237)" height="1px" width="1px" x="8px" y="12px"/>
    <rect fill="rgb(190,190,237)" height="1px" width="1px" x="9px" y="12px"/>
    <rect fill="rgb(140,140,140)" height="1px" width="1px" x="10px" y="12px"/>
    <rect fill="rgb(140,140,140)" height="1px" width="1px" x="11px" y="12px"/>
    <rect fill="rgb(125,125,125)" height="1px" width="1px" x="12px" y="12px"/>
    <rect fill="rgb(140,140,140)" height="1px" width="1px" x="13px" y="12px"/>
    <rect fill="rgb(140,140,140)" height="1px" width="1px" x="14px" y="12px"/>
    <rect fill="rgb(147,147,139)" height="1px" width="1px" x="15px" y="12px"/>
    <rect fill="rgb(157,157,157)" height="1px" width="1px" x="0px" y="13px"/>
    <rect fill="rgb(125,125,131)" height="1px" width="1px" x="1px" y="13px"/>
    <rect fill="rgb(113,113,184)" height="1px" width="1px" x="2px" y="13px"/>
    <rect fill="rgb(143,143,218)" height="1px" width="1px" x="3px" y="13px"/>
    <rect fill="rgb(143,143,218)" height="1px" width="1px" x="4px" y="13px"/>
    <rect fill="rgb(143,143,218)" height="1px" width="1px" x="5px" y="13px"/>
    <rect fill="rgb(157,157,231)" height="1px" width="1px" x="6px" y="13px"/>
    <rect fill="rgb(170,170,234)" height="1px" width="1px" x="7px" y="13px"/>
    <rect fill="rgb(190,190,237)" height="1px" width="1px" x="8px" y="13px"/>
    <rect fill="rgb(151,151,221)" height="1px" width="1px" x="9px" y="13px"/>
    <rect fill="rgb(125,125,125)" height="1px" width="1px" x="10px" y="13px"/>
    <rect fill="rgb(140,140,140)" height="1px" width="1px" x="11px" y="13px"/>
    <rect fill="rgb(157,157,157)" height="1px" width="1px" x="12px" y="13px"/>
    <rect fill="rgb(157,157,157)" height="1px" width="1px" x="13px" y="13px"/>
    <rect fill="rgb(157,157,157)" height="1px" width="1px" x="14px" y="13px"/>
    <rect fill="rgb(157,157,157)" height="1px" width="1px" x="15px" y="13px"/>
    <rect fill="rgb(157,157,157)" height="1px" width="1px" x="0px" y="14px"/>
    <rect fill="rgb(140,140,140)" height="1px" width="1px" x="1px" y="14px"/>
    <rect fill="rgb(140,140,140)" height="1px" width="1px" x="2px" y="14px"/>
    <rect fill="rgb(111,111,167)" height="1px" width="1px" x="3px" y="14px"/>
    <rect fill="rgb(143,143,218)" height="1px" width="1px" x="4px" y="14px"/>
    <rect fill="rgb(143,143,218)" height="1px" width="1px" x="5px" y="14px"/>
    <rect fill="rgb(135,135,205)" height="1px" width="1px" x="6px" y="14px"/>
    <rect fill="rgb(151,151,221)" height="1px" width="1px" x="7px" y="14px"/>
    <rect fill="rgb(135,135,205)" height="1px" width="1px" x="8px" y="14px"/>
    <rect fill="rgb(135,135,205)" height="1px" width="1px" x="9px" y="14px"/>
    <rect fill="rgb(125,125,125)" height="1px" width="1px" x="10px" y="14px"/>
    <rect fill="rgb(140,140,140)" height="1px" width="1px" x="11px" y="14px"/>
    <rect fill="rgb(157,157,157)" height="1px" width="1px" x="12px" y="14px"/>
    <rect fill="rgb(157,157,157)" height="1px" width="1px" x="13px" y="14px"/>
    <rect fill="rgb(157,157,157)" height="1px" width="1px" x="14px" y="14px"/>
    <rect fill="rgb(157,157,157)" height="1px" width="1px" x="15px" y="14px"/>
    <rect fill="rgb(157,157,157)" height="1px" width="1px" x="0px" y="15px"/>
    <rect fill="rgb(157,157,157)" height="1px" width="1px" x="1px" y="15px"/>
    <rect fill="rgb(140,140,140)" height="1px" width="1px" x="2px" y="15px"/>
    <rect fill="rgb(140,140,140)" height="1px" width="1px" x="3px" y="15px"/>
    <rect fill="rgb(111,111,144)" height="1px" width="1px" x="4px" y="15px"/>
    <rect fill="rgb(122,122,174)" height="1px" width="1px" x="5px" y="15px"/>
    <rect fill="rgb(135,135,205)" height="1px" width="1px" x="6px" y="15px"/>
    <rect fill="rgb(135,135,205)" height="1px" width="1px" x="7px" y="15px"/>
    <rect fill="rgb(117,117,194)" height="1px" width="1px" x="8px" y="15px"/>
    <rect fill="rgb(142,142,185)" height="1px" width="1px" x="9px" y="15px"/>
    <rect fill="rgb(140,140,140)" height="1px" width="1px" x="10px" y="15px"/>
    <rect fill="rgb(157,157,157)" height="1px" width="1px" x="11px" y="15px"/>
    <rect fill="rgb(157,157,157)" height="1px" width="1px" x="12px" y="15px"/>
    <rect fill="rgb(157,157,157)" height="1px" width="1px" x="13px" y="15px"/>
    <rect fill="rgb(157,157,157)" height="1px" width="1px" x="14px" y="15px"/>
    <rect fill="rgb(157,157,157)" height="1px" width="1px" x="15px" y="15px"/>
</svg>