<?xml version="1.0" encoding="UTF-8" standalone="no"?>
<svg xmlns="http://www.w3.org/2000/svg" version="1.1" viewBox="0 0 16 16">
    <rect fill="rgb(247,247,247)" height="1px" width="1px" x="2px" y="1px"/>
    <rect fill="rgb(239,239,239)" height="1px" width="1px" x="3px" y="1px"/>
    <rect fill="rgb(214,214,214)" height="1px" width="1px" x="4px" y="1px"/>
    <rect fill="rgb(206,206,206)" height="1px" width="1px" x="5px" y="1px"/>
    <rect fill="rgb(198,198,198)" height="1px" width="1px" x="6px" y="1px"/>
    <rect fill="rgb(189,189,189)" height="1px" width="1px" x="7px" y="1px"/>
    <rect fill="rgb(206,206,206)" height="1px" width="1px" x="8px" y="1px"/>
    <rect fill="rgb(198,198,198)" height="1px" width="1px" x="9px" y="1px"/>
    <rect fill="rgb(239,239,239)" height="1px" width="1px" x="10px" y="1px"/>
    <rect fill="rgb(231,231,231)" height="1px" width="1px" x="11px" y="1px"/>
    <rect fill="rgb(239,239,239)" height="1px" width="1px" x="12px" y="1px"/>
    <rect fill="rgb(247,247,247)" height="1px" width="1px" x="13px" y="1px"/>
    <rect fill="rgb(239,239,239)" height="1px" width="1px" x="0px" y="2px"/>
    <rect fill="rgb(107,107,107)" height="1px" width="1px" x="1px" y="2px"/>
    <rect fill="rgb(115,115,115)" height="1px" width="1px" x="2px" y="2px"/>
    <rect fill="rgb(132,132,132)" height="1px" width="1px" x="3px" y="2px"/>
    <rect fill="rgb(140,140,140)" height="1px" width="1px" x="4px" y="2px"/>
    <rect fill="rgb(189,189,189)" height="1px" width="1px" x="5px" y="2px"/>
    <rect fill="rgb(214,214,214)" height="1px" width="1px" x="6px" y="2px"/>
    <rect fill="rgb(198,198,198)" height="1px" width="1px" x="7px" y="2px"/>
    <rect fill="rgb(107,107,107)" height="1px" width="1px" x="9px" y="2px"/>
    <rect fill="rgb(198,198,198)" height="1px" width="1px" x="10px" y="2px"/>
    <rect fill="rgb(165,165,165)" height="1px" width="1px" x="11px" y="2px"/>
    <rect fill="rgb(74,74,74)" height="1px" width="1px" x="12px" y="2px"/>
    <rect fill="rgb(82,82,82)" height="1px" width="1px" x="13px" y="2px"/>
    <rect fill="rgb(99,99,99)" height="1px" width="1px" x="14px" y="2px"/>
    <rect fill="rgb(239,239,239)" height="1px" width="1px" x="15px" y="2px"/>
    <rect fill="rgb(247,247,247)" height="1px" width="1px" x="1px" y="3px"/>
    <rect fill="rgb(247,247,247)" height="1px" width="1px" x="2px" y="3px"/>
    <rect fill="rgb(165,165,165)" height="1px" width="1px" x="4px" y="3px"/>
    <rect fill="rgb(206,206,206)" height="1px" width="1px" x="5px" y="3px"/>
    <rect fill="rgb(222,222,222)" height="1px" width="1px" x="6px" y="3px"/>
    <rect fill="rgb(115,115,115)" height="1px" width="1px" x="7px" y="3px"/>
    <rect fill="rgb(231,231,231)" height="1px" width="1px" x="8px" y="3px"/>
    <rect fill="rgb(132,132,132)" height="1px" width="1px" x="9px" y="3px"/>
    <rect fill="rgb(173,173,173)" height="1px" width="1px" x="10px" y="3px"/>
    <rect fill="rgb(189,189,189)" height="1px" width="1px" x="11px" y="3px"/>
    <rect fill="rgb(74,74,74)" height="1px" width="1px" x="12px" y="3px"/>
    <rect fill="rgb(74,74,74)" height="1px" width="1px" x="13px" y="3px"/>
    <rect fill="rgb(82,82,82)" height="1px" width="1px" x="14px" y="3px"/>
    <rect fill="rgb(206,206,206)" height="1px" width="1px" x="15px" y="3px"/>
    <rect fill="rgb(239,239,239)" height="1px" width="1px" x="0px" y="4px"/>
    <rect fill="rgb(239,239,239)" height="1px" width="1px" x="1px" y="4px"/>
    <rect fill="rgb(82,82,82)" height="1px" width="1px" x="2px" y="4px"/>
    <rect fill="rgb(247,247,247)" height="1px" width="1px" x="3px" y="4px"/>
    <rect fill="rgb(115,115,115)" height="1px" width="1px" x="4px" y="4px"/>
    <rect fill="rgb(132,132,132)" height="1px" width="1px" x="5px" y="4px"/>
    <rect fill="rgb(231,231,231)" height="1px" width="1px" x="6px" y="4px"/>
    <rect fill="rgb(74,74,74)" height="1px" width="1px" x="7px" y="4px"/>
    <rect fill="rgb(206,206,206)" height="1px" width="1px" x="8px" y="4px"/>
    <rect fill="rgb(156,156,156)" height="1px" width="1px" x="9px" y="4px"/>
    <rect fill="rgb(148,148,148)" height="1px" width="1px" x="10px" y="4px"/>
    <rect fill="rgb(198,198,198)" height="1px" width="1px" x="11px" y="4px"/>
    <rect fill="rgb(74,74,74)" height="1px" width="1px" x="12px" y="4px"/>
    <rect fill="rgb(82,82,82)" height="1px" width="1px" x="13px" y="4px"/>
    <rect fill="rgb(74,74,74)" height="1px" width="1px" x="14px" y="4px"/>
    <rect fill="rgb(181,181,181)" height="1px" width="1px" x="15px" y="4px"/>
    <rect fill="rgb(198,198,198)" height="1px" width="1px" x="0px" y="5px"/>
    <rect fill="rgb(82,82,82)" height="1px" width="1px" x="2px" y="5px"/>
    <rect fill="rgb(222,222,222)" height="1px" width="1px" x="3px" y="5px"/>
    <rect fill="rgb(140,140,140)" height="1px" width="1px" x="4px" y="5px"/>
    <rect fill="rgb(107,107,107)" height="1px" width="1px" x="5px" y="5px"/>
    <rect fill="rgb(247,247,247)" height="1px" width="1px" x="6px" y="5px"/>
    <rect fill="rgb(82,82,82)" height="1px" width="1px" x="7px" y="5px"/>
    <rect fill="rgb(115,115,115)" height="1px" width="1px" x="8px" y="5px"/>
    <rect fill="rgb(165,165,165)" height="1px" width="1px" x="9px" y="5px"/>
    <rect fill="rgb(198,198,198)" height="1px" width="1px" x="10px" y="5px"/>
    <rect fill="rgb(74,74,74)" height="1px" width="1px" x="11px" y="5px"/>
    <rect fill="rgb(82,82,82)" height="1px" width="1px" x="12px" y="5px"/>
    <rect fill="rgb(74,74,74)" height="1px" width="1px" x="13px" y="5px"/>
    <rect fill="rgb(82,82,82)" height="1px" width="1px" x="14px" y="5px"/>
    <rect fill="rgb(165,165,165)" height="1px" width="1px" x="15px" y="5px"/>
    <rect fill="rgb(165,165,165)" height="1px" width="1px" x="0px" y="6px"/>
    <rect fill="rgb(247,247,247)" height="1px" width="1px" x="1px" y="6px"/>
    <rect fill="rgb(222,222,222)" height="1px" width="1px" x="2px" y="6px"/>
    <rect fill="rgb(140,140,140)" height="1px" width="1px" x="3px" y="6px"/>
    <rect fill="rgb(74,74,74)" height="1px" width="1px" x="4px" y="6px"/>
    <rect fill="rgb(82,82,82)" height="1px" width="1px" x="5px" y="6px"/>
    <rect fill="rgb(214,214,214)" height="1px" width="1px" x="6px" y="6px"/>
    <rect fill="rgb(90,90,90)" height="1px" width="1px" x="7px" y="6px"/>
    <rect fill="rgb(74,74,74)" height="1px" width="1px" x="8px" y="6px"/>
    <rect fill="rgb(99,99,99)" height="1px" width="1px" x="9px" y="6px"/>
    <rect fill="rgb(99,99,99)" height="1px" width="1px" x="10px" y="6px"/>
    <rect fill="rgb(82,82,82)" height="1px" width="1px" x="11px" y="6px"/>
    <rect fill="rgb(74,74,74)" height="1px" width="1px" x="12px" y="6px"/>
    <rect fill="rgb(74,74,74)" height="1px" width="1px" x="13px" y="6px"/>
    <rect fill="rgb(82,82,82)" height="1px" width="1px" x="14px" y="6px"/>
    <rect fill="rgb(148,148,148)" height="1px" width="1px" x="15px" y="6px"/>
    <rect fill="rgb(148,148,148)" height="1px" width="1px" x="0px" y="7px"/>
    <rect fill="rgb(156,156,156)" height="1px" width="1px" x="1px" y="7px"/>
    <rect fill="rgb(140,140,140)" height="1px" width="1px" x="2px" y="7px"/>
    <rect fill="rgb(99,99,99)" height="1px" width="1px" x="3px" y="7px"/>
    <rect fill="rgb(82,82,82)" height="1px" width="1px" x="4px" y="7px"/>
    <rect fill="rgb(74,74,74)" height="1px" width="1px" x="5px" y="7px"/>
    <rect fill="rgb(74,74,74)" height="1px" width="1px" x="6px" y="7px"/>
    <rect fill="rgb(82,82,82)" height="1px" width="1px" x="7px" y="7px"/>
    <rect fill="rgb(74,74,74)" height="1px" width="1px" x="8px" y="7px"/>
    <rect fill="rgb(82,82,82)" height="1px" width="1px" x="9px" y="7px"/>
    <rect fill="rgb(74,74,74)" height="1px" width="1px" x="10px" y="7px"/>
    <rect fill="rgb(74,74,74)" height="1px" width="1px" x="11px" y="7px"/>
    <rect fill="rgb(82,82,82)" height="1px" width="1px" x="12px" y="7px"/>
    <rect fill="rgb(74,74,74)" height="1px" width="1px" x="13px" y="7px"/>
    <rect fill="rgb(74,74,74)" height="1px" width="1px" x="14px" y="7px"/>
    <rect fill="rgb(148,148,148)" height="1px" width="1px" x="15px" y="7px"/>
    <rect fill="rgb(148,148,148)" height="1px" width="1px" x="0px" y="8px"/>
    <rect fill="rgb(82,82,82)" height="1px" width="1px" x="1px" y="8px"/>
    <rect fill="rgb(74,74,74)" height="1px" width="1px" x="2px" y="8px"/>
    <rect fill="rgb(82,82,82)" height="1px" width="1px" x="3px" y="8px"/>
    <rect fill="rgb(74,74,74)" height="1px" width="1px" x="4px" y="8px"/>
    <rect fill="rgb(82,82,82)" height="1px" width="1px" x="5px" y="8px"/>
    <rect fill="rgb(74,74,74)" height="1px" width="1px" x="6px" y="8px"/>
    <rect fill="rgb(82,82,82)" height="1px" width="1px" x="7px" y="8px"/>
    <rect fill="rgb(74,74,74)" height="1px" width="1px" x="8px" y="8px"/>
    <rect fill="rgb(74,74,74)" height="1px" width="1px" x="9px" y="8px"/>
    <rect fill="rgb(82,82,82)" height="1px" width="1px" x="10px" y="8px"/>
    <rect fill="rgb(74,74,74)" height="1px" width="1px" x="11px" y="8px"/>
    <rect fill="rgb(82,82,82)" height="1px" width="1px" x="12px" y="8px"/>
    <rect fill="rgb(74,74,74)" height="1px" width="1px" x="13px" y="8px"/>
    <rect fill="rgb(82,82,82)" height="1px" width="1px" x="14px" y="8px"/>
    <rect fill="rgb(148,148,148)" height="1px" width="1px" x="15px" y="8px"/>
    <rect fill="rgb(156,156,156)" height="1px" width="1px" x="0px" y="9px"/>
    <rect fill="rgb(82,82,82)" height="1px" width="1px" x="1px" y="9px"/>
    <rect fill="rgb(74,74,74)" height="1px" width="1px" x="2px" y="9px"/>
    <rect fill="rgb(74,74,74)" height="1px" width="1px" x="3px" y="9px"/>
    <rect fill="rgb(82,82,82)" height="1px" width="1px" x="4px" y="9px"/>
    <rect fill="rgb(74,74,74)" height="1px" width="1px" x="5px" y="9px"/>
    <rect fill="rgb(82,82,82)" height="1px" width="1px" x="6px" y="9px"/>
    <rect fill="rgb(74,74,74)" height="1px" width="1px" x="7px" y="9px"/>
    <rect fill="rgb(82,82,82)" height="1px" width="1px" x="8px" y="9px"/>
    <rect fill="rgb(74,74,74)" height="1px" width="1px" x="9px" y="9px"/>
    <rect fill="rgb(82,82,82)" height="1px" width="1px" x="10px" y="9px"/>
    <rect fill="rgb(74,74,74)" height="1px" width="1px" x="11px" y="9px"/>
    <rect fill="rgb(82,82,82)" height="1px" width="1px" x="12px" y="9px"/>
    <rect fill="rgb(74,74,74)" height="1px" width="1px" x="13px" y="9px"/>
    <rect fill="rgb(74,74,74)" height="1px" width="1px" x="14px" y="9px"/>
    <rect fill="rgb(156,156,156)" height="1px" width="1px" x="15px" y="9px"/>
    <rect fill="rgb(173,173,173)" height="1px" width="1px" x="0px" y="10px"/>
    <rect fill="rgb(82,82,82)" height="1px" width="1px" x="1px" y="10px"/>
    <rect fill="rgb(74,74,74)" height="1px" width="1px" x="2px" y="10px"/>
    <rect fill="rgb(82,82,82)" height="1px" width="1px" x="3px" y="10px"/>
    <rect fill="rgb(74,74,74)" height="1px" width="1px" x="4px" y="10px"/>
    <rect fill="rgb(82,82,82)" height="1px" width="1px" x="5px" y="10px"/>
    <rect fill="rgb(74,74,74)" height="1px" width="1px" x="6px" y="10px"/>
    <rect fill="rgb(74,74,74)" height="1px" width="1px" x="7px" y="10px"/>
    <rect fill="rgb(82,82,82)" height="1px" width="1px" x="8px" y="10px"/>
    <rect fill="rgb(74,74,74)" height="1px" width="1px" x="9px" y="10px"/>
    <rect fill="rgb(74,74,74)" height="1px" width="1px" x="10px" y="10px"/>
    <rect fill="rgb(82,82,82)" height="1px" width="1px" x="11px" y="10px"/>
    <rect fill="rgb(74,74,74)" height="1px" width="1px" x="12px" y="10px"/>
    <rect fill="rgb(82,82,82)" height="1px" width="1px" x="13px" y="10px"/>
    <rect fill="rgb(74,74,74)" height="1px" width="1px" x="14px" y="10px"/>
    <rect fill="rgb(165,165,165)" height="1px" width="1px" x="15px" y="10px"/>
    <rect fill="rgb(189,189,189)" height="1px" width="1px" x="0px" y="11px"/>
    <rect fill="rgb(82,82,82)" height="1px" width="1px" x="1px" y="11px"/>
    <rect fill="rgb(74,74,74)" height="1px" width="1px" x="2px" y="11px"/>
    <rect fill="rgb(74,74,74)" height="1px" width="1px" x="3px" y="11px"/>
    <rect fill="rgb(82,82,82)" height="1px" width="1px" x="4px" y="11px"/>
    <rect fill="rgb(74,74,74)" height="1px" width="1px" x="5px" y="11px"/>
    <rect fill="rgb(82,82,82)" height="1px" width="1px" x="6px" y="11px"/>
    <rect fill="rgb(74,74,74)" height="1px" width="1px" x="7px" y="11px"/>
    <rect fill="rgb(82,82,82)" height="1px" width="1px" x="8px" y="11px"/>
    <rect fill="rgb(74,74,74)" height="1px" width="1px" x="9px" y="11px"/>
    <rect fill="rgb(82,82,82)" height="1px" width="1px" x="10px" y="11px"/>
    <rect fill="rgb(74,74,74)" height="1px" width="1px" x="11px" y="11px"/>
    <rect fill="rgb(82,82,82)" height="1px" width="1px" x="12px" y="11px"/>
    <rect fill="rgb(74,74,74)" height="1px" width="1px" x="13px" y="11px"/>
    <rect fill="rgb(82,82,82)" height="1px" width="1px" x="14px" y="11px"/>
    <rect fill="rgb(181,181,181)" height="1px" width="1px" x="15px" y="11px"/>
    <rect fill="rgb(214,214,214)" height="1px" width="1px" x="0px" y="12px"/>
    <rect fill="rgb(74,74,74)" height="1px" width="1px" x="1px" y="12px"/>
    <rect fill="rgb(82,82,82)" height="1px" width="1px" x="2px" y="12px"/>
    <rect fill="rgb(74,74,74)" height="1px" width="1px" x="3px" y="12px"/>
    <rect fill="rgb(82,82,82)" height="1px" width="1px" x="4px" y="12px"/>
    <rect fill="rgb(74,74,74)" height="1px" width="1px" x="5px" y="12px"/>
    <rect fill="rgb(74,74,74)" height="1px" width="1px" x="6px" y="12px"/>
    <rect fill="rgb(82,82,82)" height="1px" width="1px" x="7px" y="12px"/>
    <rect fill="rgb(74,74,74)" height="1px" width="1px" x="8px" y="12px"/>
    <rect fill="rgb(82,82,82)" height="1px" width="1px" x="9px" y="12px"/>
    <rect fill="rgb(74,74,74)" height="1px" width="1px" x="10px" y="12px"/>
    <rect fill="rgb(74,74,74)" height="1px" width="1px" x="11px" y="12px"/>
    <rect fill="rgb(82,82,82)" height="1px" width="1px" x="12px" y="12px"/>
    <rect fill="rgb(74,74,74)" height="1px" width="1px" x="13px" y="12px"/>
    <rect fill="rgb(74,74,74)" height="1px" width="1px" x="14px" y="12px"/>
    <rect fill="rgb(206,206,206)" height="1px" width="1px" x="15px" y="12px"/>
    <rect fill="rgb(239,239,239)" height="1px" width="1px" x="0px" y="13px"/>
    <rect fill="rgb(99,99,99)" height="1px" width="1px" x="1px" y="13px"/>
    <rect fill="rgb(74,74,74)" height="1px" width="1px" x="2px" y="13px"/>
    <rect fill="rgb(82,82,82)" height="1px" width="1px" x="3px" y="13px"/>
    <rect fill="rgb(74,74,74)" height="1px" width="1px" x="4px" y="13px"/>
    <rect fill="rgb(82,82,82)" height="1px" width="1px" x="5px" y="13px"/>
    <rect fill="rgb(74,74,74)" height="1px" width="1px" x="6px" y="13px"/>
    <rect fill="rgb(82,82,82)" height="1px" width="1px" x="7px" y="13px"/>
    <rect fill="rgb(74,74,74)" height="1px" width="1px" x="8px" y="13px"/>
    <rect fill="rgb(74,74,74)" height="1px" width="1px" x="9px" y="13px"/>
    <rect fill="rgb(82,82,82)" height="1px" width="1px" x="10px" y="13px"/>
    <rect fill="rgb(74,74,74)" height="1px" width="1px" x="11px" y="13px"/>
    <rect fill="rgb(74,74,74)" height="1px" width="1px" x="12px" y="13px"/>
    <rect fill="rgb(82,82,82)" height="1px" width="1px" x="13px" y="13px"/>
    <rect fill="rgb(90,90,90)" height="1px" width="1px" x="14px" y="13px"/>
    <rect fill="rgb(239,239,239)" height="1px" width="1px" x="15px" y="13px"/>
    <rect fill="rgb(247,247,247)" height="1px" width="1px" x="2px" y="14px"/>
    <rect fill="rgb(222,222,222)" height="1px" width="1px" x="3px" y="14px"/>
    <rect fill="rgb(214,214,214)" height="1px" width="1px" x="4px" y="14px"/>
    <rect fill="rgb(198,198,198)" height="1px" width="1px" x="5px" y="14px"/>
    <rect fill="rgb(189,189,189)" height="1px" width="1px" x="6px" y="14px"/>
    <rect fill="rgb(189,189,189)" height="1px" width="1px" x="7px" y="14px"/>
    <rect fill="rgb(189,189,189)" height="1px" width="1px" x="8px" y="14px"/>
    <rect fill="rgb(189,189,189)" height="1px" width="1px" x="9px" y="14px"/>
    <rect fill="rgb(198,198,198)" height="1px" width="1px" x="10px" y="14px"/>
    <rect fill="rgb(206,206,206)" height="1px" width="1px" x="11px" y="14px"/>
    <rect fill="rgb(231,231,231)" height="1px" width="1px" x="12px" y="14px"/>
    <rect fill="rgb(247,247,247)" height="1px" width="1px" x="13px" y="14px"/>
</svg>