<?xml version="1.0" encoding="UTF-8" standalone="no"?>
<svg xmlns="http://www.w3.org/2000/svg" version="1.1" viewBox="0 0 16 16">
    <rect fill="rgb(85,85,85)" height="1px" width="1px" x="0px" y="0px"/>
    <rect fill="rgb(82,82,82)" height="1px" width="1px" x="1px" y="0px"/>
    <rect fill="rgb(47,47,47)" height="1px" width="1px" x="2px" y="0px"/>
    <rect fill="rgb(45,45,45)" height="1px" width="1px" x="3px" y="0px"/>
    <rect fill="rgb(83,83,83)" height="1px" width="1px" x="4px" y="0px"/>
    <rect fill="rgb(80,80,80)" height="1px" width="1px" x="5px" y="0px"/>
    <rect fill="rgb(40,40,40)" height="1px" width="1px" x="6px" y="0px"/>
    <rect fill="rgb(38,38,38)" height="1px" width="1px" x="7px" y="0px"/>
    <rect fill="rgb(81,81,81)" height="1px" width="1px" x="8px" y="0px"/>
    <rect fill="rgb(76,76,76)" height="1px" width="1px" x="9px" y="0px"/>
    <rect fill="rgb(32,32,32)" height="1px" width="1px" x="10px" y="0px"/>
    <rect fill="rgb(30,30,30)" height="1px" width="1px" x="11px" y="0px"/>
    <rect fill="rgb(77,77,77)" height="1px" width="1px" x="12px" y="0px"/>
    <rect fill="rgb(72,72,72)" height="1px" width="1px" x="13px" y="0px"/>
    <rect fill="rgb(25,25,25)" height="1px" width="1px" x="14px" y="0px"/>
    <rect fill="rgb(24,24,24)" height="1px" width="1px" x="15px" y="0px"/>
    <rect fill="rgb(51,51,51)" height="1px" width="1px" x="0px" y="1px"/>
    <rect fill="rgb(41,41,41)" height="1px" width="1px" x="1px" y="1px"/>
    <rect fill="rgb(40,40,40)" height="1px" width="1px" x="2px" y="1px"/>
    <rect fill="rgb(0,0,0)" height="1px" width="1px" x="3px" y="1px"/>
    <rect fill="rgb(0,0,0)" height="1px" width="1px" x="4px" y="1px"/>
    <rect fill="rgb(46,46,46)" height="1px" width="1px" x="5px" y="1px"/>
    <rect fill="rgb(44,44,44)" height="1px" width="1px" x="6px" y="1px"/>
    <rect fill="rgb(0,0,0)" height="1px" width="1px" x="7px" y="1px"/>
    <rect fill="rgb(0,0,0)" height="1px" width="1px" x="8px" y="1px"/>
    <rect fill="rgb(50,50,50)" height="1px" width="1px" x="9px" y="1px"/>
    <rect fill="rgb(48,48,48)" height="1px" width="1px" x="10px" y="1px"/>
    <rect fill="rgb(0,0,0)" height="1px" width="1px" x="11px" y="1px"/>
    <rect fill="rgb(0,0,0)" height="1px" width="1px" x="12px" y="1px"/>
    <rect fill="rgb(53,53,53)" height="1px" width="1px" x="13px" y="1px"/>
    <rect fill="rgb(50,50,50)" height="1px" width="1px" x="14px" y="1px"/>
    <rect fill="rgb(25,25,25)" height="1px" width="1px" x="15px" y="1px"/>
    <rect fill="rgb(53,53,53)" height="1px" width="1px" x="0px" y="2px"/>
    <rect fill="rgb(0,0,0)" height="1px" width="1px" x="1px" y="2px"/>
    <rect fill="rgb(39,39,39)" height="1px" width="1px" x="2px" y="2px"/>
    <rect fill="rgb(38,38,38)" height="1px" width="1px" x="3px" y="2px"/>
    <rect fill="rgb(0,0,0)" height="1px" width="1px" x="4px" y="2px"/>
    <rect fill="rgb(0,0,0)" height="1px" width="1px" x="5px" y="2px"/>
    <rect fill="rgb(43,43,43)" height="1px" width="1px" x="6px" y="2px"/>
    <rect fill="rgb(43,43,43)" height="1px" width="1px" x="7px" y="2px"/>
    <rect fill="rgb(0,0,0)" height="1px" width="1px" x="8px" y="2px"/>
    <rect fill="rgb(0,0,0)" height="1px" width="1px" x="9px" y="2px"/>
    <rect fill="rgb(48,48,48)" height="1px" width="1px" x="10px" y="2px"/>
    <rect fill="rgb(47,47,47)" height="1px" width="1px" x="11px" y="2px"/>
    <rect fill="rgb(0,0,0)" height="1px" width="1px" x="12px" y="2px"/>
    <rect fill="rgb(0,0,0)" height="1px" width="1px" x="13px" y="2px"/>
    <rect fill="rgb(51,51,51)" height="1px" width="1px" x="14px" y="2px"/>
    <rect fill="rgb(71,71,71)" height="1px" width="1px" x="15px" y="2px"/>
    <rect fill="rgb(79,79,79)" height="1px" width="1px" x="0px" y="3px"/>
    <rect fill="rgb(0,0,0)" height="1px" width="1px" x="1px" y="3px"/>
    <rect fill="rgb(0,0,0)" height="1px" width="1px" x="2px" y="3px"/>
    <rect fill="rgb(37,37,37)" height="1px" width="1px" x="3px" y="3px"/>
    <rect fill="rgb(36,36,36)" height="1px" width="1px" x="4px" y="3px"/>
    <rect fill="rgb(0,0,0)" height="1px" width="1px" x="5px" y="3px"/>
    <rect fill="rgb(0,0,0)" height="1px" width="1px" x="6px" y="3px"/>
    <rect fill="rgb(41,41,41)" height="1px" width="1px" x="7px" y="3px"/>
    <rect fill="rgb(42,42,42)" height="1px" width="1px" x="8px" y="3px"/>
    <rect fill="rgb(0,0,0)" height="1px" width="1px" x="9px" y="3px"/>
    <rect fill="rgb(0,0,0)" height="1px" width="1px" x="10px" y="3px"/>
    <rect fill="rgb(48,48,48)" height="1px" width="1px" x="11px" y="3px"/>
    <rect fill="rgb(45,45,45)" height="1px" width="1px" x="12px" y="3px"/>
    <rect fill="rgb(0,0,0)" height="1px" width="1px" x="13px" y="3px"/>
    <rect fill="rgb(0,0,0)" height="1px" width="1px" x="14px" y="3px"/>
    <rect fill="rgb(73,73,73)" height="1px" width="1px" x="15px" y="3px"/>
    <rect fill="rgb(79,79,79)" height="1px" width="1px" x="0px" y="4px"/>
    <rect fill="rgb(28,28,28)" height="1px" width="1px" x="1px" y="4px"/>
    <rect fill="rgb(0,0,0)" height="1px" width="1px" x="2px" y="4px"/>
    <rect fill="rgb(0,0,0)" height="1px" width="1px" x="3px" y="4px"/>
    <rect fill="rgb(35,35,35)" height="1px" width="1px" x="4px" y="4px"/>
    <rect fill="rgb(34,34,34)" height="1px" width="1px" x="5px" y="4px"/>
    <rect fill="rgb(0,0,0)" height="1px" width="1px" x="6px" y="4px"/>
    <rect fill="rgb(0,0,0)" height="1px" width="1px" x="7px" y="4px"/>
    <rect fill="rgb(41,41,41)" height="1px" width="1px" x="8px" y="4px"/>
    <rect fill="rgb(39,39,39)" height="1px" width="1px" x="9px" y="4px"/>
    <rect fill="rgb(0,0,0)" height="1px" width="1px" x="10px" y="4px"/>
    <rect fill="rgb(0,0,0)" height="1px" width="1px" x="11px" y="4px"/>
    <rect fill="rgb(46,46,46)" height="1px" width="1px" x="12px" y="4px"/>
    <rect fill="rgb(44,44,44)" height="1px" width="1px" x="13px" y="4px"/>
    <rect fill="rgb(0,0,0)" height="1px" width="1px" x="14px" y="4px"/>
    <rect fill="rgb(29,29,29)" height="1px" width="1px" x="15px" y="4px"/>
    <rect fill="rgb(56,56,56)" height="1px" width="1px" x="0px" y="5px"/>
    <rect fill="rgb(26,26,26)" height="1px" width="1px" x="1px" y="5px"/>
    <rect fill="rgb(26,26,26)" height="1px" width="1px" x="2px" y="5px"/>
    <rect fill="rgb(0,0,0)" height="1px" width="1px" x="3px" y="5px"/>
    <rect fill="rgb(0,0,0)" height="1px" width="1px" x="4px" y="5px"/>
    <rect fill="rgb(32,32,32)" height="1px" width="1px" x="5px" y="5px"/>
    <rect fill="rgb(32,32,32)" height="1px" width="1px" x="6px" y="5px"/>
    <rect fill="rgb(0,0,0)" height="1px" width="1px" x="7px" y="5px"/>
    <rect fill="rgb(0,0,0)" height="1px" width="1px" x="8px" y="5px"/>
    <rect fill="rgb(38,38,38)" height="1px" width="1px" x="9px" y="5px"/>
    <rect fill="rgb(37,37,37)" height="1px" width="1px" x="10px" y="5px"/>
    <rect fill="rgb(0,0,0)" height="1px" width="1px" x="11px" y="5px"/>
    <rect fill="rgb(0,0,0)" height="1px" width="1px" x="12px" y="5px"/>
    <rect fill="rgb(43,43,43)" height="1px" width="1px" x="13px" y="5px"/>
    <rect fill="rgb(42,42,42)" height="1px" width="1px" x="14px" y="5px"/>
    <rect fill="rgb(30,30,30)" height="1px" width="1px" x="15px" y="5px"/>
    <rect fill="rgb(58,58,58)" height="1px" width="1px" x="0px" y="6px"/>
    <rect fill="rgb(0,0,0)" height="1px" width="1px" x="1px" y="6px"/>
    <rect fill="rgb(138,138,138)" height="1px" width="1px" x="2px" y="6px"/>
    <rect fill="rgb(175,175,175)" height="1px" width="1px" x="3px" y="6px"/>
    <rect fill="rgb(155,155,155)" height="1px" width="1px" x="4px" y="6px"/>
    <rect fill="rgb(42,42,42)" height="1px" width="1px" x="5px" y="6px"/>
    <rect fill="rgb(67,67,67)" height="1px" width="1px" x="6px" y="6px"/>
    <rect fill="rgb(177,177,177)" height="1px" width="1px" x="7px" y="6px"/>
    <rect fill="rgb(169,169,169)" height="1px" width="1px" x="8px" y="6px"/>
    <rect fill="rgb(85,85,85)" height="1px" width="1px" x="9px" y="6px"/>
    <rect fill="rgb(36,36,36)" height="1px" width="1px" x="10px" y="6px"/>
    <rect fill="rgb(35,35,35)" height="1px" width="1px" x="11px" y="6px"/>
    <rect fill="rgb(0,0,0)" height="1px" width="1px" x="12px" y="6px"/>
    <rect fill="rgb(0,0,0)" height="1px" width="1px" x="13px" y="6px"/>
    <rect fill="rgb(42,42,42)" height="1px" width="1px" x="14px" y="6px"/>
    <rect fill="rgb(67,67,67)" height="1px" width="1px" x="15px" y="6px"/>
    <rect fill="rgb(71,71,71)" height="1px" width="1px" x="0px" y="7px"/>
    <rect fill="rgb(0,0,0)" height="1px" width="1px" x="1px" y="7px"/>
    <rect fill="rgb(169,169,169)" height="1px" width="1px" x="2px" y="7px"/>
    <rect fill="rgb(175,175,175)" height="1px" width="1px" x="3px" y="7px"/>
    <rect fill="rgb(213,213,213)" height="1px" width="1px" x="4px" y="7px"/>
    <rect fill="rgb(184,184,184)" height="1px" width="1px" x="5px" y="7px"/>
    <rect fill="rgb(56,56,56)" height="1px" width="1px" x="6px" y="7px"/>
    <rect fill="rgb(225,225,225)" height="1px" width="1px" x="7px" y="7px"/>
    <rect fill="rgb(164,164,164)" height="1px" width="1px" x="8px" y="7px"/>
    <rect fill="rgb(225,225,225)" height="1px" width="1px" x="9px" y="7px"/>
    <rect fill="rgb(42,42,42)" height="1px" width="1px" x="10px" y="7px"/>
    <rect fill="rgb(33,33,33)" height="1px" width="1px" x="11px" y="7px"/>
    <rect fill="rgb(33,33,33)" height="1px" width="1px" x="12px" y="7px"/>
    <rect fill="rgb(0,0,0)" height="1px" width="1px" x="13px" y="7px"/>
    <rect fill="rgb(0,0,0)" height="1px" width="1px" x="14px" y="7px"/>
    <rect fill="rgb(67,67,67)" height="1px" width="1px" x="15px" y="7px"/>
    <rect fill="rgb(71,71,71)" height="1px" width="1px" x="0px" y="8px"/>
    <rect fill="rgb(14,14,14)" height="1px" width="1px" x="1px" y="8px"/>
    <rect fill="rgb(169,169,169)" height="1px" width="1px" x="2px" y="8px"/>
    <rect fill="rgb(113,113,113)" height="1px" width="1px" x="3px" y="8px"/>
    <rect fill="rgb(84,84,84)" height="1px" width="1px" x="4px" y="8px"/>
    <rect fill="rgb(225,225,225)" height="1px" width="1px" x="5px" y="8px"/>
    <rect fill="rgb(56,56,56)" height="1px" width="1px" x="6px" y="8px"/>
    <rect fill="rgb(225,225,225)" height="1px" width="1px" x="7px" y="8px"/>
    <rect fill="rgb(38,38,38)" height="1px" width="1px" x="8px" y="8px"/>
    <rect fill="rgb(225,225,225)" height="1px" width="1px" x="9px" y="8px"/>
    <rect fill="rgb(85,85,85)" height="1px" width="1px" x="10px" y="8px"/>
    <rect fill="rgb(0,0,0)" height="1px" width="1px" x="11px" y="8px"/>
    <rect fill="rgb(32,32,32)" height="1px" width="1px" x="12px" y="8px"/>
    <rect fill="rgb(31,31,31)" height="1px" width="1px" x="13px" y="8px"/>
    <rect fill="rgb(0,0,0)" height="1px" width="1px" x="14px" y="8px"/>
    <rect fill="rgb(35,35,35)" height="1px" width="1px" x="15px" y="8px"/>
    <rect fill="rgb(61,61,61)" height="1px" width="1px" x="0px" y="9px"/>
    <rect fill="rgb(12,12,12)" height="1px" width="1px" x="1px" y="9px"/>
    <rect fill="rgb(172,172,172)" height="1px" width="1px" x="2px" y="9px"/>
    <rect fill="rgb(113,113,113)" height="1px" width="1px" x="3px" y="9px"/>
    <rect fill="rgb(56,56,56)" height="1px" width="1px" x="4px" y="9px"/>
    <rect fill="rgb(225,225,225)" height="1px" width="1px" x="5px" y="9px"/>
    <rect fill="rgb(69,69,69)" height="1px" width="1px" x="6px" y="9px"/>
    <rect fill="rgb(225,225,225)" height="1px" width="1px" x="7px" y="9px"/>
    <rect fill="rgb(141,141,141)" height="1px" width="1px" x="8px" y="9px"/>
    <rect fill="rgb(225,225,225)" height="1px" width="1px" x="9px" y="9px"/>
    <rect fill="rgb(74,74,74)" height="1px" width="1px" x="10px" y="9px"/>
    <rect fill="rgb(0,0,0)" height="1px" width="1px" x="11px" y="9px"/>
    <rect fill="rgb(0,0,0)" height="1px" width="1px" x="12px" y="9px"/>
    <rect fill="rgb(29,29,29)" height="1px" width="1px" x="13px" y="9px"/>
    <rect fill="rgb(29,29,29)" height="1px" width="1px" x="14px" y="9px"/>
    <rect fill="rgb(36,36,36)" height="1px" width="1px" x="15px" y="9px"/>
    <rect fill="rgb(63,63,63)" height="1px" width="1px" x="0px" y="10px"/>
    <rect fill="rgb(0,0,0)" height="1px" width="1px" x="1px" y="10px"/>
    <rect fill="rgb(172,172,172)" height="1px" width="1px" x="2px" y="10px"/>
    <rect fill="rgb(118,118,118)" height="1px" width="1px" x="3px" y="10px"/>
    <rect fill="rgb(56,56,56)" height="1px" width="1px" x="4px" y="10px"/>
    <rect fill="rgb(225,225,225)" height="1px" width="1px" x="5px" y="10px"/>
    <rect fill="rgb(68,68,68)" height="1px" width="1px" x="6px" y="10px"/>
    <rect fill="rgb(225,225,225)" height="1px" width="1px" x="7px" y="10px"/>
    <rect fill="rgb(169,169,169)" height="1px" width="1px" x="8px" y="10px"/>
    <rect fill="rgb(85,85,85)" height="1px" width="1px" x="9px" y="10px"/>
    <rect fill="rgb(21,21,21)" height="1px" width="1px" x="10px" y="10px"/>
    <rect fill="rgb(21,21,21)" height="1px" width="1px" x="11px" y="10px"/>
    <rect fill="rgb(0,0,0)" height="1px" width="1px" x="12px" y="10px"/>
    <rect fill="rgb(0,0,0)" height="1px" width="1px" x="13px" y="10px"/>
    <rect fill="rgb(27,27,27)" height="1px" width="1px" x="14px" y="10px"/>
    <rect fill="rgb(60,60,60)" height="1px" width="1px" x="15px" y="10px"/>
    <rect fill="rgb(67,67,67)" height="1px" width="1px" x="0px" y="11px"/>
    <rect fill="rgb(0,0,0)" height="1px" width="1px" x="1px" y="11px"/>
    <rect fill="rgb(169,169,169)" height="1px" width="1px" x="2px" y="11px"/>
    <rect fill="rgb(117,117,117)" height="1px" width="1px" x="3px" y="11px"/>
    <rect fill="rgb(104,104,104)" height="1px" width="1px" x="4px" y="11px"/>
    <rect fill="rgb(225,225,225)" height="1px" width="1px" x="5px" y="11px"/>
    <rect fill="rgb(56,56,56)" height="1px" width="1px" x="6px" y="11px"/>
    <rect fill="rgb(225,225,225)" height="1px" width="1px" x="7px" y="11px"/>
    <rect fill="rgb(14,14,14)" height="1px" width="1px" x="8px" y="11px"/>
    <rect fill="rgb(0,0,0)" height="1px" width="1px" x="9px" y="11px"/>
    <rect fill="rgb(0,0,0)" height="1px" width="1px" x="10px" y="11px"/>
    <rect fill="rgb(19,19,19)" height="1px" width="1px" x="11px" y="11px"/>
    <rect fill="rgb(19,19,19)" height="1px" width="1px" x="12px" y="11px"/>
    <rect fill="rgb(0,0,0)" height="1px" width="1px" x="13px" y="11px"/>
    <rect fill="rgb(0,0,0)" height="1px" width="1px" x="14px" y="11px"/>
    <rect fill="rgb(59,59,59)" height="1px" width="1px" x="15px" y="11px"/>
    <rect fill="rgb(66,66,66)" height="1px" width="1px" x="0px" y="12px"/>
    <rect fill="rgb(3,3,3)" height="1px" width="1px" x="1px" y="12px"/>
    <rect fill="rgb(169,169,169)" height="1px" width="1px" x="2px" y="12px"/>
    <rect fill="rgb(169,169,169)" height="1px" width="1px" x="3px" y="12px"/>
    <rect fill="rgb(225,225,225)" height="1px" width="1px" x="4px" y="12px"/>
    <rect fill="rgb(171,171,171)" height="1px" width="1px" x="5px" y="12px"/>
    <rect fill="rgb(56,56,56)" height="1px" width="1px" x="6px" y="12px"/>
    <rect fill="rgb(225,225,225)" height="1px" width="1px" x="7px" y="12px"/>
    <rect fill="rgb(11,11,11)" height="1px" width="1px" x="8px" y="12px"/>
    <rect fill="rgb(12,12,12)" height="1px" width="1px" x="9px" y="12px"/>
    <rect fill="rgb(0,0,0)" height="1px" width="1px" x="10px" y="12px"/>
    <rect fill="rgb(0,0,0)" height="1px" width="1px" x="11px" y="12px"/>
    <rect fill="rgb(17,17,17)" height="1px" width="1px" x="12px" y="12px"/>
    <rect fill="rgb(17,17,17)" height="1px" width="1px" x="13px" y="12px"/>
    <rect fill="rgb(0,0,0)" height="1px" width="1px" x="14px" y="12px"/>
    <rect fill="rgb(40,40,40)" height="1px" width="1px" x="15px" y="12px"/>
    <rect fill="rgb(66,66,66)" height="1px" width="1px" x="0px" y="13px"/>
    <rect fill="rgb(1,1,1)" height="1px" width="1px" x="1px" y="13px"/>
    <rect fill="rgb(86,86,86)" height="1px" width="1px" x="2px" y="13px"/>
    <rect fill="rgb(113,113,113)" height="1px" width="1px" x="3px" y="13px"/>
    <rect fill="rgb(113,113,113)" height="1px" width="1px" x="4px" y="13px"/>
    <rect fill="rgb(33,33,33)" height="1px" width="1px" x="5px" y="13px"/>
    <rect fill="rgb(33,33,33)" height="1px" width="1px" x="6px" y="13px"/>
    <rect fill="rgb(113,113,113)" height="1px" width="1px" x="7px" y="13px"/>
    <rect fill="rgb(0,0,0)" height="1px" width="1px" x="8px" y="13px"/>
    <rect fill="rgb(9,9,9)" height="1px" width="1px" x="9px" y="13px"/>
    <rect fill="rgb(10,10,10)" height="1px" width="1px" x="10px" y="13px"/>
    <rect fill="rgb(0,0,0)" height="1px" width="1px" x="11px" y="13px"/>
    <rect fill="rgb(0,0,0)" height="1px" width="1px" x="12px" y="13px"/>
    <rect fill="rgb(14,14,14)" height="1px" width="1px" x="13px" y="13px"/>
    <rect fill="rgb(15,15,15)" height="1px" width="1px" x="14px" y="13px"/>
    <rect fill="rgb(41,41,41)" height="1px" width="1px" x="15px" y="13px"/>
    <rect fill="rgb(67,67,67)" height="1px" width="1px" x="0px" y="14px"/>
    <rect fill="rgb(0,0,0)" height="1px" width="1px" x="1px" y="14px"/>
    <rect fill="rgb(0,0,0)" height="1px" width="1px" x="2px" y="14px"/>
    <rect fill="rgb(1,1,1)" height="1px" width="1px" x="3px" y="14px"/>
    <rect fill="rgb(0,0,0)" height="1px" width="1px" x="4px" y="14px"/>
    <rect fill="rgb(0,0,0)" height="1px" width="1px" x="5px" y="14px"/>
    <rect fill="rgb(3,3,3)" height="1px" width="1px" x="6px" y="14px"/>
    <rect fill="rgb(4,4,4)" height="1px" width="1px" x="7px" y="14px"/>
    <rect fill="rgb(0,0,0)" height="1px" width="1px" x="8px" y="14px"/>
    <rect fill="rgb(0,0,0)" height="1px" width="1px" x="9px" y="14px"/>
    <rect fill="rgb(7,7,7)" height="1px" width="1px" x="10px" y="14px"/>
    <rect fill="rgb(8,8,8)" height="1px" width="1px" x="11px" y="14px"/>
    <rect fill="rgb(0,0,0)" height="1px" width="1px" x="12px" y="14px"/>
    <rect fill="rgb(0,0,0)" height="1px" width="1px" x="13px" y="14px"/>
    <rect fill="rgb(12,12,12)" height="1px" width="1px" x="14px" y="14px"/>
    <rect fill="rgb(54,54,54)" height="1px" width="1px" x="15px" y="14px"/>
    <rect fill="rgb(68,68,68)" height="1px" width="1px" x="0px" y="15px"/>
    <rect fill="rgb(66,66,66)" height="1px" width="1px" x="1px" y="15px"/>
    <rect fill="rgb(65,65,65)" height="1px" width="1px" x="2px" y="15px"/>
    <rect fill="rgb(64,64,64)" height="1px" width="1px" x="3px" y="15px"/>
    <rect fill="rgb(63,63,63)" height="1px" width="1px" x="4px" y="15px"/>
    <rect fill="rgb(61,61,61)" height="1px" width="1px" x="5px" y="15px"/>
    <rect fill="rgb(59,59,59)" height="1px" width="1px" x="6px" y="15px"/>
    <rect fill="rgb(60,60,60)" height="1px" width="1px" x="7px" y="15px"/>
    <rect fill="rgb(58,58,58)" height="1px" width="1px" x="8px" y="15px"/>
    <rect fill="rgb(54,54,54)" height="1px" width="1px" x="9px" y="15px"/>
    <rect fill="rgb(53,53,53)" height="1px" width="1px" x="10px" y="15px"/>
    <rect fill="rgb(56,56,56)" height="1px" width="1px" x="11px" y="15px"/>
    <rect fill="rgb(54,54,54)" height="1px" width="1px" x="12px" y="15px"/>
    <rect fill="rgb(48,48,48)" height="1px" width="1px" x="13px" y="15px"/>
    <rect fill="rgb(46,46,46)" height="1px" width="1px" x="14px" y="15px"/>
    <rect fill="rgb(52,52,52)" height="1px" width="1px" x="15px" y="15px"/>
</svg>