<?xml version="1.0" encoding="UTF-8" standalone="no"?>
<svg xmlns="http://www.w3.org/2000/svg" version="1.1" viewBox="0 0 16 16">
  <g transform="translate(0,-1036.3622)">
    <polygon style="fill:#05cc47" transform="matrix(0.05,0,0,0.05,0,1036.3622)" points="200.8,0 195,5.9 167.6,58.2 159,64 61,64 61,143.9 114.8,143.9 119.6,149.7 64,256.1 64,256.1 61,261.8 61,320 61,320 119.2,320 125,314.1 152.4,261.8 161,256 259,256 259,176.1 205.2,176.1 200.4,170.3 256,63.9 256,63.9 259,58.2 259,0 259,0 " />
  </g>
</svg>
