<?xml version="1.0" encoding="UTF-8"?>
<!DOCTYPE svg PUBLIC "-//W3C//DTD SVG 1.1//EN" "http://www.w3.org/Graphics/SVG/1.1/DTD/svg11.dtd">
<!-- Creator: CorelDRAW Home & Student X7 -->
<svg xmlns="http://www.w3.org/2000/svg" xml:space="preserve" width="91.142mm" height="78.5079mm" version="1.1" style="shape-rendering:geometricPrecision; text-rendering:geometricPrecision; image-rendering:optimizeQuality; fill-rule:evenodd; clip-rule:evenodd"
viewBox="0 0 8379 7217"
 xmlns:xlink="http://www.w3.org/1999/xlink">
 <defs>
  <style type="text/css">
   <![CDATA[
    .str0 {stroke:#33CC33;stroke-width:91.9315}
    .fil0 {fill:black}
   ]]>
  </style>
 </defs>
 <g id="Warstwa_x0020_1">
  <metadata id="CorelCorpID_0Corel-Layer"/>
  <path class="fil0 str0" d="M46 5408l0 1760c484,-34 1048,-299 1418,-567 387,-279 696,-601 975,-1012 583,-858 867,-1886 1011,-2965 113,-854 87,-1699 87,-2578l-552 0c-4,379 -47,1655 -93,1978 -161,1110 -579,2057 -1430,2720 -292,229 -937,614 -1416,664z"/>
  <path class="fil0 str0" d="M8329 5399c-155,22 -651,-193 -779,-258 -246,-123 -433,-244 -633,-398 -364,-279 -694,-672 -942,-1133 -581,-1084 -561,-2328 -577,-3564l-554 0c0,1722 -32,3069 626,4673 383,934 1020,1681 1846,2128 242,130 695,306 1017,321l-4 -1769z"/>
  <path class="fil0 str0" d="M4541 46l-679 0c0,1291 37,2640 -36,3916 -44,771 -158,1817 -413,2542 -73,208 -124,328 -227,509 -34,60 -65,95 -93,154l2268 2c-20,-51 -60,-101 -88,-148 -99,-167 -168,-331 -234,-517 -600,-1672 -498,-4712 -498,-6458z"/>
 </g>
</svg>
