<?xml version="1.0" encoding="UTF-8" standalone="no"?>
<svg xmlns="http://www.w3.org/2000/svg" viewBox="0 0 16 16">
<g transform="matrix(1.25,0,0,-1.25,0,16)" style="fill:#000000;">
    <path d="m 7.052,10.876 -1.3032,0 0,-8.952 1.3032,0 0,8.952 z"/>
    <g transform="scale(0.8,0.8)">
        <g transform="translate(5.9881,13.595)">
            <path d="m 0,0 0.865,0 c 0,-5.188 -0.133,-6.451 -0.931,-7.981 -0.798,-1.53 -3.027,-3.043 -4.922,-3.209 l 0,1.71 c 1.43,0.233 2.727,1 3.857,2.696 C 0,-5.088 0.033,-1.064 0,0"/>
        </g>
        <g transform="translate(10.0118,13.595)" >
            <path d="m 0,0 -0.865,0 c 0,-5.188 0.133,-6.451 0.931,-7.981 0.799,-1.53 3.027,-3.043 4.922,-3.209 l 0,1.71 c -1.43,0.233 -2.727,1 -3.857,2.696 C 0,-5.088 -0.033,-1.064 0,0"/>
        </g>
    </g>
</g>
</svg>