<?xml version="1.0" encoding="UTF-8" standalone="no"?>
<svg xmlns="http://www.w3.org/2000/svg" viewBox="0 0 16 16">
    <g transform="matrix(1.25,0,0,-1.25,0,16)">
        <g transform="scale(0.79998,0.79998)">
            <path d="m 13,1 1.001,0 0,1 L 13,2 13,1 Z" style="fill:#95a8be;" />
            <path d="M 2,1 3,1 3,2 2,2 2,1 Z" style="fill:#95a8be;" />
            <path d="M 3,2 13,2 13,3 3,3 3,2 Z" style="fill:#95a8be;" />
            <path d="m 10,3 1,0 0,1 -1,0 0,-1 z" style="fill:#a05233;" />
            <path d="M 9,3 10,3 10,4 9,4 9,3 Z" style="fill:#560b17;" />
            <path d="M 8,3 9,3 9,4 8,4 8,3 Z" style="fill:#a05233;" />
            <path d="m 10,4 1,0 0,1 -1,0 L 10,4 Z" style="fill:#a8001b;" />
            <path d="m 9,4 1,0 0,1 -1,0 L 9,4 Z" style="fill:#ff3d6a;" />
            <path d="m 8,4 1,0 0,1 -1,0 L 8,4 Z" style="fill:#a8001b;" />
            <path d="m 12,5 1,0 0,1 -1,0 0,-1 z" style="fill:#a05233;" />
            <path d="m 11,5 1,0 0,1 -1,0 0,-1 z" style="fill:#560b17;" />
            <path d="m 10,5 1,0 0,1 -1,0 0,-1 z" style="fill:#df2450;" />
            <path d="M 9,5 10,5 10,6 9,6 9,5 Z" style="fill:#a8001b;" />
            <path d="M 8,5 9,5 9,6 8,6 8,5 Z" style="fill:#df2450;" />
            <path d="m 12,6 1,0 0,1 -1,0 0,-1 z" style="fill:#a8001b;" />
            <path d="m 11,6 1,0 0,1 -1,0 0,-1 z" style="fill:#ff3d6a;" />
            <path d="m 10,6 1,0 0,1 -1,0 0,-1 z" style="fill:#a8001b;" />
            <path d="M 6,6 7,6 7,7 6,7 6,6 Z" style="fill:#873514;" />
            <path d="M 3,6 4,6 4,7 3,7 3,6 Z" style="fill:#873514;" />
            <path d="m 12,7 1,0 0,1 -1,0 0,-1 z" style="fill:#df2450;" />
            <path d="m 11,7 1,0 0,1 -1,0 0,-1 z" style="fill:#a8001b;" />
            <path d="m 10,7 1,0 0,1 -1,0 0,-1 z" style="fill:#df2450;" />
            <path d="M 5,7 6,7 6,8 5,8 5,7 Z" style="fill:#873514;" />
            <path d="m 4,7 1.001,0 0,1 L 4,8 4,7 Z" style="fill:#873514;" />
            <path d="m 5,10 6,0 0,2 -6,0 0,-2 z" style="fill:#b4d211;" />
            <path d="m 5,12 6,0 0,1 L 5,13 5,12 Z" style="fill:#64b732;" />
            <path d="m 2,0 12.001,0 0,1 L 2,1 2,0 Z" style="fill:#000000;" />
            <path d="m 4,4 2,0 0,1 L 4,5.001 4,4 Z" style="fill:#000000;"/>
            <path d="M 6,5 7,5 7,6 6,6 6,5 Z" style="fill:#000000;" />
            <path d="M 3,5 4,5 4,6 3,6 3,5 Z" style="fill:#000000;" />
            <path d="m 5,13 6,0 0,-3 -6,0 0,3 z m -1,-4 8,0 0,1 1,0 0,3 -1,0 0,1 -8,0 0,-1 -1,0 0,-3 1,0 0,-1 z" style="fill:#000000;"/>
            <path d="M 4,5 6,5 6,7 4,7 4,5 Z" style="fill:#3e281b;" />
            <path d="m 12,9 1,0 0,1 -1,0 0,-1 z" style="fill:#3e281b;" />
            <path d="M 3,9 4,9 4,10 3,10 3,9 Z" style="fill:#3e281b;" />
            <path d="m 12,13 1,0 0,1 -1,0 L 12,13 Z" style="fill:#3e281b;" />
            <path d="m 3,13 1,0 0,1 -1,0 L 3,13 Z" style="fill:#3e281b;" />
            <path d="M 3,1 13,1 13,2 3,2 3,1 Z" style="fill:#a7daff;" />
            <path d="m 4,3 2,0 0,1 L 4,4 4,3 Z" style="fill:#a7daff;"/>
            <g transform="translate(3,4)">
                <path d="m 0,0 1,0 0,1 -1,0 0,10 -1,0 0,-12 1,0 0,1 z" style="fill:#a7daff;"/>
            </g>
            <path d="m 6,4 1,0 0,1 -1,0 L 6,4 Z" style="fill:#a7daff;"/>
            <path d="m 13,3 1,0 0,12 -1,0 L 13,3 Z" style="fill:#a7daff;"/>
            <path d="m 14,1 1,0 0,14 -1,0 0,-14 z" style="fill:#5a5a5a;"/>
            <path d="M 1,1 2,1 2,15 1,15 1,1 Z" style="fill:#5a5a5a;"/>
            <path d="m 13,2 1,0 0,1 L 13,3 13,2 Z" style="fill:#5e81a9;"/>
            <path d="M 2,2 3,2 3,3 2,3 2,2 Z" style="fill:#5e81a9;"/>
            <path d="m 2,15 12,0 0,1 L 2,16 2,15 Z" style="fill:#5e81a9;"/>
            <path d="M 3,3 4,3 4,4 3,4 3,3 Z" style="fill:#ffffff;"/>
            <path d="m 11,3 2,0 0,2 -2,0 0,-2 z" style="fill:#ffffff;"/>
            <g transform="translate(3,9)">
                <path d="m 0,0 0,-2 1,0 0,1 2,0 0,-1 1,0 0,-3 -1,0 0,-1 2,0 0,3 2,0 0,2 3,0 0,1 -10,0 z"
  style="fill:#ffffff;"/>
            </g>
            <path d="m 3,14 10,0 0,1 -10,0 0,-1 z" style="fill:#ffffff;"/>
            <g transform="translate(14.0004,16.0002)">
                <path d="m 0,0 0,-1 1,0 0,-14 -1,0 0,-1 2,0 0,16 -2,0 z" style="fill:#ffffff;"/>
            </g>
            <g id="g5992" transform="translate(0,16.0002)">
                <path d="m 0,0 0,-16 2,0 0,1 -1,0 0,14 1,0 0,1 -2,0 z" style="fill:#ffffff;"/>
            </g>
        </g>
    </g>
</svg>