<?xml version="1.0" encoding="utf-8" ?>
<svg baseProfile="full" height="16px" version="1.1" width="16px" xmlns="http://www.w3.org/2000/svg" xmlns:ev="http://www.w3.org/2001/xml-events" xmlns:xlink="http://www.w3.org/1999/xlink"><defs /><rect fill="rgb(94,129,169)" height="1px" width="1px" x="2px" y="0px" /><rect fill="rgb(94,129,169)" height="1px" width="1px" x="3px" y="0px" /><rect fill="rgb(94,129,169)" height="1px" width="1px" x="4px" y="0px" /><rect fill="rgb(94,129,169)" height="1px" width="1px" x="5px" y="0px" /><rect fill="rgb(94,129,169)" height="1px" width="1px" x="6px" y="0px" /><rect fill="rgb(94,129,169)" height="1px" width="1px" x="7px" y="0px" /><rect fill="rgb(94,129,169)" height="1px" width="1px" x="8px" y="0px" /><rect fill="rgb(94,129,169)" height="1px" width="1px" x="9px" y="0px" /><rect fill="rgb(94,129,169)" height="1px" width="1px" x="10px" y="0px" /><rect fill="rgb(94,129,169)" height="1px" width="1px" x="11px" y="0px" /><rect fill="rgb(94,129,169)" height="1px" width="1px" x="12px" y="0px" /><rect fill="rgb(94,129,169)" height="1px" width="1px" x="13px" y="0px" /><rect fill="rgb(90,90,90)" height="1px" width="1px" x="1px" y="1px" /><rect fill="rgb(167,218,255)" height="1px" width="1px" x="2px" y="1px" /><rect fill="rgb(255,255,255)" height="1px" width="1px" x="3px" y="1px" /><rect fill="rgb(255,255,255)" height="1px" width="1px" x="4px" y="1px" /><rect fill="rgb(255,255,255)" height="1px" width="1px" x="5px" y="1px" /><rect fill="rgb(255,255,255)" height="1px" width="1px" x="6px" y="1px" /><rect fill="rgb(255,255,255)" height="1px" width="1px" x="7px" y="1px" /><rect fill="rgb(255,255,255)" height="1px" width="1px" x="8px" y="1px" /><rect fill="rgb(255,255,255)" height="1px" width="1px" x="9px" y="1px" /><rect fill="rgb(255,255,255)" height="1px" width="1px" x="10px" y="1px" /><rect fill="rgb(255,255,255)" height="1px" width="1px" x="11px" y="1px" /><rect fill="rgb(255,255,255)" height="1px" width="1px" x="12px" y="1px" /><rect fill="rgb(167,218,255)" height="1px" width="1px" x="13px" y="1px" /><rect fill="rgb(90,90,90)" height="1px" width="1px" x="14px" y="1px" /><rect fill="rgb(90,90,90)" height="1px" width="1px" x="1px" y="2px" /><rect fill="rgb(167,218,255)" height="1px" width="1px" x="2px" y="2px" /><rect fill="rgb(62,40,27)" height="1px" width="1px" x="3px" y="2px" /><rect fill="rgb(0,0,0)" height="1px" width="1px" x="4px" y="2px" /><rect fill="rgb(0,0,0)" height="1px" width="1px" x="5px" y="2px" /><rect fill="rgb(0,0,0)" height="1px" width="1px" x="6px" y="2px" /><rect fill="rgb(0,0,0)" height="1px" width="1px" x="7px" y="2px" /><rect fill="rgb(0,0,0)" height="1px" width="1px" x="8px" y="2px" /><rect fill="rgb(0,0,0)" height="1px" width="1px" x="9px" y="2px" /><rect fill="rgb(0,0,0)" height="1px" width="1px" x="10px" y="2px" /><rect fill="rgb(0,0,0)" height="1px" width="1px" x="11px" y="2px" /><rect fill="rgb(62,40,27)" height="1px" width="1px" x="12px" y="2px" /><rect fill="rgb(167,218,255)" height="1px" width="1px" x="13px" y="2px" /><rect fill="rgb(90,90,90)" height="1px" width="1px" x="14px" y="2px" /><rect fill="rgb(90,90,90)" height="1px" width="1px" x="1px" y="3px" /><rect fill="rgb(167,218,255)" height="1px" width="1px" x="2px" y="3px" /><rect fill="rgb(0,0,0)" height="1px" width="1px" x="3px" y="3px" /><rect fill="rgb(0,0,0)" height="1px" width="1px" x="4px" y="3px" /><rect fill="rgb(100,183,50)" height="1px" width="1px" x="5px" y="3px" /><rect fill="rgb(100,183,50)" height="1px" width="1px" x="6px" y="3px" /><rect fill="rgb(100,183,50)" height="1px" width="1px" x="7px" y="3px" /><rect fill="rgb(100,183,50)" height="1px" width="1px" x="8px" y="3px" /><rect fill="rgb(100,183,50)" height="1px" width="1px" x="9px" y="3px" /><rect fill="rgb(100,183,50)" height="1px" width="1px" x="10px" y="3px" /><rect fill="rgb(0,0,0)" height="1px" width="1px" x="11px" y="3px" /><rect fill="rgb(0,0,0)" height="1px" width="1px" x="12px" y="3px" /><rect fill="rgb(167,218,255)" height="1px" width="1px" x="13px" y="3px" /><rect fill="rgb(90,90,90)" height="1px" width="1px" x="14px" y="3px" /><rect fill="rgb(90,90,90)" height="1px" width="1px" x="1px" y="4px" /><rect fill="rgb(167,218,255)" height="1px" width="1px" x="2px" y="4px" /><rect fill="rgb(0,0,0)" height="1px" width="1px" x="3px" y="4px" /><rect fill="rgb(0,0,0)" height="1px" width="1px" x="4px" y="4px" /><rect fill="rgb(180,210,17)" height="1px" width="1px" x="5px" y="4px" /><rect fill="rgb(180,210,17)" height="1px" width="1px" x="6px" y="4px" /><rect fill="rgb(180,210,17)" height="1px" width="1px" x="7px" y="4px" /><rect fill="rgb(180,210,17)" height="1px" width="1px" x="8px" y="4px" /><rect fill="rgb(180,210,17)" height="1px" width="1px" x="9px" y="4px" /><rect fill="rgb(180,210,17)" height="1px" width="1px" x="10px" y="4px" /><rect fill="rgb(0,0,0)" height="1px" width="1px" x="11px" y="4px" /><rect fill="rgb(0,0,0)" height="1px" width="1px" x="12px" y="4px" /><rect fill="rgb(167,218,255)" height="1px" width="1px" x="13px" y="4px" /><rect fill="rgb(90,90,90)" height="1px" width="1px" x="14px" y="4px" /><rect fill="rgb(90,90,90)" height="1px" width="1px" x="1px" y="5px" /><rect fill="rgb(167,218,255)" height="1px" width="1px" x="2px" y="5px" /><rect fill="rgb(0,0,0)" height="1px" width="1px" x="3px" y="5px" /><rect fill="rgb(0,0,0)" height="1px" width="1px" x="4px" y="5px" /><rect fill="rgb(180,210,17)" height="1px" width="1px" x="5px" y="5px" /><rect fill="rgb(180,210,17)" height="1px" width="1px" x="6px" y="5px" /><rect fill="rgb(180,210,17)" height="1px" width="1px" x="7px" y="5px" /><rect fill="rgb(180,210,17)" height="1px" width="1px" x="8px" y="5px" /><rect fill="rgb(180,210,17)" height="1px" width="1px" x="9px" y="5px" /><rect fill="rgb(180,210,17)" height="1px" width="1px" x="10px" y="5px" /><rect fill="rgb(0,0,0)" height="1px" width="1px" x="11px" y="5px" /><rect fill="rgb(0,0,0)" height="1px" width="1px" x="12px" y="5px" /><rect fill="rgb(167,218,255)" height="1px" width="1px" x="13px" y="5px" /><rect fill="rgb(90,90,90)" height="1px" width="1px" x="14px" y="5px" /><rect fill="rgb(90,90,90)" height="1px" width="1px" x="1px" y="6px" /><rect fill="rgb(167,218,255)" height="1px" width="1px" x="2px" y="6px" /><rect fill="rgb(62,40,27)" height="1px" width="1px" x="3px" y="6px" /><rect fill="rgb(0,0,0)" height="1px" width="1px" x="4px" y="6px" /><rect fill="rgb(0,0,0)" height="1px" width="1px" x="5px" y="6px" /><rect fill="rgb(0,0,0)" height="1px" width="1px" x="6px" y="6px" /><rect fill="rgb(0,0,0)" height="1px" width="1px" x="7px" y="6px" /><rect fill="rgb(0,0,0)" height="1px" width="1px" x="8px" y="6px" /><rect fill="rgb(0,0,0)" height="1px" width="1px" x="9px" y="6px" /><rect fill="rgb(0,0,0)" height="1px" width="1px" x="10px" y="6px" /><rect fill="rgb(0,0,0)" height="1px" width="1px" x="11px" y="6px" /><rect fill="rgb(62,40,27)" height="1px" width="1px" x="12px" y="6px" /><rect fill="rgb(167,218,255)" height="1px" width="1px" x="13px" y="6px" /><rect fill="rgb(90,90,90)" height="1px" width="1px" x="14px" y="6px" /><rect fill="rgb(90,90,90)" height="1px" width="1px" x="1px" y="7px" /><rect fill="rgb(167,218,255)" height="1px" width="1px" x="2px" y="7px" /><rect fill="rgb(255,255,255)" height="1px" width="1px" x="3px" y="7px" /><rect fill="rgb(255,255,255)" height="1px" width="1px" x="4px" y="7px" /><rect fill="rgb(255,255,255)" height="1px" width="1px" x="5px" y="7px" /><rect fill="rgb(255,255,255)" height="1px" width="1px" x="6px" y="7px" /><rect fill="rgb(255,255,255)" height="1px" width="1px" x="7px" y="7px" /><rect fill="rgb(255,255,255)" height="1px" width="1px" x="8px" y="7px" /><rect fill="rgb(255,255,255)" height="1px" width="1px" x="9px" y="7px" /><rect fill="rgb(255,255,255)" height="1px" width="1px" x="10px" y="7px" /><rect fill="rgb(255,255,255)" height="1px" width="1px" x="11px" y="7px" /><rect fill="rgb(255,255,255)" height="1px" width="1px" x="12px" y="7px" /><rect fill="rgb(167,218,255)" height="1px" width="1px" x="13px" y="7px" /><rect fill="rgb(90,90,90)" height="1px" width="1px" x="14px" y="7px" /><rect fill="rgb(90,90,90)" height="1px" width="1px" x="1px" y="8px" /><rect fill="rgb(167,218,255)" height="1px" width="1px" x="2px" y="8px" /><rect fill="rgb(255,255,255)" height="1px" width="1px" x="3px" y="8px" /><rect fill="rgb(135,53,20)" height="1px" width="1px" x="4px" y="8px" /><rect fill="rgb(135,53,20)" height="1px" width="1px" x="5px" y="8px" /><rect fill="rgb(255,255,255)" height="1px" width="1px" x="6px" y="8px" /><rect fill="rgb(255,255,255)" height="1px" width="1px" x="7px" y="8px" /><rect fill="rgb(255,255,255)" height="1px" width="1px" x="8px" y="8px" /><rect fill="rgb(255,255,255)" height="1px" width="1px" x="9px" y="8px" /><rect fill="rgb(223,36,80)" height="1px" width="1px" x="10px" y="8px" /><rect fill="rgb(168,0,27)" height="1px" width="1px" x="11px" y="8px" /><rect fill="rgb(223,36,80)" height="1px" width="1px" x="12px" y="8px" /><rect fill="rgb(167,218,255)" height="1px" width="1px" x="13px" y="8px" /><rect fill="rgb(90,90,90)" height="1px" width="1px" x="14px" y="8px" /><rect fill="rgb(90,90,90)" height="1px" width="1px" x="1px" y="9px" /><rect fill="rgb(167,218,255)" height="1px" width="1px" x="2px" y="9px" /><rect fill="rgb(135,53,20)" height="1px" width="1px" x="3px" y="9px" /><rect fill="rgb(62,40,27)" height="1px" width="1px" x="4px" y="9px" /><rect fill="rgb(62,40,27)" height="1px" width="1px" x="5px" y="9px" /><rect fill="rgb(135,53,20)" height="1px" width="1px" x="6px" y="9px" /><rect fill="rgb(255,255,255)" height="1px" width="1px" x="7px" y="9px" /><rect fill="rgb(255,255,255)" height="1px" width="1px" x="8px" y="9px" /><rect fill="rgb(255,255,255)" height="1px" width="1px" x="9px" y="9px" /><rect fill="rgb(168,0,27)" height="1px" width="1px" x="10px" y="9px" /><rect fill="rgb(255,61,106)" height="1px" width="1px" x="11px" y="9px" /><rect fill="rgb(168,0,27)" height="1px" width="1px" x="12px" y="9px" /><rect fill="rgb(167,218,255)" height="1px" width="1px" x="13px" y="9px" /><rect fill="rgb(90,90,90)" height="1px" width="1px" x="14px" y="9px" /><rect fill="rgb(90,90,90)" height="1px" width="1px" x="1px" y="10px" /><rect fill="rgb(167,218,255)" height="1px" width="1px" x="2px" y="10px" /><rect fill="rgb(0,0,0)" height="1px" width="1px" x="3px" y="10px" /><rect fill="rgb(62,40,27)" height="1px" width="1px" x="4px" y="10px" /><rect fill="rgb(62,40,27)" height="1px" width="1px" x="5px" y="10px" /><rect fill="rgb(0,0,0)" height="1px" width="1px" x="6px" y="10px" /><rect fill="rgb(255,255,255)" height="1px" width="1px" x="7px" y="10px" /><rect fill="rgb(223,36,80)" height="1px" width="1px" x="8px" y="10px" /><rect fill="rgb(168,0,27)" height="1px" width="1px" x="9px" y="10px" /><rect fill="rgb(223,36,80)" height="1px" width="1px" x="10px" y="10px" /><rect fill="rgb(86,11,23)" height="1px" width="1px" x="11px" y="10px" /><rect fill="rgb(160,82,51)" height="1px" width="1px" x="12px" y="10px" /><rect fill="rgb(167,218,255)" height="1px" width="1px" x="13px" y="10px" /><rect fill="rgb(90,90,90)" height="1px" width="1px" x="14px" y="10px" /><rect fill="rgb(90,90,90)" height="1px" width="1px" x="1px" y="11px" /><rect fill="rgb(167,218,255)" height="1px" width="1px" x="2px" y="11px" /><rect fill="rgb(167,218,255)" height="1px" width="1px" x="3px" y="11px" /><rect fill="rgb(0,0,0)" height="1px" width="1px" x="4px" y="11px" /><rect fill="rgb(0,0,0)" height="1px" width="1px" x="5px" y="11px" /><rect fill="rgb(167,218,255)" height="1px" width="1px" x="6px" y="11px" /><rect fill="rgb(255,255,255)" height="1px" width="1px" x="7px" y="11px" /><rect fill="rgb(168,0,27)" height="1px" width="1px" x="8px" y="11px" /><rect fill="rgb(255,61,106)" height="1px" width="1px" x="9px" y="11px" /><rect fill="rgb(168,0,27)" height="1px" width="1px" x="10px" y="11px" /><rect fill="rgb(255,255,255)" height="1px" width="1px" x="11px" y="11px" /><rect fill="rgb(255,255,255)" height="1px" width="1px" x="12px" y="11px" /><rect fill="rgb(167,218,255)" height="1px" width="1px" x="13px" y="11px" /><rect fill="rgb(90,90,90)" height="1px" width="1px" x="14px" y="11px" /><rect fill="rgb(90,90,90)" height="1px" width="1px" x="1px" y="12px" /><rect fill="rgb(167,218,255)" height="1px" width="1px" x="2px" y="12px" /><rect fill="rgb(255,255,255)" height="1px" width="1px" x="3px" y="12px" /><rect fill="rgb(167,218,255)" height="1px" width="1px" x="4px" y="12px" /><rect fill="rgb(167,218,255)" height="1px" width="1px" x="5px" y="12px" /><rect fill="rgb(255,255,255)" height="1px" width="1px" x="6px" y="12px" /><rect fill="rgb(255,255,255)" height="1px" width="1px" x="7px" y="12px" /><rect fill="rgb(160,82,51)" height="1px" width="1px" x="8px" y="12px" /><rect fill="rgb(86,11,23)" height="1px" width="1px" x="9px" y="12px" /><rect fill="rgb(160,82,51)" height="1px" width="1px" x="10px" y="12px" /><rect fill="rgb(255,255,255)" height="1px" width="1px" x="11px" y="12px" /><rect fill="rgb(255,255,255)" height="1px" width="1px" x="12px" y="12px" /><rect fill="rgb(167,218,255)" height="1px" width="1px" x="13px" y="12px" /><rect fill="rgb(90,90,90)" height="1px" width="1px" x="14px" y="12px" /><rect fill="rgb(90,90,90)" height="1px" width="1px" x="1px" y="13px" /><rect fill="rgb(94,129,169)" height="1px" width="1px" x="2px" y="13px" /><rect fill="rgb(149,168,190)" height="1px" width="1px" x="3px" y="13px" /><rect fill="rgb(149,168,190)" height="1px" width="1px" x="4px" y="13px" /><rect fill="rgb(149,168,190)" height="1px" width="1px" x="5px" y="13px" /><rect fill="rgb(149,168,190)" height="1px" width="1px" x="6px" y="13px" /><rect fill="rgb(149,168,190)" height="1px" width="1px" x="7px" y="13px" /><rect fill="rgb(149,168,190)" height="1px" width="1px" x="8px" y="13px" /><rect fill="rgb(149,168,190)" height="1px" width="1px" x="9px" y="13px" /><rect fill="rgb(149,168,190)" height="1px" width="1px" x="10px" y="13px" /><rect fill="rgb(149,168,190)" height="1px" width="1px" x="11px" y="13px" /><rect fill="rgb(149,168,190)" height="1px" width="1px" x="12px" y="13px" /><rect fill="rgb(94,129,169)" height="1px" width="1px" x="13px" y="13px" /><rect fill="rgb(90,90,90)" height="1px" width="1px" x="14px" y="13px" /><rect fill="rgb(90,90,90)" height="1px" width="1px" x="1px" y="14px" /><rect fill="rgb(149,168,190)" height="1px" width="1px" x="2px" y="14px" /><rect fill="rgb(167,218,255)" height="1px" width="1px" x="3px" y="14px" /><rect fill="rgb(167,218,255)" height="1px" width="1px" x="4px" y="14px" /><rect fill="rgb(167,218,255)" height="1px" width="1px" x="5px" y="14px" /><rect fill="rgb(167,218,255)" height="1px" width="1px" x="6px" y="14px" /><rect fill="rgb(167,218,255)" height="1px" width="1px" x="7px" y="14px" /><rect fill="rgb(167,218,255)" height="1px" width="1px" x="8px" y="14px" /><rect fill="rgb(167,218,255)" height="1px" width="1px" x="9px" y="14px" /><rect fill="rgb(167,218,255)" height="1px" width="1px" x="10px" y="14px" /><rect fill="rgb(167,218,255)" height="1px" width="1px" x="11px" y="14px" /><rect fill="rgb(167,218,255)" height="1px" width="1px" x="12px" y="14px" /><rect fill="rgb(149,168,190)" height="1px" width="1px" x="13px" y="14px" /><rect fill="rgb(90,90,90)" height="1px" width="1px" x="14px" y="14px" /><rect fill="rgb(0,0,0)" height="1px" width="1px" x="2px" y="15px" /><rect fill="rgb(0,0,0)" height="1px" width="1px" x="3px" y="15px" /><rect fill="rgb(0,0,0)" height="1px" width="1px" x="4px" y="15px" /><rect fill="rgb(0,0,0)" height="1px" width="1px" x="5px" y="15px" /><rect fill="rgb(0,0,0)" height="1px" width="1px" x="6px" y="15px" /><rect fill="rgb(0,0,0)" height="1px" width="1px" x="7px" y="15px" /><rect fill="rgb(0,0,0)" height="1px" width="1px" x="8px" y="15px" /><rect fill="rgb(0,0,0)" height="1px" width="1px" x="9px" y="15px" /><rect fill="rgb(0,0,0)" height="1px" width="1px" x="10px" y="15px" /><rect fill="rgb(0,0,0)" height="1px" width="1px" x="11px" y="15px" /><rect fill="rgb(0,0,0)" height="1px" width="1px" x="12px" y="15px" /><rect fill="rgb(0,0,0)" height="1px" width="1px" x="13px" y="15px" /></svg>