<svg xmlns="http://www.w3.org/2000/svg" width="32" height="32" viewBox="0 0 32 32">
    <path fill="#dc4a38" d="M29 0H3C1.35 0 0 1.35 0 3v26c0 1.65 1.35 3 3 3h26c1.65 0 3-1.35 3-3V3c0-1.65-1.35-3-3-3zM12 24c-4.425 0-8-3.575-8-8s3.575-8 8-8c2.162 0 3.969.787 5.363 2.094l-2.175 2.088c-.594-.569-1.631-1.231-3.188-1.231-2.731 0-4.963 2.263-4.963 5.05s2.231 5.05 4.963 5.05c3.169 0 4.356-2.275 4.538-3.45h-4.537v-2.744h7.556c.069.4.125.8.125 1.325 0 4.575-3.063 7.819-7.681 7.819zm16-8h-2v2h-2v-2h-2v-2h2v-2h2v2h2v2z"/>
</svg>