<?xml version="1.0" encoding="utf-8" ?>
<svg baseProfile="full" height="16px" version="1.1" width="16px" xmlns="http://www.w3.org/2000/svg" xmlns:ev="http://www.w3.org/2001/xml-events" xmlns:xlink="http://www.w3.org/1999/xlink"><defs /><rect fill="rgb(157,112,127)" height="1px" width="1px" x="4px" y="0px" /><rect fill="rgb(206,200,206)" height="1px" width="1px" x="5px" y="0px" /><rect fill="rgb(214,228,236)" height="1px" width="1px" x="6px" y="0px" /><rect fill="rgb(134,199,243)" height="1px" width="1px" x="7px" y="0px" /><rect fill="rgb(72,152,230)" height="1px" width="1px" x="8px" y="0px" /><rect fill="rgb(91,164,223)" height="1px" width="1px" x="9px" y="0px" /><rect fill="rgb(74,95,131)" height="1px" width="1px" x="10px" y="0px" /><rect fill="rgb(65,65,106)" height="1px" width="1px" x="11px" y="0px" /><rect fill="rgb(133,186,215)" height="1px" width="1px" x="3px" y="1px" /><rect fill="rgb(148,207,241)" height="1px" width="1px" x="4px" y="1px" /><rect fill="rgb(214,246,255)" height="1px" width="1px" x="5px" y="1px" /><rect fill="rgb(173,226,255)" height="1px" width="1px" x="6px" y="1px" /><rect fill="rgb(65,170,255)" height="1px" width="1px" x="7px" y="1px" /><rect fill="rgb(43,139,249)" height="1px" width="1px" x="8px" y="1px" /><rect fill="rgb(112,185,247)" height="1px" width="1px" x="9px" y="1px" /><rect fill="rgb(182,246,255)" height="1px" width="1px" x="10px" y="1px" /><rect fill="rgb(99,165,229)" height="1px" width="1px" x="11px" y="1px" /><rect fill="rgb(32,46,76)" height="1px" width="1px" x="12px" y="1px" /><rect fill="rgb(151,208,240)" height="1px" width="1px" x="2px" y="2px" /><rect fill="rgb(79,198,255)" height="1px" width="1px" x="3px" y="2px" /><rect fill="rgb(65,190,255)" height="1px" width="1px" x="4px" y="2px" /><rect fill="rgb(168,225,255)" height="1px" width="1px" x="5px" y="2px" /><rect fill="rgb(237,249,255)" height="1px" width="1px" x="6px" y="2px" /><rect fill="rgb(209,235,255)" height="1px" width="1px" x="7px" y="2px" /><rect fill="rgb(152,202,252)" height="1px" width="1px" x="8px" y="2px" /><rect fill="rgb(165,211,250)" height="1px" width="1px" x="9px" y="2px" /><rect fill="rgb(209,248,255)" height="1px" width="1px" x="10px" y="2px" /><rect fill="rgb(166,226,255)" height="1px" width="1px" x="11px" y="2px" /><rect fill="rgb(56,106,160)" height="1px" width="1px" x="12px" y="2px" /><rect fill="rgb(29,31,56)" height="1px" width="1px" x="13px" y="2px" /><rect fill="rgb(108,137,160)" height="1px" width="1px" x="1px" y="3px" /><rect fill="rgb(84,198,255)" height="1px" width="1px" x="2px" y="3px" /><rect fill="rgb(62,180,255)" height="1px" width="1px" x="3px" y="3px" /><rect fill="rgb(122,204,255)" height="1px" width="1px" x="4px" y="3px" /><rect fill="rgb(252,254,255)" height="1px" width="1px" x="5px" y="3px" /><rect fill="rgb(255,255,255)" height="1px" width="1px" x="6px" y="3px" /><rect fill="rgb(255,255,255)" height="1px" width="1px" x="7px" y="3px" /><rect fill="rgb(250,254,255)" height="1px" width="1px" x="8px" y="3px" /><rect fill="rgb(80,147,221)" height="1px" width="1px" x="9px" y="3px" /><rect fill="rgb(68,134,206)" height="1px" width="1px" x="10px" y="3px" /><rect fill="rgb(93,150,208)" height="1px" width="1px" x="11px" y="3px" /><rect fill="rgb(67,119,177)" height="1px" width="1px" x="12px" y="3px" /><rect fill="rgb(23,58,96)" height="1px" width="1px" x="13px" y="3px" /><rect fill="rgb(20,30,47)" height="1px" width="1px" x="14px" y="3px" /><rect fill="rgb(87,35,61)" height="1px" width="1px" x="0px" y="4px" /><rect fill="rgb(181,219,245)" height="1px" width="1px" x="1px" y="4px" /><rect fill="rgb(174,228,255)" height="1px" width="1px" x="2px" y="4px" /><rect fill="rgb(120,199,255)" height="1px" width="1px" x="3px" y="4px" /><rect fill="rgb(198,231,255)" height="1px" width="1px" x="4px" y="4px" /><rect fill="rgb(255,255,255)" height="1px" width="1px" x="5px" y="4px" /><rect fill="rgb(255,255,255)" height="1px" width="1px" x="6px" y="4px" /><rect fill="rgb(255,255,255)" height="1px" width="1px" x="7px" y="4px" /><rect fill="rgb(188,214,240)" height="1px" width="1px" x="8px" y="4px" /><rect fill="rgb(42,112,192)" height="1px" width="1px" x="9px" y="4px" /><rect fill="rgb(43,108,184)" height="1px" width="1px" x="10px" y="4px" /><rect fill="rgb(32,90,156)" height="1px" width="1px" x="11px" y="4px" /><rect fill="rgb(59,110,167)" height="1px" width="1px" x="12px" y="4px" /><rect fill="rgb(69,120,177)" height="1px" width="1px" x="13px" y="4px" /><rect fill="rgb(22,51,85)" height="1px" width="1px" x="14px" y="4px" /><rect fill="rgb(0,0,0)" height="1px" width="1px" x="15px" y="4px" /><rect fill="rgb(67,85,115)" height="1px" width="1px" x="0px" y="5px" /><rect fill="rgb(247,255,255)" height="1px" width="1px" x="1px" y="5px" /><rect fill="rgb(255,255,255)" height="1px" width="1px" x="2px" y="5px" /><rect fill="rgb(225,240,255)" height="1px" width="1px" x="3px" y="5px" /><rect fill="rgb(88,161,239)" height="1px" width="1px" x="4px" y="5px" /><rect fill="rgb(128,177,230)" height="1px" width="1px" x="5px" y="5px" /><rect fill="rgb(195,218,243)" height="1px" width="1px" x="6px" y="5px" /><rect fill="rgb(235,243,252)" height="1px" width="1px" x="7px" y="5px" /><rect fill="rgb(136,179,228)" height="1px" width="1px" x="8px" y="5px" /><rect fill="rgb(29,102,184)" height="1px" width="1px" x="9px" y="5px" /><rect fill="rgb(40,102,172)" height="1px" width="1px" x="10px" y="5px" /><rect fill="rgb(36,92,154)" height="1px" width="1px" x="11px" y="5px" /><rect fill="rgb(59,109,163)" height="1px" width="1px" x="12px" y="5px" /><rect fill="rgb(75,123,176)" height="1px" width="1px" x="13px" y="5px" /><rect fill="rgb(21,55,90)" height="1px" width="1px" x="14px" y="5px" /><rect fill="rgb(23,4,9)" height="1px" width="1px" x="15px" y="5px" /><rect fill="rgb(116,145,175)" height="1px" width="1px" x="0px" y="6px" /><rect fill="rgb(255,255,255)" height="1px" width="1px" x="1px" y="6px" /><rect fill="rgb(255,255,255)" height="1px" width="1px" x="2px" y="6px" /><rect fill="rgb(159,201,246)" height="1px" width="1px" x="3px" y="6px" /><rect fill="rgb(39,121,213)" height="1px" width="1px" x="4px" y="6px" /><rect fill="rgb(67,136,215)" height="1px" width="1px" x="5px" y="6px" /><rect fill="rgb(105,162,226)" height="1px" width="1px" x="6px" y="6px" /><rect fill="rgb(125,174,230)" height="1px" width="1px" x="7px" y="6px" /><rect fill="rgb(197,220,244)" height="1px" width="1px" x="8px" y="6px" /><rect fill="rgb(141,181,225)" height="1px" width="1px" x="9px" y="6px" /><rect fill="rgb(81,134,195)" height="1px" width="1px" x="10px" y="6px" /><rect fill="rgb(42,97,158)" height="1px" width="1px" x="11px" y="6px" /><rect fill="rgb(60,108,160)" height="1px" width="1px" x="12px" y="6px" /><rect fill="rgb(72,116,166)" height="1px" width="1px" x="13px" y="6px" /><rect fill="rgb(20,53,87)" height="1px" width="1px" x="14px" y="6px" /><rect fill="rgb(15,4,8)" height="1px" width="1px" x="15px" y="6px" /><rect fill="rgb(114,176,216)" height="1px" width="1px" x="0px" y="7px" /><rect fill="rgb(232,255,255)" height="1px" width="1px" x="1px" y="7px" /><rect fill="rgb(255,255,255)" height="1px" width="1px" x="2px" y="7px" /><rect fill="rgb(98,158,224)" height="1px" width="1px" x="3px" y="7px" /><rect fill="rgb(41,114,195)" height="1px" width="1px" x="4px" y="7px" /><rect fill="rgb(66,135,213)" height="1px" width="1px" x="5px" y="7px" /><rect fill="rgb(86,150,222)" height="1px" width="1px" x="6px" y="7px" /><rect fill="rgb(120,171,228)" height="1px" width="1px" x="7px" y="7px" /><rect fill="rgb(243,250,255)" height="1px" width="1px" x="8px" y="7px" /><rect fill="rgb(217,235,255)" height="1px" width="1px" x="9px" y="7px" /><rect fill="rgb(183,213,247)" height="1px" width="1px" x="10px" y="7px" /><rect fill="rgb(136,179,226)" height="1px" width="1px" x="11px" y="7px" /><rect fill="rgb(67,111,162)" height="1px" width="1px" x="12px" y="7px" /><rect fill="rgb(41,79,123)" height="1px" width="1px" x="13px" y="7px" /><rect fill="rgb(18,45,74)" height="1px" width="1px" x="14px" y="7px" /><rect fill="rgb(4,4,9)" height="1px" width="1px" x="15px" y="7px" /><rect fill="rgb(61,129,197)" height="1px" width="1px" x="0px" y="8px" /><rect fill="rgb(86,151,207)" height="1px" width="1px" x="1px" y="8px" /><rect fill="rgb(150,201,237)" height="1px" width="1px" x="2px" y="8px" /><rect fill="rgb(83,146,212)" height="1px" width="1px" x="3px" y="8px" /><rect fill="rgb(43,109,183)" height="1px" width="1px" x="4px" y="8px" /><rect fill="rgb(41,110,188)" height="1px" width="1px" x="5px" y="8px" /><rect fill="rgb(40,113,196)" height="1px" width="1px" x="6px" y="8px" /><rect fill="rgb(128,174,226)" height="1px" width="1px" x="7px" y="8px" /><rect fill="rgb(217,235,255)" height="1px" width="1px" x="8px" y="8px" /><rect fill="rgb(186,214,246)" height="1px" width="1px" x="9px" y="8px" /><rect fill="rgb(167,203,242)" height="1px" width="1px" x="10px" y="8px" /><rect fill="rgb(141,184,234)" height="1px" width="1px" x="11px" y="8px" /><rect fill="rgb(45,84,128)" height="1px" width="1px" x="12px" y="8px" /><rect fill="rgb(10,33,57)" height="1px" width="1px" x="13px" y="8px" /><rect fill="rgb(4,11,20)" height="1px" width="1px" x="14px" y="8px" /><rect fill="rgb(7,10,15)" height="1px" width="1px" x="15px" y="8px" /><rect fill="rgb(45,90,142)" height="1px" width="1px" x="0px" y="9px" /><rect fill="rgb(30,91,162)" height="1px" width="1px" x="1px" y="9px" /><rect fill="rgb(58,123,194)" height="1px" width="1px" x="2px" y="9px" /><rect fill="rgb(175,215,251)" height="1px" width="1px" x="3px" y="9px" /><rect fill="rgb(150,189,232)" height="1px" width="1px" x="4px" y="9px" /><rect fill="rgb(109,157,210)" height="1px" width="1px" x="5px" y="9px" /><rect fill="rgb(68,125,191)" height="1px" width="1px" x="6px" y="9px" /><rect fill="rgb(146,185,229)" height="1px" width="1px" x="7px" y="9px" /><rect fill="rgb(191,220,251)" height="1px" width="1px" x="8px" y="9px" /><rect fill="rgb(169,205,245)" height="1px" width="1px" x="9px" y="9px" /><rect fill="rgb(148,192,241)" height="1px" width="1px" x="10px" y="9px" /><rect fill="rgb(103,151,205)" height="1px" width="1px" x="11px" y="9px" /><rect fill="rgb(24,56,92)" height="1px" width="1px" x="12px" y="9px" /><rect fill="rgb(10,27,45)" height="1px" width="1px" x="13px" y="9px" /><rect fill="rgb(0,2,4)" height="1px" width="1px" x="14px" y="9px" /><rect fill="rgb(15,20,23)" height="1px" width="1px" x="15px" y="9px" /><rect fill="rgb(42,68,95)" height="1px" width="1px" x="0px" y="10px" /><rect fill="rgb(27,71,121)" height="1px" width="1px" x="1px" y="10px" /><rect fill="rgb(55,107,165)" height="1px" width="1px" x="2px" y="10px" /><rect fill="rgb(151,194,242)" height="1px" width="1px" x="3px" y="10px" /><rect fill="rgb(169,203,241)" height="1px" width="1px" x="4px" y="10px" /><rect fill="rgb(178,210,245)" height="1px" width="1px" x="5px" y="10px" /><rect fill="rgb(155,194,236)" height="1px" width="1px" x="6px" y="10px" /><rect fill="rgb(69,123,182)" height="1px" width="1px" x="7px" y="10px" /><rect fill="rgb(88,137,191)" height="1px" width="1px" x="8px" y="10px" /><rect fill="rgb(108,157,212)" height="1px" width="1px" x="9px" y="10px" /><rect fill="rgb(110,162,220)" height="1px" width="1px" x="10px" y="10px" /><rect fill="rgb(57,100,147)" height="1px" width="1px" x="11px" y="10px" /><rect fill="rgb(12,32,55)" height="1px" width="1px" x="12px" y="10px" /><rect fill="rgb(5,13,22)" height="1px" width="1px" x="13px" y="10px" /><rect fill="rgb(0,0,0)" height="1px" width="1px" x="14px" y="10px" /><rect fill="rgb(13,16,23)" height="1px" width="1px" x="15px" y="10px" /><rect fill="rgb(45,36,54)" height="1px" width="1px" x="0px" y="11px" /><rect fill="rgb(23,53,90)" height="1px" width="1px" x="1px" y="11px" /><rect fill="rgb(39,84,135)" height="1px" width="1px" x="2px" y="11px" /><rect fill="rgb(102,153,210)" height="1px" width="1px" x="3px" y="11px" /><rect fill="rgb(117,161,210)" height="1px" width="1px" x="4px" y="11px" /><rect fill="rgb(130,172,218)" height="1px" width="1px" x="5px" y="11px" /><rect fill="rgb(103,150,202)" height="1px" width="1px" x="6px" y="11px" /><rect fill="rgb(29,81,138)" height="1px" width="1px" x="7px" y="11px" /><rect fill="rgb(27,76,132)" height="1px" width="1px" x="8px" y="11px" /><rect fill="rgb(27,71,121)" height="1px" width="1px" x="9px" y="11px" /><rect fill="rgb(28,65,106)" height="1px" width="1px" x="10px" y="11px" /><rect fill="rgb(27,62,101)" height="1px" width="1px" x="11px" y="11px" /><rect fill="rgb(11,27,45)" height="1px" width="1px" x="12px" y="11px" /><rect fill="rgb(0,1,2)" height="1px" width="1px" x="13px" y="11px" /><rect fill="rgb(2,3,4)" height="1px" width="1px" x="14px" y="11px" /><rect fill="rgb(22,33,33)" height="1px" width="1px" x="15px" y="11px" /><rect fill="rgb(40,56,96)" height="1px" width="1px" x="1px" y="12px" /><rect fill="rgb(27,70,114)" height="1px" width="1px" x="2px" y="12px" /><rect fill="rgb(41,81,125)" height="1px" width="1px" x="3px" y="12px" /><rect fill="rgb(61,105,154)" height="1px" width="1px" x="4px" y="12px" /><rect fill="rgb(79,126,178)" height="1px" width="1px" x="5px" y="12px" /><rect fill="rgb(48,88,133)" height="1px" width="1px" x="6px" y="12px" /><rect fill="rgb(21,56,94)" height="1px" width="1px" x="7px" y="12px" /><rect fill="rgb(23,55,91)" height="1px" width="1px" x="8px" y="12px" /><rect fill="rgb(18,44,73)" height="1px" width="1px" x="9px" y="12px" /><rect fill="rgb(16,39,65)" height="1px" width="1px" x="10px" y="12px" /><rect fill="rgb(14,36,59)" height="1px" width="1px" x="11px" y="12px" /><rect fill="rgb(3,8,14)" height="1px" width="1px" x="12px" y="12px" /><rect fill="rgb(0,0,0)" height="1px" width="1px" x="13px" y="12px" /><rect fill="rgb(7,2,2)" height="1px" width="1px" x="14px" y="12px" /><rect fill="rgb(28,47,66)" height="1px" width="1px" x="2px" y="13px" /><rect fill="rgb(6,20,36)" height="1px" width="1px" x="3px" y="13px" /><rect fill="rgb(11,31,52)" height="1px" width="1px" x="4px" y="13px" /><rect fill="rgb(20,45,75)" height="1px" width="1px" x="5px" y="13px" /><rect fill="rgb(22,52,86)" height="1px" width="1px" x="6px" y="13px" /><rect fill="rgb(18,43,70)" height="1px" width="1px" x="7px" y="13px" /><rect fill="rgb(12,29,48)" height="1px" width="1px" x="8px" y="13px" /><rect fill="rgb(8,20,33)" height="1px" width="1px" x="9px" y="13px" /><rect fill="rgb(6,16,27)" height="1px" width="1px" x="10px" y="13px" /><rect fill="rgb(1,2,5)" height="1px" width="1px" x="11px" y="13px" /><rect fill="rgb(0,0,0)" height="1px" width="1px" x="12px" y="13px" /><rect fill="rgb(16,0,3)" height="1px" width="1px" x="13px" y="13px" /><rect fill="rgb(14,19,26)" height="1px" width="1px" x="3px" y="14px" /><rect fill="rgb(3,6,10)" height="1px" width="1px" x="4px" y="14px" /><rect fill="rgb(1,5,10)" height="1px" width="1px" x="5px" y="14px" /><rect fill="rgb(7,19,33)" height="1px" width="1px" x="6px" y="14px" /><rect fill="rgb(8,21,36)" height="1px" width="1px" x="7px" y="14px" /><rect fill="rgb(3,8,14)" height="1px" width="1px" x="8px" y="14px" /><rect fill="rgb(0,2,3)" height="1px" width="1px" x="9px" y="14px" /><rect fill="rgb(0,0,0)" height="1px" width="1px" x="10px" y="14px" /><rect fill="rgb(1,2,3)" height="1px" width="1px" x="11px" y="14px" /><rect fill="rgb(9,4,7)" height="1px" width="1px" x="12px" y="14px" /><rect fill="rgb(10,10,21)" height="1px" width="1px" x="4px" y="15px" /><rect fill="rgb(11,16,21)" height="1px" width="1px" x="5px" y="15px" /><rect fill="rgb(7,0,0)" height="1px" width="1px" x="6px" y="15px" /><rect fill="rgb(3,3,3)" height="1px" width="1px" x="7px" y="15px" /><rect fill="rgb(3,1,3)" height="1px" width="1px" x="8px" y="15px" /><rect fill="rgb(7,1,1)" height="1px" width="1px" x="9px" y="15px" /><rect fill="rgb(11,4,11)" height="1px" width="1px" x="10px" y="15px" /><rect fill="rgb(9,9,19)" height="1px" width="1px" x="11px" y="15px" /></svg>