<?xml version="1.0" encoding="utf-8" ?>
<svg baseProfile="full" height="16px" version="1.1" width="16px" xmlns="http://www.w3.org/2000/svg" xmlns:ev="http://www.w3.org/2001/xml-events" xmlns:xlink="http://www.w3.org/1999/xlink"><defs /><rect fill="rgb(255,255,255)" height="1px" width="1px" x="0px" y="0px" /><rect fill="rgb(255,255,255)" height="1px" width="1px" x="1px" y="0px" /><rect fill="rgb(255,255,255)" height="1px" width="1px" x="2px" y="0px" /><rect fill="rgb(252,252,252)" height="1px" width="1px" x="3px" y="0px" /><rect fill="rgb(2,2,2)" height="1px" width="1px" x="6px" y="0px" /><rect fill="rgb(1,1,1)" height="1px" width="1px" x="7px" y="0px" /><rect fill="rgb(1,1,1)" height="1px" width="1px" x="8px" y="0px" /><rect fill="rgb(3,3,3)" height="1px" width="1px" x="9px" y="0px" /><rect fill="rgb(255,255,255)" height="1px" width="1px" x="12px" y="0px" /><rect fill="rgb(255,255,255)" height="1px" width="1px" x="13px" y="0px" /><rect fill="rgb(255,255,255)" height="1px" width="1px" x="14px" y="0px" /><rect fill="rgb(255,255,255)" height="1px" width="1px" x="15px" y="0px" /><rect fill="rgb(255,255,255)" height="1px" width="1px" x="0px" y="1px" /><rect fill="rgb(255,255,255)" height="1px" width="1px" x="1px" y="1px" /><rect fill="rgb(180,180,180)" height="1px" width="1px" x="2px" y="1px" /><rect fill="rgb(0,0,0)" height="1px" width="1px" x="4px" y="1px" /><rect fill="rgb(0,0,0)" height="1px" width="1px" x="5px" y="1px" /><rect fill="rgb(0,0,0)" height="1px" width="1px" x="6px" y="1px" /><rect fill="rgb(0,0,0)" height="1px" width="1px" x="7px" y="1px" /><rect fill="rgb(0,0,0)" height="1px" width="1px" x="8px" y="1px" /><rect fill="rgb(0,0,0)" height="1px" width="1px" x="9px" y="1px" /><rect fill="rgb(0,0,0)" height="1px" width="1px" x="10px" y="1px" /><rect fill="rgb(1,1,1)" height="1px" width="1px" x="11px" y="1px" /><rect fill="rgb(221,221,221)" height="1px" width="1px" x="13px" y="1px" /><rect fill="rgb(255,255,255)" height="1px" width="1px" x="14px" y="1px" /><rect fill="rgb(255,255,255)" height="1px" width="1px" x="15px" y="1px" /><rect fill="rgb(255,255,255)" height="1px" width="1px" x="0px" y="2px" /><rect fill="rgb(180,180,180)" height="1px" width="1px" x="1px" y="2px" /><rect fill="rgb(12,12,12)" height="1px" width="1px" x="2px" y="2px" /><rect fill="rgb(0,0,0)" height="1px" width="1px" x="3px" y="2px" /><rect fill="rgb(0,0,0)" height="1px" width="1px" x="4px" y="2px" /><rect fill="rgb(0,0,0)" height="1px" width="1px" x="5px" y="2px" /><rect fill="rgb(0,0,0)" height="1px" width="1px" x="6px" y="2px" /><rect fill="rgb(0,0,0)" height="1px" width="1px" x="7px" y="2px" /><rect fill="rgb(0,0,0)" height="1px" width="1px" x="8px" y="2px" /><rect fill="rgb(0,0,0)" height="1px" width="1px" x="9px" y="2px" /><rect fill="rgb(0,0,0)" height="1px" width="1px" x="10px" y="2px" /><rect fill="rgb(0,0,0)" height="1px" width="1px" x="11px" y="2px" /><rect fill="rgb(0,0,0)" height="1px" width="1px" x="12px" y="2px" /><rect fill="rgb(229,229,229)" height="1px" width="1px" x="14px" y="2px" /><rect fill="rgb(255,255,255)" height="1px" width="1px" x="15px" y="2px" /><rect fill="rgb(252,252,252)" height="1px" width="1px" x="0px" y="3px" /><rect fill="rgb(0,0,0)" height="1px" width="1px" x="2px" y="3px" /><rect fill="rgb(0,0,0)" height="1px" width="1px" x="3px" y="3px" /><rect fill="rgb(0,0,0)" height="1px" width="1px" x="4px" y="3px" /><rect fill="rgb(18,18,18)" height="1px" width="1px" x="5px" y="3px" /><rect fill="rgb(64,64,64)" height="1px" width="1px" x="6px" y="3px" /><rect fill="rgb(0,0,0)" height="1px" width="1px" x="7px" y="3px" /><rect fill="rgb(0,0,0)" height="1px" width="1px" x="8px" y="3px" /><rect fill="rgb(0,0,0)" height="1px" width="1px" x="9px" y="3px" /><rect fill="rgb(0,0,0)" height="1px" width="1px" x="10px" y="3px" /><rect fill="rgb(0,0,0)" height="1px" width="1px" x="11px" y="3px" /><rect fill="rgb(0,0,0)" height="1px" width="1px" x="12px" y="3px" /><rect fill="rgb(0,0,0)" height="1px" width="1px" x="13px" y="3px" /><rect fill="rgb(255,255,255)" height="1px" width="1px" x="15px" y="3px" /><rect fill="rgb(0,0,0)" height="1px" width="1px" x="1px" y="4px" /><rect fill="rgb(0,0,0)" height="1px" width="1px" x="2px" y="4px" /><rect fill="rgb(0,0,0)" height="1px" width="1px" x="3px" y="4px" /><rect fill="rgb(0,0,0)" height="1px" width="1px" x="4px" y="4px" /><rect fill="rgb(159,159,159)" height="1px" width="1px" x="5px" y="4px" /><rect fill="rgb(255,255,255)" height="1px" width="1px" x="6px" y="4px" /><rect fill="rgb(255,255,255)" height="1px" width="1px" x="7px" y="4px" /><rect fill="rgb(170,170,170)" height="1px" width="1px" x="8px" y="4px" /><rect fill="rgb(14,14,14)" height="1px" width="1px" x="9px" y="4px" /><rect fill="rgb(0,0,0)" height="1px" width="1px" x="10px" y="4px" /><rect fill="rgb(0,0,0)" height="1px" width="1px" x="11px" y="4px" /><rect fill="rgb(0,0,0)" height="1px" width="1px" x="12px" y="4px" /><rect fill="rgb(0,0,0)" height="1px" width="1px" x="13px" y="4px" /><rect fill="rgb(1,1,1)" height="1px" width="1px" x="14px" y="4px" /><rect fill="rgb(242,242,242)" height="1px" width="1px" x="15px" y="4px" /><rect fill="rgb(0,0,0)" height="1px" width="1px" x="1px" y="5px" /><rect fill="rgb(0,0,0)" height="1px" width="1px" x="2px" y="5px" /><rect fill="rgb(0,0,0)" height="1px" width="1px" x="3px" y="5px" /><rect fill="rgb(0,0,0)" height="1px" width="1px" x="4px" y="5px" /><rect fill="rgb(0,0,0)" height="1px" width="1px" x="5px" y="5px" /><rect fill="rgb(0,0,0)" height="1px" width="1px" x="6px" y="5px" /><rect fill="rgb(90,90,90)" height="1px" width="1px" x="7px" y="5px" /><rect fill="rgb(241,241,241)" height="1px" width="1px" x="8px" y="5px" /><rect fill="rgb(253,253,253)" height="1px" width="1px" x="9px" y="5px" /><rect fill="rgb(47,47,47)" height="1px" width="1px" x="10px" y="5px" /><rect fill="rgb(0,0,0)" height="1px" width="1px" x="11px" y="5px" /><rect fill="rgb(0,0,0)" height="1px" width="1px" x="12px" y="5px" /><rect fill="rgb(0,0,0)" height="1px" width="1px" x="13px" y="5px" /><rect fill="rgb(0,0,0)" height="1px" width="1px" x="14px" y="5px" /><rect fill="rgb(2,2,2)" height="1px" width="1px" x="0px" y="6px" /><rect fill="rgb(0,0,0)" height="1px" width="1px" x="1px" y="6px" /><rect fill="rgb(0,0,0)" height="1px" width="1px" x="2px" y="6px" /><rect fill="rgb(0,0,0)" height="1px" width="1px" x="3px" y="6px" /><rect fill="rgb(86,86,86)" height="1px" width="1px" x="4px" y="6px" /><rect fill="rgb(186,186,186)" height="1px" width="1px" x="5px" y="6px" /><rect fill="rgb(103,103,103)" height="1px" width="1px" x="6px" y="6px" /><rect fill="rgb(0,0,0)" height="1px" width="1px" x="7px" y="6px" /><rect fill="rgb(0,0,0)" height="1px" width="1px" x="8px" y="6px" /><rect fill="rgb(220,220,220)" height="1px" width="1px" x="9px" y="6px" /><rect fill="rgb(245,245,245)" height="1px" width="1px" x="10px" y="6px" /><rect fill="rgb(0,0,0)" height="1px" width="1px" x="11px" y="6px" /><rect fill="rgb(0,0,0)" height="1px" width="1px" x="12px" y="6px" /><rect fill="rgb(0,0,0)" height="1px" width="1px" x="13px" y="6px" /><rect fill="rgb(0,0,0)" height="1px" width="1px" x="14px" y="6px" /><rect fill="rgb(1,1,1)" height="1px" width="1px" x="0px" y="7px" /><rect fill="rgb(0,0,0)" height="1px" width="1px" x="1px" y="7px" /><rect fill="rgb(0,0,0)" height="1px" width="1px" x="2px" y="7px" /><rect fill="rgb(0,0,0)" height="1px" width="1px" x="3px" y="7px" /><rect fill="rgb(66,66,66)" height="1px" width="1px" x="4px" y="7px" /><rect fill="rgb(163,163,163)" height="1px" width="1px" x="5px" y="7px" /><rect fill="rgb(255,255,255)" height="1px" width="1px" x="6px" y="7px" /><rect fill="rgb(228,228,228)" height="1px" width="1px" x="7px" y="7px" /><rect fill="rgb(7,7,7)" height="1px" width="1px" x="8px" y="7px" /><rect fill="rgb(19,19,19)" height="1px" width="1px" x="9px" y="7px" /><rect fill="rgb(255,255,255)" height="1px" width="1px" x="10px" y="7px" /><rect fill="rgb(105,105,105)" height="1px" width="1px" x="11px" y="7px" /><rect fill="rgb(0,0,0)" height="1px" width="1px" x="12px" y="7px" /><rect fill="rgb(0,0,0)" height="1px" width="1px" x="13px" y="7px" /><rect fill="rgb(0,0,0)" height="1px" width="1px" x="14px" y="7px" /><rect fill="rgb(4,4,4)" height="1px" width="1px" x="15px" y="7px" /><rect fill="rgb(1,1,1)" height="1px" width="1px" x="0px" y="8px" /><rect fill="rgb(0,0,0)" height="1px" width="1px" x="1px" y="8px" /><rect fill="rgb(0,0,0)" height="1px" width="1px" x="2px" y="8px" /><rect fill="rgb(0,0,0)" height="1px" width="1px" x="3px" y="8px" /><rect fill="rgb(0,0,0)" height="1px" width="1px" x="4px" y="8px" /><rect fill="rgb(0,0,0)" height="1px" width="1px" x="5px" y="8px" /><rect fill="rgb(26,26,26)" height="1px" width="1px" x="6px" y="8px" /><rect fill="rgb(247,247,247)" height="1px" width="1px" x="7px" y="8px" /><rect fill="rgb(176,176,176)" height="1px" width="1px" x="8px" y="8px" /><rect fill="rgb(0,0,0)" height="1px" width="1px" x="9px" y="8px" /><rect fill="rgb(179,179,179)" height="1px" width="1px" x="10px" y="8px" /><rect fill="rgb(187,187,187)" height="1px" width="1px" x="11px" y="8px" /><rect fill="rgb(0,0,0)" height="1px" width="1px" x="12px" y="8px" /><rect fill="rgb(0,0,0)" height="1px" width="1px" x="13px" y="8px" /><rect fill="rgb(0,0,0)" height="1px" width="1px" x="14px" y="8px" /><rect fill="rgb(4,4,4)" height="1px" width="1px" x="15px" y="8px" /><rect fill="rgb(3,3,3)" height="1px" width="1px" x="0px" y="9px" /><rect fill="rgb(0,0,0)" height="1px" width="1px" x="1px" y="9px" /><rect fill="rgb(0,0,0)" height="1px" width="1px" x="2px" y="9px" /><rect fill="rgb(0,0,0)" height="1px" width="1px" x="3px" y="9px" /><rect fill="rgb(0,0,0)" height="1px" width="1px" x="4px" y="9px" /><rect fill="rgb(0,0,0)" height="1px" width="1px" x="5px" y="9px" /><rect fill="rgb(0,0,0)" height="1px" width="1px" x="6px" y="9px" /><rect fill="rgb(99,99,99)" height="1px" width="1px" x="7px" y="9px" /><rect fill="rgb(255,255,255)" height="1px" width="1px" x="8px" y="9px" /><rect fill="rgb(0,0,0)" height="1px" width="1px" x="9px" y="9px" /><rect fill="rgb(114,114,114)" height="1px" width="1px" x="10px" y="9px" /><rect fill="rgb(227,227,227)" height="1px" width="1px" x="11px" y="9px" /><rect fill="rgb(0,0,0)" height="1px" width="1px" x="12px" y="9px" /><rect fill="rgb(0,0,0)" height="1px" width="1px" x="13px" y="9px" /><rect fill="rgb(0,0,0)" height="1px" width="1px" x="14px" y="9px" /><rect fill="rgb(0,0,0)" height="1px" width="1px" x="1px" y="10px" /><rect fill="rgb(0,0,0)" height="1px" width="1px" x="2px" y="10px" /><rect fill="rgb(0,0,0)" height="1px" width="1px" x="3px" y="10px" /><rect fill="rgb(0,0,0)" height="1px" width="1px" x="4px" y="10px" /><rect fill="rgb(0,0,0)" height="1px" width="1px" x="5px" y="10px" /><rect fill="rgb(0,0,0)" height="1px" width="1px" x="6px" y="10px" /><rect fill="rgb(22,22,22)" height="1px" width="1px" x="7px" y="10px" /><rect fill="rgb(255,255,255)" height="1px" width="1px" x="8px" y="10px" /><rect fill="rgb(28,28,28)" height="1px" width="1px" x="9px" y="10px" /><rect fill="rgb(96,96,96)" height="1px" width="1px" x="10px" y="10px" /><rect fill="rgb(229,229,229)" height="1px" width="1px" x="11px" y="10px" /><rect fill="rgb(0,0,0)" height="1px" width="1px" x="12px" y="10px" /><rect fill="rgb(0,0,0)" height="1px" width="1px" x="13px" y="10px" /><rect fill="rgb(0,0,0)" height="1px" width="1px" x="14px" y="10px" /><rect fill="rgb(1,1,1)" height="1px" width="1px" x="1px" y="11px" /><rect fill="rgb(0,0,0)" height="1px" width="1px" x="2px" y="11px" /><rect fill="rgb(0,0,0)" height="1px" width="1px" x="3px" y="11px" /><rect fill="rgb(0,0,0)" height="1px" width="1px" x="4px" y="11px" /><rect fill="rgb(0,0,0)" height="1px" width="1px" x="5px" y="11px" /><rect fill="rgb(0,0,0)" height="1px" width="1px" x="6px" y="11px" /><rect fill="rgb(1,1,1)" height="1px" width="1px" x="7px" y="11px" /><rect fill="rgb(170,170,170)" height="1px" width="1px" x="8px" y="11px" /><rect fill="rgb(0,0,0)" height="1px" width="1px" x="9px" y="11px" /><rect fill="rgb(8,8,8)" height="1px" width="1px" x="10px" y="11px" /><rect fill="rgb(9,9,9)" height="1px" width="1px" x="11px" y="11px" /><rect fill="rgb(0,0,0)" height="1px" width="1px" x="12px" y="11px" /><rect fill="rgb(0,0,0)" height="1px" width="1px" x="13px" y="11px" /><rect fill="rgb(3,3,3)" height="1px" width="1px" x="14px" y="11px" /><rect fill="rgb(211,211,211)" height="1px" width="1px" x="15px" y="11px" /><rect fill="rgb(255,255,255)" height="1px" width="1px" x="0px" y="12px" /><rect fill="rgb(0,0,0)" height="1px" width="1px" x="2px" y="12px" /><rect fill="rgb(0,0,0)" height="1px" width="1px" x="3px" y="12px" /><rect fill="rgb(0,0,0)" height="1px" width="1px" x="4px" y="12px" /><rect fill="rgb(0,0,0)" height="1px" width="1px" x="5px" y="12px" /><rect fill="rgb(0,0,0)" height="1px" width="1px" x="6px" y="12px" /><rect fill="rgb(0,0,0)" height="1px" width="1px" x="7px" y="12px" /><rect fill="rgb(0,0,0)" height="1px" width="1px" x="8px" y="12px" /><rect fill="rgb(0,0,0)" height="1px" width="1px" x="9px" y="12px" /><rect fill="rgb(0,0,0)" height="1px" width="1px" x="10px" y="12px" /><rect fill="rgb(0,0,0)" height="1px" width="1px" x="11px" y="12px" /><rect fill="rgb(0,0,0)" height="1px" width="1px" x="12px" y="12px" /><rect fill="rgb(0,0,0)" height="1px" width="1px" x="13px" y="12px" /><rect fill="rgb(255,255,255)" height="1px" width="1px" x="15px" y="12px" /><rect fill="rgb(255,255,255)" height="1px" width="1px" x="0px" y="13px" /><rect fill="rgb(221,221,221)" height="1px" width="1px" x="1px" y="13px" /><rect fill="rgb(0,0,0)" height="1px" width="1px" x="3px" y="13px" /><rect fill="rgb(0,0,0)" height="1px" width="1px" x="4px" y="13px" /><rect fill="rgb(0,0,0)" height="1px" width="1px" x="5px" y="13px" /><rect fill="rgb(0,0,0)" height="1px" width="1px" x="6px" y="13px" /><rect fill="rgb(0,0,0)" height="1px" width="1px" x="7px" y="13px" /><rect fill="rgb(0,0,0)" height="1px" width="1px" x="8px" y="13px" /><rect fill="rgb(0,0,0)" height="1px" width="1px" x="9px" y="13px" /><rect fill="rgb(0,0,0)" height="1px" width="1px" x="10px" y="13px" /><rect fill="rgb(0,0,0)" height="1px" width="1px" x="11px" y="13px" /><rect fill="rgb(0,0,0)" height="1px" width="1px" x="12px" y="13px" /><rect fill="rgb(252,252,252)" height="1px" width="1px" x="14px" y="13px" /><rect fill="rgb(255,255,255)" height="1px" width="1px" x="15px" y="13px" /><rect fill="rgb(255,255,255)" height="1px" width="1px" x="0px" y="14px" /><rect fill="rgb(255,255,255)" height="1px" width="1px" x="1px" y="14px" /><rect fill="rgb(229,229,229)" height="1px" width="1px" x="2px" y="14px" /><rect fill="rgb(1,1,1)" height="1px" width="1px" x="4px" y="14px" /><rect fill="rgb(0,0,0)" height="1px" width="1px" x="5px" y="14px" /><rect fill="rgb(0,0,0)" height="1px" width="1px" x="6px" y="14px" /><rect fill="rgb(0,0,0)" height="1px" width="1px" x="7px" y="14px" /><rect fill="rgb(0,0,0)" height="1px" width="1px" x="8px" y="14px" /><rect fill="rgb(0,0,0)" height="1px" width="1px" x="9px" y="14px" /><rect fill="rgb(0,0,0)" height="1px" width="1px" x="10px" y="14px" /><rect fill="rgb(3,3,3)" height="1px" width="1px" x="11px" y="14px" /><rect fill="rgb(252,252,252)" height="1px" width="1px" x="13px" y="14px" /><rect fill="rgb(255,255,255)" height="1px" width="1px" x="14px" y="14px" /><rect fill="rgb(255,255,255)" height="1px" width="1px" x="15px" y="14px" /><rect fill="rgb(255,255,255)" height="1px" width="1px" x="0px" y="15px" /><rect fill="rgb(255,255,255)" height="1px" width="1px" x="1px" y="15px" /><rect fill="rgb(255,255,255)" height="1px" width="1px" x="2px" y="15px" /><rect fill="rgb(255,255,255)" height="1px" width="1px" x="3px" y="15px" /><rect fill="rgb(242,242,242)" height="1px" width="1px" x="4px" y="15px" /><rect fill="rgb(4,4,4)" height="1px" width="1px" x="7px" y="15px" /><rect fill="rgb(4,4,4)" height="1px" width="1px" x="8px" y="15px" /><rect fill="rgb(211,211,211)" height="1px" width="1px" x="11px" y="15px" /><rect fill="rgb(255,255,255)" height="1px" width="1px" x="12px" y="15px" /><rect fill="rgb(255,255,255)" height="1px" width="1px" x="13px" y="15px" /><rect fill="rgb(255,255,255)" height="1px" width="1px" x="14px" y="15px" /><rect fill="rgb(255,255,255)" height="1px" width="1px" x="15px" y="15px" /></svg>