<?xml version="1.0" encoding="UTF-8" standalone="no"?>
<svg xmlns="http://www.w3.org/2000/svg" version="1.1" viewBox="0 0 64 64">
    <g transform="translate(-116.04724,-718.18109)">
        <circle style="fill:#000000;" cx="148.04724" cy="750.18109" r="32"/>
        <path d="m 152.30224,766.60325 c -0.2772,-0.2004 -0.3536,-0.46552 -0.4424,-1.53408 -0.69012,-8.30396 -5.39664,-14.37072 -13.168,-16.97364 -1.66932,-0.55912 -4.25208,-1.115 -5.18064,-1.115 -0.9062,0 -1.26452,-0.4 -1.26452,-1.41128 0,-1.63184 0.6262,-2.37344 2.07916,-2.46244 1.62228,-0.0992 5.8486,0.89936 8.74176,2.06572 6.0256,2.42916 9.202,5.81684 11.28128,12.03164 1.15436,3.45024 1.69176,7.63544 1.0906,8.49368 -0.56724,0.80988 -2.4986,1.36728 -3.13724,0.9054 z m 9.32968,-1.14552 c -0.3428,-0.2776 -0.3932,-0.49636 -0.58344,-2.536 -0.3816,-4.09424 -1.2178,-7.0576 -3.0208,-10.70684 -1.59548,-3.22932 -3.63284,-5.8176 -6.32788,-8.039 -4.225,-3.48252 -10.33044,-5.96816 -16.27856,-6.62736 -1.5398,-0.1708 -1.68544,-0.2164 -1.98832,-0.62304 -0.48908,-0.65672 -0.43936,-2.23488 0.108,-3.4306 0.358,-0.78192 0.5112,-0.94532 1.15276,-1.22912 0.66112,-0.2924 0.91508,-0.316 2.38584,-0.2208 5.14592,0.3328 13.11604,3.10628 17.82336,6.20252 1.98904,1.30832 4.77672,4.09704 6.07448,6.0768 3.11592,4.75336 5.48988,12.28848 5.54604,17.60356 0.016,1.68452 -0.016,1.95076 -0.2992,2.34376 -0.81692,1.13364 -3.72832,1.88564 -4.59216,1.18616 z" style="fill:#ffffff;"/>
    </g>
</svg>
