<?xml version="1.0" encoding="UTF-8" standalone="no"?>
<svg xmlns="http://www.w3.org/2000/svg" version="1.1" viewBox="0 0 16 16">
    <rect fill="rgb(215,156,65)" height="1px" width="1px" x="2px" y="0px"/>
    <rect fill="rgb(219,170,93)" height="1px" width="1px" x="3px" y="0px"/>
    <rect fill="rgb(248,235,217)" height="1px" width="1px" x="0px" y="1px"/>
    <rect fill="rgb(240,213,175)" height="1px" width="1px" x="1px" y="1px"/>
    <rect fill="rgb(226,184,123)" height="1px" width="1px" x="2px" y="1px"/>
    <rect fill="rgb(233,206,159)" height="1px" width="1px" x="3px" y="1px"/>
    <rect fill="rgb(248,244,235)" height="1px" width="1px" x="4px" y="1px"/>
    <rect fill="rgb(245,232,212)" height="1px" width="1px" x="5px" y="1px"/>
    <rect fill="rgb(235,205,159)" height="1px" width="1px" x="6px" y="1px"/>
    <rect fill="rgb(216,160,75)" height="1px" width="1px" x="7px" y="1px"/>
    <rect fill="rgb(227,188,126)" height="1px" width="1px" x="8px" y="1px"/>
    <rect fill="rgb(241,220,190)" height="1px" width="1px" x="9px" y="1px"/>
    <rect fill="rgb(246,231,209)" height="1px" width="1px" x="10px" y="1px"/>
    <rect fill="rgb(252,243,236)" height="1px" width="1px" x="11px" y="1px"/>
    <rect fill="rgb(234,200,153)" height="1px" width="1px" x="0px" y="2px"/>
    <rect fill="rgb(232,198,151)" height="1px" width="1px" x="1px" y="2px"/>
    <rect fill="rgb(214,148,49)" height="1px" width="1px" x="2px" y="2px"/>
    <rect fill="rgb(236,205,159)" height="1px" width="1px" x="3px" y="2px"/>
    <rect fill="rgb(250,239,225)" height="1px" width="1px" x="4px" y="2px"/>
    <rect fill="rgb(247,235,222)" height="1px" width="1px" x="5px" y="2px"/>
    <rect fill="rgb(252,243,236)" height="1px" width="1px" x="6px" y="2px"/>
    <rect fill="rgb(228,184,117)" height="1px" width="1px" x="7px" y="2px"/>
    <rect fill="rgb(237,206,160)" height="1px" width="1px" x="8px" y="2px"/>
    <rect fill="rgb(250,239,225)" height="1px" width="1px" x="9px" y="2px"/>
    <rect fill="rgb(252,243,236)" height="1px" width="1px" x="10px" y="2px"/>
    <rect fill="rgb(245,231,212)" height="1px" width="1px" x="11px" y="2px"/>
    <rect fill="rgb(219,168,91)" height="1px" width="1px" x="12px" y="2px"/>
    <rect fill="rgb(237,207,164)" height="1px" width="1px" x="0px" y="3px"/>
    <rect fill="rgb(234,200,153)" height="1px" width="1px" x="1px" y="3px"/>
    <rect fill="rgb(210,151,57)" height="1px" width="1px" x="2px" y="3px"/>
    <rect fill="rgb(248,236,223)" height="1px" width="1px" x="3px" y="3px"/>
    <rect fill="rgb(246,245,236)" height="1px" width="1px" x="4px" y="3px"/>
    <rect fill="rgb(252,243,236)" height="1px" width="1px" x="5px" y="3px"/>
    <rect fill="rgb(250,239,225)" height="1px" width="1px" x="6px" y="3px"/>
    <rect fill="rgb(214,154,60)" height="1px" width="1px" x="7px" y="3px"/>
    <rect fill="rgb(209,144,44)" height="1px" width="1px" x="8px" y="3px"/>
    <rect fill="rgb(227,191,128)" height="1px" width="1px" x="9px" y="3px"/>
    <rect fill="rgb(251,242,235)" height="1px" width="1px" x="10px" y="3px"/>
    <rect fill="rgb(238,217,180)" height="1px" width="1px" x="11px" y="3px"/>
    <rect fill="rgb(211,152,58)" height="1px" width="1px" x="12px" y="3px"/>
    <rect fill="rgb(240,220,191)" height="1px" width="1px" x="1px" y="4px"/>
    <rect fill="rgb(225,182,115)" height="1px" width="1px" x="2px" y="4px"/>
    <rect fill="rgb(250,239,225)" height="1px" width="1px" x="3px" y="4px"/>
    <rect fill="rgb(252,243,236)" height="1px" width="1px" x="4px" y="4px"/>
    <rect fill="rgb(250,239,225)" height="1px" width="1px" x="5px" y="4px"/>
    <rect fill="rgb(216,157,70)" height="1px" width="1px" x="6px" y="4px"/>
    <rect fill="rgb(214,148,49)" height="1px" width="1px" x="7px" y="4px"/>
    <rect fill="rgb(223,178,106)" height="1px" width="1px" x="8px" y="4px"/>
    <rect fill="rgb(228,184,117)" height="1px" width="1px" x="9px" y="4px"/>
    <rect fill="rgb(208,143,34)" height="1px" width="1px" x="10px" y="4px"/>
    <rect fill="rgb(231,198,146)" height="1px" width="1px" x="11px" y="4px"/>
    <rect fill="rgb(214,148,49)" height="1px" width="1px" x="12px" y="4px"/>
    <rect fill="rgb(245,231,212)" height="1px" width="1px" x="13px" y="4px"/>
    <rect fill="rgb(233,208,164)" height="1px" width="1px" x="1px" y="5px"/>
    <rect fill="rgb(225,182,115)" height="1px" width="1px" x="2px" y="5px"/>
    <rect fill="rgb(252,243,236)" height="1px" width="1px" x="3px" y="5px"/>
    <rect fill="rgb(247,235,222)" height="1px" width="1px" x="4px" y="5px"/>
    <rect fill="rgb(250,239,225)" height="1px" width="1px" x="5px" y="5px"/>
    <rect fill="rgb(210,145,45)" height="1px" width="1px" x="6px" y="5px"/>
    <rect fill="rgb(220,175,103)" height="1px" width="1px" x="7px" y="5px"/>
    <rect fill="rgb(228,184,117)" height="1px" width="1px" x="8px" y="5px"/>
    <rect fill="rgb(214,155,68)" height="1px" width="1px" x="9px" y="5px"/>
    <rect fill="rgb(234,213,177)" height="1px" width="1px" x="10px" y="5px"/>
    <rect fill="rgb(252,243,236)" height="1px" width="1px" x="11px" y="5px"/>
    <rect fill="rgb(228,184,117)" height="1px" width="1px" x="12px" y="5px"/>
    <rect fill="rgb(237,207,167)" height="1px" width="1px" x="13px" y="5px"/>
    <rect fill="rgb(235,201,154)" height="1px" width="1px" x="1px" y="6px"/>
    <rect fill="rgb(216,164,81)" height="1px" width="1px" x="2px" y="6px"/>
    <rect fill="rgb(247,235,222)" height="1px" width="1px" x="3px" y="6px"/>
    <rect fill="rgb(247,235,222)" height="1px" width="1px" x="4px" y="6px"/>
    <rect fill="rgb(214,154,60)" height="1px" width="1px" x="5px" y="6px"/>
    <rect fill="rgb(218,166,83)" height="1px" width="1px" x="6px" y="6px"/>
    <rect fill="rgb(228,184,117)" height="1px" width="1px" x="7px" y="6px"/>
    <rect fill="rgb(228,184,117)" height="1px" width="1px" x="8px" y="6px"/>
    <rect fill="rgb(231,188,127)" height="1px" width="1px" x="9px" y="6px"/>
    <rect fill="rgb(247,235,222)" height="1px" width="1px" x="10px" y="6px"/>
    <rect fill="rgb(252,243,236)" height="1px" width="1px" x="11px" y="6px"/>
    <rect fill="rgb(247,235,222)" height="1px" width="1px" x="12px" y="6px"/>
    <rect fill="rgb(230,187,126)" height="1px" width="1px" x="13px" y="6px"/>
    <rect fill="rgb(235,211,173)" height="1px" width="1px" x="1px" y="7px"/>
    <rect fill="rgb(228,184,117)" height="1px" width="1px" x="2px" y="7px"/>
    <rect fill="rgb(250,239,225)" height="1px" width="1px" x="3px" y="7px"/>
    <rect fill="rgb(246,232,213)" height="1px" width="1px" x="4px" y="7px"/>
    <rect fill="rgb(219,168,91)" height="1px" width="1px" x="5px" y="7px"/>
    <rect fill="rgb(228,184,117)" height="1px" width="1px" x="6px" y="7px"/>
    <rect fill="rgb(228,184,117)" height="1px" width="1px" x="7px" y="7px"/>
    <rect fill="rgb(236,205,159)" height="1px" width="1px" x="8px" y="7px"/>
    <rect fill="rgb(248,236,223)" height="1px" width="1px" x="9px" y="7px"/>
    <rect fill="rgb(250,239,225)" height="1px" width="1px" x="10px" y="7px"/>
    <rect fill="rgb(252,243,236)" height="1px" width="1px" x="11px" y="7px"/>
    <rect fill="rgb(250,239,225)" height="1px" width="1px" x="12px" y="7px"/>
    <rect fill="rgb(250,241,234)" height="1px" width="1px" x="13px" y="7px"/>
    <rect fill="rgb(244,227,202)" height="1px" width="1px" x="14px" y="7px"/>
    <rect fill="rgb(238,216,183)" height="1px" width="1px" x="1px" y="8px"/>
    <rect fill="rgb(230,197,145)" height="1px" width="1px" x="2px" y="8px"/>
    <rect fill="rgb(250,241,234)" height="1px" width="1px" x="3px" y="8px"/>
    <rect fill="rgb(234,213,177)" height="1px" width="1px" x="4px" y="8px"/>
    <rect fill="rgb(228,184,117)" height="1px" width="1px" x="5px" y="8px"/>
    <rect fill="rgb(225,182,115)" height="1px" width="1px" x="6px" y="8px"/>
    <rect fill="rgb(236,213,171)" height="1px" width="1px" x="7px" y="8px"/>
    <rect fill="rgb(247,235,222)" height="1px" width="1px" x="8px" y="8px"/>
    <rect fill="rgb(248,236,223)" height="1px" width="1px" x="9px" y="8px"/>
    <rect fill="rgb(251,240,227)" height="1px" width="1px" x="10px" y="8px"/>
    <rect fill="rgb(250,241,234)" height="1px" width="1px" x="11px" y="8px"/>
    <rect fill="rgb(222,177,105)" height="1px" width="1px" x="12px" y="8px"/>
    <rect fill="rgb(216,164,81)" height="1px" width="1px" x="13px" y="8px"/>
    <rect fill="rgb(225,182,115)" height="1px" width="1px" x="14px" y="8px"/>
    <rect fill="rgb(238,216,183)" height="1px" width="1px" x="1px" y="9px"/>
    <rect fill="rgb(239,220,190)" height="1px" width="1px" x="2px" y="9px"/>
    <rect fill="rgb(251,242,235)" height="1px" width="1px" x="3px" y="9px"/>
    <rect fill="rgb(208,143,34)" height="1px" width="1px" x="4px" y="9px"/>
    <rect fill="rgb(215,149,50)" height="1px" width="1px" x="5px" y="9px"/>
    <rect fill="rgb(233,201,156)" height="1px" width="1px" x="6px" y="9px"/>
    <rect fill="rgb(250,239,225)" height="1px" width="1px" x="7px" y="9px"/>
    <rect fill="rgb(247,235,222)" height="1px" width="1px" x="8px" y="9px"/>
    <rect fill="rgb(251,240,227)" height="1px" width="1px" x="9px" y="9px"/>
    <rect fill="rgb(236,213,171)" height="1px" width="1px" x="10px" y="9px"/>
    <rect fill="rgb(225,182,115)" height="1px" width="1px" x="11px" y="9px"/>
    <rect fill="rgb(210,145,45)" height="1px" width="1px" x="12px" y="9px"/>
    <rect fill="rgb(209,144,44)" height="1px" width="1px" x="13px" y="9px"/>
    <rect fill="rgb(228,184,117)" height="1px" width="1px" x="14px" y="9px"/>
    <rect fill="rgb(234,207,159)" height="1px" width="1px" x="1px" y="10px"/>
    <rect fill="rgb(247,246,237)" height="1px" width="1px" x="2px" y="10px"/>
    <rect fill="rgb(240,210,170)" height="1px" width="1px" x="3px" y="10px"/>
    <rect fill="rgb(215,149,50)" height="1px" width="1px" x="4px" y="10px"/>
    <rect fill="rgb(216,157,70)" height="1px" width="1px" x="5px" y="10px"/>
    <rect fill="rgb(248,236,223)" height="1px" width="1px" x="6px" y="10px"/>
    <rect fill="rgb(248,236,223)" height="1px" width="1px" x="7px" y="10px"/>
    <rect fill="rgb(247,233,214)" height="1px" width="1px" x="8px" y="10px"/>
    <rect fill="rgb(214,148,49)" height="1px" width="1px" x="9px" y="10px"/>
    <rect fill="rgb(231,188,127)" height="1px" width="1px" x="10px" y="10px"/>
    <rect fill="rgb(228,184,117)" height="1px" width="1px" x="11px" y="10px"/>
    <rect fill="rgb(214,148,49)" height="1px" width="1px" x="12px" y="10px"/>
    <rect fill="rgb(209,144,44)" height="1px" width="1px" x="13px" y="10px"/>
    <rect fill="rgb(234,213,177)" height="1px" width="1px" x="14px" y="10px"/>
    <rect fill="rgb(248,236,223)" height="1px" width="1px" x="15px" y="10px"/>
    <rect fill="rgb(254,248,247)" height="1px" width="1px" x="2px" y="11px"/>
    <rect fill="rgb(214,148,49)" height="1px" width="1px" x="3px" y="11px"/>
    <rect fill="rgb(216,164,81)" height="1px" width="1px" x="4px" y="11px"/>
    <rect fill="rgb(250,239,225)" height="1px" width="1px" x="5px" y="11px"/>
    <rect fill="rgb(254,246,238)" height="1px" width="1px" x="6px" y="11px"/>
    <rect fill="rgb(233,201,156)" height="1px" width="1px" x="7px" y="11px"/>
    <rect fill="rgb(226,184,123)" height="1px" width="1px" x="8px" y="11px"/>
    <rect fill="rgb(216,164,81)" height="1px" width="1px" x="9px" y="11px"/>
    <rect fill="rgb(227,192,135)" height="1px" width="1px" x="10px" y="11px"/>
    <rect fill="rgb(237,216,179)" height="1px" width="1px" x="11px" y="11px"/>
    <rect fill="rgb(247,235,222)" height="1px" width="1px" x="12px" y="11px"/>
    <rect fill="rgb(248,236,223)" height="1px" width="1px" x="13px" y="11px"/>
    <rect fill="rgb(252,243,236)" height="1px" width="1px" x="14px" y="11px"/>
    <rect fill="rgb(251,240,227)" height="1px" width="1px" x="15px" y="11px"/>
    <rect fill="rgb(241,225,200)" height="1px" width="1px" x="2px" y="12px"/>
    <rect fill="rgb(215,155,61)" height="1px" width="1px" x="3px" y="12px"/>
    <rect fill="rgb(251,240,227)" height="1px" width="1px" x="4px" y="12px"/>
    <rect fill="rgb(237,206,160)" height="1px" width="1px" x="5px" y="12px"/>
    <rect fill="rgb(228,184,117)" height="1px" width="1px" x="6px" y="12px"/>
    <rect fill="rgb(220,175,103)" height="1px" width="1px" x="7px" y="12px"/>
    <rect fill="rgb(239,218,181)" height="1px" width="1px" x="8px" y="12px"/>
    <rect fill="rgb(250,236,217)" height="1px" width="1px" x="9px" y="12px"/>
    <rect fill="rgb(248,236,223)" height="1px" width="1px" x="10px" y="12px"/>
    <rect fill="rgb(247,233,214)" height="1px" width="1px" x="11px" y="12px"/>
    <rect fill="rgb(237,207,167)" height="1px" width="1px" x="12px" y="12px"/>
    <rect fill="rgb(216,157,70)" height="1px" width="1px" x="13px" y="12px"/>
    <rect fill="rgb(222,177,105)" height="1px" width="1px" x="14px" y="12px"/>
    <rect fill="rgb(216,157,70)" height="1px" width="1px" x="2px" y="13px"/>
    <rect fill="rgb(242,224,193)" height="1px" width="1px" x="3px" y="13px"/>
    <rect fill="rgb(227,192,135)" height="1px" width="1px" x="4px" y="13px"/>
    <rect fill="rgb(238,219,189)" height="1px" width="1px" x="5px" y="13px"/>
    <rect fill="rgb(240,224,199)" height="1px" width="1px" x="6px" y="13px"/>
    <rect fill="rgb(239,220,190)" height="1px" width="1px" x="7px" y="13px"/>
    <rect fill="rgb(230,197,145)" height="1px" width="1px" x="8px" y="13px"/>
    <rect fill="rgb(221,169,92)" height="1px" width="1px" x="9px" y="13px"/>
</svg>