<?xml version="1.0" encoding="utf-8"?>
<!-- Generated by IcoMoon.io -->
<!DOCTYPE svg PUBLIC "-//W3C//DTD SVG 1.1//EN" "http://www.w3.org/Graphics/SVG/1.1/DTD/svg11.dtd">
<svg version="1.1" xmlns="http://www.w3.org/2000/svg" xmlns:xlink="http://www.w3.org/1999/xlink" width="32" height="32" viewBox="0 0 32 32">
<path fill="#3c80ca" d="M29 0h-26c-1.65 0-3 1.35-3 3v26c0 1.65 1.35 3 3 3h26c1.65 0 3-1.35 3-3v-26c0-1.65-1.35-3-3-3zM25.7 24.025l-10.887 3.563c-2.488 0.813-2.738 0.681-3.863-2.8l-2.75-8.519c-0.656-2.019-2.656-7.456-2.994-8.5-0.625-1.938-0.625-2.044 3.031-3.231 2.862-0.938 2.981-0.906 4.019 2.325 0.838 2.6 1.375 4.7 2.238 7.356l2.344 7.25 7.488-2.45c1.475-0.488 1.969-0.462 2.387 1.356l0.3 1.375c0.35 1.594-0.456 2-1.313 2.275z"></path>
</svg>
