<?xml version="1.0" encoding="UTF-8" standalone="no"?>
<svg xmlns="http://www.w3.org/2000/svg" version="1.1" viewBox="0 0 16 16">
    <rect fill="rgb(255,255,255)" height="1px" width="1px" x="0px" y="0px"/>
    <rect fill="rgb(131,140,145)" height="1px" width="1px" x="1px" y="0px"/>
    <rect fill="rgb(43,76,79)" height="1px" width="1px" x="2px" y="0px"/>
    <rect fill="rgb(52,92,96)" height="1px" width="1px" x="3px" y="0px"/>
    <rect fill="rgb(41,74,78)" height="1px" width="1px" x="4px" y="0px"/>
    <rect fill="rgb(255,255,255)" height="1px" width="1px" x="5px" y="0px"/>
    <rect fill="rgb(136,155,167)" height="1px" width="1px" x="6px" y="0px"/>
    <rect fill="rgb(47,84,87)" height="1px" width="1px" x="7px" y="0px"/>
    <rect fill="rgb(52,92,96)" height="1px" width="1px" x="8px" y="0px"/>
    <rect fill="rgb(42,74,78)" height="1px" width="1px" x="9px" y="0px"/>
    <rect fill="rgb(255,255,255)" height="1px" width="1px" x="10px" y="0px"/>
    <rect fill="rgb(255,255,255)" height="1px" width="1px" x="11px" y="0px"/>
    <rect fill="rgb(255,255,255)" height="1px" width="1px" x="12px" y="0px"/>
    <rect fill="rgb(255,255,255)" height="1px" width="1px" x="13px" y="0px"/>
    <rect fill="rgb(255,255,255)" height="1px" width="1px" x="14px" y="0px"/>
    <rect fill="rgb(255,255,255)" height="1px" width="1px" x="15px" y="0px"/>
    <rect fill="rgb(255,255,255)" height="1px" width="1px" x="0px" y="1px"/>
    <rect fill="rgb(91,124,139)" height="1px" width="1px" x="1px" y="1px"/>
    <rect fill="rgb(132,230,238)" height="1px" width="1px" x="2px" y="1px"/>
    <rect fill="rgb(142,246,253)" height="1px" width="1px" x="3px" y="1px"/>
    <rect fill="rgb(118,205,215)" height="1px" width="1px" x="4px" y="1px"/>
    <rect fill="rgb(255,255,255)" height="1px" width="1px" x="5px" y="1px"/>
    <rect fill="rgb(62,101,110)" height="1px" width="1px" x="6px" y="1px"/>
    <rect fill="rgb(138,244,253)" height="1px" width="1px" x="7px" y="1px"/>
    <rect fill="rgb(137,242,253)" height="1px" width="1px" x="8px" y="1px"/>
    <rect fill="rgb(93,165,174)" height="1px" width="1px" x="9px" y="1px"/>
    <rect fill="rgb(255,255,255)" height="1px" width="1px" x="10px" y="1px"/>
    <rect fill="rgb(255,255,255)" height="1px" width="1px" x="11px" y="1px"/>
    <rect fill="rgb(255,255,255)" height="1px" width="1px" x="12px" y="1px"/>
    <rect fill="rgb(255,255,255)" height="1px" width="1px" x="13px" y="1px"/>
    <rect fill="rgb(255,255,255)" height="1px" width="1px" x="14px" y="1px"/>
    <rect fill="rgb(255,255,255)" height="1px" width="1px" x="15px" y="1px"/>
    <rect fill="rgb(255,255,255)" height="1px" width="1px" x="0px" y="2px"/>
    <rect fill="rgb(77,119,139)" height="1px" width="1px" x="1px" y="2px"/>
    <rect fill="rgb(125,221,255)" height="1px" width="1px" x="2px" y="2px"/>
    <rect fill="rgb(125,221,255)" height="1px" width="1px" x="3px" y="2px"/>
    <rect fill="rgb(109,195,225)" height="1px" width="1px" x="4px" y="2px"/>
    <rect fill="rgb(197,208,219)" height="1px" width="1px" x="5px" y="2px"/>
    <rect fill="rgb(95,169,193)" height="1px" width="1px" x="6px" y="2px"/>
    <rect fill="rgb(124,221,255)" height="1px" width="1px" x="7px" y="2px"/>
    <rect fill="rgb(122,218,255)" height="1px" width="1px" x="8px" y="2px"/>
    <rect fill="rgb(64,120,146)" height="1px" width="1px" x="9px" y="2px"/>
    <rect fill="rgb(255,255,255)" height="1px" width="1px" x="10px" y="2px"/>
    <rect fill="rgb(255,255,255)" height="1px" width="1px" x="11px" y="2px"/>
    <rect fill="rgb(255,255,255)" height="1px" width="1px" x="12px" y="2px"/>
    <rect fill="rgb(255,255,255)" height="1px" width="1px" x="13px" y="2px"/>
    <rect fill="rgb(255,255,255)" height="1px" width="1px" x="14px" y="2px"/>
    <rect fill="rgb(255,255,255)" height="1px" width="1px" x="15px" y="2px"/>
    <rect fill="rgb(255,255,255)" height="1px" width="1px" x="0px" y="3px"/>
    <rect fill="rgb(52,105,138)" height="1px" width="1px" x="1px" y="3px"/>
    <rect fill="rgb(109,200,248)" height="1px" width="1px" x="2px" y="3px"/>
    <rect fill="rgb(109,201,248)" height="1px" width="1px" x="3px" y="3px"/>
    <rect fill="rgb(101,185,228)" height="1px" width="1px" x="4px" y="3px"/>
    <rect fill="rgb(8,28,46)" height="1px" width="1px" x="5px" y="3px"/>
    <rect fill="rgb(108,199,246)" height="1px" width="1px" x="6px" y="3px"/>
    <rect fill="rgb(109,200,248)" height="1px" width="1px" x="7px" y="3px"/>
    <rect fill="rgb(109,200,248)" height="1px" width="1px" x="8px" y="3px"/>
    <rect fill="rgb(53,102,133)" height="1px" width="1px" x="9px" y="3px"/>
    <rect fill="rgb(255,255,255)" height="1px" width="1px" x="10px" y="3px"/>
    <rect fill="rgb(255,255,255)" height="1px" width="1px" x="11px" y="3px"/>
    <rect fill="rgb(255,255,255)" height="1px" width="1px" x="12px" y="3px"/>
    <rect fill="rgb(255,255,255)" height="1px" width="1px" x="13px" y="3px"/>
    <rect fill="rgb(255,255,255)" height="1px" width="1px" x="14px" y="3px"/>
    <rect fill="rgb(255,255,255)" height="1px" width="1px" x="15px" y="3px"/>
    <rect fill="rgb(212,223,233)" height="1px" width="1px" x="0px" y="4px"/>
    <rect fill="rgb(64,118,154)" height="1px" width="1px" x="1px" y="4px"/>
    <rect fill="rgb(101,187,243)" height="1px" width="1px" x="2px" y="4px"/>
    <rect fill="rgb(91,168,217)" height="1px" width="1px" x="3px" y="4px"/>
    <rect fill="rgb(98,180,234)" height="1px" width="1px" x="4px" y="4px"/>
    <rect fill="rgb(47,87,114)" height="1px" width="1px" x="5px" y="4px"/>
    <rect fill="rgb(101,187,242)" height="1px" width="1px" x="6px" y="4px"/>
    <rect fill="rgb(101,187,244)" height="1px" width="1px" x="7px" y="4px"/>
    <rect fill="rgb(97,180,238)" height="1px" width="1px" x="8px" y="4px"/>
    <rect fill="rgb(87,107,120)" height="1px" width="1px" x="9px" y="4px"/>
    <rect fill="rgb(255,255,255)" height="1px" width="1px" x="10px" y="4px"/>
    <rect fill="rgb(255,255,255)" height="1px" width="1px" x="11px" y="4px"/>
    <rect fill="rgb(255,255,255)" height="1px" width="1px" x="12px" y="4px"/>
    <rect fill="rgb(255,255,255)" height="1px" width="1px" x="13px" y="4px"/>
    <rect fill="rgb(255,255,255)" height="1px" width="1px" x="14px" y="4px"/>
    <rect fill="rgb(255,255,255)" height="1px" width="1px" x="15px" y="4px"/>
    <rect fill="rgb(191,196,201)" height="1px" width="1px" x="0px" y="5px"/>
    <rect fill="rgb(74,137,186)" height="1px" width="1px" x="1px" y="5px"/>
    <rect fill="rgb(95,176,241)" height="1px" width="1px" x="2px" y="5px"/>
    <rect fill="rgb(57,106,143)" height="1px" width="1px" x="3px" y="5px"/>
    <rect fill="rgb(95,176,240)" height="1px" width="1px" x="4px" y="5px"/>
    <rect fill="rgb(93,172,234)" height="1px" width="1px" x="5px" y="5px"/>
    <rect fill="rgb(82,151,206)" height="1px" width="1px" x="6px" y="5px"/>
    <rect fill="rgb(83,154,209)" height="1px" width="1px" x="7px" y="5px"/>
    <rect fill="rgb(82,151,205)" height="1px" width="1px" x="8px" y="5px"/>
    <rect fill="rgb(102,113,119)" height="1px" width="1px" x="9px" y="5px"/>
    <rect fill="rgb(255,255,255)" height="1px" width="1px" x="10px" y="5px"/>
    <rect fill="rgb(255,255,255)" height="1px" width="1px" x="11px" y="5px"/>
    <rect fill="rgb(255,255,255)" height="1px" width="1px" x="12px" y="5px"/>
    <rect fill="rgb(255,255,255)" height="1px" width="1px" x="13px" y="5px"/>
    <rect fill="rgb(255,255,255)" height="1px" width="1px" x="14px" y="5px"/>
    <rect fill="rgb(255,255,255)" height="1px" width="1px" x="15px" y="5px"/>
    <rect fill="rgb(135,145,155)" height="1px" width="1px" x="0px" y="6px"/>
    <rect fill="rgb(89,164,217)" height="1px" width="1px" x="1px" y="6px"/>
    <rect fill="rgb(94,173,230)" height="1px" width="1px" x="2px" y="6px"/>
    <rect fill="rgb(47,86,115)" height="1px" width="1px" x="3px" y="6px"/>
    <rect fill="rgb(94,173,230)" height="1px" width="1px" x="4px" y="6px"/>
    <rect fill="rgb(95,175,232)" height="1px" width="1px" x="5px" y="6px"/>
    <rect fill="rgb(71,130,172)" height="1px" width="1px" x="6px" y="6px"/>
    <rect fill="rgb(86,158,208)" height="1px" width="1px" x="7px" y="6px"/>
    <rect fill="rgb(71,131,176)" height="1px" width="1px" x="8px" y="6px"/>
    <rect fill="rgb(82,84,84)" height="1px" width="1px" x="9px" y="6px"/>
    <rect fill="rgb(25,51,24)" height="1px" width="1px" x="10px" y="6px"/>
    <rect fill="rgb(31,63,30)" height="1px" width="1px" x="11px" y="6px"/>
    <rect fill="rgb(31,64,30)" height="1px" width="1px" x="12px" y="6px"/>
    <rect fill="rgb(51,55,52)" height="1px" width="1px" x="13px" y="6px"/>
    <rect fill="rgb(239,239,239)" height="1px" width="1px" x="14px" y="6px"/>
    <rect fill="rgb(255,255,255)" height="1px" width="1px" x="15px" y="6px"/>
    <rect fill="rgb(135,144,149)" height="1px" width="1px" x="0px" y="7px"/>
    <rect fill="rgb(100,186,233)" height="1px" width="1px" x="1px" y="7px"/>
    <rect fill="rgb(97,179,227)" height="1px" width="1px" x="2px" y="7px"/>
    <rect fill="rgb(50,93,116)" height="1px" width="1px" x="3px" y="7px"/>
    <rect fill="rgb(101,186,233)" height="1px" width="1px" x="4px" y="7px"/>
    <rect fill="rgb(101,187,237)" height="1px" width="1px" x="5px" y="7px"/>
    <rect fill="rgb(42,77,98)" height="1px" width="1px" x="6px" y="7px"/>
    <rect fill="rgb(101,186,235)" height="1px" width="1px" x="7px" y="7px"/>
    <rect fill="rgb(74,138,174)" height="1px" width="1px" x="8px" y="7px"/>
    <rect fill="rgb(74,149,70)" height="1px" width="1px" x="9px" y="7px"/>
    <rect fill="rgb(121,246,113)" height="1px" width="1px" x="10px" y="7px"/>
    <rect fill="rgb(118,239,110)" height="1px" width="1px" x="11px" y="7px"/>
    <rect fill="rgb(118,239,110)" height="1px" width="1px" x="12px" y="7px"/>
    <rect fill="rgb(116,234,108)" height="1px" width="1px" x="13px" y="7px"/>
    <rect fill="rgb(48,97,45)" height="1px" width="1px" x="14px" y="7px"/>
    <rect fill="rgb(177,179,177)" height="1px" width="1px" x="15px" y="7px"/>
    <rect fill="rgb(102,132,144)" height="1px" width="1px" x="0px" y="8px"/>
    <rect fill="rgb(125,223,253)" height="1px" width="1px" x="1px" y="8px"/>
    <rect fill="rgb(91,164,193)" height="1px" width="1px" x="2px" y="8px"/>
    <rect fill="rgb(62,111,126)" height="1px" width="1px" x="3px" y="8px"/>
    <rect fill="rgb(125,223,253)" height="1px" width="1px" x="4px" y="8px"/>
    <rect fill="rgb(116,207,236)" height="1px" width="1px" x="5px" y="8px"/>
    <rect fill="rgb(37,66,75)" height="1px" width="1px" x="6px" y="8px"/>
    <rect fill="rgb(125,224,254)" height="1px" width="1px" x="7px" y="8px"/>
    <rect fill="rgb(86,162,177)" height="1px" width="1px" x="8px" y="8px"/>
    <rect fill="rgb(113,227,107)" height="1px" width="1px" x="9px" y="8px"/>
    <rect fill="rgb(122,246,113)" height="1px" width="1px" x="10px" y="8px"/>
    <rect fill="rgb(116,236,108)" height="1px" width="1px" x="11px" y="8px"/>
    <rect fill="rgb(117,238,109)" height="1px" width="1px" x="12px" y="8px"/>
    <rect fill="rgb(118,241,110)" height="1px" width="1px" x="13px" y="8px"/>
    <rect fill="rgb(118,240,110)" height="1px" width="1px" x="14px" y="8px"/>
    <rect fill="rgb(74,151,70)" height="1px" width="1px" x="15px" y="8px"/>
    <rect fill="rgb(54,88,94)" height="1px" width="1px" x="0px" y="9px"/>
    <rect fill="rgb(115,205,213)" height="1px" width="1px" x="1px" y="9px"/>
    <rect fill="rgb(58,104,109)" height="1px" width="1px" x="2px" y="9px"/>
    <rect fill="rgb(57,106,113)" height="1px" width="1px" x="3px" y="9px"/>
    <rect fill="rgb(115,205,213)" height="1px" width="1px" x="4px" y="9px"/>
    <rect fill="rgb(52,94,100)" height="1px" width="1px" x="5px" y="9px"/>
    <rect fill="rgb(61,109,115)" height="1px" width="1px" x="6px" y="9px"/>
    <rect fill="rgb(114,204,213)" height="1px" width="1px" x="7px" y="9px"/>
    <rect fill="rgb(83,154,125)" height="1px" width="1px" x="8px" y="9px"/>
    <rect fill="rgb(126,253,118)" height="1px" width="1px" x="9px" y="9px"/>
    <rect fill="rgb(108,188,102)" height="1px" width="1px" x="10px" y="9px"/>
    <rect fill="rgb(133,138,132)" height="1px" width="1px" x="11px" y="9px"/>
    <rect fill="rgb(55,83,63)" height="1px" width="1px" x="12px" y="9px"/>
    <rect fill="rgb(117,232,110)" height="1px" width="1px" x="13px" y="9px"/>
    <rect fill="rgb(107,214,100)" height="1px" width="1px" x="14px" y="9px"/>
    <rect fill="rgb(89,177,84)" height="1px" width="1px" x="15px" y="9px"/>
    <rect fill="rgb(206,206,206)" height="1px" width="1px" x="0px" y="10px"/>
    <rect fill="rgb(206,206,206)" height="1px" width="1px" x="1px" y="10px"/>
    <rect fill="rgb(206,206,207)" height="1px" width="1px" x="2px" y="10px"/>
    <rect fill="rgb(206,208,211)" height="1px" width="1px" x="3px" y="10px"/>
    <rect fill="rgb(206,206,206)" height="1px" width="1px" x="4px" y="10px"/>
    <rect fill="rgb(206,209,213)" height="1px" width="1px" x="5px" y="10px"/>
    <rect fill="rgb(108,117,113)" height="1px" width="1px" x="6px" y="10px"/>
    <rect fill="rgb(74,150,69)" height="1px" width="1px" x="7px" y="10px"/>
    <rect fill="rgb(98,200,93)" height="1px" width="1px" x="8px" y="10px"/>
    <rect fill="rgb(109,222,102)" height="1px" width="1px" x="9px" y="10px"/>
    <rect fill="rgb(161,171,175)" height="1px" width="1px" x="10px" y="10px"/>
    <rect fill="rgb(32,69,39)" height="1px" width="1px" x="11px" y="10px"/>
    <rect fill="rgb(65,134,65)" height="1px" width="1px" x="12px" y="10px"/>
    <rect fill="rgb(65,131,61)" height="1px" width="1px" x="13px" y="10px"/>
    <rect fill="rgb(65,131,61)" height="1px" width="1px" x="14px" y="10px"/>
    <rect fill="rgb(45,91,42)" height="1px" width="1px" x="15px" y="10px"/>
    <rect fill="rgb(255,255,255)" height="1px" width="1px" x="0px" y="11px"/>
    <rect fill="rgb(255,255,255)" height="1px" width="1px" x="1px" y="11px"/>
    <rect fill="rgb(255,255,255)" height="1px" width="1px" x="2px" y="11px"/>
    <rect fill="rgb(255,255,255)" height="1px" width="1px" x="3px" y="11px"/>
    <rect fill="rgb(255,255,255)" height="1px" width="1px" x="4px" y="11px"/>
    <rect fill="rgb(255,255,255)" height="1px" width="1px" x="5px" y="11px"/>
    <rect fill="rgb(79,102,97)" height="1px" width="1px" x="6px" y="11px"/>
    <rect fill="rgb(97,196,91)" height="1px" width="1px" x="7px" y="11px"/>
    <rect fill="rgb(106,214,99)" height="1px" width="1px" x="8px" y="11px"/>
    <rect fill="rgb(80,162,75)" height="1px" width="1px" x="9px" y="11px"/>
    <rect fill="rgb(127,128,130)" height="1px" width="1px" x="10px" y="11px"/>
    <rect fill="rgb(75,152,70)" height="1px" width="1px" x="11px" y="11px"/>
    <rect fill="rgb(106,214,99)" height="1px" width="1px" x="12px" y="11px"/>
    <rect fill="rgb(105,213,98)" height="1px" width="1px" x="13px" y="11px"/>
    <rect fill="rgb(106,214,99)" height="1px" width="1px" x="14px" y="11px"/>
    <rect fill="rgb(50,101,48)" height="1px" width="1px" x="15px" y="11px"/>
    <rect fill="rgb(255,255,255)" height="1px" width="1px" x="0px" y="12px"/>
    <rect fill="rgb(255,255,255)" height="1px" width="1px" x="1px" y="12px"/>
    <rect fill="rgb(255,255,255)" height="1px" width="1px" x="2px" y="12px"/>
    <rect fill="rgb(255,255,255)" height="1px" width="1px" x="3px" y="12px"/>
    <rect fill="rgb(255,255,255)" height="1px" width="1px" x="4px" y="12px"/>
    <rect fill="rgb(255,255,255)" height="1px" width="1px" x="5px" y="12px"/>
    <rect fill="rgb(99,116,108)" height="1px" width="1px" x="6px" y="12px"/>
    <rect fill="rgb(88,179,83)" height="1px" width="1px" x="7px" y="12px"/>
    <rect fill="rgb(96,194,90)" height="1px" width="1px" x="8px" y="12px"/>
    <rect fill="rgb(75,152,71)" height="1px" width="1px" x="9px" y="12px"/>
    <rect fill="rgb(48,51,53)" height="1px" width="1px" x="10px" y="12px"/>
    <rect fill="rgb(45,92,42)" height="1px" width="1px" x="11px" y="12px"/>
    <rect fill="rgb(65,131,61)" height="1px" width="1px" x="12px" y="12px"/>
    <rect fill="rgb(96,194,90)" height="1px" width="1px" x="13px" y="12px"/>
    <rect fill="rgb(96,194,90)" height="1px" width="1px" x="14px" y="12px"/>
    <rect fill="rgb(18,37,18)" height="1px" width="1px" x="15px" y="12px"/>
    <rect fill="rgb(255,255,255)" height="1px" width="1px" x="0px" y="13px"/>
    <rect fill="rgb(255,255,255)" height="1px" width="1px" x="1px" y="13px"/>
    <rect fill="rgb(255,255,255)" height="1px" width="1px" x="2px" y="13px"/>
    <rect fill="rgb(255,255,255)" height="1px" width="1px" x="3px" y="13px"/>
    <rect fill="rgb(255,255,255)" height="1px" width="1px" x="4px" y="13px"/>
    <rect fill="rgb(255,255,255)" height="1px" width="1px" x="5px" y="13px"/>
    <rect fill="rgb(132,140,140)" height="1px" width="1px" x="6px" y="13px"/>
    <rect fill="rgb(82,166,76)" height="1px" width="1px" x="7px" y="13px"/>
    <rect fill="rgb(106,214,99)" height="1px" width="1px" x="8px" y="13px"/>
    <rect fill="rgb(105,213,98)" height="1px" width="1px" x="9px" y="13px"/>
    <rect fill="rgb(53,106,49)" height="1px" width="1px" x="10px" y="13px"/>
    <rect fill="rgb(36,73,34)" height="1px" width="1px" x="11px" y="13px"/>
    <rect fill="rgb(85,172,80)" height="1px" width="1px" x="12px" y="13px"/>
    <rect fill="rgb(105,213,99)" height="1px" width="1px" x="13px" y="13px"/>
    <rect fill="rgb(105,213,98)" height="1px" width="1px" x="14px" y="13px"/>
    <rect fill="rgb(68,73,68)" height="1px" width="1px" x="15px" y="13px"/>
    <rect fill="rgb(255,255,255)" height="1px" width="1px" x="0px" y="14px"/>
    <rect fill="rgb(255,255,255)" height="1px" width="1px" x="1px" y="14px"/>
    <rect fill="rgb(255,255,255)" height="1px" width="1px" x="2px" y="14px"/>
    <rect fill="rgb(255,255,255)" height="1px" width="1px" x="3px" y="14px"/>
    <rect fill="rgb(255,255,255)" height="1px" width="1px" x="4px" y="14px"/>
    <rect fill="rgb(255,255,255)" height="1px" width="1px" x="5px" y="14px"/>
    <rect fill="rgb(223,225,228)" height="1px" width="1px" x="6px" y="14px"/>
    <rect fill="rgb(56,86,65)" height="1px" width="1px" x="7px" y="14px"/>
    <rect fill="rgb(132,254,123)" height="1px" width="1px" x="8px" y="14px"/>
    <rect fill="rgb(132,254,123)" height="1px" width="1px" x="9px" y="14px"/>
    <rect fill="rgb(132,254,123)" height="1px" width="1px" x="10px" y="14px"/>
    <rect fill="rgb(132,254,123)" height="1px" width="1px" x="11px" y="14px"/>
    <rect fill="rgb(132,254,123)" height="1px" width="1px" x="12px" y="14px"/>
    <rect fill="rgb(132,254,123)" height="1px" width="1px" x="13px" y="14px"/>
    <rect fill="rgb(86,168,80)" height="1px" width="1px" x="14px" y="14px"/>
    <rect fill="rgb(159,160,160)" height="1px" width="1px" x="15px" y="14px"/>
    <rect fill="rgb(255,255,255)" height="1px" width="1px" x="0px" y="15px"/>
    <rect fill="rgb(255,255,255)" height="1px" width="1px" x="1px" y="15px"/>
    <rect fill="rgb(255,255,255)" height="1px" width="1px" x="2px" y="15px"/>
    <rect fill="rgb(255,255,255)" height="1px" width="1px" x="3px" y="15px"/>
    <rect fill="rgb(255,255,255)" height="1px" width="1px" x="4px" y="15px"/>
    <rect fill="rgb(255,255,255)" height="1px" width="1px" x="5px" y="15px"/>
    <rect fill="rgb(255,255,255)" height="1px" width="1px" x="6px" y="15px"/>
    <rect fill="rgb(223,225,228)" height="1px" width="1px" x="7px" y="15px"/>
    <rect fill="rgb(35,74,43)" height="1px" width="1px" x="8px" y="15px"/>
    <rect fill="rgb(97,187,90)" height="1px" width="1px" x="9px" y="15px"/>
    <rect fill="rgb(113,219,105)" height="1px" width="1px" x="10px" y="15px"/>
    <rect fill="rgb(112,216,104)" height="1px" width="1px" x="11px" y="15px"/>
    <rect fill="rgb(92,178,86)" height="1px" width="1px" x="12px" y="15px"/>
    <rect fill="rgb(57,97,57)" height="1px" width="1px" x="13px" y="15px"/>
    <rect fill="rgb(161,163,161)" height="1px" width="1px" x="14px" y="15px"/>
    <rect fill="rgb(255,255,255)" height="1px" width="1px" x="15px" y="15px"/>
</svg>