<?xml version="1.0" encoding="utf-8" ?>
<svg baseProfile="full" height="16px" version="1.1" width="16px" xmlns="http://www.w3.org/2000/svg" xmlns:ev="http://www.w3.org/2001/xml-events" xmlns:xlink="http://www.w3.org/1999/xlink"><defs /><rect fill="rgb(40,80,119)" height="1px" width="1px" x="0px" y="0px" /><rect fill="rgb(40,80,119)" height="1px" width="1px" x="1px" y="0px" /><rect fill="rgb(45,84,122)" height="1px" width="1px" x="2px" y="0px" /><rect fill="rgb(79,105,131)" height="1px" width="1px" x="3px" y="0px" /><rect fill="rgb(119,133,147)" height="1px" width="1px" x="4px" y="0px" /><rect fill="rgb(114,131,146)" height="1px" width="1px" x="5px" y="0px" /><rect fill="rgb(68,95,121)" height="1px" width="1px" x="6px" y="0px" /><rect fill="rgb(40,80,119)" height="1px" width="1px" x="7px" y="0px" /><rect fill="rgb(40,80,119)" height="1px" width="1px" x="8px" y="0px" /><rect fill="rgb(56,93,128)" height="1px" width="1px" x="9px" y="0px" /><rect fill="rgb(103,131,157)" height="1px" width="1px" x="10px" y="0px" /><rect fill="rgb(104,131,157)" height="1px" width="1px" x="11px" y="0px" /><rect fill="rgb(70,104,137)" height="1px" width="1px" x="12px" y="0px" /><rect fill="rgb(41,81,119)" height="1px" width="1px" x="13px" y="0px" /><rect fill="rgb(40,80,119)" height="1px" width="1px" x="14px" y="0px" /><rect fill="rgb(40,80,119)" height="1px" width="1px" x="15px" y="0px" /><rect fill="rgb(40,80,119)" height="1px" width="1px" x="0px" y="1px" /><rect fill="rgb(42,81,118)" height="1px" width="1px" x="1px" y="1px" /><rect fill="rgb(96,114,132)" height="1px" width="1px" x="2px" y="1px" /><rect fill="rgb(159,164,169)" height="1px" width="1px" x="3px" y="1px" /><rect fill="rgb(204,208,212)" height="1px" width="1px" x="4px" y="1px" /><rect fill="rgb(215,219,222)" height="1px" width="1px" x="5px" y="1px" /><rect fill="rgb(194,200,205)" height="1px" width="1px" x="6px" y="1px" /><rect fill="rgb(40,80,119)" height="1px" width="1px" x="7px" y="1px" /><rect fill="rgb(40,80,119)" height="1px" width="1px" x="8px" y="1px" /><rect fill="rgb(99,127,154)" height="1px" width="1px" x="9px" y="1px" /><rect fill="rgb(111,137,162)" height="1px" width="1px" x="10px" y="1px" /><rect fill="rgb(111,137,162)" height="1px" width="1px" x="11px" y="1px" /><rect fill="rgb(110,136,161)" height="1px" width="1px" x="12px" y="1px" /><rect fill="rgb(77,110,141)" height="1px" width="1px" x="13px" y="1px" /><rect fill="rgb(40,80,119)" height="1px" width="1px" x="14px" y="1px" /><rect fill="rgb(40,80,119)" height="1px" width="1px" x="15px" y="1px" /><rect fill="rgb(54,83,111)" height="1px" width="1px" x="0px" y="2px" /><rect fill="rgb(113,125,137)" height="1px" width="1px" x="1px" y="2px" /><rect fill="rgb(187,191,195)" height="1px" width="1px" x="2px" y="2px" /><rect fill="rgb(224,228,231)" height="1px" width="1px" x="3px" y="2px" /><rect fill="rgb(230,234,237)" height="1px" width="1px" x="4px" y="2px" /><rect fill="rgb(218,223,228)" height="1px" width="1px" x="5px" y="2px" /><rect fill="rgb(180,189,198)" height="1px" width="1px" x="6px" y="2px" /><rect fill="rgb(40,80,119)" height="1px" width="1px" x="7px" y="2px" /><rect fill="rgb(56,93,128)" height="1px" width="1px" x="8px" y="2px" /><rect fill="rgb(110,136,161)" height="1px" width="1px" x="9px" y="2px" /><rect fill="rgb(111,137,162)" height="1px" width="1px" x="10px" y="2px" /><rect fill="rgb(111,137,162)" height="1px" width="1px" x="11px" y="2px" /><rect fill="rgb(111,137,162)" height="1px" width="1px" x="12px" y="2px" /><rect fill="rgb(109,135,161)" height="1px" width="1px" x="13px" y="2px" /><rect fill="rgb(41,80,119)" height="1px" width="1px" x="14px" y="2px" /><rect fill="rgb(40,80,119)" height="1px" width="1px" x="15px" y="2px" /><rect fill="rgb(124,133,142)" height="1px" width="1px" x="0px" y="3px" /><rect fill="rgb(205,211,217)" height="1px" width="1px" x="1px" y="3px" /><rect fill="rgb(229,233,236)" height="1px" width="1px" x="2px" y="3px" /><rect fill="rgb(224,228,232)" height="1px" width="1px" x="3px" y="3px" /><rect fill="rgb(205,211,217)" height="1px" width="1px" x="4px" y="3px" /><rect fill="rgb(116,137,158)" height="1px" width="1px" x="5px" y="3px" /><rect fill="rgb(110,135,159)" height="1px" width="1px" x="6px" y="3px" /><rect fill="rgb(51,89,125)" height="1px" width="1px" x="7px" y="3px" /><rect fill="rgb(72,102,130)" height="1px" width="1px" x="8px" y="3px" /><rect fill="rgb(108,132,156)" height="1px" width="1px" x="9px" y="3px" /><rect fill="rgb(111,137,162)" height="1px" width="1px" x="10px" y="3px" /><rect fill="rgb(111,137,162)" height="1px" width="1px" x="11px" y="3px" /><rect fill="rgb(111,137,162)" height="1px" width="1px" x="12px" y="3px" /><rect fill="rgb(98,126,154)" height="1px" width="1px" x="13px" y="3px" /><rect fill="rgb(40,80,119)" height="1px" width="1px" x="14px" y="3px" /><rect fill="rgb(40,80,119)" height="1px" width="1px" x="15px" y="3px" /><rect fill="rgb(71,99,126)" height="1px" width="1px" x="0px" y="4px" /><rect fill="rgb(180,189,198)" height="1px" width="1px" x="1px" y="4px" /><rect fill="rgb(192,200,208)" height="1px" width="1px" x="2px" y="4px" /><rect fill="rgb(133,149,164)" height="1px" width="1px" x="3px" y="4px" /><rect fill="rgb(195,200,205)" height="1px" width="1px" x="4px" y="4px" /><rect fill="rgb(115,124,134)" height="1px" width="1px" x="5px" y="4px" /><rect fill="rgb(116,135,153)" height="1px" width="1px" x="6px" y="4px" /><rect fill="rgb(66,100,133)" height="1px" width="1px" x="7px" y="4px" /><rect fill="rgb(118,128,138)" height="1px" width="1px" x="8px" y="4px" /><rect fill="rgb(142,154,165)" height="1px" width="1px" x="9px" y="4px" /><rect fill="rgb(110,136,161)" height="1px" width="1px" x="10px" y="4px" /><rect fill="rgb(111,137,162)" height="1px" width="1px" x="11px" y="4px" /><rect fill="rgb(101,128,155)" height="1px" width="1px" x="12px" y="4px" /><rect fill="rgb(50,88,125)" height="1px" width="1px" x="13px" y="4px" /><rect fill="rgb(40,80,119)" height="1px" width="1px" x="14px" y="4px" /><rect fill="rgb(40,80,119)" height="1px" width="1px" x="15px" y="4px" /><rect fill="rgb(40,80,119)" height="1px" width="1px" x="0px" y="5px" /><rect fill="rgb(41,78,115)" height="1px" width="1px" x="1px" y="5px" /><rect fill="rgb(41,79,116)" height="1px" width="1px" x="2px" y="5px" /><rect fill="rgb(61,91,121)" height="1px" width="1px" x="3px" y="5px" /><rect fill="rgb(184,189,192)" height="1px" width="1px" x="4px" y="5px" /><rect fill="rgb(166,170,174)" height="1px" width="1px" x="5px" y="5px" /><rect fill="rgb(175,184,192)" height="1px" width="1px" x="6px" y="5px" /><rect fill="rgb(91,114,136)" height="1px" width="1px" x="7px" y="5px" /><rect fill="rgb(186,190,194)" height="1px" width="1px" x="8px" y="5px" /><rect fill="rgb(214,218,222)" height="1px" width="1px" x="9px" y="5px" /><rect fill="rgb(108,132,155)" height="1px" width="1px" x="10px" y="5px" /><rect fill="rgb(84,115,146)" height="1px" width="1px" x="11px" y="5px" /><rect fill="rgb(46,85,122)" height="1px" width="1px" x="12px" y="5px" /><rect fill="rgb(40,80,119)" height="1px" width="1px" x="13px" y="5px" /><rect fill="rgb(40,80,119)" height="1px" width="1px" x="14px" y="5px" /><rect fill="rgb(40,80,119)" height="1px" width="1px" x="15px" y="5px" /><rect fill="rgb(40,80,119)" height="1px" width="1px" x="0px" y="6px" /><rect fill="rgb(42,81,120)" height="1px" width="1px" x="1px" y="6px" /><rect fill="rgb(49,87,124)" height="1px" width="1px" x="2px" y="6px" /><rect fill="rgb(46,81,115)" height="1px" width="1px" x="3px" y="6px" /><rect fill="rgb(166,171,177)" height="1px" width="1px" x="4px" y="6px" /><rect fill="rgb(176,180,185)" height="1px" width="1px" x="5px" y="6px" /><rect fill="rgb(221,225,229)" height="1px" width="1px" x="6px" y="6px" /><rect fill="rgb(156,164,172)" height="1px" width="1px" x="7px" y="6px" /><rect fill="rgb(216,220,224)" height="1px" width="1px" x="8px" y="6px" /><rect fill="rgb(228,232,236)" height="1px" width="1px" x="9px" y="6px" /><rect fill="rgb(84,113,141)" height="1px" width="1px" x="10px" y="6px" /><rect fill="rgb(42,82,120)" height="1px" width="1px" x="11px" y="6px" /><rect fill="rgb(47,86,123)" height="1px" width="1px" x="12px" y="6px" /><rect fill="rgb(47,85,123)" height="1px" width="1px" x="13px" y="6px" /><rect fill="rgb(41,81,119)" height="1px" width="1px" x="14px" y="6px" /><rect fill="rgb(40,80,119)" height="1px" width="1px" x="15px" y="6px" /><rect fill="rgb(84,115,145)" height="1px" width="1px" x="0px" y="7px" /><rect fill="rgb(108,135,160)" height="1px" width="1px" x="1px" y="7px" /><rect fill="rgb(111,137,162)" height="1px" width="1px" x="2px" y="7px" /><rect fill="rgb(107,133,157)" height="1px" width="1px" x="3px" y="7px" /><rect fill="rgb(129,139,148)" height="1px" width="1px" x="4px" y="7px" /><rect fill="rgb(186,190,194)" height="1px" width="1px" x="5px" y="7px" /><rect fill="rgb(222,227,231)" height="1px" width="1px" x="6px" y="7px" /><rect fill="rgb(224,228,232)" height="1px" width="1px" x="7px" y="7px" /><rect fill="rgb(231,235,238)" height="1px" width="1px" x="8px" y="7px" /><rect fill="rgb(231,235,239)" height="1px" width="1px" x="9px" y="7px" /><rect fill="rgb(138,157,176)" height="1px" width="1px" x="10px" y="7px" /><rect fill="rgb(110,136,161)" height="1px" width="1px" x="11px" y="7px" /><rect fill="rgb(111,137,162)" height="1px" width="1px" x="12px" y="7px" /><rect fill="rgb(111,137,162)" height="1px" width="1px" x="13px" y="7px" /><rect fill="rgb(104,131,157)" height="1px" width="1px" x="14px" y="7px" /><rect fill="rgb(67,101,135)" height="1px" width="1px" x="15px" y="7px" /><rect fill="rgb(111,137,162)" height="1px" width="1px" x="0px" y="8px" /><rect fill="rgb(111,137,162)" height="1px" width="1px" x="1px" y="8px" /><rect fill="rgb(111,137,162)" height="1px" width="1px" x="2px" y="8px" /><rect fill="rgb(111,137,162)" height="1px" width="1px" x="3px" y="8px" /><rect fill="rgb(106,126,145)" height="1px" width="1px" x="4px" y="8px" /><rect fill="rgb(198,202,205)" height="1px" width="1px" x="5px" y="8px" /><rect fill="rgb(137,154,170)" height="1px" width="1px" x="6px" y="8px" /><rect fill="rgb(203,208,212)" height="1px" width="1px" x="7px" y="8px" /><rect fill="rgb(200,207,213)" height="1px" width="1px" x="8px" y="8px" /><rect fill="rgb(220,223,227)" height="1px" width="1px" x="9px" y="8px" /><rect fill="rgb(137,146,155)" height="1px" width="1px" x="10px" y="8px" /><rect fill="rgb(130,141,152)" height="1px" width="1px" x="11px" y="8px" /><rect fill="rgb(112,132,152)" height="1px" width="1px" x="12px" y="8px" /><rect fill="rgb(111,137,162)" height="1px" width="1px" x="13px" y="8px" /><rect fill="rgb(111,137,162)" height="1px" width="1px" x="14px" y="8px" /><rect fill="rgb(106,133,159)" height="1px" width="1px" x="15px" y="8px" /><rect fill="rgb(111,137,162)" height="1px" width="1px" x="0px" y="9px" /><rect fill="rgb(111,137,162)" height="1px" width="1px" x="1px" y="9px" /><rect fill="rgb(111,137,162)" height="1px" width="1px" x="2px" y="9px" /><rect fill="rgb(111,137,162)" height="1px" width="1px" x="3px" y="9px" /><rect fill="rgb(107,127,147)" height="1px" width="1px" x="4px" y="9px" /><rect fill="rgb(194,199,203)" height="1px" width="1px" x="5px" y="9px" /><rect fill="rgb(72,103,134)" height="1px" width="1px" x="6px" y="9px" /><rect fill="rgb(115,135,156)" height="1px" width="1px" x="7px" y="9px" /><rect fill="rgb(104,128,152)" height="1px" width="1px" x="8px" y="9px" /><rect fill="rgb(140,144,149)" height="1px" width="1px" x="9px" y="9px" /><rect fill="rgb(175,180,186)" height="1px" width="1px" x="10px" y="9px" /><rect fill="rgb(185,193,200)" height="1px" width="1px" x="11px" y="9px" /><rect fill="rgb(190,195,200)" height="1px" width="1px" x="12px" y="9px" /><rect fill="rgb(115,137,158)" height="1px" width="1px" x="13px" y="9px" /><rect fill="rgb(111,137,162)" height="1px" width="1px" x="14px" y="9px" /><rect fill="rgb(105,132,158)" height="1px" width="1px" x="15px" y="9px" /><rect fill="rgb(106,133,159)" height="1px" width="1px" x="0px" y="10px" /><rect fill="rgb(111,137,162)" height="1px" width="1px" x="1px" y="10px" /><rect fill="rgb(111,137,162)" height="1px" width="1px" x="2px" y="10px" /><rect fill="rgb(111,137,162)" height="1px" width="1px" x="3px" y="10px" /><rect fill="rgb(92,120,148)" height="1px" width="1px" x="4px" y="10px" /><rect fill="rgb(123,137,150)" height="1px" width="1px" x="5px" y="10px" /><rect fill="rgb(87,116,146)" height="1px" width="1px" x="6px" y="10px" /><rect fill="rgb(111,137,162)" height="1px" width="1px" x="7px" y="10px" /><rect fill="rgb(106,128,149)" height="1px" width="1px" x="8px" y="10px" /><rect fill="rgb(168,171,173)" height="1px" width="1px" x="9px" y="10px" /><rect fill="rgb(110,132,154)" height="1px" width="1px" x="10px" y="10px" /><rect fill="rgb(107,132,156)" height="1px" width="1px" x="11px" y="10px" /><rect fill="rgb(176,185,192)" height="1px" width="1px" x="12px" y="10px" /><rect fill="rgb(156,170,183)" height="1px" width="1px" x="13px" y="10px" /><rect fill="rgb(111,137,162)" height="1px" width="1px" x="14px" y="10px" /><rect fill="rgb(85,116,146)" height="1px" width="1px" x="15px" y="10px" /><rect fill="rgb(67,102,135)" height="1px" width="1px" x="0px" y="11px" /><rect fill="rgb(106,133,159)" height="1px" width="1px" x="1px" y="11px" /><rect fill="rgb(105,132,158)" height="1px" width="1px" x="2px" y="11px" /><rect fill="rgb(78,110,142)" height="1px" width="1px" x="3px" y="11px" /><rect fill="rgb(42,82,120)" height="1px" width="1px" x="4px" y="11px" /><rect fill="rgb(51,87,123)" height="1px" width="1px" x="5px" y="11px" /><rect fill="rgb(109,135,161)" height="1px" width="1px" x="6px" y="11px" /><rect fill="rgb(111,137,162)" height="1px" width="1px" x="7px" y="11px" /><rect fill="rgb(117,131,145)" height="1px" width="1px" x="8px" y="11px" /><rect fill="rgb(203,208,212)" height="1px" width="1px" x="9px" y="11px" /><rect fill="rgb(119,138,156)" height="1px" width="1px" x="10px" y="11px" /><rect fill="rgb(79,104,127)" height="1px" width="1px" x="11px" y="11px" /><rect fill="rgb(168,174,180)" height="1px" width="1px" x="12px" y="11px" /><rect fill="rgb(178,190,201)" height="1px" width="1px" x="13px" y="11px" /><rect fill="rgb(100,128,155)" height="1px" width="1px" x="14px" y="11px" /><rect fill="rgb(50,88,125)" height="1px" width="1px" x="15px" y="11px" /><rect fill="rgb(40,80,119)" height="1px" width="1px" x="0px" y="12px" /><rect fill="rgb(47,86,123)" height="1px" width="1px" x="1px" y="12px" /><rect fill="rgb(45,84,122)" height="1px" width="1px" x="2px" y="12px" /><rect fill="rgb(40,80,119)" height="1px" width="1px" x="3px" y="12px" /><rect fill="rgb(40,80,119)" height="1px" width="1px" x="4px" y="12px" /><rect fill="rgb(71,105,137)" height="1px" width="1px" x="5px" y="12px" /><rect fill="rgb(111,137,162)" height="1px" width="1px" x="6px" y="12px" /><rect fill="rgb(111,137,162)" height="1px" width="1px" x="7px" y="12px" /><rect fill="rgb(138,147,155)" height="1px" width="1px" x="8px" y="12px" /><rect fill="rgb(224,228,232)" height="1px" width="1px" x="9px" y="12px" /><rect fill="rgb(209,215,221)" height="1px" width="1px" x="10px" y="12px" /><rect fill="rgb(193,199,205)" height="1px" width="1px" x="11px" y="12px" /><rect fill="rgb(208,214,220)" height="1px" width="1px" x="12px" y="12px" /><rect fill="rgb(160,176,192)" height="1px" width="1px" x="13px" y="12px" /><rect fill="rgb(44,83,121)" height="1px" width="1px" x="14px" y="12px" /><rect fill="rgb(40,80,119)" height="1px" width="1px" x="15px" y="12px" /><rect fill="rgb(40,80,119)" height="1px" width="1px" x="0px" y="13px" /><rect fill="rgb(40,80,119)" height="1px" width="1px" x="1px" y="13px" /><rect fill="rgb(40,80,119)" height="1px" width="1px" x="2px" y="13px" /><rect fill="rgb(40,80,119)" height="1px" width="1px" x="3px" y="13px" /><rect fill="rgb(40,80,119)" height="1px" width="1px" x="4px" y="13px" /><rect fill="rgb(85,116,146)" height="1px" width="1px" x="5px" y="13px" /><rect fill="rgb(111,137,162)" height="1px" width="1px" x="6px" y="13px" /><rect fill="rgb(111,137,162)" height="1px" width="1px" x="7px" y="13px" /><rect fill="rgb(165,169,173)" height="1px" width="1px" x="8px" y="13px" /><rect fill="rgb(224,228,233)" height="1px" width="1px" x="9px" y="13px" /><rect fill="rgb(110,134,158)" height="1px" width="1px" x="10px" y="13px" /><rect fill="rgb(168,179,190)" height="1px" width="1px" x="11px" y="13px" /><rect fill="rgb(220,226,232)" height="1px" width="1px" x="12px" y="13px" /><rect fill="rgb(143,163,181)" height="1px" width="1px" x="13px" y="13px" /><rect fill="rgb(40,80,119)" height="1px" width="1px" x="14px" y="13px" /><rect fill="rgb(40,80,119)" height="1px" width="1px" x="15px" y="13px" /><rect fill="rgb(40,80,119)" height="1px" width="1px" x="0px" y="14px" /><rect fill="rgb(40,80,119)" height="1px" width="1px" x="1px" y="14px" /><rect fill="rgb(40,80,119)" height="1px" width="1px" x="2px" y="14px" /><rect fill="rgb(40,80,119)" height="1px" width="1px" x="3px" y="14px" /><rect fill="rgb(40,80,119)" height="1px" width="1px" x="4px" y="14px" /><rect fill="rgb(84,115,145)" height="1px" width="1px" x="5px" y="14px" /><rect fill="rgb(111,137,162)" height="1px" width="1px" x="6px" y="14px" /><rect fill="rgb(111,137,162)" height="1px" width="1px" x="7px" y="14px" /><rect fill="rgb(154,162,170)" height="1px" width="1px" x="8px" y="14px" /><rect fill="rgb(173,185,197)" height="1px" width="1px" x="9px" y="14px" /><rect fill="rgb(60,96,131)" height="1px" width="1px" x="10px" y="14px" /><rect fill="rgb(80,106,131)" height="1px" width="1px" x="11px" y="14px" /><rect fill="rgb(196,204,211)" height="1px" width="1px" x="12px" y="14px" /><rect fill="rgb(82,112,141)" height="1px" width="1px" x="13px" y="14px" /><rect fill="rgb(40,80,119)" height="1px" width="1px" x="14px" y="14px" /><rect fill="rgb(40,80,119)" height="1px" width="1px" x="15px" y="14px" /><rect fill="rgb(40,80,119)" height="1px" width="1px" x="0px" y="15px" /><rect fill="rgb(40,80,119)" height="1px" width="1px" x="1px" y="15px" /><rect fill="rgb(40,80,119)" height="1px" width="1px" x="2px" y="15px" /><rect fill="rgb(40,80,119)" height="1px" width="1px" x="3px" y="15px" /><rect fill="rgb(40,80,119)" height="1px" width="1px" x="4px" y="15px" /><rect fill="rgb(51,89,126)" height="1px" width="1px" x="5px" y="15px" /><rect fill="rgb(95,124,152)" height="1px" width="1px" x="6px" y="15px" /><rect fill="rgb(110,136,161)" height="1px" width="1px" x="7px" y="15px" /><rect fill="rgb(111,135,159)" height="1px" width="1px" x="8px" y="15px" /><rect fill="rgb(89,119,147)" height="1px" width="1px" x="9px" y="15px" /><rect fill="rgb(42,81,120)" height="1px" width="1px" x="10px" y="15px" /><rect fill="rgb(41,80,118)" height="1px" width="1px" x="11px" y="15px" /><rect fill="rgb(59,94,128)" height="1px" width="1px" x="12px" y="15px" /><rect fill="rgb(40,80,118)" height="1px" width="1px" x="13px" y="15px" /><rect fill="rgb(40,80,119)" height="1px" width="1px" x="14px" y="15px" /><rect fill="rgb(40,80,119)" height="1px" width="1px" x="15px" y="15px" /></svg>