<?xml version="1.0" encoding="utf-8" ?>
<svg baseProfile="full" height="16px" version="1.1" width="16px" xmlns="http://www.w3.org/2000/svg" xmlns:ev="http://www.w3.org/2001/xml-events" xmlns:xlink="http://www.w3.org/1999/xlink"><defs /><rect fill="rgb(159,169,114)" height="1px" width="1px" x="3px" y="1px" /><rect fill="rgb(196,201,119)" height="1px" width="1px" x="4px" y="1px" /><rect fill="rgb(203,208,139)" height="1px" width="1px" x="5px" y="1px" /><rect fill="rgb(175,185,141)" height="1px" width="1px" x="6px" y="1px" /><rect fill="rgb(158,171,129)" height="1px" width="1px" x="7px" y="1px" /><rect fill="rgb(207,210,177)" height="1px" width="1px" x="8px" y="1px" /><rect fill="rgb(159,158,156)" height="1px" width="1px" x="9px" y="1px" /><rect fill="rgb(185,182,153)" height="1px" width="1px" x="10px" y="1px" /><rect fill="rgb(227,225,123)" height="1px" width="1px" x="11px" y="1px" /><rect fill="rgb(242,238,137)" height="1px" width="1px" x="12px" y="1px" /><rect fill="rgb(208,164,75)" height="1px" width="1px" x="2px" y="2px" /><rect fill="rgb(121,106,66)" height="1px" width="1px" x="5px" y="2px" /><rect fill="rgb(156,139,81)" height="1px" width="1px" x="6px" y="2px" /><rect fill="rgb(201,194,104)" height="1px" width="1px" x="7px" y="2px" /><rect fill="rgb(181,181,113)" height="1px" width="1px" x="8px" y="2px" /><rect fill="rgb(188,191,137)" height="1px" width="1px" x="9px" y="2px" /><rect fill="rgb(179,187,124)" height="1px" width="1px" x="10px" y="2px" /><rect fill="rgb(162,174,103)" height="1px" width="1px" x="11px" y="2px" /><rect fill="rgb(153,158,101)" height="1px" width="1px" x="12px" y="2px" /><rect fill="rgb(129,140,105)" height="1px" width="1px" x="13px" y="2px" /><rect fill="rgb(137,148,103)" height="1px" width="1px" x="14px" y="2px" /><rect fill="rgb(138,148,103)" height="1px" width="1px" x="15px" y="2px" /><rect fill="rgb(241,148,41)" height="1px" width="1px" x="0px" y="3px" /><rect fill="rgb(185,118,42)" height="1px" width="1px" x="3px" y="3px" /><rect fill="rgb(221,128,21)" height="1px" width="1px" x="4px" y="3px" /><rect fill="rgb(204,101,0)" height="1px" width="1px" x="5px" y="3px" /><rect fill="rgb(224,109,0)" height="1px" width="1px" x="6px" y="3px" /><rect fill="rgb(186,171,88)" height="1px" width="1px" x="7px" y="3px" /><rect fill="rgb(142,150,78)" height="1px" width="1px" x="8px" y="3px" /><rect fill="rgb(179,157,69)" height="1px" width="1px" x="9px" y="3px" /><rect fill="rgb(169,119,34)" height="1px" width="1px" x="10px" y="3px" /><rect fill="rgb(136,94,35)" height="1px" width="1px" x="11px" y="3px" /><rect fill="rgb(97,86,57)" height="1px" width="1px" x="12px" y="3px" /><rect fill="rgb(115,156,139)" height="1px" width="1px" x="13px" y="3px" /><rect fill="rgb(140,150,103)" height="1px" width="1px" x="14px" y="3px" /><rect fill="rgb(138,148,103)" height="1px" width="1px" x="15px" y="3px" /><rect fill="rgb(216,131,33)" height="1px" width="1px" x="2px" y="4px" /><rect fill="rgb(238,147,27)" height="1px" width="1px" x="3px" y="4px" /><rect fill="rgb(247,158,60)" height="1px" width="1px" x="4px" y="4px" /><rect fill="rgb(240,136,34)" height="1px" width="1px" x="5px" y="4px" /><rect fill="rgb(233,124,14)" height="1px" width="1px" x="6px" y="4px" /><rect fill="rgb(167,124,43)" height="1px" width="1px" x="7px" y="4px" /><rect fill="rgb(115,115,57)" height="1px" width="1px" x="8px" y="4px" /><rect fill="rgb(152,94,15)" height="1px" width="1px" x="9px" y="4px" /><rect fill="rgb(184,84,0)" height="1px" width="1px" x="10px" y="4px" /><rect fill="rgb(171,87,0)" height="1px" width="1px" x="11px" y="4px" /><rect fill="rgb(163,85,5)" height="1px" width="1px" x="12px" y="4px" /><rect fill="rgb(227,49,0)" height="1px" width="1px" x="13px" y="4px" /><rect fill="rgb(225,138,36)" height="1px" width="1px" x="1px" y="5px" /><rect fill="rgb(248,156,50)" height="1px" width="1px" x="2px" y="5px" /><rect fill="rgb(251,218,180)" height="1px" width="1px" x="3px" y="5px" /><rect fill="rgb(252,255,255)" height="1px" width="1px" x="4px" y="5px" /><rect fill="rgb(249,254,255)" height="1px" width="1px" x="5px" y="5px" /><rect fill="rgb(231,211,187)" height="1px" width="1px" x="6px" y="5px" /><rect fill="rgb(219,131,45)" height="1px" width="1px" x="7px" y="5px" /><rect fill="rgb(207,126,38)" height="1px" width="1px" x="8px" y="5px" /><rect fill="rgb(177,135,83)" height="1px" width="1px" x="9px" y="5px" /><rect fill="rgb(180,126,56)" height="1px" width="1px" x="10px" y="5px" /><rect fill="rgb(177,100,18)" height="1px" width="1px" x="11px" y="5px" /><rect fill="rgb(154,82,1)" height="1px" width="1px" x="12px" y="5px" /><rect fill="rgb(153,84,9)" height="1px" width="1px" x="13px" y="5px" /><rect fill="rgb(149,92,29)" height="1px" width="1px" x="14px" y="5px" /><rect fill="rgb(219,160,84)" height="1px" width="1px" x="0px" y="6px" /><rect fill="rgb(236,138,26)" height="1px" width="1px" x="1px" y="6px" /><rect fill="rgb(250,197,135)" height="1px" width="1px" x="2px" y="6px" /><rect fill="rgb(248,254,255)" height="1px" width="1px" x="3px" y="6px" /><rect fill="rgb(251,253,255)" height="1px" width="1px" x="4px" y="6px" /><rect fill="rgb(255,255,255)" height="1px" width="1px" x="5px" y="6px" /><rect fill="rgb(255,255,255)" height="1px" width="1px" x="6px" y="6px" /><rect fill="rgb(240,202,156)" height="1px" width="1px" x="7px" y="6px" /><rect fill="rgb(255,214,160)" height="1px" width="1px" x="8px" y="6px" /><rect fill="rgb(249,253,255)" height="1px" width="1px" x="9px" y="6px" /><rect fill="rgb(211,230,235)" height="1px" width="1px" x="10px" y="6px" /><rect fill="rgb(189,169,148)" height="1px" width="1px" x="11px" y="6px" /><rect fill="rgb(166,94,15)" height="1px" width="1px" x="12px" y="6px" /><rect fill="rgb(153,85,10)" height="1px" width="1px" x="13px" y="6px" /><rect fill="rgb(151,86,12)" height="1px" width="1px" x="14px" y="6px" /><rect fill="rgb(216,131,40)" height="1px" width="1px" x="0px" y="7px" /><rect fill="rgb(249,143,22)" height="1px" width="1px" x="1px" y="7px" /><rect fill="rgb(249,211,167)" height="1px" width="1px" x="2px" y="7px" /><rect fill="rgb(255,255,255)" height="1px" width="1px" x="3px" y="7px" /><rect fill="rgb(214,215,214)" height="1px" width="1px" x="4px" y="7px" /><rect fill="rgb(41,41,39)" height="1px" width="1px" x="5px" y="7px" /><rect fill="rgb(92,95,93)" height="1px" width="1px" x="6px" y="7px" /><rect fill="rgb(255,255,255)" height="1px" width="1px" x="7px" y="7px" /><rect fill="rgb(189,183,175)" height="1px" width="1px" x="8px" y="7px" /><rect fill="rgb(27,31,34)" height="1px" width="1px" x="9px" y="7px" /><rect fill="rgb(123,129,133)" height="1px" width="1px" x="10px" y="7px" /><rect fill="rgb(224,234,241)" height="1px" width="1px" x="11px" y="7px" /><rect fill="rgb(176,118,51)" height="1px" width="1px" x="12px" y="7px" /><rect fill="rgb(151,72,0)" height="1px" width="1px" x="13px" y="7px" /><rect fill="rgb(153,85,11)" height="1px" width="1px" x="14px" y="7px" /><rect fill="rgb(163,103,31)" height="1px" width="1px" x="15px" y="7px" /><rect fill="rgb(249,140,5)" height="1px" width="1px" x="0px" y="8px" /><rect fill="rgb(238,137,12)" height="1px" width="1px" x="1px" y="8px" /><rect fill="rgb(245,186,119)" height="1px" width="1px" x="2px" y="8px" /><rect fill="rgb(255,255,255)" height="1px" width="1px" x="3px" y="8px" /><rect fill="rgb(197,204,211)" height="1px" width="1px" x="4px" y="8px" /><rect fill="rgb(0,1,2)" height="1px" width="1px" x="5px" y="8px" /><rect fill="rgb(54,57,61)" height="1px" width="1px" x="6px" y="8px" /><rect fill="rgb(255,244,200)" height="1px" width="1px" x="7px" y="8px" /><rect fill="rgb(165,162,143)" height="1px" width="1px" x="8px" y="8px" /><rect fill="rgb(0,0,0)" height="1px" width="1px" x="9px" y="8px" /><rect fill="rgb(88,98,104)" height="1px" width="1px" x="10px" y="8px" /><rect fill="rgb(223,225,227)" height="1px" width="1px" x="11px" y="8px" /><rect fill="rgb(175,109,35)" height="1px" width="1px" x="12px" y="8px" /><rect fill="rgb(145,73,0)" height="1px" width="1px" x="13px" y="8px" /><rect fill="rgb(157,80,1)" height="1px" width="1px" x="14px" y="8px" /><rect fill="rgb(171,89,2)" height="1px" width="1px" x="15px" y="8px" /><rect fill="rgb(250,139,5)" height="1px" width="1px" x="0px" y="9px" /><rect fill="rgb(188,109,0)" height="1px" width="1px" x="1px" y="9px" /><rect fill="rgb(145,84,25)" height="1px" width="1px" x="2px" y="9px" /><rect fill="rgb(255,212,137)" height="1px" width="1px" x="3px" y="9px" /><rect fill="rgb(255,242,223)" height="1px" width="1px" x="4px" y="9px" /><rect fill="rgb(219,211,198)" height="1px" width="1px" x="5px" y="9px" /><rect fill="rgb(231,189,137)" height="1px" width="1px" x="6px" y="9px" /><rect fill="rgb(252,164,54)" height="1px" width="1px" x="7px" y="9px" /><rect fill="rgb(250,189,106)" height="1px" width="1px" x="8px" y="9px" /><rect fill="rgb(218,194,170)" height="1px" width="1px" x="9px" y="9px" /><rect fill="rgb(221,202,178)" height="1px" width="1px" x="10px" y="9px" /><rect fill="rgb(209,149,81)" height="1px" width="1px" x="11px" y="9px" /><rect fill="rgb(155,83,4)" height="1px" width="1px" x="12px" y="9px" /><rect fill="rgb(63,30,0)" height="1px" width="1px" x="13px" y="9px" /><rect fill="rgb(151,81,7)" height="1px" width="1px" x="14px" y="9px" /><rect fill="rgb(165,95,17)" height="1px" width="1px" x="15px" y="9px" /><rect fill="rgb(221,128,21)" height="1px" width="1px" x="0px" y="10px" /><rect fill="rgb(174,98,1)" height="1px" width="1px" x="1px" y="10px" /><rect fill="rgb(0,0,0)" height="1px" width="1px" x="2px" y="10px" /><rect fill="rgb(120,69,9)" height="1px" width="1px" x="3px" y="10px" /><rect fill="rgb(239,165,82)" height="1px" width="1px" x="4px" y="10px" /><rect fill="rgb(241,150,35)" height="1px" width="1px" x="5px" y="10px" /><rect fill="rgb(248,139,0)" height="1px" width="1px" x="6px" y="10px" /><rect fill="rgb(242,125,0)" height="1px" width="1px" x="7px" y="10px" /><rect fill="rgb(236,113,0)" height="1px" width="1px" x="8px" y="10px" /><rect fill="rgb(223,120,14)" height="1px" width="1px" x="9px" y="10px" /><rect fill="rgb(205,131,49)" height="1px" width="1px" x="10px" y="10px" /><rect fill="rgb(145,91,31)" height="1px" width="1px" x="11px" y="10px" /><rect fill="rgb(23,10,0)" height="1px" width="1px" x="12px" y="10px" /><rect fill="rgb(34,17,0)" height="1px" width="1px" x="13px" y="10px" /><rect fill="rgb(158,84,7)" height="1px" width="1px" x="14px" y="10px" /><rect fill="rgb(148,97,36)" height="1px" width="1px" x="15px" y="10px" /><rect fill="rgb(255,140,19)" height="1px" width="1px" x="0px" y="11px" /><rect fill="rgb(187,99,9)" height="1px" width="1px" x="1px" y="11px" /><rect fill="rgb(32,13,0)" height="1px" width="1px" x="2px" y="11px" /><rect fill="rgb(0,0,12)" height="1px" width="1px" x="3px" y="11px" /><rect fill="rgb(204,211,219)" height="1px" width="1px" x="4px" y="11px" /><rect fill="rgb(230,215,201)" height="1px" width="1px" x="5px" y="11px" /><rect fill="rgb(230,198,162)" height="1px" width="1px" x="6px" y="11px" /><rect fill="rgb(242,188,136)" height="1px" width="1px" x="7px" y="11px" /><rect fill="rgb(234,189,146)" height="1px" width="1px" x="8px" y="11px" /><rect fill="rgb(220,205,180)" height="1px" width="1px" x="9px" y="11px" /><rect fill="rgb(237,238,237)" height="1px" width="1px" x="10px" y="11px" /><rect fill="rgb(105,111,119)" height="1px" width="1px" x="11px" y="11px" /><rect fill="rgb(0,0,0)" height="1px" width="1px" x="12px" y="11px" /><rect fill="rgb(88,48,2)" height="1px" width="1px" x="13px" y="11px" /><rect fill="rgb(165,91,14)" height="1px" width="1px" x="14px" y="11px" /><rect fill="rgb(212,121,21)" height="1px" width="1px" x="1px" y="12px" /><rect fill="rgb(147,80,6)" height="1px" width="1px" x="2px" y="12px" /><rect fill="rgb(5,0,0)" height="1px" width="1px" x="3px" y="12px" /><rect fill="rgb(86,92,102)" height="1px" width="1px" x="4px" y="12px" /><rect fill="rgb(238,244,251)" height="1px" width="1px" x="5px" y="12px" /><rect fill="rgb(255,255,255)" height="1px" width="1px" x="6px" y="12px" /><rect fill="rgb(255,255,255)" height="1px" width="1px" x="7px" y="12px" /><rect fill="rgb(255,255,255)" height="1px" width="1px" x="8px" y="12px" /><rect fill="rgb(255,255,255)" height="1px" width="1px" x="9px" y="12px" /><rect fill="rgb(178,181,185)" height="1px" width="1px" x="10px" y="12px" /><rect fill="rgb(21,24,26)" height="1px" width="1px" x="11px" y="12px" /><rect fill="rgb(61,32,0)" height="1px" width="1px" x="12px" y="12px" /><rect fill="rgb(155,89,14)" height="1px" width="1px" x="13px" y="12px" /><rect fill="rgb(211,139,55)" height="1px" width="1px" x="14px" y="12px" /><rect fill="rgb(171,79,0)" height="1px" width="1px" x="0px" y="13px" /><rect fill="rgb(219,120,9)" height="1px" width="1px" x="2px" y="13px" /><rect fill="rgb(139,76,8)" height="1px" width="1px" x="3px" y="13px" /><rect fill="rgb(65,33,0)" height="1px" width="1px" x="4px" y="13px" /><rect fill="rgb(36,29,22)" height="1px" width="1px" x="5px" y="13px" /><rect fill="rgb(81,88,101)" height="1px" width="1px" x="6px" y="13px" /><rect fill="rgb(134,149,162)" height="1px" width="1px" x="7px" y="13px" /><rect fill="rgb(118,129,143)" height="1px" width="1px" x="8px" y="13px" /><rect fill="rgb(53,54,55)" height="1px" width="1px" x="9px" y="13px" /><rect fill="rgb(30,10,0)" height="1px" width="1px" x="10px" y="13px" /><rect fill="rgb(80,41,0)" height="1px" width="1px" x="11px" y="13px" /><rect fill="rgb(156,95,25)" height="1px" width="1px" x="12px" y="13px" /><rect fill="rgb(152,89,21)" height="1px" width="1px" x="15px" y="13px" /><rect fill="rgb(175,96,8)" height="1px" width="1px" x="1px" y="14px" /><rect fill="rgb(157,99,41)" height="1px" width="1px" x="3px" y="14px" /><rect fill="rgb(156,91,17)" height="1px" width="1px" x="4px" y="14px" /><rect fill="rgb(115,64,9)" height="1px" width="1px" x="5px" y="14px" /><rect fill="rgb(107,54,0)" height="1px" width="1px" x="6px" y="14px" /><rect fill="rgb(90,38,0)" height="1px" width="1px" x="7px" y="14px" /><rect fill="rgb(92,39,0)" height="1px" width="1px" x="8px" y="14px" /><rect fill="rgb(106,58,4)" height="1px" width="1px" x="9px" y="14px" /><rect fill="rgb(119,69,13)" height="1px" width="1px" x="10px" y="14px" /><rect fill="rgb(162,89,14)" height="1px" width="1px" x="11px" y="14px" /><rect fill="rgb(156,98,29)" height="1px" width="1px" x="14px" y="14px" /></svg>