<?xml version="1.0" encoding="utf-8" ?>
<svg baseProfile="full" height="16px" version="1.1" width="16px" xmlns="http://www.w3.org/2000/svg" xmlns:ev="http://www.w3.org/2001/xml-events" xmlns:xlink="http://www.w3.org/1999/xlink"><defs /><rect fill="rgb(0,0,0)" height="1px" width="1px" x="7px" y="1px" /><rect fill="rgb(0,0,0)" height="1px" width="1px" x="8px" y="1px" /><rect fill="rgb(0,0,0)" height="1px" width="1px" x="9px" y="1px" /><rect fill="rgb(52,18,14)" height="1px" width="1px" x="11px" y="1px" /><rect fill="rgb(52,18,14)" height="1px" width="1px" x="12px" y="1px" /><rect fill="rgb(0,0,0)" height="1px" width="1px" x="7px" y="2px" /><rect fill="rgb(32,17,1)" height="1px" width="1px" x="8px" y="2px" /><rect fill="rgb(56,27,6)" height="1px" width="1px" x="9px" y="2px" /><rect fill="rgb(43,19,7)" height="1px" width="1px" x="10px" y="2px" /><rect fill="rgb(108,37,29)" height="1px" width="1px" x="11px" y="2px" /><rect fill="rgb(96,33,26)" height="1px" width="1px" x="12px" y="2px" /><rect fill="rgb(0,0,0)" height="1px" width="1px" x="13px" y="2px" /><rect fill="rgb(0,0,0)" height="1px" width="1px" x="4px" y="3px" /><rect fill="rgb(0,0,0)" height="1px" width="1px" x="5px" y="3px" /><rect fill="rgb(0,0,0)" height="1px" width="1px" x="6px" y="3px" /><rect fill="rgb(0,0,0)" height="1px" width="1px" x="7px" y="3px" /><rect fill="rgb(42,22,1)" height="1px" width="1px" x="8px" y="3px" /><rect fill="rgb(111,48,20)" height="1px" width="1px" x="9px" y="3px" /><rect fill="rgb(130,49,33)" height="1px" width="1px" x="10px" y="3px" /><rect fill="rgb(168,63,45)" height="1px" width="1px" x="11px" y="3px" /><rect fill="rgb(136,50,37)" height="1px" width="1px" x="12px" y="3px" /><rect fill="rgb(42,14,11)" height="1px" width="1px" x="13px" y="3px" /><rect fill="rgb(1,1,1)" height="1px" width="1px" x="3px" y="4px" /><rect fill="rgb(24,18,17)" height="1px" width="1px" x="4px" y="4px" /><rect fill="rgb(33,25,24)" height="1px" width="1px" x="5px" y="4px" /><rect fill="rgb(37,26,19)" height="1px" width="1px" x="6px" y="4px" /><rect fill="rgb(51,28,3)" height="1px" width="1px" x="7px" y="4px" /><rect fill="rgb(53,28,1)" height="1px" width="1px" x="8px" y="4px" /><rect fill="rgb(95,46,10)" height="1px" width="1px" x="9px" y="4px" /><rect fill="rgb(143,58,31)" height="1px" width="1px" x="10px" y="4px" /><rect fill="rgb(155,62,41)" height="1px" width="1px" x="11px" y="4px" /><rect fill="rgb(147,54,40)" height="1px" width="1px" x="12px" y="4px" /><rect fill="rgb(54,19,15)" height="1px" width="1px" x="13px" y="4px" /><rect fill="rgb(2,2,2)" height="1px" width="1px" x="3px" y="5px" /><rect fill="rgb(41,32,29)" height="1px" width="1px" x="4px" y="5px" /><rect fill="rgb(57,44,41)" height="1px" width="1px" x="5px" y="5px" /><rect fill="rgb(65,44,29)" height="1px" width="1px" x="6px" y="5px" /><rect fill="rgb(89,50,10)" height="1px" width="1px" x="7px" y="5px" /><rect fill="rgb(91,51,11)" height="1px" width="1px" x="8px" y="5px" /><rect fill="rgb(108,69,42)" height="1px" width="1px" x="9px" y="5px" /><rect fill="rgb(133,92,73)" height="1px" width="1px" x="10px" y="5px" /><rect fill="rgb(126,78,63)" height="1px" width="1px" x="11px" y="5px" /><rect fill="rgb(117,47,35)" height="1px" width="1px" x="12px" y="5px" /><rect fill="rgb(46,16,12)" height="1px" width="1px" x="13px" y="5px" /><rect fill="rgb(0,0,0)" height="1px" width="1px" x="3px" y="6px" /><rect fill="rgb(53,36,35)" height="1px" width="1px" x="4px" y="6px" /><rect fill="rgb(67,48,45)" height="1px" width="1px" x="5px" y="6px" /><rect fill="rgb(134,96,88)" height="1px" width="1px" x="6px" y="6px" /><rect fill="rgb(169,120,107)" height="1px" width="1px" x="7px" y="6px" /><rect fill="rgb(165,117,105)" height="1px" width="1px" x="8px" y="6px" /><rect fill="rgb(208,153,142)" height="1px" width="1px" x="9px" y="6px" /><rect fill="rgb(232,175,161)" height="1px" width="1px" x="10px" y="6px" /><rect fill="rgb(223,166,153)" height="1px" width="1px" x="11px" y="6px" /><rect fill="rgb(162,112,101)" height="1px" width="1px" x="12px" y="6px" /><rect fill="rgb(57,37,31)" height="1px" width="1px" x="13px" y="6px" /><rect fill="rgb(0,0,0)" height="1px" width="1px" x="1px" y="7px" /><rect fill="rgb(5,3,3)" height="1px" width="1px" x="3px" y="7px" /><rect fill="rgb(142,97,92)" height="1px" width="1px" x="4px" y="7px" /><rect fill="rgb(188,133,125)" height="1px" width="1px" x="5px" y="7px" /><rect fill="rgb(218,159,148)" height="1px" width="1px" x="6px" y="7px" /><rect fill="rgb(222,160,150)" height="1px" width="1px" x="7px" y="7px" /><rect fill="rgb(224,165,153)" height="1px" width="1px" x="8px" y="7px" /><rect fill="rgb(224,164,152)" height="1px" width="1px" x="9px" y="7px" /><rect fill="rgb(231,172,159)" height="1px" width="1px" x="10px" y="7px" /><rect fill="rgb(225,166,154)" height="1px" width="1px" x="11px" y="7px" /><rect fill="rgb(196,144,134)" height="1px" width="1px" x="12px" y="7px" /><rect fill="rgb(76,56,52)" height="1px" width="1px" x="13px" y="7px" /><rect fill="rgb(31,26,23)" height="1px" width="1px" x="0px" y="8px" /><rect fill="rgb(52,44,38)" height="1px" width="1px" x="1px" y="8px" /><rect fill="rgb(48,41,36)" height="1px" width="1px" x="2px" y="8px" /><rect fill="rgb(44,38,34)" height="1px" width="1px" x="3px" y="8px" /><rect fill="rgb(105,82,75)" height="1px" width="1px" x="4px" y="8px" /><rect fill="rgb(136,104,94)" height="1px" width="1px" x="5px" y="8px" /><rect fill="rgb(125,96,87)" height="1px" width="1px" x="6px" y="8px" /><rect fill="rgb(167,139,131)" height="1px" width="1px" x="7px" y="8px" /><rect fill="rgb(176,149,139)" height="1px" width="1px" x="8px" y="8px" /><rect fill="rgb(131,102,95)" height="1px" width="1px" x="9px" y="8px" /><rect fill="rgb(137,108,99)" height="1px" width="1px" x="10px" y="8px" /><rect fill="rgb(136,107,99)" height="1px" width="1px" x="11px" y="8px" /><rect fill="rgb(138,112,104)" height="1px" width="1px" x="12px" y="8px" /><rect fill="rgb(117,108,102)" height="1px" width="1px" x="13px" y="8px" /><rect fill="rgb(51,46,43)" height="1px" width="1px" x="14px" y="8px" /><rect fill="rgb(1,0,0)" height="1px" width="1px" x="15px" y="8px" /><rect fill="rgb(43,36,30)" height="1px" width="1px" x="0px" y="9px" /><rect fill="rgb(62,51,40)" height="1px" width="1px" x="1px" y="9px" /><rect fill="rgb(42,34,30)" height="1px" width="1px" x="2px" y="9px" /><rect fill="rgb(48,37,33)" height="1px" width="1px" x="3px" y="9px" /><rect fill="rgb(122,88,82)" height="1px" width="1px" x="4px" y="9px" /><rect fill="rgb(165,117,108)" height="1px" width="1px" x="5px" y="9px" /><rect fill="rgb(110,81,74)" height="1px" width="1px" x="6px" y="9px" /><rect fill="rgb(129,118,108)" height="1px" width="1px" x="7px" y="9px" /><rect fill="rgb(155,147,138)" height="1px" width="1px" x="8px" y="9px" /><rect fill="rgb(95,75,67)" height="1px" width="1px" x="9px" y="9px" /><rect fill="rgb(144,111,101)" height="1px" width="1px" x="10px" y="9px" /><rect fill="rgb(130,99,91)" height="1px" width="1px" x="11px" y="9px" /><rect fill="rgb(102,87,77)" height="1px" width="1px" x="12px" y="9px" /><rect fill="rgb(150,141,132)" height="1px" width="1px" x="13px" y="9px" /><rect fill="rgb(70,61,52)" height="1px" width="1px" x="14px" y="9px" /><rect fill="rgb(0,0,0)" height="1px" width="1px" x="15px" y="9px" /><rect fill="rgb(29,24,18)" height="1px" width="1px" x="0px" y="10px" /><rect fill="rgb(31,26,17)" height="1px" width="1px" x="1px" y="10px" /><rect fill="rgb(100,70,66)" height="1px" width="1px" x="2px" y="10px" /><rect fill="rgb(156,106,101)" height="1px" width="1px" x="3px" y="10px" /><rect fill="rgb(185,133,124)" height="1px" width="1px" x="4px" y="10px" /><rect fill="rgb(226,156,141)" height="1px" width="1px" x="5px" y="10px" /><rect fill="rgb(210,145,132)" height="1px" width="1px" x="6px" y="10px" /><rect fill="rgb(134,100,90)" height="1px" width="1px" x="7px" y="10px" /><rect fill="rgb(121,92,83)" height="1px" width="1px" x="8px" y="10px" /><rect fill="rgb(169,117,109)" height="1px" width="1px" x="9px" y="10px" /><rect fill="rgb(215,155,145)" height="1px" width="1px" x="10px" y="10px" /><rect fill="rgb(205,143,135)" height="1px" width="1px" x="11px" y="10px" /><rect fill="rgb(146,101,94)" height="1px" width="1px" x="12px" y="10px" /><rect fill="rgb(106,80,70)" height="1px" width="1px" x="13px" y="10px" /><rect fill="rgb(63,46,40)" height="1px" width="1px" x="14px" y="10px" /><rect fill="rgb(85,61,57)" height="1px" width="1px" x="2px" y="11px" /><rect fill="rgb(95,64,61)" height="1px" width="1px" x="3px" y="11px" /><rect fill="rgb(158,114,106)" height="1px" width="1px" x="4px" y="11px" /><rect fill="rgb(200,137,129)" height="1px" width="1px" x="5px" y="11px" /><rect fill="rgb(194,130,123)" height="1px" width="1px" x="6px" y="11px" /><rect fill="rgb(200,142,135)" height="1px" width="1px" x="7px" y="11px" /><rect fill="rgb(198,139,133)" height="1px" width="1px" x="8px" y="11px" /><rect fill="rgb(194,135,130)" height="1px" width="1px" x="9px" y="11px" /><rect fill="rgb(175,115,113)" height="1px" width="1px" x="10px" y="11px" /><rect fill="rgb(177,119,116)" height="1px" width="1px" x="11px" y="11px" /><rect fill="rgb(195,134,129)" height="1px" width="1px" x="12px" y="11px" /><rect fill="rgb(195,136,130)" height="1px" width="1px" x="13px" y="11px" /><rect fill="rgb(141,99,95)" height="1px" width="1px" x="14px" y="11px" /><rect fill="rgb(0,0,0)" height="1px" width="1px" x="15px" y="11px" /><rect fill="rgb(0,0,0)" height="1px" width="1px" x="3px" y="12px" /><rect fill="rgb(118,83,78)" height="1px" width="1px" x="4px" y="12px" /><rect fill="rgb(184,129,122)" height="1px" width="1px" x="5px" y="12px" /><rect fill="rgb(167,131,123)" height="1px" width="1px" x="6px" y="12px" /><rect fill="rgb(198,175,164)" height="1px" width="1px" x="7px" y="12px" /><rect fill="rgb(184,158,147)" height="1px" width="1px" x="8px" y="12px" /><rect fill="rgb(209,188,175)" height="1px" width="1px" x="9px" y="12px" /><rect fill="rgb(195,171,158)" height="1px" width="1px" x="10px" y="12px" /><rect fill="rgb(229,210,197)" height="1px" width="1px" x="11px" y="12px" /><rect fill="rgb(206,183,171)" height="1px" width="1px" x="12px" y="12px" /><rect fill="rgb(185,162,151)" height="1px" width="1px" x="13px" y="12px" /><rect fill="rgb(153,139,130)" height="1px" width="1px" x="14px" y="12px" /><rect fill="rgb(12,11,11)" height="1px" width="1px" x="15px" y="12px" /><rect fill="rgb(39,31,28)" height="1px" width="1px" x="4px" y="13px" /><rect fill="rgb(119,79,76)" height="1px" width="1px" x="5px" y="13px" /><rect fill="rgb(142,95,92)" height="1px" width="1px" x="6px" y="13px" /><rect fill="rgb(141,99,95)" height="1px" width="1px" x="7px" y="13px" /><rect fill="rgb(140,98,94)" height="1px" width="1px" x="8px" y="13px" /><rect fill="rgb(136,105,100)" height="1px" width="1px" x="9px" y="13px" /><rect fill="rgb(124,97,91)" height="1px" width="1px" x="10px" y="13px" /><rect fill="rgb(164,156,144)" height="1px" width="1px" x="11px" y="13px" /><rect fill="rgb(126,119,109)" height="1px" width="1px" x="12px" y="13px" /><rect fill="rgb(89,84,77)" height="1px" width="1px" x="13px" y="13px" /><rect fill="rgb(70,67,62)" height="1px" width="1px" x="14px" y="13px" /><rect fill="rgb(11,11,11)" height="1px" width="1px" x="15px" y="13px" /><rect fill="rgb(5,3,3)" height="1px" width="1px" x="5px" y="14px" /><rect fill="rgb(52,32,32)" height="1px" width="1px" x="6px" y="14px" /><rect fill="rgb(61,37,37)" height="1px" width="1px" x="7px" y="14px" /><rect fill="rgb(58,36,36)" height="1px" width="1px" x="8px" y="14px" /><rect fill="rgb(52,30,31)" height="1px" width="1px" x="9px" y="14px" /><rect fill="rgb(44,26,27)" height="1px" width="1px" x="10px" y="14px" /><rect fill="rgb(2,3,3)" height="1px" width="1px" x="11px" y="14px" /><rect fill="rgb(8,7,7)" height="1px" width="1px" x="12px" y="14px" /></svg>