<svg xmlns="http://www.w3.org/2000/svg" viewBox="0 0 16 16">
  <path fill="#333" d="M0 1h16v14H0z"/>
  <path d="M0 1h1v4H0z" fill="#06c"/>
  <path d="M2 1h1v4H2z" fill="teal"/>
  <path d="M4 1h1v4H4z" fill="#693"/>
  <path d="M6 1h1v4H6z" fill="#ff3"/>
  <path d="M8 1h1v4H8z" fill="#fc3"/>
  <path d="M10 1h1v4h-1z" fill="#f93"/>
  <path d="M12 1h1v4h-1z" fill="#f63"/>
  <path d="M14 1h1v4h-1z" fill="#fe3333"/>
  <path d="M7 6v1h1v1H7V7H6v1H5V7H1v4h1v-1h3V9h3v1h1V9h2v1h1V9h1v1h1V9h1V7h-1v1h-1V7h-1v1h-1V7h-1v1H9V6H7zM2 8h2v1H2V8z" fill="#e6e6e6"/>
  <path d="M1 11h1v4H1z" fill="#fe3333"/>
  <path d="M3 11h1v4H3z" fill="#f63"/>
  <path d="M5 11h1v4H5z" fill="#f93"/>
  <path d="M7 11h1v4H7z" fill="#fc3"/>
  <path d="M9 11h1v4H9z" fill="#ff3"/>
  <path d="M11 11h1v4h-1z" fill="#693"/>
  <path d="M13 11h1v4h-1z" fill="teal"/>
  <path d="M15 11h1v4h-1z" fill="#06c"/>
</svg>