<svg xmlns="http://www.w3.org/2000/svg" viewBox="0 0 16 16">
  <path d="M11.055 2.502c-.09.972-.442 1.912-.923 2.757a10.4 10.4 0 0 1-.874 1.29c-.15.19-.302.382-.469.557-.042.045-.08.111-.15.114-.105.003-.18-.12-.111-.21 1.09-1.417 2.019-3.115 1.92-4.959-.004-.094-.023-.207.01-.298a.325.325 0 0 1 .468-.166c.263.159.152.67.13.915m-.748 5.907c.314.314.012 1.453-1 2.854L7.454 9.409c1.401-1.012 2.54-1.314 2.854-1m-6.68 6.68c-.313-.314-.012-1.453 1-2.854l1.854 1.854c-1.4 1.012-2.54 1.313-2.853 1m2.61-4.669c.183-.172.364-.334.543-.484l2 1.999c-.151.179-.312.36-.485.543L6.24 10.42zm-.6.6l2.059 2.058c-.183.172-.365.333-.544.484l-1.999-2c.151-.178.312-.36.484-.543M9.866.05c-.104-.098-.35-.014-.452.088-.103.103-.19.358-.087.462.787.787.68 2.32.14 3.894-.544 1.588-1.481 3.013-2.669 4.2l-.158.159-.417-.418.21-.21-.342-.343-.764.764.343.342.21-.21.417.417-.77.77-.418-.417.21-.21-.342-.343-.763.764.342.342.21-.21.418.417-.77.771-.418-.417.21-.21-.342-.343-.763.763.342.343.21-.21.418.417-2.986 2.986-.807-.15-.278.278 1.46 1.46.278-.278-.146-.79 1.511-1.511c-.393.913-.458 1.716.012 2.186 1.006 1.006 3.534-.437 5.402-2.305 1.868-1.868 3.31-4.396 2.305-5.402-.374-.373-.957-.408-1.638-.21a10.456 10.456 0 0 1 2.329-1.147c1.574-.54 3.107-.647 3.894.14.103.104.358.017.462-.087.102-.102.186-.35.086-.454 0 0-6.088-6.09-6.089-6.089" fill="#396ba5"/>
</svg>