<?xml version="1.0" encoding="UTF-8" standalone="no"?>
<svg
   xmlns="http://www.w3.org/2000/svg"
   version="1.1"
   viewBox="0 0 16 16">
  <g transform="matrix(0.17126496,-0.17126496,-0.17126496,-0.17126496,11.055496,2.5017214)">
    <path style="fill:#396ba5;" d="m 0,0 c -3.105,-2.574 -6.875,-4.289 -10.745,-5.353 -2.072,-0.569 -4.187,-0.961 -6.32,-1.214 -0.99,-0.117 -1.996,-0.234 -2.994,-0.26 -0.255,-0.006 -0.556,-0.091 -0.769,0.108 -0.317,0.297 -0.175,0.873 0.285,0.934 7.322,0.957 14.99,3.202 20.087,8.872 C -0.195,3.378 0.08,3.759 0.443,3.929 1.184,4.276 2.093,3.842 2.291,3.049 2.598,1.817 0.779,0.646 0,0 m -19.429,-15.064 c 0,-1.832 -4.204,-4.277 -11.25,-5.412 l 0,10.824 c 7.046,-1.135 11.25,-3.58 11.25,-5.412 m -39,0 c 0,1.832 4.204,4.277 11.25,5.412 l 0,-10.824 c -7.046,1.135 -11.25,3.58 -11.25,5.412 m 21.25,6.009 c 1.038,-0.031 2.038,-0.09 3,-0.173 l 0,-11.672 c -0.962,-0.083 -1.962,-0.142 -3,-0.173 l 0,12.018 z m -3.5,0 0,-12.018 c -1.038,0.031 -2.037,0.09 -3,0.173 l 0,11.672 c 0.963,0.083 1.962,0.142 3,0.173 M 3.69,10.635 c -0.018,0.588 -0.985,1.061 -1.577,1.061 -0.604,0 -1.604,-0.489 -1.604,-1.093 0,-4.597 -4.785,-8.759 -10.956,-11.78 -6.227,-3.048 -13.124,-4.47 -20.057,-4.47 l -0.925,0 0,2.437 1.229,0 0,2 -4.458,0 0,-2 1.229,0 0,-2.437 -4.5,0 0,2.437 1.229,0 0,2 -4.458,0 0,-2 1.229,0 0,-2.437 -4.5,0 0,2.437 1.229,0 0,2 -4.458,0 0,-2 1.229,0 0,-2.437 -17.437,0 c 0,0.007 -1.917,2.791 -1.917,2.791 l -1.625,0 0,-8.521 1.625,0 1.879,2.73 8.824,0 c -3.814,-1.517 -6.349,-3.671 -6.349,-6.417 0,-5.873 11.593,-9.042 22.5,-9.042 10.907,0 22.5,3.169 22.5,9.042 0,2.18 -1.599,3.986 -4.165,5.397 3.503,-0.734 6.916,-1.869 10.147,-3.451 6.171,-3.021 10.956,-7.183 10.956,-11.779 0,-0.604 1,-1.094 1.604,-1.094 0.597,0 1.568,0.48 1.579,1.074 0.004,0 0.004,35.552 -0.002,35.552" />
  </g>
</svg>
