<?xml version="1.0" encoding="utf-8" ?>
<svg baseProfile="full" height="16px" version="1.1" width="16px" xmlns="http://www.w3.org/2000/svg" xmlns:ev="http://www.w3.org/2001/xml-events" xmlns:xlink="http://www.w3.org/1999/xlink"><defs /><rect fill="rgb(0,0,0)" height="1px" width="1px" x="0px" y="0px" /><rect fill="rgb(0,0,0)" height="1px" width="1px" x="1px" y="0px" /><rect fill="rgb(0,0,0)" height="1px" width="1px" x="2px" y="0px" /><rect fill="rgb(0,0,0)" height="1px" width="1px" x="3px" y="0px" /><rect fill="rgb(0,0,0)" height="1px" width="1px" x="4px" y="0px" /><rect fill="rgb(0,0,0)" height="1px" width="1px" x="5px" y="0px" /><rect fill="rgb(0,0,0)" height="1px" width="1px" x="6px" y="0px" /><rect fill="rgb(0,0,0)" height="1px" width="1px" x="7px" y="0px" /><rect fill="rgb(0,0,0)" height="1px" width="1px" x="8px" y="0px" /><rect fill="rgb(0,0,0)" height="1px" width="1px" x="9px" y="0px" /><rect fill="rgb(0,0,0)" height="1px" width="1px" x="10px" y="0px" /><rect fill="rgb(0,0,0)" height="1px" width="1px" x="11px" y="0px" /><rect fill="rgb(0,0,0)" height="1px" width="1px" x="12px" y="0px" /><rect fill="rgb(0,0,0)" height="1px" width="1px" x="13px" y="0px" /><rect fill="rgb(0,0,0)" height="1px" width="1px" x="14px" y="0px" /><rect fill="rgb(0,0,0)" height="1px" width="1px" x="15px" y="0px" /><rect fill="rgb(0,0,0)" height="1px" width="1px" x="0px" y="1px" /><rect fill="rgb(0,0,0)" height="1px" width="1px" x="1px" y="1px" /><rect fill="rgb(0,0,0)" height="1px" width="1px" x="2px" y="1px" /><rect fill="rgb(0,0,0)" height="1px" width="1px" x="3px" y="1px" /><rect fill="rgb(0,0,0)" height="1px" width="1px" x="4px" y="1px" /><rect fill="rgb(0,0,0)" height="1px" width="1px" x="5px" y="1px" /><rect fill="rgb(0,0,0)" height="1px" width="1px" x="6px" y="1px" /><rect fill="rgb(0,0,0)" height="1px" width="1px" x="7px" y="1px" /><rect fill="rgb(0,0,0)" height="1px" width="1px" x="8px" y="1px" /><rect fill="rgb(0,0,0)" height="1px" width="1px" x="9px" y="1px" /><rect fill="rgb(0,0,0)" height="1px" width="1px" x="10px" y="1px" /><rect fill="rgb(0,0,0)" height="1px" width="1px" x="11px" y="1px" /><rect fill="rgb(0,0,0)" height="1px" width="1px" x="12px" y="1px" /><rect fill="rgb(0,0,0)" height="1px" width="1px" x="13px" y="1px" /><rect fill="rgb(0,0,0)" height="1px" width="1px" x="14px" y="1px" /><rect fill="rgb(0,0,0)" height="1px" width="1px" x="15px" y="1px" /><rect fill="rgb(0,0,0)" height="1px" width="1px" x="0px" y="2px" /><rect fill="rgb(0,0,0)" height="1px" width="1px" x="1px" y="2px" /><rect fill="rgb(0,0,0)" height="1px" width="1px" x="2px" y="2px" /><rect fill="rgb(0,0,0)" height="1px" width="1px" x="3px" y="2px" /><rect fill="rgb(0,0,0)" height="1px" width="1px" x="4px" y="2px" /><rect fill="rgb(0,0,0)" height="1px" width="1px" x="5px" y="2px" /><rect fill="rgb(0,0,0)" height="1px" width="1px" x="6px" y="2px" /><rect fill="rgb(38,38,38)" height="1px" width="1px" x="7px" y="2px" /><rect fill="rgb(74,74,74)" height="1px" width="1px" x="8px" y="2px" /><rect fill="rgb(110,110,110)" height="1px" width="1px" x="9px" y="2px" /><rect fill="rgb(134,134,134)" height="1px" width="1px" x="10px" y="2px" /><rect fill="rgb(158,158,158)" height="1px" width="1px" x="11px" y="2px" /><rect fill="rgb(146,146,146)" height="1px" width="1px" x="12px" y="2px" /><rect fill="rgb(110,110,110)" height="1px" width="1px" x="13px" y="2px" /><rect fill="rgb(74,74,74)" height="1px" width="1px" x="14px" y="2px" /><rect fill="rgb(0,0,0)" height="1px" width="1px" x="15px" y="2px" /><rect fill="rgb(38,38,38)" height="1px" width="1px" x="0px" y="3px" /><rect fill="rgb(74,74,74)" height="1px" width="1px" x="1px" y="3px" /><rect fill="rgb(98,98,98)" height="1px" width="1px" x="2px" y="3px" /><rect fill="rgb(110,110,110)" height="1px" width="1px" x="3px" y="3px" /><rect fill="rgb(110,110,110)" height="1px" width="1px" x="4px" y="3px" /><rect fill="rgb(122,122,122)" height="1px" width="1px" x="5px" y="3px" /><rect fill="rgb(122,122,122)" height="1px" width="1px" x="6px" y="3px" /><rect fill="rgb(98,98,98)" height="1px" width="1px" x="7px" y="3px" /><rect fill="rgb(74,74,74)" height="1px" width="1px" x="8px" y="3px" /><rect fill="rgb(86,86,86)" height="1px" width="1px" x="9px" y="3px" /><rect fill="rgb(128,128,128)" height="1px" width="1px" x="10px" y="3px" /><rect fill="rgb(206,206,206)" height="1px" width="1px" x="11px" y="3px" /><rect fill="rgb(242,242,242)" height="1px" width="1px" x="12px" y="3px" /><rect fill="rgb(230,230,230)" height="1px" width="1px" x="13px" y="3px" /><rect fill="rgb(146,146,146)" height="1px" width="1px" x="14px" y="3px" /><rect fill="rgb(0,0,0)" height="1px" width="1px" x="15px" y="3px" /><rect fill="rgb(134,134,134)" height="1px" width="1px" x="0px" y="4px" /><rect fill="rgb(86,86,86)" height="1px" width="1px" x="1px" y="4px" /><rect fill="rgb(98,98,98)" height="1px" width="1px" x="2px" y="4px" /><rect fill="rgb(122,122,122)" height="1px" width="1px" x="3px" y="4px" /><rect fill="rgb(122,122,122)" height="1px" width="1px" x="4px" y="4px" /><rect fill="rgb(110,110,110)" height="1px" width="1px" x="5px" y="4px" /><rect fill="rgb(110,110,110)" height="1px" width="1px" x="6px" y="4px" /><rect fill="rgb(146,146,146)" height="1px" width="1px" x="7px" y="4px" /><rect fill="rgb(74,74,74)" height="1px" width="1px" x="8px" y="4px" /><rect fill="rgb(170,170,170)" height="1px" width="1px" x="9px" y="4px" /><rect fill="rgb(206,206,206)" height="1px" width="1px" x="10px" y="4px" /><rect fill="rgb(218,218,218)" height="1px" width="1px" x="11px" y="4px" /><rect fill="rgb(230,230,230)" height="1px" width="1px" x="12px" y="4px" /><rect fill="rgb(230,230,230)" height="1px" width="1px" x="13px" y="4px" /><rect fill="rgb(170,170,170)" height="1px" width="1px" x="14px" y="4px" /><rect fill="rgb(50,50,50)" height="1px" width="1px" x="15px" y="4px" /><rect fill="rgb(62,62,62)" height="1px" width="1px" x="0px" y="5px" /><rect fill="rgb(62,62,62)" height="1px" width="1px" x="1px" y="5px" /><rect fill="rgb(26,26,26)" height="1px" width="1px" x="2px" y="5px" /><rect fill="rgb(0,0,0)" height="1px" width="1px" x="3px" y="5px" /><rect fill="rgb(0,0,0)" height="1px" width="1px" x="4px" y="5px" /><rect fill="rgb(0,0,0)" height="1px" width="1px" x="5px" y="5px" /><rect fill="rgb(0,0,0)" height="1px" width="1px" x="6px" y="5px" /><rect fill="rgb(38,38,38)" height="1px" width="1px" x="7px" y="5px" /><rect fill="rgb(122,122,122)" height="1px" width="1px" x="8px" y="5px" /><rect fill="rgb(110,110,110)" height="1px" width="1px" x="9px" y="5px" /><rect fill="rgb(170,170,170)" height="1px" width="1px" x="10px" y="5px" /><rect fill="rgb(206,206,206)" height="1px" width="1px" x="11px" y="5px" /><rect fill="rgb(218,218,218)" height="1px" width="1px" x="12px" y="5px" /><rect fill="rgb(206,206,206)" height="1px" width="1px" x="13px" y="5px" /><rect fill="rgb(158,158,158)" height="1px" width="1px" x="14px" y="5px" /><rect fill="rgb(98,98,98)" height="1px" width="1px" x="15px" y="5px" /><rect fill="rgb(0,0,0)" height="1px" width="1px" x="0px" y="6px" /><rect fill="rgb(0,0,0)" height="1px" width="1px" x="1px" y="6px" /><rect fill="rgb(0,0,0)" height="1px" width="1px" x="2px" y="6px" /><rect fill="rgb(0,0,0)" height="1px" width="1px" x="3px" y="6px" /><rect fill="rgb(0,0,0)" height="1px" width="1px" x="4px" y="6px" /><rect fill="rgb(0,0,0)" height="1px" width="1px" x="5px" y="6px" /><rect fill="rgb(0,0,0)" height="1px" width="1px" x="6px" y="6px" /><rect fill="rgb(0,0,0)" height="1px" width="1px" x="7px" y="6px" /><rect fill="rgb(122,122,122)" height="1px" width="1px" x="8px" y="6px" /><rect fill="rgb(50,50,50)" height="1px" width="1px" x="9px" y="6px" /><rect fill="rgb(50,50,50)" height="1px" width="1px" x="10px" y="6px" /><rect fill="rgb(134,134,134)" height="1px" width="1px" x="11px" y="6px" /><rect fill="rgb(122,122,122)" height="1px" width="1px" x="12px" y="6px" /><rect fill="rgb(74,74,74)" height="1px" width="1px" x="13px" y="6px" /><rect fill="rgb(74,74,74)" height="1px" width="1px" x="14px" y="6px" /><rect fill="rgb(122,122,122)" height="1px" width="1px" x="15px" y="6px" /><rect fill="rgb(0,0,0)" height="1px" width="1px" x="0px" y="7px" /><rect fill="rgb(0,0,0)" height="1px" width="1px" x="1px" y="7px" /><rect fill="rgb(0,0,0)" height="1px" width="1px" x="2px" y="7px" /><rect fill="rgb(0,0,0)" height="1px" width="1px" x="3px" y="7px" /><rect fill="rgb(0,0,0)" height="1px" width="1px" x="4px" y="7px" /><rect fill="rgb(0,0,0)" height="1px" width="1px" x="5px" y="7px" /><rect fill="rgb(0,0,0)" height="1px" width="1px" x="6px" y="7px" /><rect fill="rgb(0,0,0)" height="1px" width="1px" x="7px" y="7px" /><rect fill="rgb(98,98,98)" height="1px" width="1px" x="8px" y="7px" /><rect fill="rgb(86,86,86)" height="1px" width="1px" x="9px" y="7px" /><rect fill="rgb(86,86,86)" height="1px" width="1px" x="10px" y="7px" /><rect fill="rgb(74,74,74)" height="1px" width="1px" x="11px" y="7px" /><rect fill="rgb(50,50,50)" height="1px" width="1px" x="12px" y="7px" /><rect fill="rgb(50,50,50)" height="1px" width="1px" x="13px" y="7px" /><rect fill="rgb(74,74,74)" height="1px" width="1px" x="14px" y="7px" /><rect fill="rgb(122,122,122)" height="1px" width="1px" x="15px" y="7px" /><rect fill="rgb(0,0,0)" height="1px" width="1px" x="0px" y="8px" /><rect fill="rgb(0,0,0)" height="1px" width="1px" x="1px" y="8px" /><rect fill="rgb(0,0,0)" height="1px" width="1px" x="2px" y="8px" /><rect fill="rgb(0,0,0)" height="1px" width="1px" x="3px" y="8px" /><rect fill="rgb(0,0,0)" height="1px" width="1px" x="4px" y="8px" /><rect fill="rgb(0,0,0)" height="1px" width="1px" x="5px" y="8px" /><rect fill="rgb(14,14,14)" height="1px" width="1px" x="6px" y="8px" /><rect fill="rgb(110,110,110)" height="1px" width="1px" x="7px" y="8px" /><rect fill="rgb(122,122,122)" height="1px" width="1px" x="8px" y="8px" /><rect fill="rgb(110,110,110)" height="1px" width="1px" x="9px" y="8px" /><rect fill="rgb(122,122,122)" height="1px" width="1px" x="10px" y="8px" /><rect fill="rgb(122,122,122)" height="1px" width="1px" x="11px" y="8px" /><rect fill="rgb(62,62,62)" height="1px" width="1px" x="12px" y="8px" /><rect fill="rgb(86,86,86)" height="1px" width="1px" x="13px" y="8px" /><rect fill="rgb(86,86,86)" height="1px" width="1px" x="14px" y="8px" /><rect fill="rgb(0,0,0)" height="1px" width="1px" x="15px" y="8px" /><rect fill="rgb(0,0,0)" height="1px" width="1px" x="0px" y="9px" /><rect fill="rgb(0,0,0)" height="1px" width="1px" x="1px" y="9px" /><rect fill="rgb(0,0,0)" height="1px" width="1px" x="2px" y="9px" /><rect fill="rgb(0,0,0)" height="1px" width="1px" x="3px" y="9px" /><rect fill="rgb(0,0,0)" height="1px" width="1px" x="4px" y="9px" /><rect fill="rgb(62,62,62)" height="1px" width="1px" x="5px" y="9px" /><rect fill="rgb(122,122,122)" height="1px" width="1px" x="6px" y="9px" /><rect fill="rgb(86,86,86)" height="1px" width="1px" x="7px" y="9px" /><rect fill="rgb(134,134,134)" height="1px" width="1px" x="8px" y="9px" /><rect fill="rgb(62,62,62)" height="1px" width="1px" x="9px" y="9px" /><rect fill="rgb(38,38,38)" height="1px" width="1px" x="10px" y="9px" /><rect fill="rgb(122,122,122)" height="1px" width="1px" x="11px" y="9px" /><rect fill="rgb(98,98,98)" height="1px" width="1px" x="12px" y="9px" /><rect fill="rgb(74,74,74)" height="1px" width="1px" x="13px" y="9px" /><rect fill="rgb(0,0,0)" height="1px" width="1px" x="14px" y="9px" /><rect fill="rgb(0,0,0)" height="1px" width="1px" x="15px" y="9px" /><rect fill="rgb(0,0,0)" height="1px" width="1px" x="0px" y="10px" /><rect fill="rgb(0,0,0)" height="1px" width="1px" x="1px" y="10px" /><rect fill="rgb(0,0,0)" height="1px" width="1px" x="2px" y="10px" /><rect fill="rgb(26,26,26)" height="1px" width="1px" x="3px" y="10px" /><rect fill="rgb(122,122,122)" height="1px" width="1px" x="4px" y="10px" /><rect fill="rgb(86,86,86)" height="1px" width="1px" x="5px" y="10px" /><rect fill="rgb(110,110,110)" height="1px" width="1px" x="6px" y="10px" /><rect fill="rgb(98,98,98)" height="1px" width="1px" x="7px" y="10px" /><rect fill="rgb(0,0,0)" height="1px" width="1px" x="8px" y="10px" /><rect fill="rgb(38,38,38)" height="1px" width="1px" x="9px" y="10px" /><rect fill="rgb(122,122,122)" height="1px" width="1px" x="10px" y="10px" /><rect fill="rgb(98,98,98)" height="1px" width="1px" x="11px" y="10px" /><rect fill="rgb(74,74,74)" height="1px" width="1px" x="12px" y="10px" /><rect fill="rgb(0,0,0)" height="1px" width="1px" x="13px" y="10px" /><rect fill="rgb(0,0,0)" height="1px" width="1px" x="14px" y="10px" /><rect fill="rgb(0,0,0)" height="1px" width="1px" x="15px" y="10px" /><rect fill="rgb(0,0,0)" height="1px" width="1px" x="0px" y="11px" /><rect fill="rgb(0,0,0)" height="1px" width="1px" x="1px" y="11px" /><rect fill="rgb(86,86,86)" height="1px" width="1px" x="2px" y="11px" /><rect fill="rgb(122,122,122)" height="1px" width="1px" x="3px" y="11px" /><rect fill="rgb(98,98,98)" height="1px" width="1px" x="4px" y="11px" /><rect fill="rgb(122,122,122)" height="1px" width="1px" x="5px" y="11px" /><rect fill="rgb(26,26,26)" height="1px" width="1px" x="6px" y="11px" /><rect fill="rgb(0,0,0)" height="1px" width="1px" x="7px" y="11px" /><rect fill="rgb(26,26,26)" height="1px" width="1px" x="8px" y="11px" /><rect fill="rgb(122,122,122)" height="1px" width="1px" x="9px" y="11px" /><rect fill="rgb(98,98,98)" height="1px" width="1px" x="10px" y="11px" /><rect fill="rgb(74,74,74)" height="1px" width="1px" x="11px" y="11px" /><rect fill="rgb(0,0,0)" height="1px" width="1px" x="12px" y="11px" /><rect fill="rgb(0,0,0)" height="1px" width="1px" x="13px" y="11px" /><rect fill="rgb(0,0,0)" height="1px" width="1px" x="14px" y="11px" /><rect fill="rgb(0,0,0)" height="1px" width="1px" x="15px" y="11px" /><rect fill="rgb(14,14,14)" height="1px" width="1px" x="0px" y="12px" /><rect fill="rgb(134,134,134)" height="1px" width="1px" x="1px" y="12px" /><rect fill="rgb(86,86,86)" height="1px" width="1px" x="2px" y="12px" /><rect fill="rgb(122,122,122)" height="1px" width="1px" x="3px" y="12px" /><rect fill="rgb(62,62,62)" height="1px" width="1px" x="4px" y="12px" /><rect fill="rgb(0,0,0)" height="1px" width="1px" x="5px" y="12px" /><rect fill="rgb(0,0,0)" height="1px" width="1px" x="6px" y="12px" /><rect fill="rgb(0,0,0)" height="1px" width="1px" x="7px" y="12px" /><rect fill="rgb(50,50,50)" height="1px" width="1px" x="8px" y="12px" /><rect fill="rgb(128,128,128)" height="1px" width="1px" x="9px" y="12px" /><rect fill="rgb(74,74,74)" height="1px" width="1px" x="10px" y="12px" /><rect fill="rgb(0,0,0)" height="1px" width="1px" x="11px" y="12px" /><rect fill="rgb(0,0,0)" height="1px" width="1px" x="12px" y="12px" /><rect fill="rgb(0,0,0)" height="1px" width="1px" x="13px" y="12px" /><rect fill="rgb(0,0,0)" height="1px" width="1px" x="14px" y="12px" /><rect fill="rgb(0,0,0)" height="1px" width="1px" x="15px" y="12px" /><rect fill="rgb(14,14,14)" height="1px" width="1px" x="0px" y="13px" /><rect fill="rgb(134,134,134)" height="1px" width="1px" x="1px" y="13px" /><rect fill="rgb(110,110,110)" height="1px" width="1px" x="2px" y="13px" /><rect fill="rgb(0,0,0)" height="1px" width="1px" x="3px" y="13px" /><rect fill="rgb(0,0,0)" height="1px" width="1px" x="4px" y="13px" /><rect fill="rgb(0,0,0)" height="1px" width="1px" x="5px" y="13px" /><rect fill="rgb(0,0,0)" height="1px" width="1px" x="6px" y="13px" /><rect fill="rgb(0,0,0)" height="1px" width="1px" x="7px" y="13px" /><rect fill="rgb(0,0,0)" height="1px" width="1px" x="8px" y="13px" /><rect fill="rgb(0,0,0)" height="1px" width="1px" x="9px" y="13px" /><rect fill="rgb(0,0,0)" height="1px" width="1px" x="10px" y="13px" /><rect fill="rgb(0,0,0)" height="1px" width="1px" x="11px" y="13px" /><rect fill="rgb(0,0,0)" height="1px" width="1px" x="12px" y="13px" /><rect fill="rgb(0,0,0)" height="1px" width="1px" x="13px" y="13px" /><rect fill="rgb(0,0,0)" height="1px" width="1px" x="14px" y="13px" /><rect fill="rgb(0,0,0)" height="1px" width="1px" x="15px" y="13px" /><rect fill="rgb(0,0,0)" height="1px" width="1px" x="0px" y="14px" /><rect fill="rgb(0,0,0)" height="1px" width="1px" x="1px" y="14px" /><rect fill="rgb(0,0,0)" height="1px" width="1px" x="2px" y="14px" /><rect fill="rgb(0,0,0)" height="1px" width="1px" x="3px" y="14px" /><rect fill="rgb(0,0,0)" height="1px" width="1px" x="4px" y="14px" /><rect fill="rgb(0,0,0)" height="1px" width="1px" x="5px" y="14px" /><rect fill="rgb(0,0,0)" height="1px" width="1px" x="6px" y="14px" /><rect fill="rgb(0,0,0)" height="1px" width="1px" x="7px" y="14px" /><rect fill="rgb(0,0,0)" height="1px" width="1px" x="8px" y="14px" /><rect fill="rgb(0,0,0)" height="1px" width="1px" x="9px" y="14px" /><rect fill="rgb(0,0,0)" height="1px" width="1px" x="10px" y="14px" /><rect fill="rgb(0,0,0)" height="1px" width="1px" x="11px" y="14px" /><rect fill="rgb(0,0,0)" height="1px" width="1px" x="12px" y="14px" /><rect fill="rgb(0,0,0)" height="1px" width="1px" x="13px" y="14px" /><rect fill="rgb(0,0,0)" height="1px" width="1px" x="14px" y="14px" /><rect fill="rgb(0,0,0)" height="1px" width="1px" x="15px" y="14px" /><rect fill="rgb(0,0,0)" height="1px" width="1px" x="0px" y="15px" /><rect fill="rgb(0,0,0)" height="1px" width="1px" x="1px" y="15px" /><rect fill="rgb(0,0,0)" height="1px" width="1px" x="2px" y="15px" /><rect fill="rgb(0,0,0)" height="1px" width="1px" x="3px" y="15px" /><rect fill="rgb(0,0,0)" height="1px" width="1px" x="4px" y="15px" /><rect fill="rgb(0,0,0)" height="1px" width="1px" x="5px" y="15px" /><rect fill="rgb(0,0,0)" height="1px" width="1px" x="6px" y="15px" /><rect fill="rgb(0,0,0)" height="1px" width="1px" x="7px" y="15px" /><rect fill="rgb(0,0,0)" height="1px" width="1px" x="8px" y="15px" /><rect fill="rgb(0,0,0)" height="1px" width="1px" x="9px" y="15px" /><rect fill="rgb(0,0,0)" height="1px" width="1px" x="10px" y="15px" /><rect fill="rgb(0,0,0)" height="1px" width="1px" x="11px" y="15px" /><rect fill="rgb(0,0,0)" height="1px" width="1px" x="12px" y="15px" /><rect fill="rgb(0,0,0)" height="1px" width="1px" x="13px" y="15px" /><rect fill="rgb(0,0,0)" height="1px" width="1px" x="14px" y="15px" /><rect fill="rgb(0,0,0)" height="1px" width="1px" x="15px" y="15px" /></svg>