<?xml version="1.0" encoding="UTF-8" standalone="no"?>
<svg
   xmlns:dc="http://purl.org/dc/elements/1.1/"
   xmlns:cc="http://creativecommons.org/ns#"
   xmlns:rdf="http://www.w3.org/1999/02/22-rdf-syntax-ns#"
   xmlns:svg="http://www.w3.org/2000/svg"
   xmlns="http://www.w3.org/2000/svg"
   version="1.1"
   id="svg2"
   viewBox="0 0 16 16"
   height="16"
   width="16">
  <defs
     id="defs4">
    <clipPath
       id="clipPath4163"
       clipPathUnits="userSpaceOnUse">
      <path
         id="path4165"
         d="M 0,16 16,16 16,0 0,0 0,16 Z" />
    </clipPath>
  </defs>
  <metadata
     id="metadata7">
    <rdf:RDF>
      <cc:Work
         rdf:about="">
        <dc:format>image/svg+xml</dc:format>
        <dc:type
           rdf:resource="http://purl.org/dc/dcmitype/StillImage" />
        <dc:title></dc:title>
      </cc:Work>
    </rdf:RDF>
  </metadata>
  <style
     type="text/css"
     id="style4137">
	.st0{fill:#05CC47;}
</style>
  <style
     type="text/css"
     id="style4149">
	.st0{fill:#66909B;}
	.st1{fill:#FFFFFF;}
</style>
  <style
     id="style6663"
     type="text/css">
	.st0{clip-path:url(#SVGID_2_);fill:url(#SVGID_3_);}
</style>
  <style
     id="style6702"
     type="text/css">
	.st0{fill:#1AB7EA;}
	.st1{fill:#FFFFFF;}
</style>
  <g
     id="g4159"
     transform="matrix(1,0,0,-1,0,16.00015)">
    <g
       clip-path="url(#clipPath4163)"
       id="g4161">
      <g
         transform="translate(13.183,7.2273)"
         id="g4167">
        <path
           id="path4169"
           style="fill:#11415f;fill-opacity:1;fill-rule:nonzero;stroke:none"
           d="M 0,0 C -0.42,0.254 -0.88,0.512 -1.378,0.773 -0.88,1.034 -0.419,1.291 0,1.545 1.527,1.3 2.332,0.982 2.332,0.773 2.332,0.563 1.527,0.245 0,0 m 0.125,-0.637 c 1.473,-0.939 1.665,-1.395 1.634,-1.466 -0.028,-0.071 -0.487,-0.26 -2.192,0.12 -0.08,0.018 -0.173,0.045 -0.256,0.065 -0.3,0.405 -0.633,0.822 -0.979,1.235 0.537,0.047 1.068,0.106 1.566,0.18 0.072,-0.044 0.158,-0.09 0.227,-0.134 m 0.006,-3.905 c -0.056,-0.056 -0.555,-0.048 -1.98,0.951 -0.069,0.049 -0.147,0.112 -0.218,0.163 -0.116,0.473 -0.259,0.977 -0.426,1.51 0.533,-0.167 1.038,-0.309 1.511,-0.426 0.051,-0.071 0.114,-0.148 0.163,-0.218 1.002,-1.43 1.004,-1.926 0.95,-1.98 m -2.558,0.565 c 0.378,-1.706 0.191,-2.164 0.12,-2.194 -0.085,-0.016 -0.529,0.165 -1.466,1.636 -0.044,0.069 -0.09,0.154 -0.135,0.226 0.075,0.499 0.134,1.029 0.181,1.566 0.413,-0.346 0.83,-0.679 1.235,-0.979 0.019,-0.082 0.047,-0.175 0.065,-0.255 m -2.756,-2.765 c -0.21,0 -0.528,0.804 -0.773,2.331 0.254,0.42 0.512,0.88 0.773,1.379 0.261,-0.498 0.519,-0.959 0.773,-1.378 -0.245,-1.527 -0.563,-2.332 -0.773,-2.332 m -1.411,2.207 C -7.535,-6.011 -7.987,-6.2 -8.059,-6.17 c -0.071,0.029 -0.258,0.487 0.12,2.193 0.019,0.082 0.047,0.178 0.067,0.262 0.393,0.29 0.804,0.614 1.233,0.972 0.047,-0.536 0.106,-1.066 0.181,-1.565 -0.045,-0.072 -0.091,-0.158 -0.136,-0.227 m -3.903,-0.007 c -0.054,0.054 -0.052,0.55 0.95,1.98 0.049,0.07 0.112,0.147 0.163,0.218 0.49,0.122 0.997,0.266 1.511,0.428 -0.167,-0.534 -0.309,-1.039 -0.426,-1.513 -0.071,-0.051 -0.149,-0.114 -0.218,-0.162 -1.43,-1.002 -1.925,-1.007 -1.98,-0.951 m -1.629,2.439 c -0.08,0.192 0.557,0.796 1.861,1.6 0.499,-0.074 1.03,-0.133 1.567,-0.18 -0.361,-0.432 -0.687,-0.846 -0.977,-1.241 -1.505,-0.358 -2.37,-0.372 -2.451,-0.179 m -0.572,2.876 c 0,0.209 0.802,0.526 2.324,0.771 0.435,-0.261 0.905,-0.521 1.386,-0.771 -0.481,-0.251 -0.951,-0.51 -1.385,-0.772 -1.523,0.245 -2.325,0.562 -2.325,0.772 m 0.572,2.876 c 0.033,0.08 0.199,0.125 0.489,0.125 0.411,0 1.083,-0.098 1.963,-0.307 0.29,-0.394 0.616,-0.808 0.976,-1.238 -0.537,-0.048 -1.068,-0.107 -1.567,-0.181 -1.304,0.804 -1.941,1.408 -1.861,1.601 m 2.579,0.457 c -1.002,1.431 -1.004,1.926 -0.95,1.981 0.01,0.01 0.036,0.018 0.08,0.018 0.192,0 0.737,-0.154 1.9,-0.969 C -8.45,5.089 -8.374,5.028 -8.305,4.978 -8.183,4.489 -8.035,3.977 -7.873,3.463 -8.387,3.625 -8.9,3.773 -9.389,3.895 -9.438,3.964 -9.5,4.039 -9.547,4.106 m 1.488,3.61 C -7.796,7.723 -7.217,7.088 -6.458,5.857 -6.532,5.357 -6.592,4.826 -6.639,4.288 -7.071,4.649 -7.485,4.975 -7.88,5.266 -8.239,6.77 -8.253,7.635 -8.059,7.716 m 2.876,0.572 c 0.21,0 0.528,-0.806 0.773,-2.334 -0.261,-0.433 -0.52,-0.902 -0.77,-1.381 -0.252,0.483 -0.512,0.955 -0.774,1.391 0.244,1.522 0.562,2.324 0.771,2.324 M -2.344,7.723 C -2.114,7.635 -2.128,6.77 -2.486,5.266 -2.881,4.975 -3.295,4.649 -3.727,4.288 c -0.047,0.538 -0.106,1.07 -0.181,1.569 0.759,1.232 1.339,1.866 1.564,1.866 m 0.495,-2.587 c 1.163,0.815 1.708,0.969 1.9,0.969 0.044,0 0.07,-0.008 0.08,-0.018 C 0.185,6.032 0.183,5.537 -0.819,4.106 -0.868,4.037 -0.931,3.96 -0.982,3.889 -1.455,3.772 -1.96,3.63 -2.493,3.463 c 0.162,0.514 0.31,1.026 0.432,1.515 0.069,0.05 0.145,0.111 0.212,0.158 M -2.461,1.314 c 0.14,0.156 0.287,0.314 0.42,0.467 0.46,-0.036 0.885,-0.079 1.275,-0.127 C -1.12,1.452 -1.499,1.25 -1.899,1.046 -2.079,1.136 -2.274,1.225 -2.461,1.314 M -2.799,0.607 C -2.85,0.662 -2.9,0.715 -2.95,0.77 -2.897,0.827 -2.851,0.882 -2.798,0.938 -2.682,0.883 -2.566,0.828 -2.452,0.773 -2.566,0.717 -2.683,0.662 -2.799,0.607 M -2.46,0.231 c 0.187,0.09 0.381,0.179 0.561,0.269 0.4,-0.204 0.779,-0.407 1.133,-0.608 -0.392,-0.049 -0.819,-0.092 -1.282,-0.129 -0.137,0.158 -0.274,0.315 -0.412,0.468 m -0.581,-0.53 c -0.027,0.073 -0.049,0.142 -0.076,0.216 0.069,0.032 0.132,0.064 0.201,0.096 0.088,-0.098 0.176,-0.195 0.262,-0.292 -0.125,-0.008 -0.258,-0.013 -0.387,-0.02 m 0.166,-0.471 c 0.204,0.011 0.41,0.024 0.617,0.039 0.292,-0.341 0.564,-0.674 0.815,-0.995 -0.391,0.108 -0.8,0.232 -1.225,0.37 -0.064,0.19 -0.138,0.391 -0.207,0.586 m -0.739,-0.26 c 0.003,0.076 0.005,0.15 0.008,0.225 0.076,0.003 0.149,0.006 0.226,0.009 0.043,-0.121 0.086,-0.243 0.128,-0.362 -0.12,0.041 -0.241,0.085 -0.362,0.128 M -3.64,-1.535 c 0.195,-0.069 0.395,-0.144 0.586,-0.207 0.138,-0.425 0.262,-0.834 0.37,-1.225 -0.322,0.251 -0.654,0.523 -0.996,0.815 0.015,0.207 0.029,0.412 0.04,0.617 m -0.783,0.041 c 0.031,0.069 0.064,0.132 0.096,0.201 0.073,-0.027 0.142,-0.049 0.216,-0.076 -0.007,-0.129 -0.013,-0.262 -0.02,-0.387 -0.097,0.085 -0.195,0.174 -0.292,0.262 M -4.642,-1.95 c 0.154,-0.138 0.31,-0.275 0.468,-0.412 -0.036,-0.463 -0.079,-0.891 -0.128,-1.283 -0.201,0.355 -0.404,0.734 -0.608,1.134 0.09,0.18 0.179,0.374 0.268,0.561 m -0.707,0.338 c 0.057,0.052 0.112,0.098 0.168,0.151 0.054,-0.049 0.11,-0.1 0.164,-0.149 -0.055,-0.117 -0.111,-0.234 -0.166,-0.348 -0.055,0.113 -0.11,0.23 -0.166,0.346 M -5.724,-1.95 c 0.089,-0.186 0.178,-0.381 0.268,-0.561 -0.204,-0.4 -0.407,-0.779 -0.608,-1.133 -0.048,0.39 -0.092,0.814 -0.128,1.275 0.154,0.132 0.312,0.28 0.468,0.419 m -0.531,0.581 c 0.074,0.027 0.142,0.053 0.214,0.08 0.033,-0.071 0.066,-0.135 0.099,-0.205 -0.098,-0.088 -0.196,-0.177 -0.293,-0.262 -0.007,0.125 -0.013,0.258 -0.02,0.387 m -0.471,-0.165 c 0.011,-0.205 0.025,-0.411 0.04,-0.618 -0.342,-0.292 -0.675,-0.565 -0.996,-0.815 0.108,0.393 0.233,0.805 0.372,1.232 0.198,0.066 0.39,0.133 0.584,0.201 m -0.26,0.738 c 0.076,-0.003 0.15,-0.006 0.226,-0.009 0.003,-0.077 0.005,-0.152 0.009,-0.231 -0.122,-0.044 -0.248,-0.089 -0.366,-0.13 0.042,0.122 0.087,0.246 0.131,0.37 M -7.491,-0.77 C -7.56,-0.967 -7.636,-1.169 -7.7,-1.361 -8.138,-1.503 -8.547,-1.626 -8.926,-1.73 c 0.252,0.322 0.525,0.656 0.818,0.999 0.207,-0.015 0.413,-0.028 0.617,-0.039 m 0.042,0.783 c 0.068,-0.032 0.134,-0.061 0.202,-0.092 -0.028,-0.075 -0.051,-0.146 -0.078,-0.22 -0.129,0.007 -0.262,0.012 -0.387,0.02 0.086,0.097 0.175,0.195 0.263,0.292 M -7.906,0.23 c -0.139,-0.155 -0.286,-0.313 -0.419,-0.466 -0.462,0.036 -0.889,0.08 -1.28,0.128 0.345,0.196 0.724,0.401 1.141,0.613 0.186,-0.094 0.373,-0.185 0.558,-0.275 m 0.337,0.71 c 0.052,-0.057 0.098,-0.111 0.15,-0.167 -0.052,-0.057 -0.098,-0.111 -0.149,-0.167 -0.119,0.056 -0.23,0.111 -0.344,0.167 0.114,0.055 0.225,0.11 0.343,0.167 M -7.906,1.315 C -8.091,1.226 -8.277,1.134 -8.464,1.041 -8.88,1.253 -9.26,1.457 -9.605,1.653 c 0.391,0.049 0.818,0.092 1.28,0.128 0.133,-0.153 0.28,-0.311 0.419,-0.466 m 0.582,0.529 C -7.297,1.77 -7.27,1.699 -7.243,1.626 -7.312,1.595 -7.38,1.564 -7.449,1.532 -7.538,1.63 -7.627,1.727 -7.712,1.824 c 0.125,0.008 0.258,0.014 0.388,0.02 M -7.492,2.316 C -7.696,2.304 -7.901,2.291 -8.108,2.276 -8.401,2.619 -8.674,2.952 -8.925,3.275 -8.546,3.17 -8.131,3.043 -7.691,2.9 -7.626,2.704 -7.559,2.509 -7.492,2.316 M -6.751,2.58 C -6.755,2.502 -6.757,2.427 -6.76,2.35 -6.838,2.347 -6.914,2.344 -6.992,2.341 -7.037,2.466 -7.083,2.594 -7.125,2.715 -7.006,2.674 -6.874,2.623 -6.751,2.58 m 0.025,0.502 C -6.92,3.15 -7.117,3.217 -7.315,3.283 -7.459,3.724 -7.582,4.136 -7.687,4.517 -7.364,4.265 -7.03,3.991 -6.686,3.698 -6.701,3.491 -6.714,3.286 -6.726,3.082 M -5.941,3.038 C -5.973,2.968 -6.004,2.901 -6.035,2.833 -6.109,2.86 -6.18,2.887 -6.255,2.914 c 0.007,0.13 0.013,0.263 0.02,0.388 0.098,-0.086 0.196,-0.176 0.294,-0.264 m 0.218,0.456 c -0.157,0.14 -0.315,0.287 -0.469,0.421 0.037,0.463 0.08,0.89 0.129,1.283 C -5.866,4.851 -5.661,4.47 -5.448,4.052 -5.542,3.865 -5.634,3.679 -5.723,3.494 M -5.016,3.158 C -5.072,3.107 -5.127,3.061 -5.183,3.008 -5.239,3.061 -5.294,3.107 -5.35,3.158 -5.294,3.277 -5.239,3.39 -5.183,3.503 -5.128,3.39 -5.072,3.276 -5.016,3.158 m 0.375,0.338 c -0.089,0.186 -0.181,0.373 -0.275,0.56 0.212,0.417 0.417,0.796 0.613,1.142 0.049,-0.392 0.092,-0.82 0.129,-1.283 -0.153,-0.133 -0.311,-0.28 -0.467,-0.419 m 0.53,-0.582 c -0.075,-0.027 -0.145,-0.049 -0.22,-0.077 -0.031,0.068 -0.061,0.134 -0.093,0.202 0.098,0.088 0.196,0.177 0.293,0.263 0.007,-0.125 0.013,-0.258 0.02,-0.388 m 0.471,0.167 c -0.011,0.204 -0.025,0.41 -0.04,0.617 0.344,0.293 0.678,0.566 1.001,0.818 C -2.784,4.137 -2.906,3.728 -3.049,3.289 -3.241,3.226 -3.443,3.15 -3.64,3.081 m 0.266,-0.74 C -3.453,2.344 -3.528,2.347 -3.606,2.35 -3.609,2.425 -3.611,2.499 -3.614,2.576 -3.49,2.62 -3.366,2.665 -3.244,2.707 -3.285,2.588 -3.331,2.463 -3.374,2.341 m 0.5,-0.025 c 0.067,0.192 0.134,0.387 0.199,0.584 0.427,0.139 0.839,0.263 1.232,0.372 C -1.694,2.95 -1.966,2.618 -2.258,2.276 -2.465,2.291 -2.67,2.304 -2.874,2.316 M -3.121,1.63 c 0.026,0.072 0.053,0.141 0.079,0.214 0.13,-0.006 0.263,-0.012 0.388,-0.02 C -2.74,1.728 -2.828,1.63 -2.917,1.532 -2.986,1.565 -3.05,1.598 -3.121,1.63 M -4.068,0.773 c 0,-1.487 -2.23,-1.487 -2.23,0 0,1.486 2.23,1.487 2.23,0 M 1.76,3.649 C 1.79,3.578 1.598,3.122 0.125,2.183 0.055,2.139 -0.03,2.093 -0.103,2.048 c -0.498,0.074 -1.028,0.133 -1.565,0.181 0.359,0.429 0.683,0.84 0.972,1.233 0.085,0.02 0.181,0.048 0.263,0.066 C 1.273,3.906 1.73,3.719 1.76,3.649 M 2.817,0.773 c 0,0.535 -0.93,0.903 -2.208,1.152 1.659,1.1 1.719,1.617 1.599,1.909 -0.121,0.292 -0.53,0.615 -2.48,0.22 1.112,1.65 0.97,2.152 0.746,2.375 -0.222,0.224 -0.725,0.367 -2.376,-0.746 0.259,1.276 0.275,2.276 -0.219,2.481 -0.489,0.203 -1.186,-0.519 -1.908,-1.608 -0.248,1.282 -0.617,2.217 -1.154,2.217 -0.535,0 -0.903,-0.93 -1.152,-2.207 -0.719,1.085 -1.415,1.803 -1.91,1.598 -0.494,-0.205 -0.478,-1.205 -0.219,-2.481 -1.652,1.113 -2.153,0.97 -2.376,0.746 -0.223,-0.223 -0.365,-0.725 0.747,-2.375 -1.276,0.259 -2.276,0.275 -2.481,-0.22 -0.205,-0.494 0.513,-1.19 1.599,-1.909 -1.278,-0.249 -2.208,-0.617 -2.208,-1.152 0,-0.536 0.93,-0.904 2.208,-1.153 -1.086,-0.719 -1.804,-1.414 -1.599,-1.909 0.117,-0.282 0.492,-0.399 1.031,-0.399 0.404,0 0.903,0.069 1.45,0.18 -1.113,-1.651 -0.97,-2.153 -0.747,-2.377 0.085,-0.084 0.208,-0.16 0.418,-0.16 0.344,0 0.928,0.209 1.957,0.903 -0.394,-1.947 -0.071,-2.355 0.22,-2.475 0.058,-0.025 0.125,-0.042 0.202,-0.042 0.315,0 0.825,0.303 1.708,1.638 0.249,-1.277 0.617,-2.206 1.152,-2.206 0.535,0 0.903,0.929 1.152,2.206 0.883,-1.335 1.393,-1.638 1.708,-1.638 0.078,0 0.144,0.017 0.202,0.041 0.291,0.121 0.615,0.53 0.219,2.48 0.793,-0.535 1.5,-0.893 1.968,-0.893 0.17,0 0.308,0.046 0.408,0.146 0.379,0.379 -0.018,1.296 -0.745,2.374 0.645,-0.131 1.131,-0.188 1.482,-0.188 0.713,0 0.916,0.214 0.996,0.41 0.121,0.291 0.061,0.81 -1.598,1.909 1.278,0.249 2.208,0.617 2.208,1.153" />
      </g>
    </g>
  </g>
</svg>
