<svg xmlns="http://www.w3.org/2000/svg" viewBox="0 0 16 16">
    <path d="M10.84 1.05c-.42 0-2.08 2.17-3.88 6.52-.79 1.9-1.4 3.74-1.72 5.18-.37 1.7-.19 2.16-.12 2.2.07.03.53-.17 1.47-1.64.8-1.25 1.66-2.98 2.45-4.88 1.86-4.5 2.19-7.23 1.84-7.37a.1.1 0 0 0-.04-.01m-5.7 14.38a.51.51 0 0 1-.2-.04c-.3-.13-.66-.55-.17-2.74.33-1.47.95-3.34 1.74-5.27C7.57 4.83 9.88.12 11.06.61c1.18.49-.51 5.45-1.57 8a33.59 33.59 0 0 1-2.5 4.96c-.97 1.54-1.52 1.86-1.85 1.86" fill="#11415f"/>
    <path d="M13.23 2.67c-.19 0-.73.15-1.9.97-1.2.84-2.67 2.1-4.13 3.56a32.94 32.94 0 0 0-3.56 4.13c-1 1.44-1 1.93-.95 1.98.05.06.55.05 1.98-.95 1.2-.84 2.67-2.1 4.13-3.56a33.1 33.1 0 0 0 3.56-4.13c1-1.44 1-1.93.95-1.98 0-.01-.03-.02-.08-.02M2.75 13.8a.55.55 0 0 1-.4-.14c-.9-.9 2.56-4.84 4.51-6.8a33.45 33.45 0 0 1 4.2-3.62c1.84-1.3 2.36-1.13 2.6-.9.23.24.4.76-.9 2.6a33.52 33.52 0 0 1-3.62 4.2C7.4 10.88 4.1 13.8 2.75 13.8" fill="#11415f"/>
    <path d="M7.57 6.96c-1.9.79-3.63 1.66-4.88 2.45-1.47.94-1.66 1.4-1.63 1.47.03.07.49.25 2.19-.12 1.44-.32 3.28-.93 5.18-1.72 1.9-.79 3.63-1.66 4.88-2.45 1.47-.94 1.66-1.4 1.63-1.47-.03-.07-.48-.25-2.19.12a33 33 0 0 0-5.18 1.72M1.6 11.47c-.72 0-.92-.21-1-.4C.48 10.75.53 10.2 2.43 9c1.27-.8 3.03-1.69 4.95-2.49a33.5 33.5 0 0 1 5.26-1.74c2.2-.49 2.62-.14 2.75.17.13.3.08.85-1.82 2.06a33.5 33.5 0 0 1-4.95 2.49c-1.93.8-3.8 1.41-5.27 1.74a8.6 8.6 0 0 1-1.74.24" fill="#11415f"/>
    <path d="M8 6.87C3.14 6.87.48 7.62.48 8c0 .38 2.66 1.12 7.52 1.12 4.86 0 7.52-.74 7.52-1.12 0-.38-2.66-1.13-7.52-1.13m0 2.74c-2.77 0-8-.34-8-1.61s5.23-1.61 8-1.61c2.77 0 8 .34 8 1.61s-5.23 1.61-8 1.61" fill="#11415f"/>
    <path d="M1.6 5.01c-.39 0-.53.08-.54.11-.03.08.16.53 1.63 1.47 1.25.8 2.98 1.66 4.88 2.45 1.9.79 3.74 1.4 5.18 1.72 1.7.38 2.16.19 2.2.12.02-.08-.17-.53-1.64-1.47a33.04 33.04 0 0 0-4.88-2.45 32.9 32.9 0 0 0-5.18-1.72 7.99 7.99 0 0 0-1.65-.23m12.8 6.46c-.4 0-.97-.07-1.75-.24a33.6 33.6 0 0 1-5.27-1.74 33.68 33.68 0 0 1-4.95-2.5C.53 5.8.48 5.25.61 4.95c.12-.3.55-.65 2.75-.17 1.46.33 3.33.94 5.26 1.74a33.8 33.8 0 0 1 4.95 2.5c1.9 1.2 1.95 1.75 1.82 2.05-.08.2-.28.41-1 .41" fill="#11415f"/>
    <path d="M2.77 2.67c-.05 0-.07 0-.08.02-.06.05-.06.54.95 1.98A33.1 33.1 0 0 0 7.2 8.8a33.03 33.03 0 0 0 4.13 3.56c1.43 1 1.93 1.01 1.98.95.06-.05.06-.54-.95-1.98A32.94 32.94 0 0 0 8.8 7.2a33.03 33.03 0 0 0-4.13-3.56c-1.17-.82-1.71-.97-1.9-.97M13.25 13.8c-1.35 0-4.65-2.92-6.39-4.66a33.52 33.52 0 0 1-3.62-4.2c-1.3-1.84-1.13-2.36-.9-2.6.24-.23.76-.4 2.6.9 1.23.86 2.72 2.15 4.2 3.62 1.95 1.96 5.42 5.9 4.52 6.8-.1.1-.24.14-.41.14" fill="#11415f"/>
    <path d="M5.16 1.05a.1.1 0 0 0-.04 0c-.35.15-.02 2.89 1.84 7.38.79 1.9 1.66 3.63 2.45 4.88.94 1.47 1.38 1.65 1.47 1.63.07-.03.25-.48-.12-2.19a33.08 33.08 0 0 0-1.72-5.18c-1.8-4.35-3.46-6.52-3.88-6.52m5.7 14.38c-.33 0-.88-.32-1.86-1.86a33.59 33.59 0 0 1-2.49-4.95C5.45 6.06 3.76 1.1 4.94.6 6.12.12 8.43 4.83 9.49 7.38c.8 1.93 1.41 3.8 1.74 5.27.49 2.2.14 2.61-.17 2.74a.53.53 0 0 1-.2.04" fill="#11415f"/>
    <path d="M8 .48C7.62.48 6.88 3.14 6.88 8c0 4.86.74 7.52 1.12 7.52.38 0 1.12-2.66 1.12-7.52C9.12 3.14 8.38.48 8 .48M8 16c-1.27 0-1.61-5.23-1.61-8 0-2.77.34-8 1.61-8s1.61 5.23 1.61 8c0 2.77-.34 8-1.61 8" fill="#11415f"/>
</svg>