<?xml version="1.0" encoding="UTF-8" standalone="no"?>
<svg
   xmlns="http://www.w3.org/2000/svg"
   viewBox="0 0 16 16"
   version="1.1">
    <g
     transform="matrix(1.25,0,0,-1.25,0,16)"
     id="g4144"><g
       transform="matrix(0.77575758,0,0,0.77575758,-241.84243,-434.23031)"
       id="g4146"><g><g
           transform="translate(322.9268,575.1675)"
           id="g4154"><path
             id="path4156"
             style="fill:#11415f;fill-opacity:1;fill-rule:nonzero;stroke:none"
             d="m 0,0 c -0.436,0 -2.141,-2.237 -3.998,-6.724 -0.813,-1.961 -1.441,-3.859 -1.771,-5.342 -0.39,-1.759 -0.197,-2.231 -0.124,-2.261 0.067,-0.036 0.546,0.168 1.512,1.686 0.817,1.282 1.714,3.068 2.526,5.03 1.918,4.632 2.257,7.453 1.894,7.604 C 0.027,-0.002 0.015,0 0,0 m -5.876,-14.832 c -0.08,0 -0.148,0.018 -0.208,0.043 -0.314,0.13 -0.676,0.566 -0.173,2.831 0.335,1.511 0.974,3.438 1.796,5.426 1.092,2.635 3.471,7.489 4.691,6.987 1.213,-0.503 -0.532,-5.622 -1.623,-8.258 -0.823,-1.987 -1.735,-3.801 -2.566,-5.107 -1.012,-1.588 -1.573,-1.922 -1.917,-1.922" /></g><g
           transform="translate(325.3975,573.499)"
           id="g4158"><path
             id="path4160"
             style="fill:#11415f;fill-opacity:1;fill-rule:nonzero;stroke:none"
             d="m 0,0 c -0.198,0 -0.76,-0.159 -1.959,-0.999 -1.245,-0.872 -2.758,-2.179 -4.259,-3.68 -1.501,-1.501 -2.807,-3.013 -3.679,-4.259 -1.035,-1.475 -1.037,-1.986 -0.981,-2.041 0.058,-0.058 0.572,-0.05 2.042,0.98 1.245,0.872 2.758,2.179 4.259,3.68 1.501,1.501 2.807,3.013 3.68,4.258 1.034,1.476 1.036,1.986 0.98,2.042 C 0.072,-0.009 0.046,0 0,0 m -10.811,-11.484 c -0.174,0 -0.317,0.047 -0.42,0.151 -0.929,0.929 2.642,4.99 4.66,7.008 1.52,1.521 3.056,2.847 4.325,3.736 1.902,1.332 2.442,1.165 2.683,0.923 0.241,-0.241 0.407,-0.781 -0.924,-2.682 -0.889,-1.268 -2.215,-2.804 -3.737,-4.325 -1.793,-1.793 -5.198,-4.811 -6.587,-4.811" /></g><g
           transform="translate(319.5557,569.0718)"
           id="g4162"><path
             id="path4164"
             style="fill:#11415f;fill-opacity:1;fill-rule:nonzero;stroke:none"
             d="m 0,0 0,0 c -1.961,-0.812 -3.747,-1.71 -5.029,-2.526 -1.52,-0.968 -1.717,-1.438 -1.687,-1.512 0.03,-0.073 0.504,-0.265 2.262,0.124 1.483,0.33 3.381,0.958 5.343,1.771 1.961,0.812 3.747,1.709 5.029,2.526 C 7.437,1.351 7.635,1.821 7.604,1.894 7.574,1.967 7.103,2.159 5.343,1.77 3.858,1.441 1.961,0.812 0,0 m -6.148,-4.652 c -0.737,0 -0.946,0.221 -1.03,0.423 -0.13,0.314 -0.077,0.878 1.88,2.124 1.306,0.832 3.119,1.744 5.107,2.567 C 1.796,1.285 3.723,1.923 5.234,2.258 7.501,2.761 7.935,2.401 8.066,2.085 8.196,1.771 8.144,1.208 6.187,-0.039 4.881,-0.871 3.067,-1.782 1.08,-2.605 c -1.987,-0.823 -3.915,-1.462 -5.426,-1.797 -0.813,-0.181 -1.39,-0.25 -1.802,-0.25" /></g><g
           transform="translate(320,569.1602)"
           id="g4166"><path
             id="path4168"
             style="fill:#11415f;fill-opacity:1;fill-rule:nonzero;stroke:none"
             d="m 0,0 c -5.015,0 -7.75,-0.767 -7.75,-1.16 0,-0.394 2.735,-1.16 7.75,-1.16 5.015,0 7.75,0.766 7.75,1.16 C 7.75,-0.767 5.015,0 0,0 m 0,-2.82 c -2.854,0 -8.25,0.346 -8.25,1.66 0,1.313 5.396,1.66 8.25,1.66 2.854,0 8.25,-0.347 8.25,-1.66 0,-1.314 -5.396,-1.66 -8.25,-1.66" /></g><g
           transform="translate(313.3984,571.0786)"
           id="g4170"><path
             id="path4172"
             style="fill:#11415f;fill-opacity:1;fill-rule:nonzero;stroke:none"
             d="m 0,0 c -0.399,0 -0.542,-0.074 -0.558,-0.113 -0.031,-0.073 0.166,-0.543 1.686,-1.511 1.282,-0.816 3.068,-1.714 5.029,-2.526 1.962,-0.812 3.86,-1.441 5.343,-1.77 1.759,-0.392 2.232,-0.198 2.261,-0.124 0.031,0.073 -0.166,0.544 -1.686,1.511 -1.282,0.816 -3.068,1.714 -5.029,2.526 -1.961,0.813 -3.858,1.441 -5.343,1.77 C 0.886,-0.056 0.347,0 0,0 m 13.195,-6.659 c -0.412,0 -0.99,0.07 -1.803,0.25 -1.511,0.335 -3.439,0.974 -5.426,1.796 -1.987,0.824 -3.801,1.736 -5.107,2.567 -1.957,1.247 -2.009,1.81 -1.879,2.125 0.129,0.314 0.565,0.673 2.832,0.172 1.511,-0.335 3.438,-0.973 5.425,-1.796 1.988,-0.823 3.801,-1.735 5.107,-2.567 1.957,-1.246 2.01,-1.809 1.879,-2.124 -0.083,-0.202 -0.292,-0.423 -1.028,-0.423" /></g><g
           transform="translate(314.6025,573.499)"
           id="g4174"><path
             id="path4176"
             style="fill:#11415f;fill-opacity:1;fill-rule:nonzero;stroke:none"
             d="m 0,0 c -0.046,0 -0.072,-0.009 -0.083,-0.019 -0.056,-0.056 -0.054,-0.566 0.98,-2.042 0.873,-1.245 2.179,-2.757 3.68,-4.258 1.501,-1.501 3.014,-2.808 4.259,-3.68 1.47,-1.03 1.984,-1.038 2.042,-0.98 0.056,0.055 0.054,0.566 -0.981,2.041 C 9.025,-7.692 7.719,-6.18 6.218,-4.679 4.717,-3.178 3.204,-1.871 1.959,-0.999 0.76,-0.159 0.198,0 0,0 m 10.811,-11.484 c -1.388,0 -4.794,3.018 -6.587,4.811 -1.522,1.521 -2.848,3.057 -3.737,4.325 -1.331,1.901 -1.165,2.441 -0.924,2.682 0.24,0.242 0.782,0.409 2.683,-0.923 1.269,-0.889 2.805,-2.215 4.325,-3.736 2.018,-2.018 5.589,-6.079 4.66,-7.008 -0.103,-0.104 -0.246,-0.151 -0.42,-0.151" /></g><g
           transform="translate(317.0723,575.1675)"
           id="g4178"><path
             id="path4180"
             style="fill:#11415f;fill-opacity:1;fill-rule:nonzero;stroke:none"
             d="m 0,0 c -0.014,0 -0.026,-0.002 -0.038,-0.007 -0.363,-0.151 -0.024,-2.972 1.894,-7.604 0.812,-1.962 1.709,-3.748 2.526,-5.03 0.966,-1.517 1.428,-1.703 1.512,-1.687 0.073,0.031 0.266,0.503 -0.124,2.262 -0.33,1.483 -0.958,3.381 -1.771,5.342 C 2.142,-2.237 0.437,0 0,0 m 5.877,-14.832 c -0.344,0 -0.905,0.334 -1.917,1.922 -0.831,1.306 -1.743,3.12 -2.566,5.107 -1.091,2.636 -2.836,7.755 -1.623,8.258 1.219,0.503 3.599,-4.352 4.691,-6.987 0.822,-1.988 1.461,-3.915 1.796,-5.426 0.503,-2.265 0.141,-2.701 -0.173,-2.832 -0.06,-0.024 -0.128,-0.042 -0.208,-0.042" /></g><g
           transform="translate(320,575.75)"
           id="g4182"><path
             id="path4184"
             style="fill:#11415f;fill-opacity:1;fill-rule:nonzero;stroke:none"
             d="m 0,0 c -0.394,0 -1.16,-2.735 -1.16,-7.75 0,-5.015 0.766,-7.75 1.16,-7.75 0.394,0 1.16,2.735 1.16,7.75 C 1.16,-2.735 0.394,0 0,0 m 0,-16 c -1.313,0 -1.66,5.396 -1.66,8.25 0,2.854 0.347,8.25 1.66,8.25 1.313,0 1.66,-5.396 1.66,-8.25 C 1.66,-10.604 1.313,-16 0,-16" /></g></g></g></g></svg>