<svg xmlns="http://www.w3.org/2000/svg" xml:space="preserve" version="1.1" viewBox="0 0 48 48">
<rect fill="#000000" width="48" height="48"/>
 <g fill="#ffffff">
<path d="M24 45l11 0c0,-5 -5,-16 -11,-17l0 17z"/>
<path d="M23 37l0 -9 -6 0c-1,0 -3,0 -4,-1 -1,-1 -1,-4 0,-5 2,-1 4,-1 5,-1l5 7c0,-3 0,-6 0,-9l0 -2 -6 -5c0,0 -1,0 -2,0 -4,1 -7,2 -8,6 -2,4 -2,11 1,15 4,5 10,4 15,4z"/>
<path d="M24 19l5 -7c1,0 3,0 5,1 1,1 1,3 0,4 -2,3 -7,2 -10,2l0 9c5,0 11,0 15,-4 3,-4 3,-11 1,-15 -1,-4 -4,-6 -8,-6 -1,0 -2,0 -2,0l-1 0 -5 5c0,0 0,1 0,1l0 10z"/>
</g>
</svg>
