<?xml version="1.0" encoding="utf-8" ?>
<svg baseProfile="full" height="16px" version="1.1" width="16px" xmlns="http://www.w3.org/2000/svg" xmlns:ev="http://www.w3.org/2001/xml-events" xmlns:xlink="http://www.w3.org/1999/xlink"><defs /><rect fill="rgb(168,167,169)" height="1px" width="1px" x="0px" y="3px" /><rect fill="rgb(95,94,98)" height="1px" width="1px" x="1px" y="3px" /><rect fill="rgb(91,91,95)" height="1px" width="1px" x="2px" y="3px" /><rect fill="rgb(109,109,111)" height="1px" width="1px" x="3px" y="3px" /><rect fill="rgb(215,215,216)" height="1px" width="1px" x="4px" y="3px" /><rect fill="rgb(123,122,125)" height="1px" width="1px" x="5px" y="3px" /><rect fill="rgb(89,88,92)" height="1px" width="1px" x="6px" y="3px" /><rect fill="rgb(102,101,104)" height="1px" width="1px" x="7px" y="3px" /><rect fill="rgb(200,199,200)" height="1px" width="1px" x="8px" y="3px" /><rect fill="rgb(125,124,127)" height="1px" width="1px" x="9px" y="3px" /><rect fill="rgb(84,84,88)" height="1px" width="1px" x="10px" y="3px" /><rect fill="rgb(140,140,142)" height="1px" width="1px" x="11px" y="3px" /><rect fill="rgb(189,189,190)" height="1px" width="1px" x="12px" y="3px" /><rect fill="rgb(98,96,100)" height="1px" width="1px" x="13px" y="3px" /><rect fill="rgb(96,96,99)" height="1px" width="1px" x="14px" y="3px" /><rect fill="rgb(177,177,179)" height="1px" width="1px" x="15px" y="3px" /><rect fill="rgb(186,186,187)" height="1px" width="1px" x="1px" y="4px" /><rect fill="rgb(4,3,8)" height="1px" width="1px" x="2px" y="4px" /><rect fill="rgb(99,98,102)" height="1px" width="1px" x="3px" y="4px" /><rect fill="rgb(43,42,47)" height="1px" width="1px" x="6px" y="4px" /><rect fill="rgb(138,138,140)" height="1px" width="1px" x="7px" y="4px" /><rect fill="rgb(133,131,134)" height="1px" width="1px" x="9px" y="4px" /><rect fill="rgb(114,114,116)" height="1px" width="1px" x="10px" y="4px" /><rect fill="rgb(124,123,126)" height="1px" width="1px" x="13px" y="4px" /><rect fill="rgb(162,162,164)" height="1px" width="1px" x="14px" y="4px" /><rect fill="rgb(98,98,101)" height="1px" width="1px" x="2px" y="5px" /><rect fill="rgb(57,56,60)" height="1px" width="1px" x="3px" y="5px" /><rect fill="rgb(131,129,139)" height="1px" width="1px" x="6px" y="5px" /><rect fill="rgb(19,18,23)" height="1px" width="1px" x="7px" y="5px" /><rect fill="rgb(255,255,255)" height="1px" width="1px" x="8px" y="5px" /><rect fill="rgb(110,109,113)" height="1px" width="1px" x="9px" y="5px" /><rect fill="rgb(255,217,255)" height="1px" width="1px" x="10px" y="5px" /><rect fill="rgb(255,255,255)" height="1px" width="1px" x="12px" y="5px" /><rect fill="rgb(108,106,110)" height="1px" width="1px" x="13px" y="5px" /><rect fill="rgb(192,197,198)" height="1px" width="1px" x="2px" y="6px" /><rect fill="rgb(6,7,12)" height="1px" width="1px" x="3px" y="6px" /><rect fill="rgb(201,164,165)" height="1px" width="1px" x="4px" y="6px" /><rect fill="rgb(211,104,105)" height="1px" width="1px" x="5px" y="6px" /><rect fill="rgb(213,221,126)" height="1px" width="1px" x="6px" y="6px" /><rect fill="rgb(32,32,46)" height="1px" width="1px" x="7px" y="6px" /><rect fill="rgb(87,85,90)" height="1px" width="1px" x="8px" y="6px" /><rect fill="rgb(135,143,136)" height="1px" width="1px" x="9px" y="6px" /><rect fill="rgb(107,214,107)" height="1px" width="1px" x="10px" y="6px" /><rect fill="rgb(102,211,96)" height="1px" width="1px" x="11px" y="6px" /><rect fill="rgb(156,171,168)" height="1px" width="1px" x="12px" y="6px" /><rect fill="rgb(121,151,154)" height="1px" width="1px" x="13px" y="6px" /><rect fill="rgb(99,209,209)" height="1px" width="1px" x="14px" y="6px" /><rect fill="rgb(184,233,233)" height="1px" width="1px" x="15px" y="6px" /><rect fill="rgb(227,162,162)" height="1px" width="1px" x="1px" y="7px" /><rect fill="rgb(201,59,59)" height="1px" width="1px" x="2px" y="7px" /><rect fill="rgb(43,50,55)" height="1px" width="1px" x="3px" y="7px" /><rect fill="rgb(107,108,121)" height="1px" width="1px" x="4px" y="7px" /><rect fill="rgb(190,157,18)" height="1px" width="1px" x="5px" y="7px" /><rect fill="rgb(179,181,0)" height="1px" width="1px" x="6px" y="7px" /><rect fill="rgb(139,138,114)" height="1px" width="1px" x="7px" y="7px" /><rect fill="rgb(12,6,17)" height="1px" width="1px" x="8px" y="7px" /><rect fill="rgb(104,200,104)" height="1px" width="1px" x="9px" y="7px" /><rect fill="rgb(0,174,0)" height="1px" width="1px" x="10px" y="7px" /><rect fill="rgb(15,187,98)" height="1px" width="1px" x="11px" y="7px" /><rect fill="rgb(107,92,102)" height="1px" width="1px" x="12px" y="7px" /><rect fill="rgb(71,202,201)" height="1px" width="1px" x="13px" y="7px" /><rect fill="rgb(83,202,202)" height="1px" width="1px" x="14px" y="7px" /><rect fill="rgb(255,255,255)" height="1px" width="1px" x="15px" y="7px" /><rect fill="rgb(237,197,197)" height="1px" width="1px" x="0px" y="8px" /><rect fill="rgb(179,7,7)" height="1px" width="1px" x="1px" y="8px" /><rect fill="rgb(173,0,0)" height="1px" width="1px" x="2px" y="8px" /><rect fill="rgb(164,150,154)" height="1px" width="1px" x="3px" y="8px" /><rect fill="rgb(6,7,19)" height="1px" width="1px" x="4px" y="8px" /><rect fill="rgb(196,198,89)" height="1px" width="1px" x="5px" y="8px" /><rect fill="rgb(175,177,0)" height="1px" width="1px" x="6px" y="8px" /><rect fill="rgb(153,168,144)" height="1px" width="1px" x="7px" y="8px" /><rect fill="rgb(3,1,8)" height="1px" width="1px" x="8px" y="8px" /><rect fill="rgb(149,143,145)" height="1px" width="1px" x="9px" y="8px" /><rect fill="rgb(0,181,89)" height="1px" width="1px" x="10px" y="8px" /><rect fill="rgb(131,181,194)" height="1px" width="1px" x="11px" y="8px" /><rect fill="rgb(127,139,140)" height="1px" width="1px" x="12px" y="8px" /><rect fill="rgb(73,203,203)" height="1px" width="1px" x="13px" y="8px" /><rect fill="rgb(206,98,98)" height="1px" width="1px" x="0px" y="9px" /><rect fill="rgb(210,109,109)" height="1px" width="1px" x="1px" y="9px" /><rect fill="rgb(210,104,107)" height="1px" width="1px" x="2px" y="9px" /><rect fill="rgb(226,203,173)" height="1px" width="1px" x="3px" y="9px" /><rect fill="rgb(29,30,37)" height="1px" width="1px" x="4px" y="9px" /><rect fill="rgb(130,128,112)" height="1px" width="1px" x="5px" y="9px" /><rect fill="rgb(177,217,126)" height="1px" width="1px" x="6px" y="9px" /><rect fill="rgb(111,104,117)" height="1px" width="1px" x="7px" y="9px" /><rect fill="rgb(135,143,137)" height="1px" width="1px" x="8px" y="9px" /><rect fill="rgb(29,23,28)" height="1px" width="1px" x="9px" y="9px" /><rect fill="rgb(150,228,233)" height="1px" width="1px" x="10px" y="9px" /><rect fill="rgb(125,115,118)" height="1px" width="1px" x="11px" y="9px" /><rect fill="rgb(178,221,222)" height="1px" width="1px" x="12px" y="9px" /><rect fill="rgb(255,255,255)" height="1px" width="1px" x="13px" y="9px" /><rect fill="rgb(104,103,107)" height="1px" width="1px" x="4px" y="10px" /><rect fill="rgb(42,41,46)" height="1px" width="1px" x="5px" y="10px" /><rect fill="rgb(109,105,115)" height="1px" width="1px" x="6px" y="10px" /><rect fill="rgb(160,161,161)" height="1px" width="1px" x="7px" y="10px" /><rect fill="rgb(255,255,255)" height="1px" width="1px" x="8px" y="10px" /><rect fill="rgb(31,30,35)" height="1px" width="1px" x="9px" y="10px" /><rect fill="rgb(134,129,131)" height="1px" width="1px" x="10px" y="10px" /><rect fill="rgb(98,98,101)" height="1px" width="1px" x="11px" y="10px" /><rect fill="rgb(221,221,221)" height="1px" width="1px" x="4px" y="11px" /><rect fill="rgb(14,13,17)" height="1px" width="1px" x="5px" y="11px" /><rect fill="rgb(68,68,72)" height="1px" width="1px" x="6px" y="11px" /><rect fill="rgb(104,103,106)" height="1px" width="1px" x="9px" y="11px" /><rect fill="rgb(6,5,10)" height="1px" width="1px" x="10px" y="11px" /><rect fill="rgb(209,209,210)" height="1px" width="1px" x="11px" y="11px" /><rect fill="rgb(126,126,129)" height="1px" width="1px" x="5px" y="12px" /><rect fill="rgb(198,198,199)" height="1px" width="1px" x="6px" y="12px" /><rect fill="rgb(216,216,217)" height="1px" width="1px" x="9px" y="12px" /><rect fill="rgb(124,124,126)" height="1px" width="1px" x="10px" y="12px" /><rect fill="rgb(161,160,162)" height="1px" width="1px" x="4px" y="13px" /><rect fill="rgb(255,255,255)" height="1px" width="1px" x="10px" y="13px" /></svg>