<svg xmlns="http://www.w3.org/2000/svg" viewBox="0 0 64 64">
    <path d="M50.929 28.369c-10.315-6.126-27.33-6.69-37.176-3.7a2.992 2.992 0 1 1-1.738-5.729c11.304-3.43 30.094-2.768 41.969 4.28a2.993 2.993 0 0 1-3.055 5.149m-.338 9.073a2.496 2.496 0 0 1-3.432.821c-8.599-5.286-21.713-6.817-31.886-3.729a2.499 2.499 0 0 1-3.114-1.662 2.498 2.498 0 0 1 1.664-3.111c11.622-3.527 26.07-1.82 35.947 4.25a2.495 2.495 0 0 1 .821 3.43m-3.916 8.714a1.993 1.993 0 0 1-2.742.664c-7.514-4.593-16.973-5.63-28.111-3.086a1.993 1.993 0 1 1-.888-3.888c12.19-2.786 22.645-1.587 31.08 3.567a1.995 1.995 0 0 1 .661 2.743M32 0C14.327 0 0 14.327 0 32c0 17.674 14.327 32 32 32 17.673 0 32-14.326 32-32S49.673 0 32 0" fill="#1ed760"/>
</svg>