<?xml version="1.0" encoding="UTF-8" standalone="no"?>
<svg xmlns="http://www.w3.org/2000/svg" version="1.1" viewBox="0 0 16 16">
  <g transform="translate(0,-1036.3622)">
    <rect
       y="1036.3622"
       x="0"
       height="16"
       width="16"
       style="fill:#3dcbbb;" />
    <g transform="scale(0.99999191,1.0000081)">
      <path style="fill:#ffffff" d="m 12.026547,1040.528 q 0,0.3257 -0.09091,0.5985 -0.08333,0.2651 -0.234847,0.4621 -0.151514,0.1894 -0.371209,0.2954 -0.219695,0.1061 -0.477269,0.1061 -0.295452,0 -0.537874,-0.1212 -0.234847,-0.1288 -0.4090877,-0.3636 0.2878767,-0.2122 0.4621177,-0.5606 0.174241,-0.3561 0.174241,-0.7576 0,-0.5 -0.295452,-0.7879 -0.2954525,-0.2954 -0.8105998,-0.2954 -0.3106036,0 -0.5757529,0.1212 -0.2575737,0.1136 -0.4469661,0.3257 -0.1818167,0.2046 -0.2878765,0.4924 -0.098484,0.2879 -0.098484,0.6288 0,0.5152 0.2499979,0.9697 0.249998,0.4546 0.6287828,0.8939 0.3787848,0.4394 0.8181752,0.894 0.4393904,0.4469 0.8181754,0.9621 0.378785,0.5076 0.628783,1.106 0.249998,0.5909 0.249998,1.3106 0,0.7652 -0.31818,1.4167 -0.318179,0.6439 -0.886356,1.1212 -0.5606016,0.4697 -1.325747,0.7348 -0.7575696,0.2728 -1.6439261,0.2728 -0.7424182,0 -1.3484739,-0.197 -0.59848,-0.1894 -1.0302947,-0.5455 -0.424239,-0.3636 -0.6590856,-0.8636 -0.2348466,-0.5 -0.2348466,-1.1136 0,-0.5152 0.1666653,-0.9621 0.1666654,-0.447 0.4545418,-0.7727 0.2878765,-0.3334 0.6818127,-0.5228 0.3939362,-0.1894 0.8409023,-0.1894 0.5454501,0 0.9166592,0.2728 0.3712092,0.2727 0.4621175,0.75 -0.4090876,0 -0.7348425,0.1136 -0.325755,0.1136 -0.5530259,0.3182 -0.2272709,0.2045 -0.3560577,0.5 -0.1212111,0.2878 -0.1212111,0.6515 0,0.6818 0.3939362,1.0833 0.4015119,0.3939 1.0757489,0.3939 0.4090876,0 0.7575696,-0.1439 0.348482,-0.1515 0.59848,-0.4091 0.249998,-0.2576 0.3939362,-0.6136 0.1439382,-0.3561 0.1439382,-0.7727 0,-0.4243 -0.1439382,-0.8106 -0.1363625,-0.394 -0.3712091,-0.7576 -0.2348466,-0.3712 -0.5302988,-0.7273 -0.2954521,-0.356 -0.6060557,-0.7121 -0.3106035,-0.3636 -0.6060557,-0.7273 -0.2954521,-0.3636 -0.5302987,-0.7424 -0.2348466,-0.3863 -0.3787848,-0.7954 -0.1363626,-0.4091 -0.1363626,-0.8637 0,-0.6136 0.2575737,-1.1287 0.2651494,-0.5228 0.7272669,-0.9015 0.4696931,-0.3788 1.1060516,-0.5909 0.6363585,-0.2197 1.3863525,-0.2197 0.6287828,0 1.1363541,0.1591 0.507572,0.1515 0.86363,0.4393 0.363633,0.2803 0.560601,0.6819 0.196968,0.4015 0.196968,0.8939 z" />
    </g>
  </g>
</svg>
