<?xml version="1.0" encoding="utf-8" ?>
<svg baseProfile="full" height="16px" version="1.1" width="16px" xmlns="http://www.w3.org/2000/svg" xmlns:ev="http://www.w3.org/2001/xml-events" xmlns:xlink="http://www.w3.org/1999/xlink"><defs /><rect fill="rgb(61,203,187)" height="1px" width="1px" x="0px" y="0px" /><rect fill="rgb(61,203,187)" height="1px" width="1px" x="1px" y="0px" /><rect fill="rgb(61,204,188)" height="1px" width="1px" x="2px" y="0px" /><rect fill="rgb(61,203,187)" height="1px" width="1px" x="3px" y="0px" /><rect fill="rgb(61,204,188)" height="1px" width="1px" x="4px" y="0px" /><rect fill="rgb(61,203,187)" height="1px" width="1px" x="5px" y="0px" /><rect fill="rgb(57,202,185)" height="1px" width="1px" x="6px" y="0px" /><rect fill="rgb(70,206,191)" height="1px" width="1px" x="7px" y="0px" /><rect fill="rgb(129,221,210)" height="1px" width="1px" x="8px" y="0px" /><rect fill="rgb(137,223,213)" height="1px" width="1px" x="9px" y="0px" /><rect fill="rgb(102,214,201)" height="1px" width="1px" x="10px" y="0px" /><rect fill="rgb(57,202,186)" height="1px" width="1px" x="11px" y="0px" /><rect fill="rgb(61,203,187)" height="1px" width="1px" x="12px" y="0px" /><rect fill="rgb(61,203,187)" height="1px" width="1px" x="13px" y="0px" /><rect fill="rgb(61,203,187)" height="1px" width="1px" x="14px" y="0px" /><rect fill="rgb(61,203,187)" height="1px" width="1px" x="15px" y="0px" /><rect fill="rgb(61,203,187)" height="1px" width="1px" x="0px" y="1px" /><rect fill="rgb(61,198,183)" height="1px" width="1px" x="1px" y="1px" /><rect fill="rgb(61,195,181)" height="1px" width="1px" x="2px" y="1px" /><rect fill="rgb(61,199,184)" height="1px" width="1px" x="3px" y="1px" /><rect fill="rgb(62,174,164)" height="1px" width="1px" x="4px" y="1px" /><rect fill="rgb(56,187,173)" height="1px" width="1px" x="5px" y="1px" /><rect fill="rgb(187,237,231)" height="1px" width="1px" x="6px" y="1px" /><rect fill="rgb(255,255,255)" height="1px" width="1px" x="7px" y="1px" /><rect fill="rgb(194,238,233)" height="1px" width="1px" x="8px" y="1px" /><rect fill="rgb(131,222,211)" height="1px" width="1px" x="9px" y="1px" /><rect fill="rgb(219,246,243)" height="1px" width="1px" x="10px" y="1px" /><rect fill="rgb(221,245,242)" height="1px" width="1px" x="11px" y="1px" /><rect fill="rgb(66,204,188)" height="1px" width="1px" x="12px" y="1px" /><rect fill="rgb(61,203,187)" height="1px" width="1px" x="13px" y="1px" /><rect fill="rgb(61,203,187)" height="1px" width="1px" x="14px" y="1px" /><rect fill="rgb(61,203,187)" height="1px" width="1px" x="15px" y="1px" /><rect fill="rgb(61,192,178)" height="1px" width="1px" x="0px" y="2px" /><rect fill="rgb(61,195,180)" height="1px" width="1px" x="1px" y="2px" /><rect fill="rgb(62,169,159)" height="1px" width="1px" x="2px" y="2px" /><rect fill="rgb(62,173,162)" height="1px" width="1px" x="3px" y="2px" /><rect fill="rgb(58,199,184)" height="1px" width="1px" x="4px" y="2px" /><rect fill="rgb(185,228,224)" height="1px" width="1px" x="5px" y="2px" /><rect fill="rgb(255,255,255)" height="1px" width="1px" x="6px" y="2px" /><rect fill="rgb(223,246,244)" height="1px" width="1px" x="7px" y="2px" /><rect fill="rgb(52,200,184)" height="1px" width="1px" x="8px" y="2px" /><rect fill="rgb(61,203,187)" height="1px" width="1px" x="9px" y="2px" /><rect fill="rgb(101,214,202)" height="1px" width="1px" x="10px" y="2px" /><rect fill="rgb(255,255,255)" height="1px" width="1px" x="11px" y="2px" /><rect fill="rgb(162,230,222)" height="1px" width="1px" x="12px" y="2px" /><rect fill="rgb(59,203,187)" height="1px" width="1px" x="13px" y="2px" /><rect fill="rgb(61,203,187)" height="1px" width="1px" x="14px" y="2px" /><rect fill="rgb(61,203,187)" height="1px" width="1px" x="15px" y="2px" /><rect fill="rgb(61,204,188)" height="1px" width="1px" x="0px" y="3px" /><rect fill="rgb(61,190,176)" height="1px" width="1px" x="1px" y="3px" /><rect fill="rgb(62,168,158)" height="1px" width="1px" x="2px" y="3px" /><rect fill="rgb(63,166,156)" height="1px" width="1px" x="3px" y="3px" /><rect fill="rgb(54,176,165)" height="1px" width="1px" x="4px" y="3px" /><rect fill="rgb(255,255,255)" height="1px" width="1px" x="5px" y="3px" /><rect fill="rgb(255,255,255)" height="1px" width="1px" x="6px" y="3px" /><rect fill="rgb(181,235,229)" height="1px" width="1px" x="7px" y="3px" /><rect fill="rgb(58,202,186)" height="1px" width="1px" x="8px" y="3px" /><rect fill="rgb(61,203,187)" height="1px" width="1px" x="9px" y="3px" /><rect fill="rgb(105,215,203)" height="1px" width="1px" x="10px" y="3px" /><rect fill="rgb(255,255,255)" height="1px" width="1px" x="11px" y="3px" /><rect fill="rgb(188,237,231)" height="1px" width="1px" x="12px" y="3px" /><rect fill="rgb(58,202,186)" height="1px" width="1px" x="13px" y="3px" /><rect fill="rgb(61,203,187)" height="1px" width="1px" x="14px" y="3px" /><rect fill="rgb(61,203,187)" height="1px" width="1px" x="15px" y="3px" /><rect fill="rgb(61,201,185)" height="1px" width="1px" x="0px" y="4px" /><rect fill="rgb(63,167,157)" height="1px" width="1px" x="1px" y="4px" /><rect fill="rgb(61,189,175)" height="1px" width="1px" x="2px" y="4px" /><rect fill="rgb(63,159,151)" height="1px" width="1px" x="3px" y="4px" /><rect fill="rgb(58,165,156)" height="1px" width="1px" x="4px" y="4px" /><rect fill="rgb(255,255,255)" height="1px" width="1px" x="5px" y="4px" /><rect fill="rgb(255,255,255)" height="1px" width="1px" x="6px" y="4px" /><rect fill="rgb(235,249,247)" height="1px" width="1px" x="7px" y="4px" /><rect fill="rgb(54,201,184)" height="1px" width="1px" x="8px" y="4px" /><rect fill="rgb(58,202,186)" height="1px" width="1px" x="9px" y="4px" /><rect fill="rgb(177,235,229)" height="1px" width="1px" x="10px" y="4px" /><rect fill="rgb(255,255,255)" height="1px" width="1px" x="11px" y="4px" /><rect fill="rgb(100,213,200)" height="1px" width="1px" x="12px" y="4px" /><rect fill="rgb(61,203,187)" height="1px" width="1px" x="13px" y="4px" /><rect fill="rgb(61,203,187)" height="1px" width="1px" x="14px" y="4px" /><rect fill="rgb(61,203,187)" height="1px" width="1px" x="15px" y="4px" /><rect fill="rgb(61,194,180)" height="1px" width="1px" x="0px" y="5px" /><rect fill="rgb(61,186,173)" height="1px" width="1px" x="1px" y="5px" /><rect fill="rgb(62,170,160)" height="1px" width="1px" x="2px" y="5px" /><rect fill="rgb(62,177,166)" height="1px" width="1px" x="3px" y="5px" /><rect fill="rgb(56,171,160)" height="1px" width="1px" x="4px" y="5px" /><rect fill="rgb(211,239,236)" height="1px" width="1px" x="5px" y="5px" /><rect fill="rgb(255,255,255)" height="1px" width="1px" x="6px" y="5px" /><rect fill="rgb(255,255,255)" height="1px" width="1px" x="7px" y="5px" /><rect fill="rgb(151,227,218)" height="1px" width="1px" x="8px" y="5px" /><rect fill="rgb(58,202,186)" height="1px" width="1px" x="9px" y="5px" /><rect fill="rgb(55,201,185)" height="1px" width="1px" x="10px" y="5px" /><rect fill="rgb(56,202,185)" height="1px" width="1px" x="11px" y="5px" /><rect fill="rgb(60,203,187)" height="1px" width="1px" x="12px" y="5px" /><rect fill="rgb(61,203,187)" height="1px" width="1px" x="13px" y="5px" /><rect fill="rgb(61,203,187)" height="1px" width="1px" x="14px" y="5px" /><rect fill="rgb(61,203,187)" height="1px" width="1px" x="15px" y="5px" /><rect fill="rgb(61,204,188)" height="1px" width="1px" x="0px" y="6px" /><rect fill="rgb(61,195,181)" height="1px" width="1px" x="1px" y="6px" /><rect fill="rgb(61,201,185)" height="1px" width="1px" x="2px" y="6px" /><rect fill="rgb(61,204,188)" height="1px" width="1px" x="3px" y="6px" /><rect fill="rgb(61,199,184)" height="1px" width="1px" x="4px" y="6px" /><rect fill="rgb(87,206,193)" height="1px" width="1px" x="5px" y="6px" /><rect fill="rgb(255,255,255)" height="1px" width="1px" x="6px" y="6px" /><rect fill="rgb(255,255,255)" height="1px" width="1px" x="7px" y="6px" /><rect fill="rgb(255,255,255)" height="1px" width="1px" x="8px" y="6px" /><rect fill="rgb(121,218,207)" height="1px" width="1px" x="9px" y="6px" /><rect fill="rgb(59,202,186)" height="1px" width="1px" x="10px" y="6px" /><rect fill="rgb(61,203,187)" height="1px" width="1px" x="11px" y="6px" /><rect fill="rgb(61,203,187)" height="1px" width="1px" x="12px" y="6px" /><rect fill="rgb(61,203,187)" height="1px" width="1px" x="13px" y="6px" /><rect fill="rgb(61,203,187)" height="1px" width="1px" x="14px" y="6px" /><rect fill="rgb(61,203,187)" height="1px" width="1px" x="15px" y="6px" /><rect fill="rgb(61,203,187)" height="1px" width="1px" x="0px" y="7px" /><rect fill="rgb(61,203,187)" height="1px" width="1px" x="1px" y="7px" /><rect fill="rgb(61,203,187)" height="1px" width="1px" x="2px" y="7px" /><rect fill="rgb(61,203,187)" height="1px" width="1px" x="3px" y="7px" /><rect fill="rgb(61,203,187)" height="1px" width="1px" x="4px" y="7px" /><rect fill="rgb(60,203,186)" height="1px" width="1px" x="5px" y="7px" /><rect fill="rgb(136,223,213)" height="1px" width="1px" x="6px" y="7px" /><rect fill="rgb(255,255,255)" height="1px" width="1px" x="7px" y="7px" /><rect fill="rgb(255,255,255)" height="1px" width="1px" x="8px" y="7px" /><rect fill="rgb(255,255,255)" height="1px" width="1px" x="9px" y="7px" /><rect fill="rgb(111,216,203)" height="1px" width="1px" x="10px" y="7px" /><rect fill="rgb(60,203,187)" height="1px" width="1px" x="11px" y="7px" /><rect fill="rgb(61,204,187)" height="1px" width="1px" x="12px" y="7px" /><rect fill="rgb(61,203,187)" height="1px" width="1px" x="13px" y="7px" /><rect fill="rgb(61,203,187)" height="1px" width="1px" x="14px" y="7px" /><rect fill="rgb(61,203,187)" height="1px" width="1px" x="15px" y="7px" /><rect fill="rgb(61,203,187)" height="1px" width="1px" x="0px" y="8px" /><rect fill="rgb(61,203,187)" height="1px" width="1px" x="1px" y="8px" /><rect fill="rgb(61,203,187)" height="1px" width="1px" x="2px" y="8px" /><rect fill="rgb(61,203,187)" height="1px" width="1px" x="3px" y="8px" /><rect fill="rgb(57,202,186)" height="1px" width="1px" x="4px" y="8px" /><rect fill="rgb(54,201,185)" height="1px" width="1px" x="5px" y="8px" /><rect fill="rgb(55,201,185)" height="1px" width="1px" x="6px" y="8px" /><rect fill="rgb(158,229,222)" height="1px" width="1px" x="7px" y="8px" /><rect fill="rgb(255,255,255)" height="1px" width="1px" x="8px" y="8px" /><rect fill="rgb(255,255,255)" height="1px" width="1px" x="9px" y="8px" /><rect fill="rgb(247,253,252)" height="1px" width="1px" x="10px" y="8px" /><rect fill="rgb(67,206,190)" height="1px" width="1px" x="11px" y="8px" /><rect fill="rgb(61,193,179)" height="1px" width="1px" x="12px" y="8px" /><rect fill="rgb(62,191,177)" height="1px" width="1px" x="13px" y="8px" /><rect fill="rgb(61,185,172)" height="1px" width="1px" x="14px" y="8px" /><rect fill="rgb(61,204,188)" height="1px" width="1px" x="15px" y="8px" /><rect fill="rgb(61,203,187)" height="1px" width="1px" x="0px" y="9px" /><rect fill="rgb(61,203,187)" height="1px" width="1px" x="1px" y="9px" /><rect fill="rgb(61,203,187)" height="1px" width="1px" x="2px" y="9px" /><rect fill="rgb(74,206,191)" height="1px" width="1px" x="3px" y="9px" /><rect fill="rgb(196,239,234)" height="1px" width="1px" x="4px" y="9px" /><rect fill="rgb(225,246,243)" height="1px" width="1px" x="5px" y="9px" /><rect fill="rgb(126,220,209)" height="1px" width="1px" x="6px" y="9px" /><rect fill="rgb(53,201,184)" height="1px" width="1px" x="7px" y="9px" /><rect fill="rgb(214,244,241)" height="1px" width="1px" x="8px" y="9px" /><rect fill="rgb(255,255,255)" height="1px" width="1px" x="9px" y="9px" /><rect fill="rgb(255,255,255)" height="1px" width="1px" x="10px" y="9px" /><rect fill="rgb(163,226,219)" height="1px" width="1px" x="11px" y="9px" /><rect fill="rgb(60,172,162)" height="1px" width="1px" x="12px" y="9px" /><rect fill="rgb(62,179,167)" height="1px" width="1px" x="13px" y="9px" /><rect fill="rgb(61,177,165)" height="1px" width="1px" x="14px" y="9px" /><rect fill="rgb(61,205,189)" height="1px" width="1px" x="15px" y="9px" /><rect fill="rgb(61,203,187)" height="1px" width="1px" x="0px" y="10px" /><rect fill="rgb(61,203,187)" height="1px" width="1px" x="1px" y="10px" /><rect fill="rgb(55,201,185)" height="1px" width="1px" x="2px" y="10px" /><rect fill="rgb(243,251,250)" height="1px" width="1px" x="3px" y="10px" /><rect fill="rgb(255,255,255)" height="1px" width="1px" x="4px" y="10px" /><rect fill="rgb(220,245,242)" height="1px" width="1px" x="5px" y="10px" /><rect fill="rgb(128,220,210)" height="1px" width="1px" x="6px" y="10px" /><rect fill="rgb(57,202,186)" height="1px" width="1px" x="7px" y="10px" /><rect fill="rgb(88,210,196)" height="1px" width="1px" x="8px" y="10px" /><rect fill="rgb(255,255,255)" height="1px" width="1px" x="9px" y="10px" /><rect fill="rgb(255,255,255)" height="1px" width="1px" x="10px" y="10px" /><rect fill="rgb(232,248,246)" height="1px" width="1px" x="11px" y="10px" /><rect fill="rgb(54,167,157)" height="1px" width="1px" x="12px" y="10px" /><rect fill="rgb(63,160,152)" height="1px" width="1px" x="13px" y="10px" /><rect fill="rgb(61,186,173)" height="1px" width="1px" x="14px" y="10px" /><rect fill="rgb(61,203,187)" height="1px" width="1px" x="15px" y="10px" /><rect fill="rgb(61,203,187)" height="1px" width="1px" x="0px" y="11px" /><rect fill="rgb(61,203,187)" height="1px" width="1px" x="1px" y="11px" /><rect fill="rgb(113,217,205)" height="1px" width="1px" x="2px" y="11px" /><rect fill="rgb(255,255,255)" height="1px" width="1px" x="3px" y="11px" /><rect fill="rgb(244,252,251)" height="1px" width="1px" x="4px" y="11px" /><rect fill="rgb(53,201,184)" height="1px" width="1px" x="5px" y="11px" /><rect fill="rgb(61,203,187)" height="1px" width="1px" x="6px" y="11px" /><rect fill="rgb(61,203,187)" height="1px" width="1px" x="7px" y="11px" /><rect fill="rgb(49,200,183)" height="1px" width="1px" x="8px" y="11px" /><rect fill="rgb(255,255,255)" height="1px" width="1px" x="9px" y="11px" /><rect fill="rgb(255,255,255)" height="1px" width="1px" x="10px" y="11px" /><rect fill="rgb(237,251,249)" height="1px" width="1px" x="11px" y="11px" /><rect fill="rgb(52,179,166)" height="1px" width="1px" x="12px" y="11px" /><rect fill="rgb(62,174,164)" height="1px" width="1px" x="13px" y="11px" /><rect fill="rgb(62,167,157)" height="1px" width="1px" x="14px" y="11px" /><rect fill="rgb(61,205,189)" height="1px" width="1px" x="15px" y="11px" /><rect fill="rgb(61,203,187)" height="1px" width="1px" x="0px" y="12px" /><rect fill="rgb(61,203,187)" height="1px" width="1px" x="1px" y="12px" /><rect fill="rgb(139,224,215)" height="1px" width="1px" x="2px" y="12px" /><rect fill="rgb(255,255,255)" height="1px" width="1px" x="3px" y="12px" /><rect fill="rgb(222,245,242)" height="1px" width="1px" x="4px" y="12px" /><rect fill="rgb(54,201,185)" height="1px" width="1px" x="5px" y="12px" /><rect fill="rgb(61,203,187)" height="1px" width="1px" x="6px" y="12px" /><rect fill="rgb(61,203,187)" height="1px" width="1px" x="7px" y="12px" /><rect fill="rgb(52,201,184)" height="1px" width="1px" x="8px" y="12px" /><rect fill="rgb(255,255,255)" height="1px" width="1px" x="9px" y="12px" /><rect fill="rgb(255,255,255)" height="1px" width="1px" x="10px" y="12px" /><rect fill="rgb(189,235,230)" height="1px" width="1px" x="11px" y="12px" /><rect fill="rgb(57,198,183)" height="1px" width="1px" x="12px" y="12px" /><rect fill="rgb(61,203,187)" height="1px" width="1px" x="13px" y="12px" /><rect fill="rgb(61,198,183)" height="1px" width="1px" x="14px" y="12px" /><rect fill="rgb(61,203,187)" height="1px" width="1px" x="15px" y="12px" /><rect fill="rgb(61,203,187)" height="1px" width="1px" x="0px" y="13px" /><rect fill="rgb(61,203,187)" height="1px" width="1px" x="1px" y="13px" /><rect fill="rgb(69,205,190)" height="1px" width="1px" x="2px" y="13px" /><rect fill="rgb(255,255,255)" height="1px" width="1px" x="3px" y="13px" /><rect fill="rgb(253,254,254)" height="1px" width="1px" x="4px" y="13px" /><rect fill="rgb(63,203,187)" height="1px" width="1px" x="5px" y="13px" /><rect fill="rgb(57,202,186)" height="1px" width="1px" x="6px" y="13px" /><rect fill="rgb(50,200,184)" height="1px" width="1px" x="7px" y="13px" /><rect fill="rgb(165,231,223)" height="1px" width="1px" x="8px" y="13px" /><rect fill="rgb(255,255,255)" height="1px" width="1px" x="9px" y="13px" /><rect fill="rgb(250,254,253)" height="1px" width="1px" x="10px" y="13px" /><rect fill="rgb(82,208,194)" height="1px" width="1px" x="11px" y="13px" /><rect fill="rgb(61,203,187)" height="1px" width="1px" x="12px" y="13px" /><rect fill="rgb(61,203,187)" height="1px" width="1px" x="13px" y="13px" /><rect fill="rgb(61,203,187)" height="1px" width="1px" x="14px" y="13px" /><rect fill="rgb(61,203,187)" height="1px" width="1px" x="15px" y="13px" /><rect fill="rgb(61,203,187)" height="1px" width="1px" x="0px" y="14px" /><rect fill="rgb(61,203,187)" height="1px" width="1px" x="1px" y="14px" /><rect fill="rgb(60,203,187)" height="1px" width="1px" x="2px" y="14px" /><rect fill="rgb(111,217,206)" height="1px" width="1px" x="3px" y="14px" /><rect fill="rgb(255,255,255)" height="1px" width="1px" x="4px" y="14px" /><rect fill="rgb(255,255,255)" height="1px" width="1px" x="5px" y="14px" /><rect fill="rgb(192,238,233)" height="1px" width="1px" x="6px" y="14px" /><rect fill="rgb(238,250,248)" height="1px" width="1px" x="7px" y="14px" /><rect fill="rgb(255,255,255)" height="1px" width="1px" x="8px" y="14px" /><rect fill="rgb(236,250,248)" height="1px" width="1px" x="9px" y="14px" /><rect fill="rgb(89,210,196)" height="1px" width="1px" x="10px" y="14px" /><rect fill="rgb(60,203,187)" height="1px" width="1px" x="11px" y="14px" /><rect fill="rgb(61,203,187)" height="1px" width="1px" x="12px" y="14px" /><rect fill="rgb(61,203,187)" height="1px" width="1px" x="13px" y="14px" /><rect fill="rgb(61,203,187)" height="1px" width="1px" x="14px" y="14px" /><rect fill="rgb(61,203,187)" height="1px" width="1px" x="15px" y="14px" /><rect fill="rgb(61,203,187)" height="1px" width="1px" x="0px" y="15px" /><rect fill="rgb(61,203,187)" height="1px" width="1px" x="1px" y="15px" /><rect fill="rgb(61,203,187)" height="1px" width="1px" x="2px" y="15px" /><rect fill="rgb(60,203,187)" height="1px" width="1px" x="3px" y="15px" /><rect fill="rgb(63,204,189)" height="1px" width="1px" x="4px" y="15px" /><rect fill="rgb(131,222,211)" height="1px" width="1px" x="5px" y="15px" /><rect fill="rgb(169,232,225)" height="1px" width="1px" x="6px" y="15px" /><rect fill="rgb(151,227,218)" height="1px" width="1px" x="7px" y="15px" /><rect fill="rgb(105,214,202)" height="1px" width="1px" x="8px" y="15px" /><rect fill="rgb(56,201,185)" height="1px" width="1px" x="9px" y="15px" /><rect fill="rgb(61,203,187)" height="1px" width="1px" x="10px" y="15px" /><rect fill="rgb(61,203,187)" height="1px" width="1px" x="11px" y="15px" /><rect fill="rgb(61,203,187)" height="1px" width="1px" x="12px" y="15px" /><rect fill="rgb(61,203,187)" height="1px" width="1px" x="13px" y="15px" /><rect fill="rgb(61,203,187)" height="1px" width="1px" x="14px" y="15px" /><rect fill="rgb(61,203,187)" height="1px" width="1px" x="15px" y="15px" /></svg>