<?xml version="1.0" encoding="UTF-8" standalone="no"?>
<svg xmlns="http://www.w3.org/2000/svg" version="1.1" viewBox="0 0 16 16">
    <rect fill="rgb(234,70,59)" height="1px" width="1px" x="3px" y="0px"/>
    <rect fill="rgb(249,0,0)" height="1px" width="1px" x="4px" y="0px"/>
    <rect fill="rgb(232,57,41)" height="1px" width="1px" x="12px" y="0px"/>
    <rect fill="rgb(236,39,25)" height="1px" width="1px" x="2px" y="1px"/>
    <rect fill="rgb(230,92,85)" height="1px" width="1px" x="5px" y="1px"/>
    <rect fill="rgb(233,90,79)" height="1px" width="1px" x="6px" y="1px"/>
    <rect fill="rgb(232,87,77)" height="1px" width="1px" x="7px" y="1px"/>
    <rect fill="rgb(232,83,73)" height="1px" width="1px" x="8px" y="1px"/>
    <rect fill="rgb(234,87,77)" height="1px" width="1px" x="9px" y="1px"/>
    <rect fill="rgb(230,96,85)" height="1px" width="1px" x="10px" y="1px"/>
    <rect fill="rgb(241,25,4)" height="1px" width="1px" x="13px" y="1px"/>
    <rect fill="rgb(237,44,31)" height="1px" width="1px" x="1px" y="2px"/>
    <rect fill="rgb(234,77,68)" height="1px" width="1px" x="4px" y="2px"/>
    <rect fill="rgb(235,65,53)" height="1px" width="1px" x="5px" y="2px"/>
    <rect fill="rgb(236,50,36)" height="1px" width="1px" x="6px" y="2px"/>
    <rect fill="rgb(238,37,22)" height="1px" width="1px" x="7px" y="2px"/>
    <rect fill="rgb(238,36,21)" height="1px" width="1px" x="8px" y="2px"/>
    <rect fill="rgb(237,47,33)" height="1px" width="1px" x="9px" y="2px"/>
    <rect fill="rgb(235,64,51)" height="1px" width="1px" x="10px" y="2px"/>
    <rect fill="rgb(234,78,67)" height="1px" width="1px" x="11px" y="2px"/>
    <rect fill="rgb(213,181,176)" height="1px" width="1px" x="12px" y="2px"/>
    <rect fill="rgb(245,11,0)" height="1px" width="1px" x="14px" y="2px"/>
    <rect fill="rgb(235,79,67)" height="1px" width="1px" x="0px" y="3px"/>
    <rect fill="rgb(234,75,64)" height="1px" width="1px" x="3px" y="3px"/>
    <rect fill="rgb(237,54,41)" height="1px" width="1px" x="4px" y="3px"/>
    <rect fill="rgb(237,42,28)" height="1px" width="1px" x="5px" y="3px"/>
    <rect fill="rgb(237,59,45)" height="1px" width="1px" x="6px" y="3px"/>
    <rect fill="rgb(239,83,70)" height="1px" width="1px" x="7px" y="3px"/>
    <rect fill="rgb(240,85,73)" height="1px" width="1px" x="8px" y="3px"/>
    <rect fill="rgb(238,65,52)" height="1px" width="1px" x="9px" y="3px"/>
    <rect fill="rgb(238,42,28)" height="1px" width="1px" x="10px" y="3px"/>
    <rect fill="rgb(237,50,35)" height="1px" width="1px" x="11px" y="3px"/>
    <rect fill="rgb(234,71,57)" height="1px" width="1px" x="12px" y="3px"/>
    <rect fill="rgb(217,150,152)" height="1px" width="1px" x="13px" y="3px"/>
    <rect fill="rgb(235,55,42)" height="1px" width="1px" x="15px" y="3px"/>
    <rect fill="rgb(132,0,14)" height="1px" width="1px" x="0px" y="4px"/>
    <rect fill="rgb(229,83,74)" height="1px" width="1px" x="2px" y="4px"/>
    <rect fill="rgb(236,54,40)" height="1px" width="1px" x="3px" y="4px"/>
    <rect fill="rgb(237,45,30)" height="1px" width="1px" x="4px" y="4px"/>
    <rect fill="rgb(238,91,80)" height="1px" width="1px" x="5px" y="4px"/>
    <rect fill="rgb(243,176,172)" height="1px" width="1px" x="6px" y="4px"/>
    <rect fill="rgb(247,227,225)" height="1px" width="1px" x="7px" y="4px"/>
    <rect fill="rgb(248,231,230)" height="1px" width="1px" x="8px" y="4px"/>
    <rect fill="rgb(245,190,187)" height="1px" width="1px" x="9px" y="4px"/>
    <rect fill="rgb(239,107,99)" height="1px" width="1px" x="10px" y="4px"/>
    <rect fill="rgb(237,47,33)" height="1px" width="1px" x="11px" y="4px"/>
    <rect fill="rgb(236,50,36)" height="1px" width="1px" x="12px" y="4px"/>
    <rect fill="rgb(232,79,68)" height="1px" width="1px" x="13px" y="4px"/>
    <rect fill="rgb(255,186,0)" height="1px" width="1px" x="1px" y="5px"/>
    <rect fill="rgb(255,67,45)" height="1px" width="1px" x="2px" y="5px"/>
    <rect fill="rgb(251,43,22)" height="1px" width="1px" x="3px" y="5px"/>
    <rect fill="rgb(253,101,83)" height="1px" width="1px" x="4px" y="5px"/>
    <rect fill="rgb(255,239,230)" height="1px" width="1px" x="5px" y="5px"/>
    <rect fill="rgb(255,255,255)" height="1px" width="1px" x="6px" y="5px"/>
    <rect fill="rgb(255,255,255)" height="1px" width="1px" x="7px" y="5px"/>
    <rect fill="rgb(255,255,255)" height="1px" width="1px" x="8px" y="5px"/>
    <rect fill="rgb(255,255,255)" height="1px" width="1px" x="9px" y="5px"/>
    <rect fill="rgb(255,255,251)" height="1px" width="1px" x="10px" y="5px"/>
    <rect fill="rgb(255,127,112)" height="1px" width="1px" x="11px" y="5px"/>
    <rect fill="rgb(252,45,25)" height="1px" width="1px" x="12px" y="5px"/>
    <rect fill="rgb(253,58,37)" height="1px" width="1px" x="13px" y="5px"/>
    <rect fill="rgb(255,92,29)" height="1px" width="1px" x="14px" y="5px"/>
    <rect fill="rgb(2,89,187)" height="1px" width="1px" x="0px" y="6px"/>
    <rect fill="rgb(101,72,123)" height="1px" width="1px" x="1px" y="6px"/>
    <rect fill="rgb(174,51,67)" height="1px" width="1px" x="2px" y="6px"/>
    <rect fill="rgb(183,52,65)" height="1px" width="1px" x="3px" y="6px"/>
    <rect fill="rgb(187,138,156)" height="1px" width="1px" x="4px" y="6px"/>
    <rect fill="rgb(194,220,243)" height="1px" width="1px" x="5px" y="6px"/>
    <rect fill="rgb(193,211,235)" height="1px" width="1px" x="6px" y="6px"/>
    <rect fill="rgb(193,204,225)" height="1px" width="1px" x="7px" y="6px"/>
    <rect fill="rgb(197,206,226)" height="1px" width="1px" x="8px" y="6px"/>
    <rect fill="rgb(193,209,232)" height="1px" width="1px" x="9px" y="6px"/>
    <rect fill="rgb(193,219,243)" height="1px" width="1px" x="10px" y="6px"/>
    <rect fill="rgb(185,158,179)" height="1px" width="1px" x="11px" y="6px"/>
    <rect fill="rgb(181,62,76)" height="1px" width="1px" x="12px" y="6px"/>
    <rect fill="rgb(179,45,60)" height="1px" width="1px" x="13px" y="6px"/>
    <rect fill="rgb(126,71,112)" height="1px" width="1px" x="14px" y="6px"/>
    <rect fill="rgb(12,90,182)" height="1px" width="1px" x="15px" y="6px"/>
    <rect fill="rgb(42,73,152)" height="1px" width="1px" x="0px" y="7px"/>
    <rect fill="rgb(82,101,164)" height="1px" width="1px" x="1px" y="7px"/>
    <rect fill="rgb(119,120,167)" height="1px" width="1px" x="2px" y="7px"/>
    <rect fill="rgb(107,115,168)" height="1px" width="1px" x="3px" y="7px"/>
    <rect fill="rgb(108,129,183)" height="1px" width="1px" x="4px" y="7px"/>
    <rect fill="rgb(113,135,185)" height="1px" width="1px" x="5px" y="7px"/>
    <rect fill="rgb(107,126,179)" height="1px" width="1px" x="6px" y="7px"/>
    <rect fill="rgb(100,120,175)" height="1px" width="1px" x="7px" y="7px"/>
    <rect fill="rgb(113,131,180)" height="1px" width="1px" x="8px" y="7px"/>
    <rect fill="rgb(108,127,179)" height="1px" width="1px" x="9px" y="7px"/>
    <rect fill="rgb(93,117,176)" height="1px" width="1px" x="10px" y="7px"/>
    <rect fill="rgb(94,121,180)" height="1px" width="1px" x="11px" y="7px"/>
    <rect fill="rgb(102,115,170)" height="1px" width="1px" x="12px" y="7px"/>
    <rect fill="rgb(121,122,169)" height="1px" width="1px" x="13px" y="7px"/>
    <rect fill="rgb(99,113,169)" height="1px" width="1px" x="14px" y="7px"/>
    <rect fill="rgb(49,79,154)" height="1px" width="1px" x="15px" y="7px"/>
    <rect fill="rgb(44,73,151)" height="1px" width="1px" x="0px" y="8px"/>
    <rect fill="rgb(87,109,170)" height="1px" width="1px" x="1px" y="8px"/>
    <rect fill="rgb(108,131,184)" height="1px" width="1px" x="2px" y="8px"/>
    <rect fill="rgb(94,126,185)" height="1px" width="1px" x="3px" y="8px"/>
    <rect fill="rgb(100,129,185)" height="1px" width="1px" x="4px" y="8px"/>
    <rect fill="rgb(102,122,176)" height="1px" width="1px" x="5px" y="8px"/>
    <rect fill="rgb(94,114,170)" height="1px" width="1px" x="6px" y="8px"/>
    <rect fill="rgb(89,111,169)" height="1px" width="1px" x="7px" y="8px"/>
    <rect fill="rgb(100,120,173)" height="1px" width="1px" x="8px" y="8px"/>
    <rect fill="rgb(95,115,171)" height="1px" width="1px" x="9px" y="8px"/>
    <rect fill="rgb(80,104,165)" height="1px" width="1px" x="10px" y="8px"/>
    <rect fill="rgb(89,119,179)" height="1px" width="1px" x="11px" y="8px"/>
    <rect fill="rgb(91,123,184)" height="1px" width="1px" x="12px" y="8px"/>
    <rect fill="rgb(109,135,188)" height="1px" width="1px" x="13px" y="8px"/>
    <rect fill="rgb(101,122,176)" height="1px" width="1px" x="14px" y="8px"/>
    <rect fill="rgb(51,79,152)" height="1px" width="1px" x="15px" y="8px"/>
    <rect fill="rgb(23,87,173)" height="1px" width="1px" x="0px" y="9px"/>
    <rect fill="rgb(107,88,139)" height="1px" width="1px" x="1px" y="9px"/>
    <rect fill="rgb(160,56,80)" height="1px" width="1px" x="2px" y="9px"/>
    <rect fill="rgb(168,62,82)" height="1px" width="1px" x="3px" y="9px"/>
    <rect fill="rgb(176,143,166)" height="1px" width="1px" x="4px" y="9px"/>
    <rect fill="rgb(180,204,232)" height="1px" width="1px" x="5px" y="9px"/>
    <rect fill="rgb(176,193,222)" height="1px" width="1px" x="6px" y="9px"/>
    <rect fill="rgb(179,190,217)" height="1px" width="1px" x="7px" y="9px"/>
    <rect fill="rgb(180,191,218)" height="1px" width="1px" x="8px" y="9px"/>
    <rect fill="rgb(176,191,220)" height="1px" width="1px" x="9px" y="9px"/>
    <rect fill="rgb(177,202,231)" height="1px" width="1px" x="10px" y="9px"/>
    <rect fill="rgb(176,161,185)" height="1px" width="1px" x="11px" y="9px"/>
    <rect fill="rgb(166,71,91)" height="1px" width="1px" x="12px" y="9px"/>
    <rect fill="rgb(164,52,72)" height="1px" width="1px" x="13px" y="9px"/>
    <rect fill="rgb(125,87,127)" height="1px" width="1px" x="14px" y="9px"/>
    <rect fill="rgb(32,86,169)" height="1px" width="1px" x="15px" y="9px"/>
    <rect fill="rgb(255,100,0)" height="1px" width="1px" x="1px" y="10px"/>
    <rect fill="rgb(255,59,37)" height="1px" width="1px" x="2px" y="10px"/>
    <rect fill="rgb(252,41,20)" height="1px" width="1px" x="3px" y="10px"/>
    <rect fill="rgb(255,116,99)" height="1px" width="1px" x="4px" y="10px"/>
    <rect fill="rgb(255,255,249)" height="1px" width="1px" x="5px" y="10px"/>
    <rect fill="rgb(255,255,255)" height="1px" width="1px" x="6px" y="10px"/>
    <rect fill="rgb(255,255,255)" height="1px" width="1px" x="7px" y="10px"/>
    <rect fill="rgb(255,255,255)" height="1px" width="1px" x="8px" y="10px"/>
    <rect fill="rgb(255,255,255)" height="1px" width="1px" x="9px" y="10px"/>
    <rect fill="rgb(255,255,255)" height="1px" width="1px" x="10px" y="10px"/>
    <rect fill="rgb(255,145,131)" height="1px" width="1px" x="11px" y="10px"/>
    <rect fill="rgb(251,47,25)" height="1px" width="1px" x="12px" y="10px"/>
    <rect fill="rgb(252,53,31)" height="1px" width="1px" x="13px" y="10px"/>
    <rect fill="rgb(255,77,19)" height="1px" width="1px" x="14px" y="10px"/>
    <rect fill="rgb(233,79,70)" height="1px" width="1px" x="2px" y="11px"/>
    <rect fill="rgb(237,52,38)" height="1px" width="1px" x="3px" y="11px"/>
    <rect fill="rgb(238,48,33)" height="1px" width="1px" x="4px" y="11px"/>
    <rect fill="rgb(240,112,103)" height="1px" width="1px" x="5px" y="11px"/>
    <rect fill="rgb(246,204,201)" height="1px" width="1px" x="6px" y="11px"/>
    <rect fill="rgb(251,250,249)" height="1px" width="1px" x="7px" y="11px"/>
    <rect fill="rgb(251,253,253)" height="1px" width="1px" x="8px" y="11px"/>
    <rect fill="rgb(248,216,214)" height="1px" width="1px" x="9px" y="11px"/>
    <rect fill="rgb(241,131,123)" height="1px" width="1px" x="10px" y="11px"/>
    <rect fill="rgb(237,53,39)" height="1px" width="1px" x="11px" y="11px"/>
    <rect fill="rgb(236,47,32)" height="1px" width="1px" x="12px" y="11px"/>
    <rect fill="rgb(233,75,63)" height="1px" width="1px" x="13px" y="11px"/>
    <rect fill="rgb(70,255,255)" height="1px" width="1px" x="14px" y="11px"/>
    <rect fill="rgb(234,66,53)" height="1px" width="1px" x="0px" y="12px"/>
    <rect fill="rgb(212,215,222)" height="1px" width="1px" x="2px" y="12px"/>
    <rect fill="rgb(234,74,62)" height="1px" width="1px" x="3px" y="12px"/>
    <rect fill="rgb(237,50,37)" height="1px" width="1px" x="4px" y="12px"/>
    <rect fill="rgb(238,43,29)" height="1px" width="1px" x="5px" y="12px"/>
    <rect fill="rgb(238,72,59)" height="1px" width="1px" x="6px" y="12px"/>
    <rect fill="rgb(240,100,89)" height="1px" width="1px" x="7px" y="12px"/>
    <rect fill="rgb(240,102,92)" height="1px" width="1px" x="8px" y="12px"/>
    <rect fill="rgb(239,79,67)" height="1px" width="1px" x="9px" y="12px"/>
    <rect fill="rgb(237,46,31)" height="1px" width="1px" x="10px" y="12px"/>
    <rect fill="rgb(237,47,33)" height="1px" width="1px" x="11px" y="12px"/>
    <rect fill="rgb(235,69,56)" height="1px" width="1px" x="12px" y="12px"/>
    <rect fill="rgb(227,114,103)" height="1px" width="1px" x="13px" y="12px"/>
    <rect fill="rgb(236,53,40)" height="1px" width="1px" x="15px" y="12px"/>
    <rect fill="rgb(239,14,0)" height="1px" width="1px" x="1px" y="13px"/>
    <rect fill="rgb(207,171,167)" height="1px" width="1px" x="3px" y="13px"/>
    <rect fill="rgb(232,77,65)" height="1px" width="1px" x="4px" y="13px"/>
    <rect fill="rgb(236,62,49)" height="1px" width="1px" x="5px" y="13px"/>
    <rect fill="rgb(237,44,30)" height="1px" width="1px" x="6px" y="13px"/>
    <rect fill="rgb(237,34,18)" height="1px" width="1px" x="7px" y="13px"/>
    <rect fill="rgb(237,33,18)" height="1px" width="1px" x="8px" y="13px"/>
    <rect fill="rgb(237,41,26)" height="1px" width="1px" x="9px" y="13px"/>
    <rect fill="rgb(236,58,45)" height="1px" width="1px" x="10px" y="13px"/>
    <rect fill="rgb(233,73,62)" height="1px" width="1px" x="11px" y="13px"/>
    <rect fill="rgb(229,114,112)" height="1px" width="1px" x="12px" y="13px"/>
    <rect fill="rgb(241,11,0)" height="1px" width="1px" x="2px" y="14px"/>
    <rect fill="rgb(232,92,82)" height="1px" width="1px" x="5px" y="14px"/>
    <rect fill="rgb(233,81,71)" height="1px" width="1px" x="6px" y="14px"/>
    <rect fill="rgb(232,76,65)" height="1px" width="1px" x="7px" y="14px"/>
    <rect fill="rgb(232,75,63)" height="1px" width="1px" x="8px" y="14px"/>
    <rect fill="rgb(234,80,70)" height="1px" width="1px" x="9px" y="14px"/>
    <rect fill="rgb(232,87,77)" height="1px" width="1px" x="10px" y="14px"/>
    <rect fill="rgb(234,69,58)" height="1px" width="1px" x="3px" y="15px"/>
    <rect fill="rgb(78,255,255)" height="1px" width="1px" x="8px" y="15px"/>
    <rect fill="rgb(237,57,39)" height="1px" width="1px" x="12px" y="15px"/>
</svg>