<?xml version="1.0" encoding="UTF-8" standalone="no"?>
<svg xmlns="http://www.w3.org/2000/svg" viewBox="0 0 16 16" version="1.1">
        <g transform="matrix(0.13333333,0,0,0.13333333,2e-7,2e-7)">
        <path fill="#1ab7ea" d="m 120,108 c 0,6.6 -5.4,12 -12,12 l -96,0 C 5.4,120 0,114.6 0,108 L 0,12 C 0,5.4 5.4,0 12,0 l 96,0 c 6.6,0 12,5.4 12,12 l 0,96 z" />
        <path fill="#ffffff" d="m 101,39.9 c -0.4,8.4 -6.3,20 -17.7,34.7 -11.8,15.3 -21.8,23 -29.9,23 -5.1,0 -9.3,-4.7 -12.8,-14 -2.3,-8.6 -4.7,-17.1 -7,-25.7 -2.6,-9.3 -5.4,-14 -8.4,-14 -0.6,0 -2.9,1.4 -6.8,4.1 l -4.1,-5.3 c 4.3,-3.8 8.5,-7.5 12.7,-11.3 5.7,-4.9 10,-7.5 12.9,-7.8 6.7,-0.6 10.9,4 12.5,13.8 1.7,10.7 2.9,17.3 3.5,19.9 1.9,8.8 4.1,13.3 6.4,13.3 1.8,0 4.5,-2.9 8.2,-8.6 3.6,-5.7 5.6,-10.1 5.8,-13.1 0.5,-4.9 -1.4,-7.4 -5.8,-7.4 -2.1,0 -4.2,0.5 -6.4,1.4 4.3,-14 12.4,-20.7 24.4,-20.3 8.8,0.2 13,6 12.5,17.3 z" />
    </g>
</svg>
