<svg xmlns="http://www.w3.org/2000/svg" viewBox="0 0 16 16">
    <path fill="#1ab7ea" d="M16 14.4c0 .88-.72 1.6-1.6 1.6H1.6C.72 16 0 15.28 0 14.4V1.6C0 .72.72 0 1.6 0h12.8c.88 0 1.6.72 1.6 1.6v12.8z"/>
    <path fill="#fff" d="M13.467 5.32c-.054 1.12-.84 2.667-2.36 4.627-1.574 2.04-2.907 3.066-3.987 3.066-.68 0-1.24-.626-1.707-1.866C5.107 10 4.787 8.867 4.48 7.72c-.347-1.24-.72-1.867-1.12-1.867-.08 0-.387.187-.907.547l-.546-.707c.573-.506 1.133-1 1.693-1.506.76-.654 1.333-1 1.72-1.04.893-.08 1.453.533 1.667 1.84.226 1.426.386 2.306.466 2.653.254 1.173.547 1.773.854 1.773.24 0 .6-.386 1.093-1.146.48-.76.747-1.347.773-1.747.067-.653-.186-.987-.773-.987-.28 0-.56.067-.853.187C9.12 3.853 10.2 2.96 11.8 3.013c1.173.027 1.733.8 1.667 2.307z"/>
</svg>