<?xml version="1.0" encoding="UTF-8" standalone="no"?>
<svg
   xmlns="http://www.w3.org/2000/svg"
   viewbox="0 0 144 144"
   version="1.1">
  <g transform="matrix(0.95450435,0,0,0.95450435,18.499077,-1.4486262)">
    <path style="fill:#a92e34" d="m 52.08,127.72501 0,-108.035009 -15.345,0 0,110.205009 c 0,1.24 -0.31,2.17 -1.55,2.17 l -1.395,0 0,-112.375009 -15.345,0 0,112.375009 -1.705,0 c -0.93,0 -1.395,-0.77501 -1.395,-2.17 l 0,-110.205009 -15.345,0 0,107.880009 C 0,138.41998 5.5800109,144 16.43,144 l 19.22,0 c 11.469988,0 16.43,-6.04502 16.43,-16.275" />
    <path d="m 100.579,144 0,-121.075013 c 0,-0.890545 -0.27838,-1.948211 -0.835002,-3.173 -0.445369,-1.224542 -1.558709,-1.836874 -3.339999,-1.837 l -4.008,0 0,126.085013 -11.523,0 0,-126.085013 -4.342,0 c -1.67002,0 -2.783349,0.612458 -3.339999,1.837 -0.44535,1.224789 -0.66801,2.282455 -0.668,3.173 L 72.523,144 61,144 61,24.928987 c 0,-5.232543 1.22466,-9.017872 3.674,-11.356 2.44932,-2.449201 6.29032,-3.6738664 11.522999,-3.6740002 l 20.708,0 c 5.566621,0 9.463281,1.2804662 11.690001,3.8410002 2.33795,2.449461 3.50695,6.123457 3.507,11.022 l 0,119.238013 -11.523,0" />
  </g>
</svg>
