<?xml version="1.0" encoding="UTF-8" standalone="no"?>
<svg xmlns="http://www.w3.org/2000/svg" version="1.1" viewBox="0 0 16 16">
    <rect fill="rgb(255,255,255)" height="1px" width="1px" x="0px" y="0px"/>
    <rect fill="rgb(255,255,255)" height="1px" width="1px" x="1px" y="0px"/>
    <rect fill="rgb(255,255,255)" height="1px" width="1px" x="2px" y="0px"/>
    <rect fill="rgb(255,255,255)" height="1px" width="1px" x="3px" y="0px"/>
    <rect fill="rgb(255,255,255)" height="1px" width="1px" x="4px" y="0px"/>
    <rect fill="rgb(255,255,255)" height="1px" width="1px" x="5px" y="0px"/>
    <rect fill="rgb(255,255,255)" height="1px" width="1px" x="6px" y="0px"/>
    <rect fill="rgb(255,255,255)" height="1px" width="1px" x="7px" y="0px"/>
    <rect fill="rgb(255,255,255)" height="1px" width="1px" x="8px" y="0px"/>
    <rect fill="rgb(255,255,255)" height="1px" width="1px" x="9px" y="0px"/>
    <rect fill="rgb(255,255,255)" height="1px" width="1px" x="10px" y="0px"/>
    <rect fill="rgb(255,255,255)" height="1px" width="1px" x="11px" y="0px"/>
    <rect fill="rgb(255,255,255)" height="1px" width="1px" x="12px" y="0px"/>
    <rect fill="rgb(255,255,255)" height="1px" width="1px" x="13px" y="0px"/>
    <rect fill="rgb(255,255,255)" height="1px" width="1px" x="14px" y="0px"/>
    <rect fill="rgb(255,255,255)" height="1px" width="1px" x="15px" y="0px"/>
    <rect fill="rgb(255,255,255)" height="1px" width="1px" x="16px" y="0px"/>
    <rect fill="rgb(255,255,255)" height="1px" width="1px" x="17px" y="0px"/>
    <rect fill="rgb(255,255,255)" height="1px" width="1px" x="0px" y="1px"/>
    <rect fill="rgb(48,48,48)" height="1px" width="1px" x="1px" y="1px"/>
    <rect fill="rgb(255,255,255)" height="1px" width="1px" x="2px" y="1px"/>
    <rect fill="rgb(48,48,48)" height="1px" width="1px" x="3px" y="1px"/>
    <rect fill="rgb(255,255,255)" height="1px" width="1px" x="4px" y="1px"/>
    <rect fill="rgb(48,48,48)" height="1px" width="1px" x="5px" y="1px"/>
    <rect fill="rgb(255,255,255)" height="1px" width="1px" x="6px" y="1px"/>
    <rect fill="rgb(48,48,48)" height="1px" width="1px" x="7px" y="1px"/>
    <rect fill="rgb(255,255,255)" height="1px" width="1px" x="8px" y="1px"/>
    <rect fill="rgb(255,255,255)" height="1px" width="1px" x="9px" y="1px"/>
    <rect fill="rgb(48,48,48)" height="1px" width="1px" x="10px" y="1px"/>
    <rect fill="rgb(255,255,255)" height="1px" width="1px" x="11px" y="1px"/>
    <rect fill="rgb(48,48,48)" height="1px" width="1px" x="12px" y="1px"/>
    <rect fill="rgb(255,255,255)" height="1px" width="1px" x="13px" y="1px"/>
    <rect fill="rgb(48,48,48)" height="1px" width="1px" x="14px" y="1px"/>
    <rect fill="rgb(255,255,255)" height="1px" width="1px" x="15px" y="1px"/>
    <rect fill="rgb(48,48,48)" height="1px" width="1px" x="16px" y="1px"/>
    <rect fill="rgb(255,255,255)" height="1px" width="1px" x="17px" y="1px"/>
    <rect fill="rgb(255,255,255)" height="1px" width="1px" x="0px" y="2px"/>
    <rect fill="rgb(255,255,255)" height="1px" width="1px" x="1px" y="2px"/>
    <rect fill="rgb(255,255,255)" height="1px" width="1px" x="2px" y="2px"/>
    <rect fill="rgb(255,255,255)" height="1px" width="1px" x="3px" y="2px"/>
    <rect fill="rgb(255,255,255)" height="1px" width="1px" x="4px" y="2px"/>
    <rect fill="rgb(255,255,255)" height="1px" width="1px" x="5px" y="2px"/>
    <rect fill="rgb(255,255,255)" height="1px" width="1px" x="6px" y="2px"/>
    <rect fill="rgb(255,255,255)" height="1px" width="1px" x="7px" y="2px"/>
    <rect fill="rgb(255,255,255)" height="1px" width="1px" x="8px" y="2px"/>
    <rect fill="rgb(255,255,255)" height="1px" width="1px" x="9px" y="2px"/>
    <rect fill="rgb(255,255,255)" height="1px" width="1px" x="10px" y="2px"/>
    <rect fill="rgb(255,255,255)" height="1px" width="1px" x="11px" y="2px"/>
    <rect fill="rgb(255,255,255)" height="1px" width="1px" x="12px" y="2px"/>
    <rect fill="rgb(255,255,255)" height="1px" width="1px" x="13px" y="2px"/>
    <rect fill="rgb(255,255,255)" height="1px" width="1px" x="14px" y="2px"/>
    <rect fill="rgb(255,255,255)" height="1px" width="1px" x="15px" y="2px"/>
    <rect fill="rgb(255,255,255)" height="1px" width="1px" x="16px" y="2px"/>
    <rect fill="rgb(255,255,255)" height="1px" width="1px" x="17px" y="2px"/>
    <rect fill="rgb(255,255,255)" height="1px" width="1px" x="0px" y="3px"/>
    <rect fill="rgb(153,51,51)" height="1px" width="1px" x="1px" y="3px"/>
    <rect fill="rgb(153,51,51)" height="1px" width="1px" x="2px" y="3px"/>
    <rect fill="rgb(255,255,255)" height="1px" width="1px" x="3px" y="3px"/>
    <rect fill="rgb(153,51,51)" height="1px" width="1px" x="4px" y="3px"/>
    <rect fill="rgb(153,51,51)" height="1px" width="1px" x="5px" y="3px"/>
    <rect fill="rgb(255,255,255)" height="1px" width="1px" x="6px" y="3px"/>
    <rect fill="rgb(153,51,51)" height="1px" width="1px" x="7px" y="3px"/>
    <rect fill="rgb(153,51,51)" height="1px" width="1px" x="8px" y="3px"/>
    <rect fill="rgb(255,255,255)" height="1px" width="1px" x="9px" y="3px"/>
    <rect fill="rgb(48,48,48)" height="1px" width="1px" x="10px" y="3px"/>
    <rect fill="rgb(48,48,48)" height="1px" width="1px" x="11px" y="3px"/>
    <rect fill="rgb(48,48,48)" height="1px" width="1px" x="12px" y="3px"/>
    <rect fill="rgb(48,48,48)" height="1px" width="1px" x="13px" y="3px"/>
    <rect fill="rgb(48,48,48)" height="1px" width="1px" x="14px" y="3px"/>
    <rect fill="rgb(48,48,48)" height="1px" width="1px" x="15px" y="3px"/>
    <rect fill="rgb(255,255,255)" height="1px" width="1px" x="16px" y="3px"/>
    <rect fill="rgb(255,255,255)" height="1px" width="1px" x="17px" y="3px"/>
    <rect fill="rgb(255,255,255)" height="1px" width="1px" x="0px" y="4px"/>
    <rect fill="rgb(153,51,51)" height="1px" width="1px" x="1px" y="4px"/>
    <rect fill="rgb(153,51,51)" height="1px" width="1px" x="2px" y="4px"/>
    <rect fill="rgb(255,255,255)" height="1px" width="1px" x="3px" y="4px"/>
    <rect fill="rgb(153,51,51)" height="1px" width="1px" x="4px" y="4px"/>
    <rect fill="rgb(153,51,51)" height="1px" width="1px" x="5px" y="4px"/>
    <rect fill="rgb(255,255,255)" height="1px" width="1px" x="6px" y="4px"/>
    <rect fill="rgb(153,51,51)" height="1px" width="1px" x="7px" y="4px"/>
    <rect fill="rgb(153,51,51)" height="1px" width="1px" x="8px" y="4px"/>
    <rect fill="rgb(48,48,48)" height="1px" width="1px" x="9px" y="4px"/>
    <rect fill="rgb(48,48,48)" height="1px" width="1px" x="10px" y="4px"/>
    <rect fill="rgb(48,48,48)" height="1px" width="1px" x="11px" y="4px"/>
    <rect fill="rgb(48,48,48)" height="1px" width="1px" x="12px" y="4px"/>
    <rect fill="rgb(48,48,48)" height="1px" width="1px" x="13px" y="4px"/>
    <rect fill="rgb(48,48,48)" height="1px" width="1px" x="14px" y="4px"/>
    <rect fill="rgb(48,48,48)" height="1px" width="1px" x="15px" y="4px"/>
    <rect fill="rgb(48,48,48)" height="1px" width="1px" x="16px" y="4px"/>
    <rect fill="rgb(255,255,255)" height="1px" width="1px" x="17px" y="4px"/>
    <rect fill="rgb(255,255,255)" height="1px" width="1px" x="0px" y="5px"/>
    <rect fill="rgb(153,51,51)" height="1px" width="1px" x="1px" y="5px"/>
    <rect fill="rgb(153,51,51)" height="1px" width="1px" x="2px" y="5px"/>
    <rect fill="rgb(255,255,255)" height="1px" width="1px" x="3px" y="5px"/>
    <rect fill="rgb(153,51,51)" height="1px" width="1px" x="4px" y="5px"/>
    <rect fill="rgb(153,51,51)" height="1px" width="1px" x="5px" y="5px"/>
    <rect fill="rgb(255,255,255)" height="1px" width="1px" x="6px" y="5px"/>
    <rect fill="rgb(153,51,51)" height="1px" width="1px" x="7px" y="5px"/>
    <rect fill="rgb(153,51,51)" height="1px" width="1px" x="8px" y="5px"/>
    <rect fill="rgb(48,48,48)" height="1px" width="1px" x="9px" y="5px"/>
    <rect fill="rgb(48,48,48)" height="1px" width="1px" x="10px" y="5px"/>
    <rect fill="rgb(255,255,255)" height="1px" width="1px" x="11px" y="5px"/>
    <rect fill="rgb(48,48,48)" height="1px" width="1px" x="12px" y="5px"/>
    <rect fill="rgb(48,48,48)" height="1px" width="1px" x="13px" y="5px"/>
    <rect fill="rgb(255,255,255)" height="1px" width="1px" x="14px" y="5px"/>
    <rect fill="rgb(48,48,48)" height="1px" width="1px" x="15px" y="5px"/>
    <rect fill="rgb(48,48,48)" height="1px" width="1px" x="16px" y="5px"/>
    <rect fill="rgb(255,255,255)" height="1px" width="1px" x="17px" y="5px"/>
    <rect fill="rgb(255,255,255)" height="1px" width="1px" x="0px" y="6px"/>
    <rect fill="rgb(153,51,51)" height="1px" width="1px" x="1px" y="6px"/>
    <rect fill="rgb(153,51,51)" height="1px" width="1px" x="2px" y="6px"/>
    <rect fill="rgb(255,255,255)" height="1px" width="1px" x="3px" y="6px"/>
    <rect fill="rgb(153,51,51)" height="1px" width="1px" x="4px" y="6px"/>
    <rect fill="rgb(153,51,51)" height="1px" width="1px" x="5px" y="6px"/>
    <rect fill="rgb(255,255,255)" height="1px" width="1px" x="6px" y="6px"/>
    <rect fill="rgb(153,51,51)" height="1px" width="1px" x="7px" y="6px"/>
    <rect fill="rgb(153,51,51)" height="1px" width="1px" x="8px" y="6px"/>
    <rect fill="rgb(48,48,48)" height="1px" width="1px" x="9px" y="6px"/>
    <rect fill="rgb(48,48,48)" height="1px" width="1px" x="10px" y="6px"/>
    <rect fill="rgb(255,255,255)" height="1px" width="1px" x="11px" y="6px"/>
    <rect fill="rgb(48,48,48)" height="1px" width="1px" x="12px" y="6px"/>
    <rect fill="rgb(48,48,48)" height="1px" width="1px" x="13px" y="6px"/>
    <rect fill="rgb(255,255,255)" height="1px" width="1px" x="14px" y="6px"/>
    <rect fill="rgb(48,48,48)" height="1px" width="1px" x="15px" y="6px"/>
    <rect fill="rgb(48,48,48)" height="1px" width="1px" x="16px" y="6px"/>
    <rect fill="rgb(255,255,255)" height="1px" width="1px" x="17px" y="6px"/>
    <rect fill="rgb(255,255,255)" height="1px" width="1px" x="0px" y="7px"/>
    <rect fill="rgb(153,51,51)" height="1px" width="1px" x="1px" y="7px"/>
    <rect fill="rgb(153,51,51)" height="1px" width="1px" x="2px" y="7px"/>
    <rect fill="rgb(255,255,255)" height="1px" width="1px" x="3px" y="7px"/>
    <rect fill="rgb(153,51,51)" height="1px" width="1px" x="4px" y="7px"/>
    <rect fill="rgb(153,51,51)" height="1px" width="1px" x="5px" y="7px"/>
    <rect fill="rgb(255,255,255)" height="1px" width="1px" x="6px" y="7px"/>
    <rect fill="rgb(153,51,51)" height="1px" width="1px" x="7px" y="7px"/>
    <rect fill="rgb(153,51,51)" height="1px" width="1px" x="8px" y="7px"/>
    <rect fill="rgb(48,48,48)" height="1px" width="1px" x="9px" y="7px"/>
    <rect fill="rgb(48,48,48)" height="1px" width="1px" x="10px" y="7px"/>
    <rect fill="rgb(255,255,255)" height="1px" width="1px" x="11px" y="7px"/>
    <rect fill="rgb(48,48,48)" height="1px" width="1px" x="12px" y="7px"/>
    <rect fill="rgb(48,48,48)" height="1px" width="1px" x="13px" y="7px"/>
    <rect fill="rgb(255,255,255)" height="1px" width="1px" x="14px" y="7px"/>
    <rect fill="rgb(48,48,48)" height="1px" width="1px" x="15px" y="7px"/>
    <rect fill="rgb(48,48,48)" height="1px" width="1px" x="16px" y="7px"/>
    <rect fill="rgb(255,255,255)" height="1px" width="1px" x="17px" y="7px"/>
    <rect fill="rgb(255,255,255)" height="1px" width="1px" x="0px" y="8px"/>
    <rect fill="rgb(153,51,51)" height="1px" width="1px" x="1px" y="8px"/>
    <rect fill="rgb(153,51,51)" height="1px" width="1px" x="2px" y="8px"/>
    <rect fill="rgb(255,255,255)" height="1px" width="1px" x="3px" y="8px"/>
    <rect fill="rgb(153,51,51)" height="1px" width="1px" x="4px" y="8px"/>
    <rect fill="rgb(153,51,51)" height="1px" width="1px" x="5px" y="8px"/>
    <rect fill="rgb(255,255,255)" height="1px" width="1px" x="6px" y="8px"/>
    <rect fill="rgb(153,51,51)" height="1px" width="1px" x="7px" y="8px"/>
    <rect fill="rgb(153,51,51)" height="1px" width="1px" x="8px" y="8px"/>
    <rect fill="rgb(48,48,48)" height="1px" width="1px" x="9px" y="8px"/>
    <rect fill="rgb(48,48,48)" height="1px" width="1px" x="10px" y="8px"/>
    <rect fill="rgb(255,255,255)" height="1px" width="1px" x="11px" y="8px"/>
    <rect fill="rgb(48,48,48)" height="1px" width="1px" x="12px" y="8px"/>
    <rect fill="rgb(48,48,48)" height="1px" width="1px" x="13px" y="8px"/>
    <rect fill="rgb(255,255,255)" height="1px" width="1px" x="14px" y="8px"/>
    <rect fill="rgb(48,48,48)" height="1px" width="1px" x="15px" y="8px"/>
    <rect fill="rgb(48,48,48)" height="1px" width="1px" x="16px" y="8px"/>
    <rect fill="rgb(255,255,255)" height="1px" width="1px" x="17px" y="8px"/>
    <rect fill="rgb(255,255,255)" height="1px" width="1px" x="0px" y="9px"/>
    <rect fill="rgb(153,51,51)" height="1px" width="1px" x="1px" y="9px"/>
    <rect fill="rgb(153,51,51)" height="1px" width="1px" x="2px" y="9px"/>
    <rect fill="rgb(255,255,255)" height="1px" width="1px" x="3px" y="9px"/>
    <rect fill="rgb(153,51,51)" height="1px" width="1px" x="4px" y="9px"/>
    <rect fill="rgb(153,51,51)" height="1px" width="1px" x="5px" y="9px"/>
    <rect fill="rgb(255,255,255)" height="1px" width="1px" x="6px" y="9px"/>
    <rect fill="rgb(153,51,51)" height="1px" width="1px" x="7px" y="9px"/>
    <rect fill="rgb(153,51,51)" height="1px" width="1px" x="8px" y="9px"/>
    <rect fill="rgb(48,48,48)" height="1px" width="1px" x="9px" y="9px"/>
    <rect fill="rgb(48,48,48)" height="1px" width="1px" x="10px" y="9px"/>
    <rect fill="rgb(255,255,255)" height="1px" width="1px" x="11px" y="9px"/>
    <rect fill="rgb(48,48,48)" height="1px" width="1px" x="12px" y="9px"/>
    <rect fill="rgb(48,48,48)" height="1px" width="1px" x="13px" y="9px"/>
    <rect fill="rgb(255,255,255)" height="1px" width="1px" x="14px" y="9px"/>
    <rect fill="rgb(48,48,48)" height="1px" width="1px" x="15px" y="9px"/>
    <rect fill="rgb(48,48,48)" height="1px" width="1px" x="16px" y="9px"/>
    <rect fill="rgb(255,255,255)" height="1px" width="1px" x="17px" y="9px"/>
    <rect fill="rgb(255,255,255)" height="1px" width="1px" x="0px" y="10px"/>
    <rect fill="rgb(153,51,51)" height="1px" width="1px" x="1px" y="10px"/>
    <rect fill="rgb(153,51,51)" height="1px" width="1px" x="2px" y="10px"/>
    <rect fill="rgb(255,255,255)" height="1px" width="1px" x="3px" y="10px"/>
    <rect fill="rgb(153,51,51)" height="1px" width="1px" x="4px" y="10px"/>
    <rect fill="rgb(153,51,51)" height="1px" width="1px" x="5px" y="10px"/>
    <rect fill="rgb(255,255,255)" height="1px" width="1px" x="6px" y="10px"/>
    <rect fill="rgb(153,51,51)" height="1px" width="1px" x="7px" y="10px"/>
    <rect fill="rgb(153,51,51)" height="1px" width="1px" x="8px" y="10px"/>
    <rect fill="rgb(48,48,48)" height="1px" width="1px" x="9px" y="10px"/>
    <rect fill="rgb(48,48,48)" height="1px" width="1px" x="10px" y="10px"/>
    <rect fill="rgb(255,255,255)" height="1px" width="1px" x="11px" y="10px"/>
    <rect fill="rgb(48,48,48)" height="1px" width="1px" x="12px" y="10px"/>
    <rect fill="rgb(48,48,48)" height="1px" width="1px" x="13px" y="10px"/>
    <rect fill="rgb(255,255,255)" height="1px" width="1px" x="14px" y="10px"/>
    <rect fill="rgb(48,48,48)" height="1px" width="1px" x="15px" y="10px"/>
    <rect fill="rgb(48,48,48)" height="1px" width="1px" x="16px" y="10px"/>
    <rect fill="rgb(255,255,255)" height="1px" width="1px" x="17px" y="10px"/>
    <rect fill="rgb(255,255,255)" height="1px" width="1px" x="0px" y="11px"/>
    <rect fill="rgb(153,51,51)" height="1px" width="1px" x="1px" y="11px"/>
    <rect fill="rgb(153,51,51)" height="1px" width="1px" x="2px" y="11px"/>
    <rect fill="rgb(255,255,255)" height="1px" width="1px" x="3px" y="11px"/>
    <rect fill="rgb(153,51,51)" height="1px" width="1px" x="4px" y="11px"/>
    <rect fill="rgb(153,51,51)" height="1px" width="1px" x="5px" y="11px"/>
    <rect fill="rgb(255,255,255)" height="1px" width="1px" x="6px" y="11px"/>
    <rect fill="rgb(153,51,51)" height="1px" width="1px" x="7px" y="11px"/>
    <rect fill="rgb(153,51,51)" height="1px" width="1px" x="8px" y="11px"/>
    <rect fill="rgb(48,48,48)" height="1px" width="1px" x="9px" y="11px"/>
    <rect fill="rgb(48,48,48)" height="1px" width="1px" x="10px" y="11px"/>
    <rect fill="rgb(255,255,255)" height="1px" width="1px" x="11px" y="11px"/>
    <rect fill="rgb(48,48,48)" height="1px" width="1px" x="12px" y="11px"/>
    <rect fill="rgb(48,48,48)" height="1px" width="1px" x="13px" y="11px"/>
    <rect fill="rgb(255,255,255)" height="1px" width="1px" x="14px" y="11px"/>
    <rect fill="rgb(48,48,48)" height="1px" width="1px" x="15px" y="11px"/>
    <rect fill="rgb(48,48,48)" height="1px" width="1px" x="16px" y="11px"/>
    <rect fill="rgb(255,255,255)" height="1px" width="1px" x="17px" y="11px"/>
    <rect fill="rgb(255,255,255)" height="1px" width="1px" x="0px" y="12px"/>
    <rect fill="rgb(153,51,51)" height="1px" width="1px" x="1px" y="12px"/>
    <rect fill="rgb(153,51,51)" height="1px" width="1px" x="2px" y="12px"/>
    <rect fill="rgb(255,255,255)" height="1px" width="1px" x="3px" y="12px"/>
    <rect fill="rgb(153,51,51)" height="1px" width="1px" x="4px" y="12px"/>
    <rect fill="rgb(153,51,51)" height="1px" width="1px" x="5px" y="12px"/>
    <rect fill="rgb(255,255,255)" height="1px" width="1px" x="6px" y="12px"/>
    <rect fill="rgb(153,51,51)" height="1px" width="1px" x="7px" y="12px"/>
    <rect fill="rgb(153,51,51)" height="1px" width="1px" x="8px" y="12px"/>
    <rect fill="rgb(48,48,48)" height="1px" width="1px" x="9px" y="12px"/>
    <rect fill="rgb(48,48,48)" height="1px" width="1px" x="10px" y="12px"/>
    <rect fill="rgb(255,255,255)" height="1px" width="1px" x="11px" y="12px"/>
    <rect fill="rgb(48,48,48)" height="1px" width="1px" x="12px" y="12px"/>
    <rect fill="rgb(48,48,48)" height="1px" width="1px" x="13px" y="12px"/>
    <rect fill="rgb(255,255,255)" height="1px" width="1px" x="14px" y="12px"/>
    <rect fill="rgb(48,48,48)" height="1px" width="1px" x="15px" y="12px"/>
    <rect fill="rgb(48,48,48)" height="1px" width="1px" x="16px" y="12px"/>
    <rect fill="rgb(255,255,255)" height="1px" width="1px" x="17px" y="12px"/>
    <rect fill="rgb(255,255,255)" height="1px" width="1px" x="0px" y="13px"/>
    <rect fill="rgb(153,51,51)" height="1px" width="1px" x="1px" y="13px"/>
    <rect fill="rgb(153,51,51)" height="1px" width="1px" x="2px" y="13px"/>
    <rect fill="rgb(153,51,51)" height="1px" width="1px" x="3px" y="13px"/>
    <rect fill="rgb(153,51,51)" height="1px" width="1px" x="4px" y="13px"/>
    <rect fill="rgb(153,51,51)" height="1px" width="1px" x="5px" y="13px"/>
    <rect fill="rgb(153,51,51)" height="1px" width="1px" x="6px" y="13px"/>
    <rect fill="rgb(153,51,51)" height="1px" width="1px" x="7px" y="13px"/>
    <rect fill="rgb(153,51,51)" height="1px" width="1px" x="8px" y="13px"/>
    <rect fill="rgb(48,48,48)" height="1px" width="1px" x="9px" y="13px"/>
    <rect fill="rgb(48,48,48)" height="1px" width="1px" x="10px" y="13px"/>
    <rect fill="rgb(255,255,255)" height="1px" width="1px" x="11px" y="13px"/>
    <rect fill="rgb(48,48,48)" height="1px" width="1px" x="12px" y="13px"/>
    <rect fill="rgb(48,48,48)" height="1px" width="1px" x="13px" y="13px"/>
    <rect fill="rgb(255,255,255)" height="1px" width="1px" x="14px" y="13px"/>
    <rect fill="rgb(48,48,48)" height="1px" width="1px" x="15px" y="13px"/>
    <rect fill="rgb(48,48,48)" height="1px" width="1px" x="16px" y="13px"/>
    <rect fill="rgb(255,255,255)" height="1px" width="1px" x="17px" y="13px"/>
    <rect fill="rgb(255,255,255)" height="1px" width="1px" x="0px" y="14px"/>
    <rect fill="rgb(255,255,255)" height="1px" width="1px" x="1px" y="14px"/>
    <rect fill="rgb(153,51,51)" height="1px" width="1px" x="2px" y="14px"/>
    <rect fill="rgb(153,51,51)" height="1px" width="1px" x="3px" y="14px"/>
    <rect fill="rgb(153,51,51)" height="1px" width="1px" x="4px" y="14px"/>
    <rect fill="rgb(153,51,51)" height="1px" width="1px" x="5px" y="14px"/>
    <rect fill="rgb(153,51,51)" height="1px" width="1px" x="6px" y="14px"/>
    <rect fill="rgb(153,51,51)" height="1px" width="1px" x="7px" y="14px"/>
    <rect fill="rgb(255,255,255)" height="1px" width="1px" x="8px" y="14px"/>
    <rect fill="rgb(48,48,48)" height="1px" width="1px" x="9px" y="14px"/>
    <rect fill="rgb(48,48,48)" height="1px" width="1px" x="10px" y="14px"/>
    <rect fill="rgb(255,255,255)" height="1px" width="1px" x="11px" y="14px"/>
    <rect fill="rgb(48,48,48)" height="1px" width="1px" x="12px" y="14px"/>
    <rect fill="rgb(48,48,48)" height="1px" width="1px" x="13px" y="14px"/>
    <rect fill="rgb(255,255,255)" height="1px" width="1px" x="14px" y="14px"/>
    <rect fill="rgb(48,48,48)" height="1px" width="1px" x="15px" y="14px"/>
    <rect fill="rgb(48,48,48)" height="1px" width="1px" x="16px" y="14px"/>
    <rect fill="rgb(255,255,255)" height="1px" width="1px" x="17px" y="14px"/>
    <rect fill="rgb(255,255,255)" height="1px" width="1px" x="0px" y="15px"/>
    <rect fill="rgb(255,255,255)" height="1px" width="1px" x="1px" y="15px"/>
    <rect fill="rgb(255,255,255)" height="1px" width="1px" x="2px" y="15px"/>
    <rect fill="rgb(255,255,255)" height="1px" width="1px" x="3px" y="15px"/>
    <rect fill="rgb(255,255,255)" height="1px" width="1px" x="4px" y="15px"/>
    <rect fill="rgb(255,255,255)" height="1px" width="1px" x="5px" y="15px"/>
    <rect fill="rgb(255,255,255)" height="1px" width="1px" x="6px" y="15px"/>
    <rect fill="rgb(255,255,255)" height="1px" width="1px" x="7px" y="15px"/>
    <rect fill="rgb(255,255,255)" height="1px" width="1px" x="8px" y="15px"/>
    <rect fill="rgb(255,255,255)" height="1px" width="1px" x="9px" y="15px"/>
    <rect fill="rgb(255,255,255)" height="1px" width="1px" x="10px" y="15px"/>
    <rect fill="rgb(255,255,255)" height="1px" width="1px" x="11px" y="15px"/>
    <rect fill="rgb(255,255,255)" height="1px" width="1px" x="12px" y="15px"/>
    <rect fill="rgb(255,255,255)" height="1px" width="1px" x="13px" y="15px"/>
    <rect fill="rgb(255,255,255)" height="1px" width="1px" x="14px" y="15px"/>
    <rect fill="rgb(255,255,255)" height="1px" width="1px" x="15px" y="15px"/>
    <rect fill="rgb(255,255,255)" height="1px" width="1px" x="16px" y="15px"/>
    <rect fill="rgb(255,255,255)" height="1px" width="1px" x="17px" y="15px"/>
</svg>