<svg xmlns="http://www.w3.org/2000/svg" width="32" height="32" viewBox="0 0 32 32">
    <path d="M30.21 7.3c0 .1-.03.2-.1.28-.06.08-.12.13-.2.13a2.7 2.7 0 0 0-1.54.6c-.4.33-.8.99-1.22 1.95L20.7 24.8c-.04.14-.16.2-.36.2a.41.41 0 0 1-.35-.2l-3.62-7.56-4.16 7.56a.4.4 0 0 1-.36.2c-.19 0-.3-.07-.37-.2L5.15 10.26c-.4-.9-.81-1.53-1.25-1.88s-1.05-.59-1.83-.67c-.07 0-.13-.03-.19-.1a.34.34 0 0 1-.09-.25c0-.23.07-.35.2-.35.57 0 1.16.02 1.78.07a18.7 18.7 0 0 0 3.44 0 28.6 28.6 0 0 1 1.95-.07c.14 0 .2.12.2.35s-.04.35-.12.35c-.56.05-1.01.2-1.34.43s-.49.57-.49.97c0 .2.07.45.2.75l5.23 11.83 2.98-5.61-2.77-5.81c-.5-1.04-.9-1.7-1.22-2s-.81-.49-1.46-.56c-.06 0-.11-.03-.17-.1s-.08-.15-.08-.25c0-.23.06-.35.17-.35.57 0 1.09.02 1.56.07a13.4 13.4 0 0 0 3.06 0 20.1 20.1 0 0 1 1.72-.07c.14 0 .2.12.2.35s-.04.35-.12.35c-1.13.08-1.7.4-1.7.97 0 .25.13.64.4 1.17l1.83 3.72 1.82-3.4c.25-.48.38-.89.38-1.21 0-.78-.56-1.19-1.69-1.24-.1 0-.15-.12-.15-.35 0-.09.02-.16.07-.24s.1-.1.15-.1c.41 0 .9.02 1.5.07.56.05 1.03.07 1.4.07.25 0 .64-.02 1.14-.06.64-.06 1.18-.09 1.6-.09.1 0 .16.1.16.3 0 .27-.1.4-.28.4-.65.08-1.18.26-1.58.55s-.9.96-1.5 2.01l-2.45 4.48 3.3 6.7 4.85-11.3c.17-.4.25-.79.25-1.13 0-.83-.57-1.27-1.7-1.32-.1 0-.15-.12-.15-.35 0-.24.08-.36.23-.36.41 0 .9.03 1.47.08a12.75 12.75 0 0 0 2.6 0c.5-.05.96-.08 1.37-.08.12 0 .18.1.18.3z"/>
</svg>