<svg xmlns="http://www.w3.org/2000/svg" viewBox="0 0 16 16">
  <path d="M0 0h16v16H0z"/>
  <path clip-rule="evenodd" fill="red" fill-rule="evenodd" image-rendering="optimizeQuality" shape-rendering="geometricPrecision" text-rendering="geometricPrecision" d="M16 5L5 16h2.063L16 7.062z"/>
  <path clip-rule="evenodd" fill="#ffc800" fill-rule="evenodd" image-rendering="optimizeQuality" shape-rendering="geometricPrecision" text-rendering="geometricPrecision" d="M16 7.063L7.062 16h2.063L16 9.125z"/>
  <path clip-rule="evenodd" fill="green" fill-rule="evenodd" image-rendering="optimizeQuality" shape-rendering="geometricPrecision" text-rendering="geometricPrecision" d="M16 9.125L9.125 16h2.063L16 11.187z"/>
  <path clip-rule="evenodd" fill="#00f" fill-rule="evenodd" image-rendering="optimizeQuality" shape-rendering="geometricPrecision" text-rendering="geometricPrecision" d="M16 11.188L11.187 16h2.063L16 13.25z"/>
  <path d="M1 5v1h4v1H4v1H3v1H2v1H1v1h9v-1h1V9h1v1h1v1h2v-1h-1V9h-1V7h1V6h1V5h-2v1h-1v1h-1V6h-1V5H1zm6 1h2v1h1v2H9v1H4V9h1V8h1V7h1V6z" fill="#fff"/>
</svg>