<?xml version="1.0" encoding="utf-8" ?>
<svg baseProfile="full" height="16px" version="1.1" width="16px" xmlns="http://www.w3.org/2000/svg" xmlns:ev="http://www.w3.org/2001/xml-events" xmlns:xlink="http://www.w3.org/1999/xlink"><defs /><rect fill="rgb(76,90,116)" height="1px" width="1px" x="0px" y="0px" /><rect fill="rgb(76,90,116)" height="1px" width="1px" x="1px" y="0px" /><rect fill="rgb(76,90,116)" height="1px" width="1px" x="2px" y="0px" /><rect fill="rgb(76,90,116)" height="1px" width="1px" x="3px" y="0px" /><rect fill="rgb(76,90,116)" height="1px" width="1px" x="4px" y="0px" /><rect fill="rgb(76,90,116)" height="1px" width="1px" x="5px" y="0px" /><rect fill="rgb(76,90,116)" height="1px" width="1px" x="6px" y="0px" /><rect fill="rgb(76,90,116)" height="1px" width="1px" x="7px" y="0px" /><rect fill="rgb(76,90,116)" height="1px" width="1px" x="8px" y="0px" /><rect fill="rgb(76,90,116)" height="1px" width="1px" x="9px" y="0px" /><rect fill="rgb(76,90,116)" height="1px" width="1px" x="10px" y="0px" /><rect fill="rgb(76,90,116)" height="1px" width="1px" x="11px" y="0px" /><rect fill="rgb(76,90,116)" height="1px" width="1px" x="12px" y="0px" /><rect fill="rgb(76,90,116)" height="1px" width="1px" x="13px" y="0px" /><rect fill="rgb(76,90,116)" height="1px" width="1px" x="14px" y="0px" /><rect fill="rgb(76,90,116)" height="1px" width="1px" x="15px" y="0px" /><rect fill="rgb(76,90,116)" height="1px" width="1px" x="0px" y="1px" /><rect fill="rgb(68,86,124)" height="1px" width="1px" x="1px" y="1px" /><rect fill="rgb(60,86,124)" height="1px" width="1px" x="2px" y="1px" /><rect fill="rgb(60,86,124)" height="1px" width="1px" x="3px" y="1px" /><rect fill="rgb(60,86,124)" height="1px" width="1px" x="4px" y="1px" /><rect fill="rgb(60,86,124)" height="1px" width="1px" x="5px" y="1px" /><rect fill="rgb(60,86,124)" height="1px" width="1px" x="6px" y="1px" /><rect fill="rgb(60,86,124)" height="1px" width="1px" x="7px" y="1px" /><rect fill="rgb(60,86,124)" height="1px" width="1px" x="8px" y="1px" /><rect fill="rgb(60,86,124)" height="1px" width="1px" x="9px" y="1px" /><rect fill="rgb(60,86,124)" height="1px" width="1px" x="10px" y="1px" /><rect fill="rgb(60,86,124)" height="1px" width="1px" x="11px" y="1px" /><rect fill="rgb(60,86,124)" height="1px" width="1px" x="12px" y="1px" /><rect fill="rgb(60,86,124)" height="1px" width="1px" x="13px" y="1px" /><rect fill="rgb(68,86,124)" height="1px" width="1px" x="14px" y="1px" /><rect fill="rgb(76,90,116)" height="1px" width="1px" x="15px" y="1px" /><rect fill="rgb(108,102,100)" height="1px" width="1px" x="0px" y="2px" /><rect fill="rgb(228,146,28)" height="1px" width="1px" x="1px" y="2px" /><rect fill="rgb(220,146,28)" height="1px" width="1px" x="2px" y="2px" /><rect fill="rgb(220,142,20)" height="1px" width="1px" x="3px" y="2px" /><rect fill="rgb(220,142,20)" height="1px" width="1px" x="4px" y="2px" /><rect fill="rgb(220,142,20)" height="1px" width="1px" x="5px" y="2px" /><rect fill="rgb(220,146,28)" height="1px" width="1px" x="6px" y="2px" /><rect fill="rgb(220,146,28)" height="1px" width="1px" x="7px" y="2px" /><rect fill="rgb(220,146,28)" height="1px" width="1px" x="8px" y="2px" /><rect fill="rgb(220,142,20)" height="1px" width="1px" x="9px" y="2px" /><rect fill="rgb(220,146,28)" height="1px" width="1px" x="10px" y="2px" /><rect fill="rgb(220,146,28)" height="1px" width="1px" x="11px" y="2px" /><rect fill="rgb(220,146,20)" height="1px" width="1px" x="12px" y="2px" /><rect fill="rgb(220,146,28)" height="1px" width="1px" x="13px" y="2px" /><rect fill="rgb(228,146,28)" height="1px" width="1px" x="14px" y="2px" /><rect fill="rgb(108,102,100)" height="1px" width="1px" x="15px" y="2px" /><rect fill="rgb(164,126,60)" height="1px" width="1px" x="0px" y="3px" /><rect fill="rgb(252,162,4)" height="1px" width="1px" x="1px" y="3px" /><rect fill="rgb(252,194,92)" height="1px" width="1px" x="2px" y="3px" /><rect fill="rgb(252,206,124)" height="1px" width="1px" x="3px" y="3px" /><rect fill="rgb(252,202,116)" height="1px" width="1px" x="4px" y="3px" /><rect fill="rgb(252,202,116)" height="1px" width="1px" x="5px" y="3px" /><rect fill="rgb(252,186,76)" height="1px" width="1px" x="6px" y="3px" /><rect fill="rgb(252,154,4)" height="1px" width="1px" x="7px" y="3px" /><rect fill="rgb(252,194,92)" height="1px" width="1px" x="8px" y="3px" /><rect fill="rgb(252,206,124)" height="1px" width="1px" x="9px" y="3px" /><rect fill="rgb(252,170,36)" height="1px" width="1px" x="10px" y="3px" /><rect fill="rgb(252,166,20)" height="1px" width="1px" x="11px" y="3px" /><rect fill="rgb(252,202,124)" height="1px" width="1px" x="12px" y="3px" /><rect fill="rgb(252,190,84)" height="1px" width="1px" x="13px" y="3px" /><rect fill="rgb(252,162,4)" height="1px" width="1px" x="14px" y="3px" /><rect fill="rgb(164,126,60)" height="1px" width="1px" x="15px" y="3px" /><rect fill="rgb(164,126,60)" height="1px" width="1px" x="0px" y="4px" /><rect fill="rgb(252,158,4)" height="1px" width="1px" x="1px" y="4px" /><rect fill="rgb(252,218,156)" height="1px" width="1px" x="2px" y="4px" /><rect fill="rgb(252,238,212)" height="1px" width="1px" x="3px" y="4px" /><rect fill="rgb(252,254,252)" height="1px" width="1px" x="4px" y="4px" /><rect fill="rgb(252,254,252)" height="1px" width="1px" x="5px" y="4px" /><rect fill="rgb(252,222,172)" height="1px" width="1px" x="6px" y="4px" /><rect fill="rgb(252,150,4)" height="1px" width="1px" x="7px" y="4px" /><rect fill="rgb(252,206,132)" height="1px" width="1px" x="8px" y="4px" /><rect fill="rgb(252,254,252)" height="1px" width="1px" x="9px" y="4px" /><rect fill="rgb(252,210,140)" height="1px" width="1px" x="10px" y="4px" /><rect fill="rgb(252,202,124)" height="1px" width="1px" x="11px" y="4px" /><rect fill="rgb(252,254,252)" height="1px" width="1px" x="12px" y="4px" /><rect fill="rgb(252,198,116)" height="1px" width="1px" x="13px" y="4px" /><rect fill="rgb(252,158,4)" height="1px" width="1px" x="14px" y="4px" /><rect fill="rgb(164,126,60)" height="1px" width="1px" x="15px" y="4px" /><rect fill="rgb(164,126,60)" height="1px" width="1px" x="0px" y="5px" /><rect fill="rgb(252,158,4)" height="1px" width="1px" x="1px" y="5px" /><rect fill="rgb(252,154,4)" height="1px" width="1px" x="2px" y="5px" /><rect fill="rgb(252,154,4)" height="1px" width="1px" x="3px" y="5px" /><rect fill="rgb(252,234,204)" height="1px" width="1px" x="4px" y="5px" /><rect fill="rgb(252,254,252)" height="1px" width="1px" x="5px" y="5px" /><rect fill="rgb(252,194,100)" height="1px" width="1px" x="6px" y="5px" /><rect fill="rgb(252,154,4)" height="1px" width="1px" x="7px" y="5px" /><rect fill="rgb(252,174,44)" height="1px" width="1px" x="8px" y="5px" /><rect fill="rgb(252,254,252)" height="1px" width="1px" x="9px" y="5px" /><rect fill="rgb(252,234,204)" height="1px" width="1px" x="10px" y="5px" /><rect fill="rgb(252,238,212)" height="1px" width="1px" x="11px" y="5px" /><rect fill="rgb(252,254,252)" height="1px" width="1px" x="12px" y="5px" /><rect fill="rgb(252,162,20)" height="1px" width="1px" x="13px" y="5px" /><rect fill="rgb(252,158,4)" height="1px" width="1px" x="14px" y="5px" /><rect fill="rgb(164,126,60)" height="1px" width="1px" x="15px" y="5px" /><rect fill="rgb(164,126,60)" height="1px" width="1px" x="0px" y="6px" /><rect fill="rgb(252,162,4)" height="1px" width="1px" x="1px" y="6px" /><rect fill="rgb(252,154,4)" height="1px" width="1px" x="2px" y="6px" /><rect fill="rgb(252,174,52)" height="1px" width="1px" x="3px" y="6px" /><rect fill="rgb(252,254,252)" height="1px" width="1px" x="4px" y="6px" /><rect fill="rgb(252,250,244)" height="1px" width="1px" x="5px" y="6px" /><rect fill="rgb(252,166,28)" height="1px" width="1px" x="6px" y="6px" /><rect fill="rgb(252,154,4)" height="1px" width="1px" x="7px" y="6px" /><rect fill="rgb(252,154,4)" height="1px" width="1px" x="8px" y="6px" /><rect fill="rgb(252,238,212)" height="1px" width="1px" x="9px" y="6px" /><rect fill="rgb(252,254,252)" height="1px" width="1px" x="10px" y="6px" /><rect fill="rgb(252,254,252)" height="1px" width="1px" x="11px" y="6px" /><rect fill="rgb(252,226,180)" height="1px" width="1px" x="12px" y="6px" /><rect fill="rgb(252,154,4)" height="1px" width="1px" x="13px" y="6px" /><rect fill="rgb(252,162,4)" height="1px" width="1px" x="14px" y="6px" /><rect fill="rgb(164,126,60)" height="1px" width="1px" x="15px" y="6px" /><rect fill="rgb(164,126,60)" height="1px" width="1px" x="0px" y="7px" /><rect fill="rgb(252,162,4)" height="1px" width="1px" x="1px" y="7px" /><rect fill="rgb(252,154,4)" height="1px" width="1px" x="2px" y="7px" /><rect fill="rgb(252,210,148)" height="1px" width="1px" x="3px" y="7px" /><rect fill="rgb(252,254,252)" height="1px" width="1px" x="4px" y="7px" /><rect fill="rgb(252,222,180)" height="1px" width="1px" x="5px" y="7px" /><rect fill="rgb(252,154,4)" height="1px" width="1px" x="6px" y="7px" /><rect fill="rgb(252,158,12)" height="1px" width="1px" x="7px" y="7px" /><rect fill="rgb(252,150,4)" height="1px" width="1px" x="8px" y="7px" /><rect fill="rgb(252,222,180)" height="1px" width="1px" x="9px" y="7px" /><rect fill="rgb(252,254,252)" height="1px" width="1px" x="10px" y="7px" /><rect fill="rgb(252,254,252)" height="1px" width="1px" x="11px" y="7px" /><rect fill="rgb(252,194,100)" height="1px" width="1px" x="12px" y="7px" /><rect fill="rgb(252,154,4)" height="1px" width="1px" x="13px" y="7px" /><rect fill="rgb(252,162,4)" height="1px" width="1px" x="14px" y="7px" /><rect fill="rgb(164,126,60)" height="1px" width="1px" x="15px" y="7px" /><rect fill="rgb(164,126,60)" height="1px" width="1px" x="0px" y="8px" /><rect fill="rgb(252,158,4)" height="1px" width="1px" x="1px" y="8px" /><rect fill="rgb(252,158,12)" height="1px" width="1px" x="2px" y="8px" /><rect fill="rgb(252,250,236)" height="1px" width="1px" x="3px" y="8px" /><rect fill="rgb(252,254,252)" height="1px" width="1px" x="4px" y="8px" /><rect fill="rgb(252,182,76)" height="1px" width="1px" x="5px" y="8px" /><rect fill="rgb(252,154,4)" height="1px" width="1px" x="6px" y="8px" /><rect fill="rgb(252,158,12)" height="1px" width="1px" x="7px" y="8px" /><rect fill="rgb(252,158,12)" height="1px" width="1px" x="8px" y="8px" /><rect fill="rgb(252,246,228)" height="1px" width="1px" x="9px" y="8px" /><rect fill="rgb(252,254,252)" height="1px" width="1px" x="10px" y="8px" /><rect fill="rgb(252,254,252)" height="1px" width="1px" x="11px" y="8px" /><rect fill="rgb(252,214,148)" height="1px" width="1px" x="12px" y="8px" /><rect fill="rgb(252,154,4)" height="1px" width="1px" x="13px" y="8px" /><rect fill="rgb(252,162,4)" height="1px" width="1px" x="14px" y="8px" /><rect fill="rgb(164,126,60)" height="1px" width="1px" x="15px" y="8px" /><rect fill="rgb(164,126,60)" height="1px" width="1px" x="0px" y="9px" /><rect fill="rgb(252,158,4)" height="1px" width="1px" x="1px" y="9px" /><rect fill="rgb(252,182,68)" height="1px" width="1px" x="2px" y="9px" /><rect fill="rgb(252,254,252)" height="1px" width="1px" x="3px" y="9px" /><rect fill="rgb(252,246,236)" height="1px" width="1px" x="4px" y="9px" /><rect fill="rgb(252,158,12)" height="1px" width="1px" x="5px" y="9px" /><rect fill="rgb(252,158,12)" height="1px" width="1px" x="6px" y="9px" /><rect fill="rgb(252,154,4)" height="1px" width="1px" x="7px" y="9px" /><rect fill="rgb(252,182,68)" height="1px" width="1px" x="8px" y="9px" /><rect fill="rgb(252,254,252)" height="1px" width="1px" x="9px" y="9px" /><rect fill="rgb(252,250,244)" height="1px" width="1px" x="10px" y="9px" /><rect fill="rgb(252,254,252)" height="1px" width="1px" x="11px" y="9px" /><rect fill="rgb(252,246,236)" height="1px" width="1px" x="12px" y="9px" /><rect fill="rgb(252,158,12)" height="1px" width="1px" x="13px" y="9px" /><rect fill="rgb(252,162,4)" height="1px" width="1px" x="14px" y="9px" /><rect fill="rgb(164,126,60)" height="1px" width="1px" x="15px" y="9px" /><rect fill="rgb(164,126,60)" height="1px" width="1px" x="0px" y="10px" /><rect fill="rgb(252,158,4)" height="1px" width="1px" x="1px" y="10px" /><rect fill="rgb(252,218,164)" height="1px" width="1px" x="2px" y="10px" /><rect fill="rgb(252,254,252)" height="1px" width="1px" x="3px" y="10px" /><rect fill="rgb(252,210,140)" height="1px" width="1px" x="4px" y="10px" /><rect fill="rgb(252,146,4)" height="1px" width="1px" x="5px" y="10px" /><rect fill="rgb(252,154,4)" height="1px" width="1px" x="6px" y="10px" /><rect fill="rgb(252,150,4)" height="1px" width="1px" x="7px" y="10px" /><rect fill="rgb(252,214,156)" height="1px" width="1px" x="8px" y="10px" /><rect fill="rgb(252,254,252)" height="1px" width="1px" x="9px" y="10px" /><rect fill="rgb(252,198,108)" height="1px" width="1px" x="10px" y="10px" /><rect fill="rgb(252,250,236)" height="1px" width="1px" x="11px" y="10px" /><rect fill="rgb(252,254,252)" height="1px" width="1px" x="12px" y="10px" /><rect fill="rgb(252,178,60)" height="1px" width="1px" x="13px" y="10px" /><rect fill="rgb(252,158,4)" height="1px" width="1px" x="14px" y="10px" /><rect fill="rgb(164,126,60)" height="1px" width="1px" x="15px" y="10px" /><rect fill="rgb(164,126,60)" height="1px" width="1px" x="0px" y="11px" /><rect fill="rgb(252,162,4)" height="1px" width="1px" x="1px" y="11px" /><rect fill="rgb(252,250,236)" height="1px" width="1px" x="2px" y="11px" /><rect fill="rgb(252,254,252)" height="1px" width="1px" x="3px" y="11px" /><rect fill="rgb(252,246,228)" height="1px" width="1px" x="4px" y="11px" /><rect fill="rgb(252,238,212)" height="1px" width="1px" x="5px" y="11px" /><rect fill="rgb(252,222,172)" height="1px" width="1px" x="6px" y="11px" /><rect fill="rgb(252,158,12)" height="1px" width="1px" x="7px" y="11px" /><rect fill="rgb(252,250,236)" height="1px" width="1px" x="8px" y="11px" /><rect fill="rgb(252,254,252)" height="1px" width="1px" x="9px" y="11px" /><rect fill="rgb(252,162,20)" height="1px" width="1px" x="10px" y="11px" /><rect fill="rgb(252,230,188)" height="1px" width="1px" x="11px" y="11px" /><rect fill="rgb(252,254,252)" height="1px" width="1px" x="12px" y="11px" /><rect fill="rgb(252,218,156)" height="1px" width="1px" x="13px" y="11px" /><rect fill="rgb(252,158,4)" height="1px" width="1px" x="14px" y="11px" /><rect fill="rgb(164,126,60)" height="1px" width="1px" x="15px" y="11px" /><rect fill="rgb(164,126,60)" height="1px" width="1px" x="0px" y="12px" /><rect fill="rgb(252,162,4)" height="1px" width="1px" x="1px" y="12px" /><rect fill="rgb(252,198,108)" height="1px" width="1px" x="2px" y="12px" /><rect fill="rgb(252,202,116)" height="1px" width="1px" x="3px" y="12px" /><rect fill="rgb(252,202,116)" height="1px" width="1px" x="4px" y="12px" /><rect fill="rgb(252,206,124)" height="1px" width="1px" x="5px" y="12px" /><rect fill="rgb(252,194,100)" height="1px" width="1px" x="6px" y="12px" /><rect fill="rgb(252,166,20)" height="1px" width="1px" x="7px" y="12px" /><rect fill="rgb(252,206,124)" height="1px" width="1px" x="8px" y="12px" /><rect fill="rgb(252,194,100)" height="1px" width="1px" x="9px" y="12px" /><rect fill="rgb(252,154,4)" height="1px" width="1px" x="10px" y="12px" /><rect fill="rgb(252,174,52)" height="1px" width="1px" x="11px" y="12px" /><rect fill="rgb(252,206,124)" height="1px" width="1px" x="12px" y="12px" /><rect fill="rgb(252,194,100)" height="1px" width="1px" x="13px" y="12px" /><rect fill="rgb(252,162,4)" height="1px" width="1px" x="14px" y="12px" /><rect fill="rgb(164,126,60)" height="1px" width="1px" x="15px" y="12px" /><rect fill="rgb(108,102,100)" height="1px" width="1px" x="0px" y="13px" /><rect fill="rgb(228,146,20)" height="1px" width="1px" x="1px" y="13px" /><rect fill="rgb(220,142,20)" height="1px" width="1px" x="2px" y="13px" /><rect fill="rgb(220,142,20)" height="1px" width="1px" x="3px" y="13px" /><rect fill="rgb(220,142,20)" height="1px" width="1px" x="4px" y="13px" /><rect fill="rgb(220,142,20)" height="1px" width="1px" x="5px" y="13px" /><rect fill="rgb(220,142,20)" height="1px" width="1px" x="6px" y="13px" /><rect fill="rgb(220,142,20)" height="1px" width="1px" x="7px" y="13px" /><rect fill="rgb(220,142,20)" height="1px" width="1px" x="8px" y="13px" /><rect fill="rgb(220,146,20)" height="1px" width="1px" x="9px" y="13px" /><rect fill="rgb(220,146,28)" height="1px" width="1px" x="10px" y="13px" /><rect fill="rgb(220,146,28)" height="1px" width="1px" x="11px" y="13px" /><rect fill="rgb(220,142,20)" height="1px" width="1px" x="12px" y="13px" /><rect fill="rgb(220,146,20)" height="1px" width="1px" x="13px" y="13px" /><rect fill="rgb(228,146,20)" height="1px" width="1px" x="14px" y="13px" /><rect fill="rgb(108,102,100)" height="1px" width="1px" x="15px" y="13px" /><rect fill="rgb(76,90,116)" height="1px" width="1px" x="0px" y="14px" /><rect fill="rgb(68,86,124)" height="1px" width="1px" x="1px" y="14px" /><rect fill="rgb(60,86,124)" height="1px" width="1px" x="2px" y="14px" /><rect fill="rgb(60,86,124)" height="1px" width="1px" x="3px" y="14px" /><rect fill="rgb(60,86,124)" height="1px" width="1px" x="4px" y="14px" /><rect fill="rgb(60,86,124)" height="1px" width="1px" x="5px" y="14px" /><rect fill="rgb(60,86,124)" height="1px" width="1px" x="6px" y="14px" /><rect fill="rgb(60,86,124)" height="1px" width="1px" x="7px" y="14px" /><rect fill="rgb(60,86,124)" height="1px" width="1px" x="8px" y="14px" /><rect fill="rgb(60,86,124)" height="1px" width="1px" x="9px" y="14px" /><rect fill="rgb(60,86,124)" height="1px" width="1px" x="10px" y="14px" /><rect fill="rgb(60,86,124)" height="1px" width="1px" x="11px" y="14px" /><rect fill="rgb(60,86,124)" height="1px" width="1px" x="12px" y="14px" /><rect fill="rgb(60,86,124)" height="1px" width="1px" x="13px" y="14px" /><rect fill="rgb(68,86,124)" height="1px" width="1px" x="14px" y="14px" /><rect fill="rgb(76,90,116)" height="1px" width="1px" x="15px" y="14px" /><rect fill="rgb(76,90,116)" height="1px" width="1px" x="0px" y="15px" /><rect fill="rgb(76,90,116)" height="1px" width="1px" x="1px" y="15px" /><rect fill="rgb(76,90,116)" height="1px" width="1px" x="2px" y="15px" /><rect fill="rgb(76,90,116)" height="1px" width="1px" x="3px" y="15px" /><rect fill="rgb(76,90,116)" height="1px" width="1px" x="4px" y="15px" /><rect fill="rgb(76,90,116)" height="1px" width="1px" x="5px" y="15px" /><rect fill="rgb(76,90,116)" height="1px" width="1px" x="6px" y="15px" /><rect fill="rgb(76,90,116)" height="1px" width="1px" x="7px" y="15px" /><rect fill="rgb(76,90,116)" height="1px" width="1px" x="8px" y="15px" /><rect fill="rgb(76,90,116)" height="1px" width="1px" x="9px" y="15px" /><rect fill="rgb(76,90,116)" height="1px" width="1px" x="10px" y="15px" /><rect fill="rgb(76,90,116)" height="1px" width="1px" x="11px" y="15px" /><rect fill="rgb(76,90,116)" height="1px" width="1px" x="12px" y="15px" /><rect fill="rgb(76,90,116)" height="1px" width="1px" x="13px" y="15px" /><rect fill="rgb(76,90,116)" height="1px" width="1px" x="14px" y="15px" /><rect fill="rgb(76,90,116)" height="1px" width="1px" x="15px" y="15px" /></svg>